<svg width="333" height="753" viewBox="0 0 333 753" fill="none" xmlns="http://www.w3.org/2000/svg">
<path d="M80.3659 495.186V589.209C80.3659 592.304 77.8572 594.813 74.7626 594.813H50.326C47.2314 594.813 44.7227 597.321 44.7227 600.416V736.918C44.7227 740.013 47.2314 742.522 50.326 742.522H94.6155C97.7102 742.522 100.219 740.013 100.219 736.918V718.723C100.219 715.629 102.728 713.12 105.822 713.12H164.513" stroke="#AD6DE7" stroke-width="4.20251"/>
<path d="M198.238 666.258C198.238 663.389 200.564 661.062 203.434 661.062H232.936C235.806 661.062 238.132 663.389 238.132 666.258V669.289H198.238V666.258Z" fill="#C4C4C4"/>
<path d="M198.238 666.258C198.238 663.389 200.564 661.062 203.434 661.062H232.936C235.806 661.062 238.132 663.389 238.132 666.258V669.289H198.238V666.258Z" fill="#1C0040"/>
<path d="M198.238 666.258C198.238 663.389 200.564 661.062 203.434 661.062H232.936C235.806 661.062 238.132 663.389 238.132 666.258V669.289H198.238V666.258Z" stroke="white" stroke-width="2.10126"/>
<path d="M213.446 627.843H222.924L228.119 661.062H208.25L213.446 627.843Z" fill="#C4C4C4"/>
<path d="M213.446 627.843H222.924L228.119 661.062H208.25L213.446 627.843Z" fill="#1C0040"/>
<path d="M213.446 627.843H222.924L228.119 661.062H208.25L213.446 627.843Z" stroke="white" stroke-width="2.10126"/>
<path fill-rule="evenodd" clip-rule="evenodd" d="M209.224 597.995C209.224 585.518 219.339 575.403 231.815 575.403H258.162C270.639 575.403 280.754 585.518 280.754 597.995V609.359C280.754 621.836 270.639 631.95 258.162 631.95H231.815C219.339 631.95 209.224 621.836 209.224 609.359V597.995ZM231.815 589.412C227.075 589.412 223.233 593.254 223.233 597.995V609.359C223.233 614.099 227.075 617.942 231.815 617.942H258.162C262.903 617.942 266.745 614.099 266.745 609.359V597.995C266.745 593.254 262.903 589.412 258.162 589.412H231.815Z" fill="#C4C4C4"/>
<path fill-rule="evenodd" clip-rule="evenodd" d="M209.224 597.995C209.224 585.518 219.339 575.403 231.815 575.403H258.162C270.639 575.403 280.754 585.518 280.754 597.995V609.359C280.754 621.836 270.639 631.95 258.162 631.95H231.815C219.339 631.95 209.224 621.836 209.224 609.359V597.995ZM231.815 589.412C227.075 589.412 223.233 593.254 223.233 597.995V609.359C223.233 614.099 227.075 617.942 231.815 617.942H258.162C262.903 617.942 266.745 614.099 266.745 609.359V597.995C266.745 593.254 262.903 589.412 258.162 589.412H231.815Z" fill="#1C0040"/>
<path fill-rule="evenodd" clip-rule="evenodd" d="M152.773 597.995C152.773 585.518 162.888 575.404 175.365 575.404H201.712C214.188 575.404 224.303 585.518 224.303 597.995V609.36C224.303 621.836 214.188 631.951 201.712 631.951H175.365C162.888 631.951 152.773 621.836 152.773 609.36V597.995ZM175.365 589.412C170.625 589.412 166.782 593.255 166.782 597.995V609.36C166.782 614.1 170.625 617.942 175.365 617.942H201.712C206.452 617.942 210.295 614.1 210.295 609.36V597.995C210.295 593.255 206.452 589.412 201.712 589.412H175.365Z" fill="#C4C4C4"/>
<path fill-rule="evenodd" clip-rule="evenodd" d="M152.773 597.995C152.773 585.518 162.888 575.404 175.365 575.404H201.712C214.188 575.404 224.303 585.518 224.303 597.995V609.36C224.303 621.836 214.188 631.951 201.712 631.951H175.365C162.888 631.951 152.773 621.836 152.773 609.36V597.995ZM175.365 589.412C170.625 589.412 166.782 593.255 166.782 597.995V609.36C166.782 614.1 170.625 617.942 175.365 617.942H201.712C206.452 617.942 210.295 614.1 210.295 609.36V597.995C210.295 593.255 206.452 589.412 201.712 589.412H175.365Z" fill="#1C0040"/>
<path fill-rule="evenodd" clip-rule="evenodd" d="M209.224 597.995C209.224 585.518 219.339 575.403 231.815 575.403H258.162C270.639 575.403 280.754 585.518 280.754 597.995V609.359C280.754 621.836 270.639 631.95 258.162 631.95H231.815C219.339 631.95 209.224 621.836 209.224 609.359V597.995ZM231.815 589.412C227.075 589.412 223.233 593.254 223.233 597.995V609.359C223.233 614.099 227.075 617.942 231.815 617.942H258.162C262.903 617.942 266.745 614.099 266.745 609.359V597.995C266.745 593.254 262.903 589.412 258.162 589.412H231.815Z" stroke="white" stroke-width="2.10126"/>
<path fill-rule="evenodd" clip-rule="evenodd" d="M152.773 597.995C152.773 585.518 162.888 575.404 175.365 575.404H201.712C214.188 575.404 224.303 585.518 224.303 597.995V609.36C224.303 621.836 214.188 631.951 201.712 631.951H175.365C162.888 631.951 152.773 621.836 152.773 609.36V597.995ZM175.365 589.412C170.625 589.412 166.782 593.255 166.782 597.995V609.36C166.782 614.1 170.625 617.942 175.365 617.942H201.712C206.452 617.942 210.295 614.1 210.295 609.36V597.995C210.295 593.255 206.452 589.412 201.712 589.412H175.365Z" stroke="white" stroke-width="2.10126"/>
<path d="M216.765 647.421C238.412 647.421 255.96 629.873 255.96 608.226V570.369H177.57V608.226C177.57 629.873 195.118 647.421 216.765 647.421Z" fill="#C4C4C4"/>
<path d="M216.765 647.421C238.412 647.421 255.96 629.873 255.96 608.226V570.369H177.57V608.226C177.57 629.873 195.118 647.421 216.765 647.421Z" fill="#1C0040"/>
<path d="M216.765 647.421C238.412 647.421 255.96 629.873 255.96 608.226V570.369H177.57V608.226C177.57 629.873 195.118 647.421 216.765 647.421Z" stroke="white" stroke-width="2.10126"/>
<rect x="171.637" y="557.873" width="89.1869" height="12.495" rx="6.2475" fill="#C4C4C4"/>
<rect x="171.637" y="557.873" width="89.1869" height="12.495" rx="6.2475" fill="#1C0040"/>
<rect x="171.637" y="557.873" width="89.1869" height="12.495" rx="6.2475" stroke="white" stroke-width="2.10126"/>
<rect x="171.637" y="557.873" width="89.1869" height="12.495" rx="6.2475" stroke="white" stroke-width="2.10126"/>
<path d="M183.336 679.68C183.336 673.941 187.988 669.289 193.727 669.289H242.642C248.381 669.289 253.033 673.941 253.033 679.68V688.537H183.336V679.68Z" fill="#C4C4C4"/>
<path d="M183.336 679.68C183.336 673.941 187.988 669.289 193.727 669.289H242.642C248.381 669.289 253.033 673.941 253.033 679.68V688.537H183.336V679.68Z" fill="#1C0040"/>
<path d="M183.336 679.68C183.336 673.941 187.988 669.289 193.727 669.289H242.642C248.381 669.289 253.033 673.941 253.033 679.68V688.537H183.336V679.68Z" stroke="white" stroke-width="2.10126" stroke-linejoin="round"/>
<rect x="162.895" y="688.74" width="106.677" height="62.9497" rx="2.10126" fill="#1C0040" stroke="white" stroke-width="2.10126"/>
<rect x="192.758" y="704.35" width="48.0202" height="31.7298" rx="1.40084" fill="#641C67" stroke="#FF5CAA" stroke-width="2.10126" stroke-linejoin="round"/>
<path d="M202.646 720.699L208.598 716.754C208.915 716.536 209.183 716.302 209.183 715.868C209.166 715.4 208.782 714.965 208.297 714.965C208.046 714.965 207.812 715.082 207.611 715.216L200.724 719.796C200.356 720.03 200.088 720.231 200.105 720.699C200.105 721.184 200.356 721.368 200.724 721.602L207.595 726.166C207.795 726.3 208.029 726.45 208.314 726.45C208.782 726.45 209.183 725.999 209.183 725.531C209.166 725.113 208.966 724.895 208.631 724.678L202.646 720.699ZM220.613 716.018C220.714 715.834 220.797 715.634 220.797 715.366C220.797 714.931 220.413 714.58 219.978 714.58C219.56 714.58 219.36 714.881 219.159 715.216L212.906 725.932C212.739 726.199 212.539 726.484 212.539 726.801C212.539 727.236 212.957 727.587 213.375 727.587C213.793 727.587 213.993 727.353 214.194 727.002L220.613 716.018ZM224.722 724.678C224.387 724.895 224.187 725.113 224.17 725.531C224.17 725.999 224.571 726.45 225.039 726.45C225.323 726.45 225.557 726.3 225.758 726.166L232.629 721.602C232.997 721.368 233.248 721.184 233.248 720.699C233.264 720.231 232.997 720.03 232.629 719.796L225.741 715.216C225.541 715.082 225.307 714.965 225.056 714.965C224.571 714.965 224.187 715.4 224.17 715.868C224.17 716.302 224.437 716.536 224.755 716.754L230.707 720.699L224.722 724.678Z" fill="#FF5CAA"/>
<path d="M121.279 566.078C124.501 561.476 128.694 548.685 119.696 534.339C125.36 540.35 139.39 550.222 150.191 541.624C146.433 546.69 141.655 559.218 150.759 570.629C151.395 571.289 151.954 571.934 152.429 572.541C151.827 571.908 151.271 571.27 150.759 570.629C145.158 564.814 133.612 557.88 121.279 566.078Z" fill="#FFDA58"/>
<path d="M237.682 519.754C243.276 519.239 255.748 514.176 260.885 498.039C259.957 506.247 261.486 523.333 275.026 526.022C268.732 526.427 256.082 530.874 253.255 545.195C253.162 546.107 253.031 546.95 252.874 547.705C252.968 546.837 253.096 546 253.255 545.195C254.074 537.163 251.908 523.871 237.682 519.754Z" fill="#FFDA58"/>
<path d="M300.161 566.427C304.111 564.959 312.151 558.849 312.71 546.157C313.646 552.282 318.1 564.357 328.433 563.651C323.954 565.178 315.664 570.876 316.422 581.801C316.533 582.48 316.604 583.116 316.638 583.694C316.536 583.046 316.465 582.416 316.422 581.801C315.442 575.824 311.269 566.622 300.161 566.427Z" fill="#FF5C97"/>
<rect x="40.4611" y="1.32535" width="201.545" height="160.111" rx="5.32202" fill="#1A003C" stroke="#F0EEFF" stroke-width="2.10126"/>
<rect x="174.156" y="63.8453" width="35.0209" height="35.0209" rx="6.30377" fill="#641C67" stroke="#FF5CAA" stroke-width="2.10126"/>
<path fill-rule="evenodd" clip-rule="evenodd" d="M182.474 74.2054C182.474 75.5394 183.327 76.6742 184.517 77.0961V85.6149C183.835 85.8559 183.26 86.3301 182.894 86.9538C182.528 87.5775 182.395 88.3105 182.517 89.0233C182.639 89.736 183.009 90.3826 183.562 90.8487C184.115 91.3148 184.815 91.5704 185.538 91.5704C186.261 91.5704 186.961 91.3148 187.514 90.8487C188.067 90.3826 188.437 89.736 188.559 89.0233C188.681 88.3105 188.548 87.5775 188.182 86.9538C187.816 86.3301 187.241 85.8559 186.559 85.6149V80.7426C187.526 82.0801 188.772 83.1907 190.212 83.997C191.651 84.8032 193.249 85.2856 194.894 85.4106C195.13 86.0969 195.6 86.6776 196.223 87.0493C196.846 87.4211 197.581 87.5599 198.297 87.441C199.012 87.3222 199.663 86.9534 200.132 86.4002C200.601 85.847 200.859 85.1453 200.86 84.4198C200.86 83.7 200.607 83.0029 200.145 82.4508C199.684 81.8987 199.042 81.5269 198.333 81.4005C197.625 81.2741 196.894 81.4013 196.27 81.7597C195.645 82.1181 195.167 82.6849 194.919 83.3606C193.176 83.2038 191.512 82.5581 190.12 81.4978C188.727 80.4374 187.662 79.0055 187.048 77.3668L186.894 76.9541C187.384 76.7123 187.801 76.3439 188.1 75.8871C188.4 75.4303 188.572 74.9017 188.599 74.356C188.625 73.8103 188.506 73.2675 188.252 72.7836C187.998 72.2997 187.62 71.8925 187.156 71.604C186.692 71.3156 186.159 71.1564 185.613 71.143C185.067 71.1295 184.527 71.2623 184.05 71.5277C183.572 71.793 183.174 72.1811 182.897 72.6519C182.62 73.1228 182.474 73.6591 182.474 74.2054ZM185.538 87.4842C185.267 87.4842 185.007 87.5918 184.816 87.7833C184.624 87.9749 184.517 88.2347 184.517 88.5056C184.517 88.7765 184.624 89.0363 184.816 89.2279C185.007 89.4194 185.267 89.5271 185.538 89.5271C185.809 89.5271 186.069 89.4194 186.26 89.2279C186.452 89.0363 186.559 88.7765 186.559 88.5056C186.559 88.2347 186.452 87.9749 186.26 87.7833C186.069 87.5918 185.809 87.4842 185.538 87.4842ZM196.774 84.4198C196.774 84.1489 196.882 83.8891 197.073 83.6976C197.265 83.506 197.524 83.3984 197.795 83.3984C198.066 83.3984 198.326 83.506 198.518 83.6976C198.709 83.8891 198.817 84.1489 198.817 84.4198C198.817 84.6907 198.709 84.9505 198.518 85.1421C198.326 85.3337 198.066 85.4413 197.795 85.4413C197.524 85.4413 197.265 85.3337 197.073 85.1421C196.882 84.9505 196.774 84.6907 196.774 84.4198ZM184.517 74.2054C184.517 73.9345 184.624 73.6747 184.816 73.4831C185.007 73.2916 185.267 73.184 185.538 73.184C185.809 73.184 186.069 73.2916 186.26 73.4831C186.452 73.6747 186.559 73.9345 186.559 74.2054C186.559 74.4763 186.452 74.7361 186.26 74.9277C186.069 75.1192 185.809 75.2268 185.538 75.2268C185.267 75.2268 185.007 75.1192 184.816 74.9277C184.624 74.7361 184.517 74.4763 184.517 74.2054Z" fill="#FF5CAA"/>
<rect x="123.723" y="64.362" width="35.0209" height="35.0209" rx="6.30377" fill="#3E176C" stroke="#AD6DE7" stroke-width="2.10126"/>
<path fill-rule="evenodd" clip-rule="evenodd" d="M143.846 72.38L142.525 73.7007H143.124C144.749 73.7007 146.308 74.3464 147.457 75.4958C148.607 76.6451 149.252 78.204 149.252 79.8294V86.1317C149.934 86.3727 150.509 86.8469 150.875 87.4706C151.241 88.0943 151.374 88.8273 151.252 89.5401C151.13 90.2528 150.76 90.8993 150.207 91.3655C149.654 91.8316 148.954 92.0872 148.231 92.0872C147.508 92.0872 146.808 91.8316 146.255 91.3655C145.702 90.8993 145.332 90.2528 145.21 89.5401C145.087 88.8273 145.221 88.0943 145.587 87.4706C145.953 86.8469 146.528 86.3727 147.209 86.1317V79.8294C147.209 78.7458 146.779 77.7066 146.013 76.9403C145.246 76.1741 144.207 75.7436 143.124 75.7436H142.525L143.846 77.0644C144.032 77.257 144.135 77.515 144.132 77.7828C144.13 78.0507 144.023 78.3068 143.833 78.4962C143.644 78.6856 143.388 78.793 143.12 78.7954C142.852 78.7977 142.594 78.6947 142.401 78.5087L139.337 75.4443C139.146 75.2528 139.038 74.993 139.038 74.7222C139.038 74.4513 139.146 74.1916 139.337 74L142.401 70.9357C142.496 70.8381 142.608 70.7603 142.733 70.7068C142.858 70.6533 142.992 70.6251 143.127 70.6239C143.263 70.6227 143.397 70.6486 143.523 70.6999C143.648 70.7513 143.763 70.8271 143.858 70.923C143.954 71.0189 144.03 71.133 144.082 71.2585C144.133 71.384 144.159 71.5185 144.158 71.6542C144.156 71.7898 144.128 71.9238 144.075 72.0485C144.021 72.1731 143.943 72.2858 143.846 72.38ZM147.209 89.0224C147.209 88.7515 147.317 88.4917 147.509 88.3001C147.7 88.1086 147.96 88.001 148.231 88.001C148.502 88.001 148.762 88.1086 148.953 88.3001C149.145 88.4917 149.252 88.7515 149.252 89.0224C149.252 89.2933 149.145 89.5531 148.953 89.7447C148.762 89.9362 148.502 90.0438 148.231 90.0438C147.96 90.0438 147.7 89.9362 147.509 89.7447C147.317 89.5531 147.209 89.2933 147.209 89.0224ZM134.952 73.7007C134.681 73.7007 134.421 73.8084 134.23 73.9999C134.038 74.1915 133.931 74.4513 133.931 74.7222C133.931 74.9931 134.038 75.2529 134.23 75.4445C134.421 75.636 134.681 75.7436 134.952 75.7436C135.223 75.7436 135.483 75.636 135.674 75.4445C135.866 75.2529 135.974 74.9931 135.974 74.7222C135.974 74.4513 135.866 74.1915 135.674 73.9999C135.483 73.8084 135.223 73.7007 134.952 73.7007ZM135.974 77.6129C136.655 77.3719 137.23 76.8977 137.596 76.274C137.962 75.6503 138.096 74.9173 137.973 74.2045C137.851 73.4918 137.481 72.8452 136.928 72.3791C136.375 71.913 135.675 71.6574 134.952 71.6574C134.229 71.6574 133.529 71.913 132.976 72.3791C132.423 72.8452 132.053 73.4918 131.931 74.2045C131.809 74.9173 131.942 75.6503 132.308 76.274C132.674 76.8977 133.249 77.3719 133.931 77.6129V86.1317C133.249 86.3727 132.674 86.8469 132.308 87.4706C131.942 88.0943 131.809 88.8273 131.931 89.5401C132.053 90.2528 132.423 90.8993 132.976 91.3655C133.529 91.8316 134.229 92.0872 134.952 92.0872C135.675 92.0872 136.375 91.8316 136.928 91.3655C137.481 90.8993 137.851 90.2528 137.973 89.5401C138.096 88.8273 137.962 88.0943 137.596 87.4706C137.23 86.8469 136.655 86.3727 135.974 86.1317V77.6129ZM134.952 88.001C134.681 88.001 134.421 88.1086 134.23 88.3001C134.038 88.4917 133.931 88.7515 133.931 89.0224C133.931 89.2933 134.038 89.5531 134.23 89.7447C134.421 89.9362 134.681 90.0438 134.952 90.0438C135.223 90.0438 135.483 89.9362 135.674 89.7447C135.866 89.5531 135.974 89.2933 135.974 89.0224C135.974 88.7515 135.866 88.4917 135.674 88.3001C135.483 88.1086 135.223 88.001 134.952 88.001Z" fill="#AD6DE7"/>
<rect x="73.2969" y="64.362" width="35.0209" height="35.0209" rx="6.30377" fill="#2F1979" stroke="#4F55E3" stroke-width="2.10126"/>
<path fill-rule="evenodd" clip-rule="evenodd" d="M92.5528 70.9356C92.3613 70.7441 92.1015 70.6365 91.8307 70.6365C91.5598 70.6365 91.3 70.7441 91.1085 70.9356L88.0442 73.9999C87.8527 74.1915 87.7451 74.4512 87.7451 74.7221C87.7451 74.9929 87.8527 75.2527 88.0442 75.4442L91.1085 78.5086C91.2027 78.6061 91.3154 78.6839 91.4401 78.7375C91.5647 78.791 91.6987 78.8192 91.8343 78.8204C91.97 78.8215 92.1045 78.7957 92.23 78.7443C92.3555 78.693 92.4696 78.6171 92.5655 78.5212C92.6614 78.4253 92.7372 78.3113 92.7886 78.1857C92.84 78.0602 92.8658 77.9257 92.8646 77.7901C92.8634 77.6544 92.8353 77.5204 92.7817 77.3958C92.7282 77.2712 92.6504 77.1585 92.5528 77.0642L91.2321 75.7435H92.8521C93.9357 75.7435 94.975 76.174 95.7412 76.9402C96.5074 77.7064 96.9379 78.7457 96.9379 79.8293V86.1316C96.2561 86.3726 95.6814 86.8468 95.3155 87.4705C94.9495 88.0942 94.8158 88.8272 94.9381 89.5399C95.0603 90.2527 95.4306 90.8992 95.9835 91.3653C96.5363 91.8315 97.2362 92.0871 97.9593 92.0871C98.6825 92.0871 99.3823 91.8315 99.9352 91.3653C100.488 90.8992 100.858 90.2527 100.981 89.5399C101.103 88.8272 100.969 88.0942 100.603 87.4705C100.237 86.8468 99.6626 86.3726 98.9808 86.1316V79.8293C98.9808 78.2039 98.3351 76.645 97.1857 75.4957C96.0364 74.3463 94.4775 73.7006 92.8521 73.7006H91.2321L92.5528 72.3799C92.7443 72.1883 92.8519 71.9286 92.8519 71.6577C92.8519 71.3869 92.7443 71.1271 92.5528 70.9356ZM97.9593 88.0008C97.6884 88.0008 97.4286 88.1084 97.2371 88.3C97.0455 88.4916 96.9379 88.7514 96.9379 89.0223C96.9379 89.2932 97.0455 89.553 97.2371 89.7445C97.4286 89.9361 97.6884 90.0437 97.9593 90.0437C98.2302 90.0437 98.49 89.9361 98.6816 89.7445C98.8732 89.553 98.9808 89.2932 98.9808 89.0223C98.9808 88.7514 98.8732 88.4916 98.6816 88.3C98.49 88.1084 98.2302 88.0008 97.9593 88.0008ZM83.6591 75.7435C83.93 75.7435 84.1898 75.6359 84.3814 75.4443C84.5729 75.2528 84.6806 74.993 84.6806 74.7221C84.6806 74.4512 84.5729 74.1914 84.3814 73.9998C84.1898 73.8082 83.93 73.7006 83.6591 73.7006C83.3882 73.7006 83.1284 73.8082 82.9368 73.9998C82.7453 74.1914 82.6377 74.4512 82.6377 74.7221C82.6377 74.993 82.7453 75.2528 82.9368 75.4443C83.1284 75.6359 83.3882 75.7435 83.6591 75.7435ZM84.6806 77.6127C85.3624 77.3718 85.937 76.8975 86.303 76.2738C86.6689 75.6501 86.8026 74.9171 86.6803 74.2044C86.5581 73.4917 86.1878 72.8451 85.635 72.379C85.0821 71.9129 84.3822 71.6572 83.6591 71.6572C82.936 71.6572 82.2361 71.9129 81.6833 72.379C81.1304 72.8451 80.7601 73.4917 80.6379 74.2044C80.5156 74.9171 80.6493 75.6501 81.0152 76.2738C81.3812 76.8975 81.9559 77.3718 82.6377 77.6127V83.9151C82.6377 85.5405 83.2834 87.0993 84.4327 88.2487C85.5821 89.398 87.1409 90.0437 88.7663 90.0437H90.3863L89.0656 91.3644C88.9681 91.4587 88.8902 91.5714 88.8367 91.696C88.7832 91.8206 88.755 91.9547 88.7538 92.0903C88.7526 92.2259 88.7785 92.3604 88.8298 92.4859C88.8812 92.6115 88.957 92.7255 89.053 92.8214C89.1489 92.9173 89.2629 92.9932 89.3884 93.0445C89.514 93.0959 89.6485 93.1217 89.7841 93.1206C89.9197 93.1194 90.0538 93.0912 90.1784 93.0377C90.303 92.9841 90.4157 92.9063 90.5099 92.8088L93.5743 89.7444C93.7658 89.5529 93.8733 89.2931 93.8733 89.0223C93.8733 88.7514 93.7658 88.4917 93.5743 88.3001L90.5099 85.2358C90.3173 85.0497 90.0593 84.9468 89.7914 84.9491C89.5236 84.9514 89.2674 85.0588 89.0781 85.2482C88.8887 85.4376 88.7812 85.6938 88.7789 85.9616C88.7766 86.2294 88.8795 86.4875 89.0656 86.6801L90.3863 88.0008H88.7663C87.6827 88.0008 86.6435 87.5704 85.8772 86.8041C85.111 86.0379 84.6806 84.9987 84.6806 83.9151V77.6127Z" fill="#4F55E3"/>
<rect x="108.406" y="135.109" width="201.545" height="200.731" rx="5.32202" fill="#1A003C" stroke="#F0EEFF" stroke-width="2.10126"/>
<circle cx="122.406" cy="151.847" r="4.5781" fill="#FF5C97"/>
<circle cx="137.969" cy="151.847" r="4.5781" fill="#AD6DE7"/>
<circle cx="153.535" cy="151.847" r="4.5781" fill="#4F55E3"/>
<path d="M109.457 168.81H308.901" stroke="#F0EEFF" stroke-width="2.10126"/>
<path d="M195.889 195.832C198.828 195.832 201.211 198.214 201.211 201.154V233.809V240.524C201.211 242.073 199.399 242.914 198.215 241.915L191.925 236.609C190.586 235.479 188.89 234.859 187.138 234.859H142.33C139.391 234.859 137.008 232.477 137.008 229.537V201.154C137.008 198.214 139.391 195.832 142.33 195.832H195.889Z" fill="#1C0040"/>
<path d="M195.889 195.832C198.828 195.832 201.211 198.214 201.211 201.154V233.809V240.524C201.211 242.073 199.399 242.914 198.215 241.915L191.925 236.609C190.586 235.479 188.89 234.859 187.138 234.859H142.33C139.391 234.859 137.008 232.477 137.008 229.537V201.154C137.008 198.214 139.391 195.832 142.33 195.832H195.889Z" fill="#641C67"/>
<path d="M195.889 195.832C198.828 195.832 201.211 198.214 201.211 201.154V233.809V240.524C201.211 242.073 199.399 242.914 198.215 241.915L191.925 236.609C190.586 235.479 188.89 234.859 187.138 234.859H142.33C139.391 234.859 137.008 232.477 137.008 229.537V201.154C137.008 198.214 139.391 195.832 142.33 195.832H195.889Z" stroke="#FF5CAA" stroke-width="2.10126"/>
<path d="M151.078 206.861H187.135" stroke="#FF5CAA" stroke-width="2.10126" stroke-linecap="round"/>
<path d="M151.078 215.515H187.135" stroke="#FF5CAA" stroke-width="2.10126" stroke-linecap="round"/>
<path d="M151.078 224.169H178.569" stroke="#FF5CAA" stroke-width="2.10126" stroke-linecap="round"/>
<path d="M222.467 230.757C219.527 230.757 217.145 233.139 217.145 236.079V268.734V275.448C217.145 276.998 218.956 277.839 220.14 276.84L226.43 271.534C227.769 270.404 229.465 269.784 231.217 269.784H276.025C278.964 269.784 281.347 267.401 281.347 264.462V236.079C281.347 233.139 278.964 230.757 276.025 230.757H222.467Z" fill="#1C0040"/>
<path d="M222.467 230.757C219.527 230.757 217.145 233.139 217.145 236.079V268.734V275.448C217.145 276.998 218.956 277.839 220.14 276.84L226.43 271.534C227.769 270.404 229.465 269.784 231.217 269.784H276.025C278.964 269.784 281.347 267.401 281.347 264.462V236.079C281.347 233.139 278.964 230.757 276.025 230.757H222.467Z" fill="#641C67"/>
<path d="M222.467 230.757C219.527 230.757 217.145 233.139 217.145 236.079V268.734V275.448C217.145 276.998 218.956 277.839 220.14 276.84L226.43 271.534C227.769 270.404 229.465 269.784 231.217 269.784H276.025C278.964 269.784 281.347 267.401 281.347 264.462V236.079C281.347 233.139 278.964 230.757 276.025 230.757H222.467Z" fill="#3E176C"/>
<path d="M222.467 230.757C219.527 230.757 217.145 233.139 217.145 236.079V268.734V275.448C217.145 276.998 218.956 277.839 220.14 276.84L226.43 271.534C227.769 270.404 229.465 269.784 231.217 269.784H276.025C278.964 269.784 281.347 267.401 281.347 264.462V236.079C281.347 233.139 278.964 230.757 276.025 230.757H222.467Z" stroke="#AD6DE7" stroke-width="2.10126"/>
<path d="M258.287 249.082C259.365 249.704 259.365 251.26 258.287 251.882L245.601 259.207C244.523 259.829 243.176 259.051 243.176 257.806L243.176 243.158C243.176 241.913 244.523 241.135 245.601 241.757L258.287 249.082Z" fill="#AD6DE7"/>
<path d="M195.893 263.225C198.832 263.225 201.215 265.608 201.215 268.547V301.202V307.917C201.215 309.466 199.403 310.308 198.219 309.309L191.929 304.002C190.59 302.872 188.894 302.252 187.142 302.252H142.334C139.395 302.252 137.012 299.87 137.012 296.93V268.547C137.012 265.608 139.395 263.225 142.334 263.225H195.893Z" fill="#1C0040"/>
<path d="M195.893 263.225C198.832 263.225 201.215 265.608 201.215 268.547V301.202V307.917C201.215 309.466 199.403 310.308 198.219 309.309L191.929 304.002C190.59 302.872 188.894 302.252 187.142 302.252H142.334C139.395 302.252 137.012 299.87 137.012 296.93V268.547C137.012 265.608 139.395 263.225 142.334 263.225H195.893Z" fill="#641C67"/>
<path d="M195.893 263.225C198.832 263.225 201.215 265.608 201.215 268.547V301.202V307.917C201.215 309.466 199.403 310.308 198.219 309.309L191.929 304.002C190.59 302.872 188.894 302.252 187.142 302.252H142.334C139.395 302.252 137.012 299.87 137.012 296.93V268.547C137.012 265.608 139.395 263.225 142.334 263.225H195.893Z" fill="#2F1979"/>
<path d="M195.893 263.225C198.832 263.225 201.215 265.608 201.215 268.547V301.202V307.917C201.215 309.466 199.403 310.308 198.219 309.309L191.929 304.002C190.59 302.872 188.894 302.252 187.142 302.252H142.334C139.395 302.252 137.012 299.87 137.012 296.93V268.547C137.012 265.608 139.395 263.225 142.334 263.225H195.893Z" stroke="#4F55E3" stroke-width="2.10126"/>
<rect x="158.031" y="272.096" width="22.1594" height="22.1594" rx="11.0797" stroke="#4F55E3" stroke-width="2.10126"/>
<path d="M164.117 283.076L167.293 286.215L173.367 280.136" stroke="#4F55E3" stroke-width="2.10126" stroke-linecap="round" stroke-linejoin="round"/>
<path d="M113.552 501.337H44.1645C41.2246 501.337 38.8413 498.953 38.8413 496.013V413.142C38.8413 411.691 39.4333 410.304 40.4803 409.3L52.3187 397.948C53.3098 396.998 54.6298 396.467 56.0029 396.467H113.552C116.492 396.467 118.875 398.851 118.875 401.791V496.013C118.875 498.953 116.492 501.337 113.552 501.337Z" fill="#641C67" stroke="#FF5CAA" stroke-width="2.10126"/>
<path d="M101.153 491.289H31.7661C28.8261 491.289 26.4429 488.905 26.4429 485.966V403.094C26.4429 401.644 27.0349 400.256 28.0819 399.252L39.9203 387.9C40.9114 386.95 42.2314 386.42 43.6045 386.42H101.153C104.093 386.42 106.476 388.803 106.476 391.743V485.966C106.476 488.905 104.093 491.289 101.153 491.289Z" fill="#3E176C" stroke="#AD6DE7" stroke-width="2.10126"/>
<path d="M88.7548 481.241H19.3676C16.4277 481.241 14.0444 478.858 14.0444 475.918V393.047C14.0444 391.596 14.6364 390.208 15.6834 389.204L27.5219 377.853C28.513 376.903 29.8329 376.372 31.206 376.372H88.7548C91.6947 376.372 94.078 378.755 94.078 381.695V475.918C94.078 478.858 91.6947 481.241 88.7548 481.241Z" fill="#2F1979" stroke="#4F55E3" stroke-width="2.10126"/>
<path d="M76.3536 471.194H6.96412C4.02485 471.194 1.6421 468.811 1.6421 465.871V382.998C1.6421 381.548 2.23394 380.161 3.28074 379.157L15.1198 367.805C16.1107 366.855 17.4304 366.324 18.8032 366.324H76.3536C79.2929 366.324 81.6756 368.707 81.6756 371.646V465.871C81.6756 468.811 79.2929 471.194 76.3536 471.194Z" fill="#1A003C" stroke="#F0EEFF" stroke-width="2.10126"/>
<path d="M14.7734 402.194H68.5371" stroke="#FF5CAA" stroke-width="2.10126" stroke-linecap="round"/>
<path d="M14.7734 413.219H68.5371" stroke="#4F55E3" stroke-width="2.10126" stroke-linecap="round"/>
<path d="M14.7734 424.244H60.3758" stroke="#AD6DE7" stroke-width="2.10126" stroke-linecap="round"/>
<path d="M14.7734 435.269H68.5371" stroke="#FF5CAA" stroke-width="2.10126" stroke-linecap="round"/>
<path d="M14.7734 446.294H48.7301" stroke="#AD6DE7" stroke-width="2.10126" stroke-linecap="round"/>
<path d="M16.9141 366.761V379.175C16.9141 380.722 15.6597 381.977 14.1124 381.977H2.17919" stroke="#F0EEFF" stroke-width="2.10126"/>
<path d="M69.3419 162.105V270.922C69.3419 274.016 66.8332 276.525 63.7385 276.525H44.1776C41.0829 276.525 38.5742 279.034 38.5742 282.128V364.984" stroke="#4F55E3" stroke-width="4.20251"/>
<path d="M227.766 390.411C228.452 389.024 230.132 388.455 231.519 389.141L250.198 398.377C251.585 399.062 252.154 400.743 251.468 402.13L227.409 450.79C226.297 453.039 223.018 452.806 222.236 450.422L219.378 441.716C218.889 440.227 217.274 439.428 215.794 439.944L207.14 442.959C204.772 443.784 202.595 441.32 203.707 439.072L227.766 390.411Z" fill="#21004B"/>
<path d="M227.766 390.411C228.452 389.024 230.132 388.455 231.519 389.141L250.198 398.377C251.585 399.062 252.154 400.743 251.468 402.13L227.409 450.79C226.297 453.039 223.018 452.806 222.236 450.422L219.378 441.716C218.889 440.227 217.274 439.428 215.794 439.944L207.14 442.959C204.772 443.784 202.595 441.32 203.707 439.072L227.766 390.411Z" fill="#641C67"/>
<path d="M227.766 390.411C228.452 389.024 230.132 388.455 231.519 389.141L250.198 398.377C251.585 399.062 252.154 400.743 251.468 402.13L227.409 450.79C226.297 453.039 223.018 452.806 222.236 450.422L219.378 441.716C218.889 440.227 217.274 439.428 215.794 439.944L207.14 442.959C204.772 443.784 202.595 441.32 203.707 439.072L227.766 390.411Z" fill="#1C0040"/>
<path d="M227.766 390.411C228.452 389.024 230.132 388.455 231.519 389.141L250.198 398.377C251.585 399.062 252.154 400.743 251.468 402.13L227.409 450.79C226.297 453.039 223.018 452.806 222.236 450.422L219.378 441.716C218.889 440.227 217.274 439.428 215.794 439.944L207.14 442.959C204.772 443.784 202.595 441.32 203.707 439.072L227.766 390.411Z" stroke="white" stroke-width="2.10126"/>
<path d="M218.4 439.209L235.707 404.207" stroke="#FF5CAA" stroke-width="2.10126"/>
<path d="M277.652 390.411C276.966 389.024 275.286 388.455 273.899 389.141L255.22 398.377C253.833 399.062 253.264 400.743 253.95 402.13L278.009 450.79C279.12 453.039 282.4 452.806 283.182 450.422L286.04 441.716C286.529 440.227 288.144 439.428 289.624 439.944L298.278 442.959C300.646 443.784 302.823 441.32 301.711 439.072L277.652 390.411Z" fill="#21004B"/>
<path d="M277.652 390.411C276.966 389.024 275.286 388.455 273.899 389.141L255.22 398.377C253.833 399.062 253.264 400.743 253.95 402.13L278.009 450.79C279.12 453.039 282.4 452.806 283.182 450.422L286.04 441.716C286.529 440.227 288.144 439.428 289.624 439.944L298.278 442.959C300.646 443.784 302.823 441.32 301.711 439.072L277.652 390.411Z" fill="#641C67"/>
<path d="M277.652 390.411C276.966 389.024 275.286 388.455 273.899 389.141L255.22 398.377C253.833 399.062 253.264 400.743 253.95 402.13L278.009 450.79C279.12 453.039 282.4 452.806 283.182 450.422L286.04 441.716C286.529 440.227 288.144 439.428 289.624 439.944L298.278 442.959C300.646 443.784 302.823 441.32 301.711 439.072L277.652 390.411Z" fill="#1C0040"/>
<path d="M277.652 390.411C276.966 389.024 275.286 388.455 273.899 389.141L255.22 398.377C253.833 399.062 253.264 400.743 253.95 402.13L278.009 450.79C279.12 453.039 282.4 452.806 283.182 450.422L286.04 441.716C286.529 440.227 288.144 439.428 289.624 439.944L298.278 442.959C300.646 443.784 302.823 441.32 301.711 439.072L277.652 390.411Z" stroke="white" stroke-width="2.10126"/>
<path d="M287.377 439.209L270.07 404.207" stroke="#FF5CAA" stroke-width="2.10126"/>
<path d="M248.759 319.747C251.065 317.896 254.347 317.896 256.652 319.747L261.669 323.775C263.048 324.882 264.828 325.359 266.575 325.09L272.934 324.11C275.856 323.66 278.698 325.301 279.769 328.056L282.1 334.053C282.74 335.701 284.044 337.004 285.691 337.644L291.688 339.975C294.443 341.046 296.084 343.889 295.634 346.811L294.655 353.169C294.385 354.917 294.862 356.697 295.969 358.075L299.997 363.092C301.848 365.398 301.848 368.68 299.997 370.985L295.969 376.002C294.862 377.381 294.385 379.161 294.655 380.908L295.634 387.267C296.084 390.189 294.443 393.031 291.688 394.102L285.691 396.433C284.044 397.073 282.74 398.377 282.1 400.024L279.769 406.021C278.698 408.776 275.856 410.417 272.934 409.967L266.575 408.988C264.828 408.719 263.048 409.195 261.669 410.302L256.652 414.33C254.347 416.181 251.065 416.181 248.759 414.33L243.742 410.302C242.364 409.195 240.584 408.719 238.836 408.988L232.478 409.967C229.556 410.417 226.713 408.776 225.642 406.021L223.311 400.024C222.671 398.377 221.368 397.073 219.72 396.433L213.723 394.102C210.968 393.031 209.327 390.189 209.777 387.267L210.757 380.908C211.026 379.161 210.549 377.381 209.442 376.002L205.414 370.985C203.563 368.68 203.563 365.398 205.414 363.092L209.442 358.075C210.549 356.697 211.026 354.917 210.757 353.169L209.777 346.811C209.327 343.889 210.968 341.046 213.723 339.975L219.72 337.644C221.368 337.004 222.671 335.701 223.311 334.053L225.642 328.056C226.713 325.301 229.556 323.66 232.478 324.11L238.836 325.09C240.584 325.359 242.364 324.882 243.742 323.775L248.759 319.747Z" fill="#21004B"/>
<path d="M248.759 319.747C251.065 317.896 254.347 317.896 256.652 319.747L261.669 323.775C263.048 324.882 264.828 325.359 266.575 325.09L272.934 324.11C275.856 323.66 278.698 325.301 279.769 328.056L282.1 334.053C282.74 335.701 284.044 337.004 285.691 337.644L291.688 339.975C294.443 341.046 296.084 343.889 295.634 346.811L294.655 353.169C294.385 354.917 294.862 356.697 295.969 358.075L299.997 363.092C301.848 365.398 301.848 368.68 299.997 370.985L295.969 376.002C294.862 377.381 294.385 379.161 294.655 380.908L295.634 387.267C296.084 390.189 294.443 393.031 291.688 394.102L285.691 396.433C284.044 397.073 282.74 398.377 282.1 400.024L279.769 406.021C278.698 408.776 275.856 410.417 272.934 409.967L266.575 408.988C264.828 408.719 263.048 409.195 261.669 410.302L256.652 414.33C254.347 416.181 251.065 416.181 248.759 414.33L243.742 410.302C242.364 409.195 240.584 408.719 238.836 408.988L232.478 409.967C229.556 410.417 226.713 408.776 225.642 406.021L223.311 400.024C222.671 398.377 221.368 397.073 219.72 396.433L213.723 394.102C210.968 393.031 209.327 390.189 209.777 387.267L210.757 380.908C211.026 379.161 210.549 377.381 209.442 376.002L205.414 370.985C203.563 368.68 203.563 365.398 205.414 363.092L209.442 358.075C210.549 356.697 211.026 354.917 210.757 353.169L209.777 346.811C209.327 343.889 210.968 341.046 213.723 339.975L219.72 337.644C221.368 337.004 222.671 335.701 223.311 334.053L225.642 328.056C226.713 325.301 229.556 323.66 232.478 324.11L238.836 325.09C240.584 325.359 242.364 324.882 243.742 323.775L248.759 319.747Z" fill="#1C0040"/>
<path d="M248.759 319.747C251.065 317.896 254.347 317.896 256.652 319.747L261.669 323.775C263.048 324.882 264.828 325.359 266.575 325.09L272.934 324.11C275.856 323.66 278.698 325.301 279.769 328.056L282.1 334.053C282.74 335.701 284.044 337.004 285.691 337.644L291.688 339.975C294.443 341.046 296.084 343.889 295.634 346.811L294.655 353.169C294.385 354.917 294.862 356.697 295.969 358.075L299.997 363.092C301.848 365.398 301.848 368.68 299.997 370.985L295.969 376.002C294.862 377.381 294.385 379.161 294.655 380.908L295.634 387.267C296.084 390.189 294.443 393.031 291.688 394.102L285.691 396.433C284.044 397.073 282.74 398.377 282.1 400.024L279.769 406.021C278.698 408.776 275.856 410.417 272.934 409.967L266.575 408.988C264.828 408.719 263.048 409.195 261.669 410.302L256.652 414.33C254.347 416.181 251.065 416.181 248.759 414.33L243.742 410.302C242.364 409.195 240.584 408.719 238.836 408.988L232.478 409.967C229.556 410.417 226.713 408.776 225.642 406.021L223.311 400.024C222.671 398.377 221.368 397.073 219.72 396.433L213.723 394.102C210.968 393.031 209.327 390.189 209.777 387.267L210.757 380.908C211.026 379.161 210.549 377.381 209.442 376.002L205.414 370.985C203.563 368.68 203.563 365.398 205.414 363.092L209.442 358.075C210.549 356.697 211.026 354.917 210.757 353.169L209.777 346.811C209.327 343.889 210.968 341.046 213.723 339.975L219.72 337.644C221.368 337.004 222.671 335.701 223.311 334.053L225.642 328.056C226.713 325.301 229.556 323.66 232.478 324.11L238.836 325.09C240.584 325.359 242.364 324.882 243.742 323.775L248.759 319.747Z" stroke="white" stroke-width="2.10126"/>
<path d="M248.757 332.109C251.062 330.258 254.344 330.258 256.65 332.109L258.941 333.948C260.319 335.055 262.1 335.532 263.847 335.263L266.751 334.815C269.673 334.365 272.515 336.006 273.586 338.762L274.65 341.5C275.291 343.148 276.594 344.451 278.242 345.091L280.98 346.156C283.736 347.227 285.377 350.069 284.927 352.991L284.479 355.895C284.21 357.642 284.687 359.422 285.794 360.801L287.633 363.092C289.484 365.397 289.484 368.679 287.633 370.985L285.794 373.276C284.687 374.654 284.21 376.435 284.479 378.182L284.927 381.086C285.377 384.008 283.736 386.85 280.98 387.921L278.242 388.985C276.594 389.626 275.291 390.929 274.65 392.577L273.586 395.315C272.515 398.071 269.673 399.712 266.751 399.262L263.847 398.814C262.1 398.545 260.319 399.022 258.941 400.129L256.65 401.968C254.344 403.819 251.062 403.819 248.757 401.968L246.466 400.129C245.087 399.022 243.307 398.545 241.56 398.814L238.656 399.262C235.734 399.712 232.892 398.071 231.821 395.315L230.756 392.577C230.116 390.929 228.813 389.626 227.165 388.985L224.427 387.921C221.671 386.85 220.03 384.008 220.48 381.086L220.928 378.182C221.197 376.435 220.72 374.654 219.613 373.276L217.774 370.985C215.923 368.679 215.923 365.397 217.774 363.092L219.613 360.801C220.72 359.422 221.197 357.642 220.928 355.895L220.48 352.991C220.03 350.069 221.671 347.227 224.427 346.156L227.165 345.091C228.813 344.451 230.116 343.148 230.756 341.5L231.821 338.762C232.892 336.006 235.734 334.365 238.656 334.815L241.56 335.263C243.307 335.532 245.087 335.055 246.466 333.948L248.757 332.109Z" stroke="#FF5CAA" stroke-width="2.10126"/>
<circle cx="252.703" cy="367.039" r="21.9841" fill="#641C67" stroke="#FF5CAA" stroke-width="2.10126" stroke-linejoin="round"/>
<path fill-rule="evenodd" clip-rule="evenodd" d="M256.17 358.247L254.849 359.568H255.448C257.073 359.568 258.632 360.213 259.781 361.363C260.931 362.512 261.577 364.071 261.577 365.696V371.999C262.258 372.24 262.833 372.714 263.199 373.338C263.565 373.961 263.699 374.694 263.576 375.407C263.454 376.12 263.084 376.766 262.531 377.232C261.978 377.699 261.278 377.954 260.555 377.954C259.832 377.954 259.132 377.699 258.579 377.232C258.026 376.766 257.656 376.12 257.534 375.407C257.412 374.694 257.545 373.961 257.911 373.338C258.277 372.714 258.852 372.24 259.534 371.999V365.696C259.534 364.613 259.103 363.574 258.337 362.807C257.571 362.041 256.531 361.611 255.448 361.611H254.849L256.17 362.931C256.356 363.124 256.459 363.382 256.457 363.65C256.454 363.918 256.347 364.174 256.158 364.363C255.968 364.553 255.712 364.66 255.444 364.662C255.176 364.665 254.918 364.562 254.726 364.376L251.661 361.311C251.47 361.12 251.362 360.86 251.362 360.589C251.362 360.318 251.47 360.059 251.661 359.867L254.726 356.803C254.82 356.705 254.933 356.627 255.057 356.574C255.182 356.52 255.316 356.492 255.452 356.491C255.587 356.49 255.722 356.516 255.847 356.567C255.973 356.618 256.087 356.694 256.183 356.79C256.279 356.886 256.354 357 256.406 357.126C256.457 357.251 256.483 357.386 256.482 357.521C256.481 357.657 256.452 357.791 256.399 357.915C256.345 358.04 256.268 358.153 256.17 358.247ZM259.534 374.889C259.534 374.618 259.641 374.359 259.833 374.167C260.024 373.976 260.284 373.868 260.555 373.868C260.826 373.868 261.086 373.976 261.277 374.167C261.469 374.359 261.577 374.618 261.577 374.889C261.577 375.16 261.469 375.42 261.277 375.612C261.086 375.803 260.826 375.911 260.555 375.911C260.284 375.911 260.024 375.803 259.833 375.612C259.641 375.42 259.534 375.16 259.534 374.889ZM247.276 359.568C247.005 359.568 246.746 359.675 246.554 359.867C246.362 360.058 246.255 360.318 246.255 360.589C246.255 360.86 246.362 361.12 246.554 361.311C246.746 361.503 247.005 361.611 247.276 361.611C247.547 361.611 247.807 361.503 247.999 361.311C248.19 361.12 248.298 360.86 248.298 360.589C248.298 360.318 248.19 360.058 247.999 359.867C247.807 359.675 247.547 359.568 247.276 359.568ZM248.298 363.48C248.98 363.239 249.554 362.765 249.92 362.141C250.286 361.517 250.42 360.784 250.298 360.072C250.175 359.359 249.805 358.712 249.252 358.246C248.699 357.78 247.999 357.524 247.276 357.524C246.553 357.524 245.853 357.78 245.3 358.246C244.748 358.712 244.377 359.359 244.255 360.072C244.133 360.784 244.266 361.517 244.632 362.141C244.998 362.765 245.573 363.239 246.255 363.48V371.999C245.573 372.24 244.998 372.714 244.632 373.338C244.266 373.961 244.133 374.694 244.255 375.407C244.377 376.12 244.748 376.766 245.3 377.232C245.853 377.699 246.553 377.954 247.276 377.954C247.999 377.954 248.699 377.699 249.252 377.232C249.805 376.766 250.175 376.12 250.298 375.407C250.42 374.694 250.286 373.961 249.92 373.338C249.554 372.714 248.98 372.24 248.298 371.999V363.48ZM247.276 373.868C247.005 373.868 246.746 373.976 246.554 374.167C246.362 374.359 246.255 374.618 246.255 374.889C246.255 375.16 246.362 375.42 246.554 375.612C246.746 375.803 247.005 375.911 247.276 375.911C247.547 375.911 247.807 375.803 247.999 375.612C248.19 375.42 248.298 375.16 248.298 374.889C248.298 374.618 248.19 374.359 247.999 374.167C247.807 373.976 247.547 373.868 247.276 373.868Z" fill="#FF5CAA"/>
<circle cx="54.4492" cy="18.064" r="4.5781" fill="#FF5C97"/>
<circle cx="70.0117" cy="18.064" r="4.5781" fill="#AD6DE7"/>
<circle cx="85.5781" cy="18.064" r="4.5781" fill="#4F55E3"/>
<path d="M41.5 35.0262H240.944" stroke="#F0EEFF" stroke-width="2.10126"/>
</svg>
