<svg width="213" height="33" viewBox="0 0 213 33" fill="none" xmlns="http://www.w3.org/2000/svg">
<path d="M77.9479 18.6573C77.9479 16.5382 78.9639 15.29 80.9088 15.29C82.7376 15.29 83.3471 16.5963 83.3471 18.2799V27.3077H87.4691V17.8154C87.4691 14.274 85.6113 11.7486 81.9538 11.7486C79.7767 11.7486 78.2382 12.4162 76.9029 13.8966C76.0321 12.5614 74.5516 11.7486 72.4906 11.7486C70.3135 11.7486 68.804 12.6484 68.1074 13.9547V12.0969H64.3047V27.3077H68.4267V18.5702C68.4267 16.5382 69.4717 15.29 71.3876 15.29C73.2163 15.29 73.8259 16.5963 73.8259 18.2799V27.3077H77.9479V18.6573Z" fill="white"/>
<path d="M104.388 20.8924C104.388 20.8924 104.446 20.3409 104.446 19.6733C104.446 15.1739 101.398 11.7486 96.899 11.7486C92.3996 11.7486 89.2646 15.1739 89.2646 19.6733C89.2646 24.3468 92.4286 27.656 96.928 27.656C100.44 27.656 103.227 25.5369 104.127 22.46H99.976C99.4825 23.563 98.2923 24.1146 97.0441 24.1146C94.9831 24.1146 93.6478 22.9825 93.3575 20.8924H104.388ZM96.87 15.0578C98.7858 15.0578 100.034 16.2189 100.324 17.9316H93.4156C93.7639 16.1899 94.9831 15.0578 96.87 15.0578Z" fill="white"/>
<path d="M105.054 15.6383H106.883V27.3077H111.005V12.0969H105.054V15.6383ZM108.944 10.123C110.395 10.123 111.44 9.10701 111.44 7.6556C111.44 6.20419 110.395 5.15918 108.944 5.15918C107.492 5.15918 106.447 6.20419 106.447 7.6556C106.447 9.10701 107.492 10.123 108.944 10.123Z" fill="white"/>
<path d="M119.54 23.7662C119.424 23.7662 119.25 23.7952 118.989 23.7952C118.06 23.7952 117.944 23.3598 117.944 22.7212V5.53654H113.822V23.0115C113.822 26.0304 114.983 27.3657 118.263 27.3657C118.815 27.3657 119.337 27.3077 119.54 27.2786V23.7662Z" fill="white"/>
<path d="M120.009 15.6383H121.838V27.3077H125.96V12.0969H120.009V15.6383ZM123.899 10.123C125.35 10.123 126.395 9.10701 126.395 7.6556C126.395 6.20419 125.35 5.15918 123.899 5.15918C122.448 5.15918 121.403 6.20419 121.403 7.6556C121.403 9.10701 122.448 10.123 123.899 10.123Z" fill="white"/>
<path d="M134.231 27.4671C138.237 27.4671 140.124 25.348 140.124 23.1129C140.124 16.9009 130.98 20.3552 130.98 16.2622C130.98 14.9269 132.112 13.7948 134.405 13.7948C136.756 13.7948 137.859 15.0721 138.034 16.6686H140.095C139.92 14.6657 138.556 11.9951 134.463 11.9951C130.951 11.9951 128.977 14.0851 128.977 16.3493C128.977 22.4162 138.121 18.9328 138.121 23.1709C138.121 24.6514 136.727 25.6674 134.231 25.6674C131.676 25.6674 130.399 24.3901 130.254 22.5033H128.164C128.338 25.0868 129.964 27.4671 134.231 27.4671Z" fill="white"/>
<path d="M156.493 20.3262C156.493 20.3262 156.522 19.8617 156.522 19.5424C156.522 15.3624 153.822 11.9951 149.41 11.9951C144.969 11.9951 142.153 15.6236 142.153 19.7166C142.153 23.8676 144.765 27.4671 149.439 27.4671C152.951 27.4671 155.39 25.319 156.261 22.5033H154.113C153.474 24.303 151.732 25.6093 149.468 25.6093C146.362 25.6093 144.417 23.3161 144.214 20.3262H156.493ZM149.41 13.8529C152.313 13.8529 154.2 15.7978 154.461 18.6425H144.272C144.62 15.9139 146.536 13.8529 149.41 13.8529Z" fill="white"/>
<path d="M169.317 20.094V21.4873C169.317 24.0128 167.488 25.7544 163.976 25.7544C161.798 25.7544 160.608 24.8546 160.608 22.9097C160.608 21.9227 161.073 21.168 161.798 20.7616C162.553 20.3552 163.569 20.094 169.317 20.094ZM163.743 27.4671C166.298 27.4671 168.359 26.6543 169.404 24.9707V27.1188H171.378V17.4524C171.378 14.1722 169.491 11.9951 165.224 11.9951C161.131 11.9951 159.331 14.0561 158.954 16.6977H160.957C161.363 14.6076 162.96 13.7658 165.137 13.7658C167.923 13.7658 169.317 14.9269 169.317 17.4234V18.3813C164.643 18.3813 162.698 18.4684 161.247 19.0489C159.563 19.7166 158.576 21.197 158.576 22.9677C158.576 25.5512 160.231 27.4671 163.743 27.4671Z" fill="white"/>
<path d="M182.646 12.2273C182.646 12.2273 182.297 12.1983 182.152 12.1983C179.423 12.1983 177.972 13.6207 177.421 14.6367V12.3434H175.447V27.1188H177.508V18.7296C177.508 15.6526 179.394 14.1432 181.92 14.1432C182.297 14.1432 182.646 14.1722 182.646 14.1722V12.2273Z" fill="white"/>
<path d="M182.998 19.7456C182.998 23.7805 185.784 27.4671 190.284 27.4671C194.289 27.4671 196.612 24.7965 197.192 21.8647H195.102C194.493 24.1579 192.809 25.6093 190.284 25.6093C187.178 25.6093 185.088 23.1419 185.088 19.7456C185.088 16.3203 187.178 13.8529 190.284 13.8529C192.809 13.8529 194.493 15.3043 195.102 17.5975H197.192C196.612 14.6657 194.289 11.9951 190.284 11.9951C185.784 11.9951 182.998 15.6817 182.998 19.7456Z" fill="white"/>
<path d="M202.044 5.34766H199.983V27.1188H202.044V18.3813C202.044 15.3624 203.989 13.7948 206.486 13.7948C209.127 13.7948 210.375 15.4204 210.375 18.091V27.1188H212.436V17.6846C212.436 14.4044 210.492 11.9951 206.834 11.9951C204.076 11.9951 202.567 13.5046 202.044 14.4044V5.34766Z" fill="white"/>
<path d="M0 32.2035L10.0089 6.5952C11.4193 2.98646 14.8978 0.611328 18.7723 0.611328H24.8066L14.7977 26.2197C13.3872 29.8284 9.90879 32.2035 6.03422 32.2035H0Z" fill="white"/>
<path d="M14.6835 32.2036L24.6924 6.59527C26.1028 2.98654 29.5812 0.611404 33.4558 0.611404H39.49L29.4811 26.2197C28.0707 29.8285 24.5923 32.2036 20.7177 32.2036H14.6835Z" fill="white"/>
<path d="M29.3678 32.2036L39.3767 6.59527C40.7871 2.98654 44.2655 0.611404 48.1401 0.611404H54.1743L44.1654 26.2197C42.755 29.8285 39.2766 32.2036 35.402 32.2036H29.3678Z" fill="white"/>
</svg>
