<svg width="70" height="26" viewBox="0 0 70 26" fill="none" xmlns="http://www.w3.org/2000/svg">
<path d="M15.3479 15.4923C15.3479 13.1449 16.4734 11.7621 18.6278 11.7621C20.6537 11.7621 21.329 13.2092 21.329 15.0743V25.0749H25.8952V14.5598C25.8952 10.6367 23.8372 7.83906 19.7855 7.83906C17.3738 7.83906 15.6695 8.57866 14.1903 10.2186C13.2256 8.73944 11.5856 7.83906 9.30249 7.83906C6.89076 7.83906 5.21862 8.83591 4.44687 10.2829V8.22493H0.234375V25.0749H4.80059V15.3958C4.80059 13.1449 5.95822 11.7621 8.08054 11.7621C10.1064 11.7621 10.7817 13.2092 10.7817 15.0743V25.0749H15.3479V15.4923Z" fill="white"/>
<path d="M44.6376 17.9683C44.6376 17.9683 44.7019 17.3574 44.7019 16.6178C44.7019 11.6335 41.3255 7.83906 36.3413 7.83906C31.357 7.83906 27.8841 11.6335 27.8841 16.6178C27.8841 21.7949 31.3892 25.4608 36.3734 25.4608C40.2644 25.4608 43.3514 23.1134 44.3482 19.7048H39.7498C39.2032 20.9267 37.8848 21.5377 36.502 21.5377C34.2189 21.5377 32.7397 20.2836 32.4182 17.9683H44.6376ZM36.3091 11.5049C38.4314 11.5049 39.8142 12.7911 40.1357 14.6884H32.4825C32.8684 12.759 34.2189 11.5049 36.3091 11.5049Z" fill="white"/>
<path d="M45.3752 12.148H47.4011V25.0749H51.9673V8.22493H45.3752V12.148ZM49.6842 6.0383C51.292 6.0383 52.4496 4.91282 52.4496 3.305C52.4496 1.69718 51.292 0.539551 49.6842 0.539551C48.0764 0.539551 46.9187 1.69718 46.9187 3.305C46.9187 4.91282 48.0764 6.0383 49.6842 6.0383Z" fill="white"/>
<path d="M61.4225 21.1518C61.2939 21.1518 61.101 21.184 60.8115 21.184C59.7825 21.184 59.6539 20.7016 59.6539 19.9942V0.957583H55.0877V20.3158C55.0877 23.66 56.374 25.1392 60.0076 25.1392C60.6186 25.1392 61.1974 25.0749 61.4225 25.0427V21.1518Z" fill="white"/>
<path d="M61.942 12.148H63.9679V25.0749H68.5341V8.22493H61.942V12.148ZM66.251 6.0383C67.8588 6.0383 69.0165 4.91282 69.0165 3.305C69.0165 1.69718 67.8588 0.539551 66.251 0.539551C64.6432 0.539551 63.4856 1.69718 63.4856 3.305C63.4856 4.91282 64.6432 6.0383 66.251 6.0383Z" fill="white"/>
</svg>
