<svg width="95" height="26" viewBox="0 0 95 26" fill="none" xmlns="http://www.w3.org/2000/svg">
<path d="M7.69726 25.2512C12.1348 25.2512 14.225 22.9038 14.225 20.4278C14.225 13.5463 4.09574 17.3729 4.09574 12.8389C4.09574 11.3597 5.34984 10.1056 7.8902 10.1056C10.4949 10.1056 11.7168 11.5204 11.9098 13.2891H14.1929C13.9999 11.0703 12.4886 8.11187 7.95451 8.11187C4.06358 8.11187 1.87694 10.4271 1.87694 12.9353C1.87694 19.656 12.0062 15.7973 12.0062 20.4921C12.0062 22.1321 10.4627 23.2575 7.69726 23.2575C4.86749 23.2575 3.45261 21.8427 3.29183 19.7525H0.976562C1.1695 22.6144 2.97026 25.2512 7.69726 25.2512Z" fill="white"/>
<path d="M32.3582 17.3408C32.3582 17.3408 32.3904 16.8263 32.3904 16.4725C32.3904 11.842 29.3998 8.11187 24.5121 8.11187C19.5921 8.11187 16.473 12.1314 16.473 16.6655C16.473 21.2638 19.367 25.2512 24.5442 25.2512C28.4351 25.2512 31.1363 22.8717 32.101 19.7525H29.7214C29.014 21.7462 27.0846 23.1932 24.5764 23.1932C21.1356 23.1932 18.9812 20.6529 18.7561 17.3408H32.3582ZM24.5121 10.1699C27.7277 10.1699 29.8179 12.3244 30.1073 15.4757H18.8204C19.2062 12.453 21.3286 10.1699 24.5121 10.1699Z" fill="white"/>
<path d="M46.5641 17.0835V18.627C46.5641 21.4246 44.5382 23.354 40.6473 23.354C38.2356 23.354 36.9172 22.3572 36.9172 20.2027C36.9172 19.1094 37.4317 18.2733 38.2356 17.8231C39.0716 17.3729 40.1971 17.0835 46.5641 17.0835ZM40.39 25.2512C43.2198 25.2512 45.5029 24.3509 46.6605 22.4858V24.8654H48.8472V14.1573C48.8472 10.5236 46.757 8.11187 42.03 8.11187C37.496 8.11187 35.5023 10.395 35.0842 13.3212H37.303C37.7532 11.0059 39.5218 10.0734 41.9336 10.0734C45.0206 10.0734 46.5641 11.3597 46.5641 14.1251V15.1863C41.3869 15.1863 39.2324 15.2828 37.6246 15.9259C35.7595 16.6655 34.6662 18.3055 34.6662 20.267C34.6662 23.1289 36.4991 25.2512 40.39 25.2512Z" fill="white"/>
<path d="M61.3294 8.36912C61.3294 8.36912 60.9435 8.33696 60.7827 8.33696C57.76 8.33696 56.1522 9.91263 55.5412 11.0381V8.49775H53.3546V24.8654H55.6377V15.5722C55.6377 12.1636 57.7279 10.4914 60.5255 10.4914C60.9435 10.4914 61.3294 10.5236 61.3294 10.5236V8.36912Z" fill="white"/>
<path d="M61.7193 16.6976C61.7193 21.1674 64.8063 25.2512 69.7906 25.2512C74.2281 25.2512 76.8007 22.2929 77.4438 19.0451H75.1285C74.4532 21.5854 72.5882 23.1932 69.7906 23.1932C66.3498 23.1932 64.0346 20.4599 64.0346 16.6976C64.0346 12.9032 66.3498 10.1699 69.7906 10.1699C72.5882 10.1699 74.4532 11.7777 75.1285 14.3181H77.4438C76.8007 11.0703 74.2281 8.11187 69.7906 8.11187C64.8063 8.11187 61.7193 12.1957 61.7193 16.6976Z" fill="white"/>
<path d="M82.8187 0.748047H80.5356V24.8654H82.8187V15.1863C82.8187 11.842 84.9732 10.1056 87.7386 10.1056C90.6649 10.1056 92.0476 11.9063 92.0476 14.8647V24.8654H94.3307V14.4145C94.3307 10.7809 92.1762 8.11187 88.1245 8.11187C85.0696 8.11187 83.3975 9.784 82.8187 10.7809V0.748047Z" fill="white"/>
</svg>
