<svg width="860" height="697" viewBox="0 0 860 697" fill="none" xmlns="http://www.w3.org/2000/svg">
<rect x="2.34378" y="98.4807" width="251.481" height="204.522" rx="7.59834" fill="#1C0040" stroke="#F0EEFF" stroke-width="3"/>
<circle cx="22.3341" cy="122.378" r="6.53624" fill="#FF5C97"/>
<circle cx="44.5576" cy="122.378" r="6.53624" fill="#AD6DE7"/>
<circle cx="66.7795" cy="122.378" r="6.53624" fill="#4F55E3"/>
<path d="M3.84378 146.596H252.325" stroke="#F0EEFF" stroke-width="3"/>
<path d="M28.67 186.457C29.022 186.457 29.278 186.457 29.502 186.153C29.678 185.913 29.678 185.737 29.678 185.433V184.537C29.678 184.233 29.678 184.057 29.502 183.817C29.278 183.513 29.022 183.513 28.67 183.513H27.518C27.166 183.513 26.91 183.513 26.686 183.817C26.51 184.057 26.51 184.233 26.51 184.537V185.433C26.51 185.737 26.51 185.913 26.686 186.153C26.91 186.457 27.166 186.457 27.518 186.457H28.67ZM43.3856 177.433C43.4816 177.257 43.5616 177.065 43.5616 176.809C43.5616 176.393 43.1936 176.057 42.7776 176.057C42.3776 176.057 42.1856 176.345 41.9936 176.665L36.0096 186.921C35.8496 187.177 35.6576 187.449 35.6576 187.753C35.6576 188.169 36.0576 188.505 36.4576 188.505C36.8576 188.505 37.0496 188.281 37.2416 187.945L43.3856 177.433ZM52.2133 182.105C52.3413 181.961 52.6293 181.577 52.8533 181.577C53.2693 181.577 53.1893 182.121 53.2053 182.393L53.3653 187.465C53.3813 187.977 53.5093 188.505 54.1333 188.505C54.8213 188.505 54.9013 187.897 54.8853 187.353L54.7253 182.041C54.7093 181.449 54.7413 181.001 54.3573 180.505C54.0533 180.105 53.5893 179.881 53.0773 179.881C52.4053 179.881 52.2133 180.041 51.7333 180.521L51.6053 180.649C51.2533 180.169 50.7893 179.881 50.1973 179.881C49.6693 179.881 49.4293 180.089 49.0293 180.393L48.9013 180.489C48.8053 180.137 48.5493 179.881 48.1653 179.881C47.5093 179.881 47.3653 180.425 47.3653 180.969V187.449C47.3653 187.977 47.4773 188.505 48.1333 188.505C48.7893 188.505 48.9013 187.977 48.9013 187.449V182.457L49.5733 181.833C49.7013 181.721 49.8133 181.577 49.9893 181.577C50.3893 181.577 50.3573 182.057 50.3573 182.313V187.449C50.3573 187.977 50.4693 188.505 51.1253 188.505C51.7813 188.505 51.8933 187.977 51.8933 187.449V182.457L52.2133 182.105ZM65.3449 188.505C65.7929 188.505 66.4009 188.409 66.4009 187.737C66.4009 187.081 65.8569 186.969 65.3449 186.969H62.0489C61.5369 186.969 61.2329 186.905 61.0249 186.681L60.6409 186.265C60.5289 186.153 60.4169 185.961 60.4169 185.817V185.305H65.3449C66.2569 185.305 66.4009 185.049 66.4009 184.169V182.937C66.4009 182.089 66.3049 181.497 65.6009 180.937L64.9769 180.441C64.3849 179.961 64.0329 179.881 63.2809 179.881H61.8729C61.2489 179.881 60.8969 179.897 60.1769 180.521L59.6329 180.985C58.9929 181.529 58.8809 182.009 58.8809 182.825V185.785C58.8809 186.617 59.0569 186.969 59.6649 187.513L60.3209 188.089C60.8009 188.505 61.0569 188.505 61.6969 188.505H65.3449ZM60.4169 182.681C60.4169 182.233 60.5449 182.121 60.7369 181.977L61.2649 181.593C61.5209 181.417 61.7609 181.417 62.0489 181.417H63.3449C63.5849 181.417 63.8889 181.433 64.0809 181.609L64.6729 182.121C64.8809 182.313 64.8649 182.553 64.8649 182.841V183.769H60.4169V182.681ZM74.9565 180.953C74.9565 180.041 74.7005 179.881 73.8205 179.881H72.2045C71.6925 179.881 71.1485 179.993 71.1485 180.649C71.1485 181.321 71.7565 181.417 72.2045 181.417H73.4205V186.969H72.2045C71.6925 186.969 71.1485 187.081 71.1485 187.737C71.1485 188.409 71.7565 188.505 72.2045 188.505H76.1085C76.5565 188.505 77.1645 188.409 77.1645 187.737C77.1645 187.081 76.6205 186.969 76.1085 186.969H74.9565V180.953ZM72.6365 177.513C72.6365 178.057 72.9405 178.233 73.3565 178.233H74.2365C74.6525 178.233 74.9565 178.057 74.9565 177.513V176.777C74.9565 176.233 74.6525 176.057 74.2365 176.057H73.3565C72.9405 176.057 72.6365 176.233 72.6365 176.777V177.513ZM86.4721 177.785C86.4721 176.873 86.2161 176.713 85.3361 176.713H83.7201C83.2081 176.713 82.6641 176.825 82.6641 177.481C82.6641 178.153 83.2721 178.249 83.7201 178.249H84.9361V186.969H83.7201C83.2081 186.969 82.6641 187.081 82.6641 187.737C82.6641 188.409 83.2721 188.505 83.7201 188.505H87.6241C88.0721 188.505 88.6801 188.409 88.6801 187.737C88.6801 187.081 88.1361 186.969 87.6241 186.969H86.4721V177.785ZM97.9878 180.953C97.9878 180.041 97.7318 179.881 96.8518 179.881H95.2358C94.7238 179.881 94.1798 179.993 94.1798 180.649C94.1798 181.321 94.7878 181.417 95.2358 181.417H96.4518V186.969H95.2358C94.7238 186.969 94.1798 187.081 94.1798 187.737C94.1798 188.409 94.7878 188.505 95.2358 188.505H99.1398C99.5878 188.505 100.196 188.409 100.196 187.737C100.196 187.081 99.6518 186.969 99.1398 186.969H97.9878V180.953ZM95.6678 177.513C95.6678 178.057 95.9718 178.233 96.3878 178.233H97.2678C97.6838 178.233 97.9878 178.057 97.9878 177.513V176.777C97.9878 176.233 97.6838 176.057 97.2678 176.057H96.3878C95.9718 176.057 95.6678 176.233 95.6678 176.777V177.513ZM109.903 181.417C110.319 181.417 110.591 181.449 110.847 181.721C111.039 181.929 111.215 182.041 111.503 182.041C111.919 182.041 112.287 181.705 112.287 181.273C112.287 180.841 111.967 180.649 111.679 180.409C111.103 179.929 110.751 179.881 109.903 179.881H107.279C106.127 179.881 105.167 180.617 105.167 181.833C105.167 182.825 105.663 183.321 106.511 183.705L110.127 185.353C110.479 185.513 110.927 185.753 110.927 186.121C110.927 187.017 110.191 186.969 109.647 186.969H107.567C107.087 186.969 106.607 186.937 106.335 186.633C106.159 186.441 105.983 186.361 105.743 186.361C105.311 186.361 104.943 186.697 104.943 187.129C104.943 187.513 105.359 187.801 105.647 188.025C106.223 188.473 106.767 188.505 107.567 188.505H109.935C111.407 188.505 112.463 187.769 112.463 186.217C112.463 185.113 111.951 184.489 110.959 184.041L107.119 182.297C106.895 182.201 106.703 182.105 106.703 181.849C106.703 181.353 107.247 181.417 107.567 181.417H109.903ZM122.923 188.505C123.371 188.505 123.979 188.409 123.979 187.737C123.979 187.081 123.435 186.969 122.923 186.969H119.627C119.115 186.969 118.811 186.905 118.603 186.681L118.219 186.265C118.107 186.153 117.995 185.961 117.995 185.817V185.305H122.923C123.835 185.305 123.979 185.049 123.979 184.169V182.937C123.979 182.089 123.883 181.497 123.179 180.937L122.555 180.441C121.963 179.961 121.611 179.881 120.859 179.881H119.451C118.827 179.881 118.475 179.897 117.755 180.521L117.211 180.985C116.571 181.529 116.459 182.009 116.459 182.825V185.785C116.459 186.617 116.635 186.969 117.243 187.513L117.899 188.089C118.379 188.505 118.635 188.505 119.275 188.505H122.923ZM117.995 182.681C117.995 182.233 118.123 182.121 118.315 181.977L118.843 181.593C119.099 181.417 119.339 181.417 119.627 181.417H120.923C121.163 181.417 121.467 181.433 121.659 181.609L122.251 182.121C122.459 182.313 122.443 182.553 122.443 182.841V183.769H117.995V182.681ZM132.455 181.417C133.559 181.417 133.815 181.609 133.815 182.761V183.113H130.519C129.847 183.113 129.255 183.225 128.727 183.689C128.151 184.201 127.975 184.665 127.975 185.401V186.073C127.975 186.873 128.135 187.433 128.775 187.961C129.335 188.425 129.831 188.505 130.519 188.505H131.991C132.487 188.505 132.503 188.505 132.935 188.281L133.991 187.737C133.975 188.169 134.375 188.505 134.775 188.505C135.287 188.505 135.511 188.057 135.495 187.609L135.335 182.393C135.319 181.625 135.239 181.161 134.647 180.569C134.039 179.961 133.463 179.881 132.663 179.881H130.551C130.039 179.881 129.495 179.993 129.495 180.649C129.495 181.321 130.103 181.417 130.551 181.417H132.455ZM132.807 184.649C133.655 184.649 133.895 184.905 133.895 185.753V186.089L132.199 186.969H130.503C130.135 186.969 129.511 186.857 129.511 186.345V185.321C129.511 184.761 130.119 184.649 130.535 184.649H132.807ZM139.49 187.449C139.49 187.977 139.602 188.505 140.258 188.505C140.914 188.505 141.026 187.977 141.026 187.449V183.561L143.17 181.785C143.442 181.561 143.65 181.417 143.938 181.417H144.386C144.754 181.417 145.122 181.417 145.314 181.689C145.474 181.913 145.474 182.105 145.474 182.361C145.474 182.857 145.698 183.305 146.258 183.305C146.914 183.305 147.01 182.761 147.01 182.233C147.01 181.529 146.834 181.001 146.322 180.489C145.906 180.073 145.41 179.881 144.818 179.881H143.586C143.106 179.881 142.658 180.185 142.226 180.537L141.026 181.529V180.905C141.026 180.393 140.866 179.881 140.258 179.881C139.554 179.881 139.49 180.457 139.49 181.017V187.449ZM151.006 184.937C151.006 185.881 151.182 186.345 151.918 186.953L153.054 187.897C153.774 188.489 154.142 188.505 155.038 188.505H157.47C157.982 188.505 158.526 188.393 158.526 187.737C158.526 187.065 157.918 186.969 157.47 186.969H154.766C154.462 186.969 154.158 186.809 153.886 186.585L152.958 185.801C152.718 185.609 152.542 185.449 152.542 185.145V183.241C152.542 182.937 152.718 182.777 152.958 182.585L153.886 181.801C154.158 181.577 154.462 181.417 154.766 181.417H157.47C157.918 181.417 158.526 181.321 158.526 180.649C158.526 179.993 157.982 179.881 157.47 179.881H155.038C154.142 179.881 153.774 179.897 153.054 180.489L151.918 181.433C151.182 182.041 151.006 182.505 151.006 183.449V184.937ZM167.514 181.417C168.378 181.417 168.33 181.993 168.362 182.729L168.522 187.465C168.538 187.977 168.666 188.505 169.29 188.505C169.978 188.505 170.058 187.897 170.042 187.353L169.882 182.521C169.85 181.689 169.882 181.033 169.194 180.441C168.554 179.881 168.01 179.881 167.706 179.881H166.682C166.17 179.881 165.706 180.137 165.306 180.393L164.058 181.209V177.769C164.058 177.241 163.946 176.713 163.29 176.713C162.634 176.713 162.522 177.241 162.522 177.769V187.449C162.522 187.977 162.634 188.505 163.29 188.505C163.946 188.505 164.058 187.977 164.058 187.449V182.985L166.33 181.561C166.49 181.465 166.65 181.417 166.81 181.417H167.514Z" fill="white"/>
<rect x="135.496" y="254.099" width="722.79" height="441.39" rx="7.59834" fill="#1C0040" stroke="#F0EEFF" stroke-width="3"/>
<rect x="388.754" y="340.894" width="423.224" height="34.4794" rx="6.09834" fill="#1C0040" stroke="#F0EEFF" stroke-width="3"/>
<path d="M410.334 360.334L415.379 365.379" stroke="#9080A5" stroke-width="2.00256" stroke-linecap="round"/>
<circle r="4.98953" transform="matrix(-0.707107 0.707107 0.707107 0.707107 406.493 356.649)" stroke="#9080A5" stroke-width="2.00256"/>
<circle cx="158.612" cy="281.782" r="7.64092" fill="#FF5C97"/>
<circle cx="184.591" cy="281.782" r="7.64092" fill="#AD6DE7"/>
<circle cx="210.569" cy="281.782" r="7.64092" fill="#4F55E3"/>
<path d="M136.996 310.093H856.786" stroke="#F0EEFF" stroke-width="3"/>
<rect x="388.754" y="406.173" width="423.224" height="91.8347" rx="8" fill="#584078"/>
<rect x="388.754" y="406.173" width="423.224" height="91.8347" rx="8" fill="#2B1971"/>
<rect x="388.754" y="516.567" width="423.224" height="91.8347" rx="8" fill="#584078"/>
<rect x="388.754" y="516.567" width="423.224" height="91.8347" rx="8" fill="#2B1971"/>
<path d="M388.754 634.961C388.754 630.542 392.336 626.961 396.754 626.961H803.979C808.397 626.961 811.979 630.542 811.979 634.961V694.023H388.754V634.961Z" fill="#584078"/>
<path d="M388.754 634.961C388.754 630.542 392.336 626.961 396.754 626.961H803.979C808.397 626.961 811.979 630.542 811.979 634.961V694.023H388.754V634.961Z" fill="#2B1971"/>
<rect x="164.752" y="341.256" width="176.074" height="182.114" rx="7.59834" fill="#1C0040" stroke="#F0EEFF" stroke-width="3"/>
<rect x="187.478" y="392.669" width="21.8802" height="21.8802" rx="4.25" fill="#F0EEFF" stroke="#220E4F" stroke-width="1.5"/>
<path d="M192.108 403.483L196.121 407.449L203.794 399.769" stroke="#4F55E3" stroke-width="2" stroke-linecap="round"/>
<rect x="187.478" y="422.852" width="21.8802" height="21.8802" rx="4.25" fill="#F0EEFF" stroke="#220E4F" stroke-width="1.5"/>
<path d="M192.108 433.666L196.121 437.632L203.794 429.952" stroke="#4F55E3" stroke-width="2" stroke-linecap="round"/>
<rect x="187.478" y="453.034" width="21.8802" height="21.8802" rx="4.25" fill="#F0EEFF" stroke="#220E4F" stroke-width="1.5"/>
<rect x="187.478" y="483.216" width="21.8802" height="21.8802" rx="4.25" fill="#F0EEFF" stroke="#220E4F" stroke-width="1.5"/>
<rect x="221.524" y="393.088" width="83.6728" height="21.0422" rx="5" fill="#2B1971"/>
<rect x="187.478" y="358.883" width="129.697" height="19.5422" rx="4.25" fill="#4F55E3" stroke="#4F55E3" stroke-width="1.5"/>
<rect x="221.524" y="423.271" width="75.6483" height="21.0422" rx="5" fill="#2B1971"/>
<rect x="221.524" y="453.453" width="88.2193" height="21.0422" rx="5" fill="#2B1971"/>
<rect x="221.524" y="483.635" width="69.2152" height="21.0422" rx="5" fill="#2B1971"/>
<rect x="164.752" y="546.786" width="176.074" height="123.231" rx="7.59834" fill="#1C0040" stroke="#F0EEFF" stroke-width="3"/>
<rect x="187.478" y="598.199" width="21.8802" height="21.8802" rx="4.25" fill="#F0EEFF" stroke="#220E4F" stroke-width="1.5"/>
<rect x="187.478" y="628.382" width="21.8802" height="21.8802" rx="4.25" fill="#F0EEFF" stroke="#220E4F" stroke-width="1.5"/>
<path d="M192.108 639.197L196.121 643.163L203.794 635.482" stroke="#FF5CAA" stroke-width="2" stroke-linecap="round"/>
<rect x="221.524" y="598.618" width="83.6728" height="21.0422" rx="5" fill="#641C67"/>
<rect x="186.728" y="563.663" width="97.3036" height="21.0422" rx="5" fill="#FF5CAA"/>
<rect x="221.524" y="628.801" width="75.6483" height="21.0422" rx="5" fill="#641C67"/>
<path d="M134.621 96.9211V11.5588C134.621 7.14056 138.203 3.55884 142.621 3.55884H460.76C465.178 3.55884 468.76 7.14056 468.76 11.5588V190.473C468.76 194.891 465.178 198.473 460.76 198.473H376.391C371.973 198.473 368.391 194.891 368.391 190.473V142.594C368.391 138.175 371.973 134.594 376.391 134.594H421.449C425.868 134.594 429.449 138.175 429.449 142.594V252.525" stroke="#4F55E3" stroke-width="6"/>
</svg>
