<svg width="484" height="390" viewBox="0 0 484 390" fill="none" xmlns="http://www.w3.org/2000/svg">
<path d="M244.562 57.4766H270.631C272.886 57.4766 274.714 59.3045 274.714 61.5593V133.457C274.714 135.712 272.886 137.539 270.631 137.539H44.8474C42.5926 137.539 40.7647 139.367 40.7647 141.622V301.901C40.7647 304.155 38.9368 305.983 36.682 305.983H6.37568C4.12086 305.983 2.29297 304.155 2.29297 301.901V253.918C2.29297 251.663 4.12086 249.835 6.37567 249.835H116.669" stroke="#4F55E3" stroke-width="3.06203"/>
<rect x="114.313" y="163.372" width="368.868" height="225.258" rx="3.87772" fill="#1C0040" stroke="#F0EEFF" stroke-width="1.53101"/>
<rect x="243.559" y="207.666" width="215.988" height="17.5962" rx="3.11222" fill="#1C0040" stroke="#F0EEFF" stroke-width="1.53101"/>
<path d="M254.574 217.587L257.149 220.162" stroke="white" stroke-width="1.02198" stroke-linecap="round"/>
<circle r="2.54635" transform="matrix(-0.707107 0.707107 0.707107 0.707107 252.613 215.707)" stroke="white" stroke-width="1.02"/>
<circle cx="126.114" cy="177.499" r="3.89945" fill="#FF5C97"/>
<circle cx="139.372" cy="177.499" r="3.89945" fill="#AD6DE7"/>
<circle cx="152.63" cy="177.499" r="3.89945" fill="#4F55E3"/>
<path d="M115.078 191.947H482.415" stroke="#F0EEFF" stroke-width="1.53101"/>
<rect x="243.559" y="240.981" width="215.988" height="46.8668" rx="4.08271" fill="#584078"/>
<rect x="243.559" y="240.981" width="215.988" height="46.8668" rx="4.08271" fill="#2B1971"/>
<rect x="243.559" y="297.319" width="215.988" height="46.8668" rx="4.08271" fill="#584078"/>
<rect x="243.559" y="297.319" width="215.988" height="46.8668" rx="4.08271" fill="#2B1971"/>
<path d="M243.559 357.74C243.559 355.485 245.386 353.657 247.641 353.657H455.464C457.718 353.657 459.546 355.485 459.546 357.74V387.882H243.559V357.74Z" fill="#584078"/>
<path d="M243.559 357.74C243.559 355.485 245.386 353.657 247.641 353.657H455.464C457.718 353.657 459.546 355.485 459.546 357.74V387.882H243.559V357.74Z" fill="#2B1971"/>
<rect x="129.238" y="207.851" width="89.8575" height="92.9398" rx="3.87772" fill="#1C0040" stroke="#F0EEFF" stroke-width="1.53101"/>
<rect x="140.836" y="234.089" width="11.1663" height="11.1663" rx="2.16894" fill="#F0EEFF" stroke="#220E4F" stroke-width="0.765507"/>
<path d="M143.199 239.608L145.247 241.632L149.163 237.712" stroke="#4F55E3" stroke-width="1.02068" stroke-linecap="round"/>
<rect x="140.836" y="249.493" width="11.1663" height="11.1663" rx="2.16894" fill="#F0EEFF" stroke="#220E4F" stroke-width="0.765507"/>
<path d="M143.199 255.011L145.247 257.036L149.163 253.116" stroke="#4F55E3" stroke-width="1.02068" stroke-linecap="round"/>
<rect x="140.836" y="264.895" width="11.1663" height="11.1663" rx="2.16894" fill="#F0EEFF" stroke="#220E4F" stroke-width="0.765507"/>
<rect x="140.836" y="280.299" width="11.1663" height="11.1663" rx="2.16894" fill="#F0EEFF" stroke="#220E4F" stroke-width="0.765507"/>
<rect x="158.211" y="234.303" width="42.7014" height="10.7386" rx="2.55169" fill="#2B1971"/>
<rect x="140.836" y="216.847" width="66.1893" height="9.97311" rx="2.16894" fill="#4F55E3" stroke="#4F55E3" stroke-width="0.765507"/>
<rect x="158.211" y="249.706" width="38.6062" height="10.7386" rx="2.55169" fill="#2B1971"/>
<rect x="158.211" y="265.109" width="45.0217" height="10.7386" rx="2.55169" fill="#2B1971"/>
<rect x="158.211" y="280.512" width="35.3232" height="10.7386" rx="2.55169" fill="#2B1971"/>
<rect x="129.238" y="312.741" width="89.8575" height="62.8895" rx="3.87772" fill="#1C0040" stroke="#F0EEFF" stroke-width="1.53101"/>
<rect x="140.836" y="338.979" width="11.1663" height="11.1663" rx="2.16894" fill="#F0EEFF" stroke="#220E4F" stroke-width="0.765507"/>
<rect x="140.836" y="354.383" width="11.1663" height="11.1663" rx="2.16894" fill="#F0EEFF" stroke="#220E4F" stroke-width="0.765507"/>
<path d="M143.199 359.902L145.247 361.926L149.163 358.006" stroke="#FF5CAA" stroke-width="1.02068" stroke-linecap="round"/>
<rect x="158.211" y="339.193" width="42.7014" height="10.7386" rx="2.55169" fill="#641C67"/>
<rect x="140.453" y="321.354" width="49.6577" height="10.7386" rx="2.55169" fill="#FF5CAA"/>
<rect x="158.211" y="354.596" width="38.6062" height="10.7386" rx="2.55169" fill="#641C67"/>
<rect x="125.942" y="1.64172" width="128.341" height="104.375" rx="3.87772" fill="#1C0040" stroke="#F0EEFF" stroke-width="1.53101"/>
<circle cx="136.144" cy="13.8375" r="3.33569" fill="#FF5C97"/>
<circle cx="147.484" cy="13.8375" r="3.33569" fill="#AD6DE7"/>
<circle cx="158.828" cy="13.8375" r="3.33569" fill="#4F55E3"/>
<path d="M126.707 26.1967H253.517" stroke="#F0EEFF" stroke-width="1.53101"/>
<path d="M139.378 46.8221C139.558 46.8221 139.688 46.8221 139.803 46.667C139.892 46.5445 139.892 46.4547 139.892 46.2995V45.8423C139.892 45.6871 139.892 45.5973 139.803 45.4748C139.688 45.3197 139.558 45.3197 139.378 45.3197H138.79C138.61 45.3197 138.48 45.3197 138.366 45.4748C138.276 45.5973 138.276 45.6871 138.276 45.8423V46.2995C138.276 46.4547 138.276 46.5445 138.366 46.667C138.48 46.8221 138.61 46.8221 138.79 46.8221H139.378ZM146.888 42.2168C146.937 42.127 146.978 42.029 146.978 41.8984C146.978 41.6861 146.79 41.5146 146.578 41.5146C146.374 41.5146 146.276 41.6616 146.178 41.8249L143.124 47.0589C143.042 47.1895 142.944 47.3284 142.944 47.4835C142.944 47.6958 143.148 47.8673 143.352 47.8673C143.556 47.8673 143.654 47.753 143.752 47.5815L146.888 42.2168ZM151.393 44.6011C151.458 44.5276 151.605 44.3317 151.72 44.3317C151.932 44.3317 151.891 44.6093 151.899 44.7481L151.981 47.3365C151.989 47.5978 152.054 47.8673 152.373 47.8673C152.724 47.8673 152.765 47.557 152.757 47.2794L152.675 44.5685C152.667 44.2663 152.683 44.0377 152.487 43.7846C152.332 43.5804 152.095 43.4661 151.834 43.4661C151.491 43.4661 151.393 43.5478 151.148 43.7927L151.083 43.8581C150.903 43.6131 150.666 43.4661 150.364 43.4661C150.095 43.4661 149.972 43.5723 149.768 43.7274L149.703 43.7764C149.654 43.5968 149.523 43.4661 149.327 43.4661C148.992 43.4661 148.919 43.7437 148.919 44.0214V47.3284C148.919 47.5978 148.976 47.8673 149.311 47.8673C149.646 47.8673 149.703 47.5978 149.703 47.3284V44.7808L150.046 44.4623C150.111 44.4051 150.168 44.3317 150.258 44.3317C150.462 44.3317 150.446 44.5766 150.446 44.7073V47.3284C150.446 47.5978 150.503 47.8673 150.838 47.8673C151.173 47.8673 151.23 47.5978 151.23 47.3284V44.7808L151.393 44.6011ZM158.095 47.8673C158.323 47.8673 158.634 47.8183 158.634 47.4753C158.634 47.1406 158.356 47.0834 158.095 47.0834H156.413C156.151 47.0834 155.996 47.0507 155.89 46.9364L155.694 46.7241C155.637 46.667 155.58 46.569 155.58 46.4955V46.2342H158.095C158.56 46.2342 158.634 46.1036 158.634 45.6545V45.0257C158.634 44.5929 158.585 44.2908 158.225 44.005L157.907 43.7519C157.605 43.5069 157.425 43.4661 157.041 43.4661H156.323C156.004 43.4661 155.825 43.4743 155.457 43.7927L155.18 44.0295C154.853 44.3072 154.796 44.5521 154.796 44.9686V46.4792C154.796 46.9038 154.886 47.0834 155.196 47.361L155.531 47.655C155.776 47.8673 155.906 47.8673 156.233 47.8673H158.095ZM155.58 44.8951C155.58 44.6664 155.645 44.6093 155.743 44.5358L156.012 44.3398C156.143 44.25 156.266 44.25 156.413 44.25H157.074C157.196 44.25 157.352 44.2582 157.45 44.348L157.752 44.6093C157.858 44.7073 157.85 44.8297 157.85 44.9767V45.4503H155.58V44.8951ZM163 44.0132C163 43.5478 162.869 43.4661 162.42 43.4661H161.595C161.334 43.4661 161.056 43.5233 161.056 43.8581C161.056 44.201 161.367 44.25 161.595 44.25H162.216V47.0834H161.595C161.334 47.0834 161.056 47.1406 161.056 47.4753C161.056 47.8183 161.367 47.8673 161.595 47.8673H163.588C163.816 47.8673 164.127 47.8183 164.127 47.4753C164.127 47.1406 163.849 47.0834 163.588 47.0834H163V44.0132ZM161.816 42.2576C161.816 42.5353 161.971 42.6251 162.183 42.6251H162.632C162.845 42.6251 163 42.5353 163 42.2576V41.882C163 41.6044 162.845 41.5146 162.632 41.5146H162.183C161.971 41.5146 161.816 41.6044 161.816 41.882V42.2576ZM168.877 42.3965C168.877 41.931 168.746 41.8494 168.297 41.8494H167.472C167.211 41.8494 166.933 41.9065 166.933 42.2413C166.933 42.5843 167.244 42.6332 167.472 42.6332H168.093V47.0834H167.472C167.211 47.0834 166.933 47.1406 166.933 47.4753C166.933 47.8183 167.244 47.8673 167.472 47.8673H169.465C169.693 47.8673 170.003 47.8183 170.003 47.4753C170.003 47.1406 169.726 47.0834 169.465 47.0834H168.877V42.3965ZM174.754 44.0132C174.754 43.5478 174.623 43.4661 174.174 43.4661H173.349C173.088 43.4661 172.81 43.5233 172.81 43.8581C172.81 44.201 173.12 44.25 173.349 44.25H173.97V47.0834H173.349C173.088 47.0834 172.81 47.1406 172.81 47.4753C172.81 47.8183 173.12 47.8673 173.349 47.8673H175.341C175.57 47.8673 175.88 47.8183 175.88 47.4753C175.88 47.1406 175.603 47.0834 175.341 47.0834H174.754V44.0132ZM173.57 42.2576C173.57 42.5353 173.725 42.6251 173.937 42.6251H174.386C174.598 42.6251 174.754 42.5353 174.754 42.2576V41.882C174.754 41.6044 174.598 41.5146 174.386 41.5146H173.937C173.725 41.5146 173.57 41.6044 173.57 41.882V42.2576ZM180.835 44.25C181.047 44.25 181.186 44.2663 181.316 44.4051C181.414 44.5113 181.504 44.5685 181.651 44.5685C181.863 44.5685 182.051 44.397 182.051 44.1765C182.051 43.956 181.888 43.8581 181.741 43.7356C181.447 43.4906 181.267 43.4661 180.835 43.4661H179.495C178.907 43.4661 178.418 43.8417 178.418 44.4623C178.418 44.9686 178.671 45.2217 179.103 45.4177L180.949 46.2587C181.128 46.3403 181.357 46.4628 181.357 46.6506C181.357 47.1079 180.982 47.0834 180.704 47.0834H179.642C179.397 47.0834 179.152 47.0671 179.014 46.9119C178.924 46.8139 178.834 46.7731 178.712 46.7731C178.491 46.7731 178.303 46.9446 178.303 47.1651C178.303 47.361 178.516 47.508 178.663 47.6223C178.956 47.8509 179.234 47.8673 179.642 47.8673H180.851C181.602 47.8673 182.141 47.4917 182.141 46.6996C182.141 46.1362 181.88 45.8178 181.373 45.5891L179.414 44.6991C179.299 44.6501 179.201 44.6011 179.201 44.4705C179.201 44.2173 179.479 44.25 179.642 44.25H180.835ZM187.479 47.8673C187.708 47.8673 188.018 47.8183 188.018 47.4753C188.018 47.1406 187.74 47.0834 187.479 47.0834H185.797C185.536 47.0834 185.38 47.0507 185.274 46.9364L185.078 46.7241C185.021 46.667 184.964 46.569 184.964 46.4955V46.2342H187.479C187.944 46.2342 188.018 46.1036 188.018 45.6545V45.0257C188.018 44.5929 187.969 44.2908 187.61 44.005L187.291 43.7519C186.989 43.5069 186.809 43.4661 186.426 43.4661H185.707C185.389 43.4661 185.209 43.4743 184.842 43.7927L184.564 44.0295C184.237 44.3072 184.18 44.5521 184.18 44.9686V46.4792C184.18 46.9038 184.27 47.0834 184.58 47.361L184.915 47.655C185.16 47.8673 185.291 47.8673 185.617 47.8673H187.479ZM184.964 44.8951C184.964 44.6664 185.029 44.6093 185.127 44.5358L185.397 44.3398C185.527 44.25 185.65 44.25 185.797 44.25H186.458C186.581 44.25 186.736 44.2582 186.834 44.348L187.136 44.6093C187.242 44.7073 187.234 44.8297 187.234 44.9767V45.4503H184.964V44.8951ZM192.343 44.25C192.907 44.25 193.037 44.348 193.037 44.9359V45.1155H191.355C191.012 45.1155 190.71 45.1727 190.441 45.4095C190.147 45.6708 190.057 45.9076 190.057 46.2832V46.6261C190.057 47.0344 190.139 47.3202 190.465 47.5897C190.751 47.8265 191.004 47.8673 191.355 47.8673H192.107C192.36 47.8673 192.368 47.8673 192.588 47.753L193.127 47.4753C193.119 47.6958 193.323 47.8673 193.527 47.8673C193.789 47.8673 193.903 47.6386 193.895 47.41L193.813 44.7481C193.805 44.3562 193.764 44.1194 193.462 43.8172C193.152 43.5069 192.858 43.4661 192.449 43.4661H191.372C191.11 43.4661 190.833 43.5233 190.833 43.8581C190.833 44.201 191.143 44.25 191.372 44.25H192.343ZM192.523 45.8994C192.956 45.8994 193.078 46.0301 193.078 46.4628V46.6343L192.213 47.0834H191.347C191.159 47.0834 190.841 47.0262 190.841 46.7649V46.2424C190.841 45.9566 191.151 45.8994 191.363 45.8994H192.523ZM195.934 47.3284C195.934 47.5978 195.991 47.8673 196.326 47.8673C196.661 47.8673 196.718 47.5978 196.718 47.3284V45.3442L197.812 44.4378C197.951 44.3235 198.057 44.25 198.204 44.25H198.432C198.62 44.25 198.808 44.25 198.906 44.3888C198.988 44.5031 198.988 44.6011 198.988 44.7318C198.988 44.9849 199.102 45.2135 199.388 45.2135C199.723 45.2135 199.772 44.9359 199.772 44.6664C199.772 44.3072 199.682 44.0377 199.42 43.7764C199.208 43.5641 198.955 43.4661 198.653 43.4661H198.024C197.779 43.4661 197.551 43.6213 197.33 43.8009L196.718 44.3072V43.9887C196.718 43.7274 196.636 43.4661 196.326 43.4661C195.967 43.4661 195.934 43.7601 195.934 44.0459V47.3284ZM201.811 46.0464C201.811 46.5282 201.901 46.7649 202.276 47.0752L202.856 47.557C203.223 47.8591 203.411 47.8673 203.868 47.8673H205.11C205.371 47.8673 205.648 47.8101 205.648 47.4753C205.648 47.1324 205.338 47.0834 205.11 47.0834H203.73C203.574 47.0834 203.419 47.0017 203.28 46.8874L202.807 46.4873C202.684 46.3893 202.595 46.3077 202.595 46.1525V45.1809C202.595 45.0257 202.684 44.9441 202.807 44.8461L203.28 44.446C203.419 44.3317 203.574 44.25 203.73 44.25H205.11C205.338 44.25 205.648 44.201 205.648 43.8581C205.648 43.5233 205.371 43.4661 205.11 43.4661H203.868C203.411 43.4661 203.223 43.4743 202.856 43.7764L202.276 44.2582C201.901 44.5685 201.811 44.8052 201.811 45.287V46.0464ZM210.235 44.25C210.676 44.25 210.652 44.544 210.668 44.9196L210.75 47.3365C210.758 47.5978 210.823 47.8673 211.142 47.8673C211.493 47.8673 211.533 47.557 211.525 47.2794L211.444 44.8134C211.427 44.3888 211.444 44.054 211.093 43.7519C210.766 43.4661 210.488 43.4661 210.333 43.4661H209.811C209.549 43.4661 209.312 43.5968 209.108 43.7274L208.471 44.1439V42.3883C208.471 42.1188 208.414 41.8494 208.08 41.8494C207.745 41.8494 207.688 42.1188 207.688 42.3883V47.3284C207.688 47.5978 207.745 47.8673 208.08 47.8673C208.414 47.8673 208.471 47.5978 208.471 47.3284V45.0502L209.631 44.3235C209.713 44.2745 209.794 44.25 209.876 44.25H210.235Z" fill="white"/>
</svg>
