<svg width="687" height="740" viewBox="0 0 687 740" fill="none" xmlns="http://www.w3.org/2000/svg">
<path d="M265.426 110.141H412.579C416.998 110.141 420.579 113.723 420.579 118.141V246.176C420.579 250.595 416.998 254.176 412.579 254.176H130.229C125.811 254.176 122.229 257.758 122.229 262.176V464.768C122.229 469.186 118.647 472.768 114.229 472.768H49.3728C44.9546 472.768 41.3728 469.186 41.3728 464.768V382.206C41.3728 377.788 44.9546 374.206 49.3728 374.206H230.435" stroke="#AD6DE7" stroke-width="6"/>
<rect x="242.216" y="362.623" width="17.3326" height="5.60265" fill="#AD6DE7"/>
<rect x="242.216" y="381.007" width="17.3326" height="5.60265" fill="#AD6DE7"/>
<path fill-rule="evenodd" clip-rule="evenodd" d="M242.041 351.331C243.588 351.331 244.842 352.585 244.842 354.132V395.101C244.842 396.648 243.588 397.902 242.041 397.902C240.494 397.902 239.24 396.648 239.24 395.101V393.525H224.007C215.468 393.525 208.276 387.758 206.113 379.907H200.546C197.624 379.907 195.256 377.538 195.256 374.617C195.256 371.695 197.624 369.326 200.546 369.326H206.321C208.708 361.834 215.724 356.408 224.007 356.408H239.24V354.132C239.24 352.585 240.494 351.331 242.041 351.331Z" fill="#8518E8"/>
<rect x="2.31033" y="1.8313" width="208.127" height="106.646" rx="16" fill="#641C67" stroke="#FF5CAA" stroke-width="3"/>
<rect x="21.7137" y="20.7764" width="208.127" height="106.646" rx="16" fill="#3E176C" stroke="#AD6DE7" stroke-width="3"/>
<rect x="41.117" y="39.7212" width="208.127" height="106.646" rx="16" fill="#2F1979" stroke="#4F55E3" stroke-width="3"/>
<rect x="60.5202" y="58.6655" width="208.127" height="106.646" rx="16" fill="#21004B" stroke="white" stroke-width="3"/>
<path d="M162.83 84.2368H243.22" stroke="white" stroke-width="3" stroke-linecap="round"/>
<path d="M162.83 103.389H243.22" stroke="white" stroke-width="3" stroke-linecap="round"/>
<path d="M162.83 122.542H249.008" stroke="white" stroke-width="3" stroke-linecap="round"/>
<path d="M162.83 141.694H216.147" stroke="white" stroke-width="3" stroke-linecap="round"/>
<path d="M143.292 92.0677V133.855C143.29 136.932 141.959 139.883 139.59 142.06C137.221 144.236 134.009 145.461 130.658 145.466H90.9266C87.5758 145.461 84.3636 144.236 81.995 142.06C79.6264 139.883 78.2948 136.932 78.2925 133.855V92.0677C78.2948 88.9913 79.6267 86.0415 81.9955 83.8662C84.3644 81.6908 87.5766 80.4677 90.9266 80.4656H130.658C134.008 80.4677 137.221 81.6908 139.589 83.8662C141.958 86.0415 143.29 88.9913 143.292 92.0677Z" stroke="white" stroke-width="3" stroke-linecap="round"/>
<path d="M80.0253 119.583L92.7675 108.477L111.277 125.204L123.754 115.47L141.939 129.592" stroke="white" stroke-width="3" stroke-linecap="round" stroke-linejoin="round"/>
<circle cx="128.672" cy="99.7981" r="6.50732" stroke="white" stroke-width="3" stroke-linecap="round"/>
<rect x="123.412" y="660.371" width="78.8875" height="78.8875" rx="14.5489" fill="white"/>
<path d="M190.024 699.14L187.712 697.708C187.692 697.483 187.67 697.258 187.646 697.034L189.633 695.18C189.835 694.992 189.926 694.713 189.871 694.443C189.818 694.172 189.628 693.949 189.37 693.852L186.829 692.902C186.765 692.682 186.698 692.464 186.63 692.246L188.215 690.045C188.376 689.821 188.409 689.53 188.304 689.275C188.199 689.021 187.969 688.839 187.697 688.794L185.018 688.358C184.913 688.155 184.805 687.955 184.696 687.757L185.821 685.285C185.937 685.034 185.913 684.741 185.759 684.513C185.606 684.283 185.347 684.149 185.07 684.159L182.351 684.254C182.21 684.078 182.067 683.904 181.921 683.733L182.546 681.084C182.609 680.815 182.53 680.534 182.334 680.339C182.14 680.144 181.857 680.063 181.588 680.126L178.94 680.751C178.769 680.605 178.594 680.462 178.418 680.321L178.513 677.602C178.524 677.327 178.39 677.065 178.16 676.913C177.93 676.759 177.639 676.736 177.388 676.85L174.917 677.976C174.718 677.867 174.518 677.758 174.316 677.654L173.879 674.974C173.835 674.702 173.653 674.472 173.398 674.367C173.144 674.261 172.852 674.295 172.628 674.456L170.425 676.041C170.209 675.972 169.991 675.906 169.771 675.842L168.821 673.301C168.724 673.042 168.501 672.852 168.23 672.799C167.959 672.745 167.681 672.835 167.493 673.036L165.639 675.026C165.416 675.001 165.19 674.978 164.965 674.96L163.534 672.646C163.389 672.412 163.133 672.27 162.857 672.27C162.581 672.27 162.325 672.412 162.181 672.646L160.749 674.96C160.524 674.978 160.298 675.001 160.075 675.026L158.22 673.036C158.032 672.835 157.753 672.745 157.483 672.799C157.212 672.853 156.989 673.042 156.893 673.301L155.943 675.842C155.723 675.906 155.505 675.972 155.287 676.041L153.085 674.456C152.861 674.294 152.57 674.26 152.315 674.367C152.061 674.472 151.878 674.702 151.834 674.974L151.397 677.654C151.195 677.758 150.995 677.866 150.795 677.976L148.325 676.85C148.074 676.735 147.781 676.759 147.553 676.913C147.323 677.065 147.189 677.327 147.199 677.602L147.294 680.321C147.118 680.462 146.944 680.605 146.772 680.751L144.124 680.126C143.855 680.064 143.573 680.144 143.378 680.339C143.182 680.534 143.103 680.815 143.166 681.084L143.79 683.733C143.645 683.905 143.502 684.078 143.361 684.254L140.642 684.159C140.368 684.152 140.106 684.283 139.952 684.513C139.799 684.741 139.776 685.034 139.89 685.285L141.016 687.757C140.907 687.955 140.798 688.155 140.694 688.358L138.014 688.794C137.742 688.838 137.513 689.02 137.407 689.275C137.302 689.53 137.336 689.821 137.496 690.045L139.081 692.246C139.012 692.464 138.946 692.682 138.882 692.902L136.341 693.852C136.083 693.949 135.893 694.172 135.839 694.443C135.786 694.713 135.876 694.992 136.077 695.18L138.065 697.034C138.041 697.258 138.019 697.483 138 697.708L135.687 699.14C135.453 699.284 135.31 699.54 135.31 699.816C135.31 700.093 135.453 700.349 135.687 700.493L138 701.925C138.019 702.15 138.041 702.375 138.065 702.598L136.077 704.453C135.876 704.641 135.786 704.92 135.839 705.19C135.893 705.461 136.083 705.683 136.341 705.78L138.882 706.73C138.946 706.95 139.012 707.169 139.081 707.386L137.496 709.588C137.335 709.812 137.301 710.103 137.407 710.357C137.513 710.613 137.743 710.795 138.015 710.838L140.694 711.274C140.798 711.477 140.906 711.677 141.016 711.877L139.89 714.347C139.775 714.598 139.799 714.89 139.952 715.12C140.106 715.35 140.368 715.484 140.642 715.473L143.36 715.378C143.502 715.555 143.644 715.728 143.79 715.9L143.166 718.549C143.103 718.817 143.182 719.098 143.378 719.293C143.572 719.49 143.855 719.568 144.124 719.505L146.772 718.881C146.944 719.028 147.118 719.17 147.294 719.31L147.199 722.029C147.189 722.305 147.323 722.566 147.553 722.719C147.781 722.873 148.074 722.896 148.325 722.781L150.795 721.655C150.994 721.766 151.194 721.873 151.397 721.978L151.834 724.656C151.878 724.929 152.06 725.159 152.315 725.264C152.569 725.37 152.861 725.335 153.085 725.175L155.286 723.589C155.504 723.658 155.722 723.725 155.942 723.788L156.892 726.329C156.989 726.587 157.212 726.778 157.483 726.83C157.753 726.885 158.032 726.794 158.22 726.592L160.074 724.604C160.298 724.63 160.523 724.652 160.748 724.672L162.18 726.984C162.324 727.218 162.581 727.361 162.856 727.361C163.132 727.361 163.389 727.218 163.533 726.984L164.965 724.672C165.19 724.652 165.415 724.63 165.639 724.604L167.493 726.592C167.68 726.794 167.959 726.885 168.229 726.83C168.501 726.777 168.724 726.587 168.82 726.329L169.77 723.788C169.99 723.725 170.209 723.658 170.426 723.589L172.628 725.175C172.851 725.335 173.143 725.37 173.397 725.264C173.652 725.159 173.834 724.928 173.878 724.656L174.315 721.978C174.517 721.873 174.717 721.764 174.917 721.655L177.388 722.781C177.639 722.896 177.931 722.873 178.16 722.719C178.389 722.566 178.523 722.305 178.513 722.029L178.418 719.31C178.594 719.169 178.768 719.028 178.94 718.881L181.588 719.505C181.857 719.568 182.139 719.49 182.333 719.293C182.529 719.098 182.608 718.817 182.545 718.549L181.922 715.9C182.067 715.728 182.21 715.555 182.35 715.378L185.069 715.473C185.343 715.484 185.606 715.35 185.759 715.12C185.912 714.89 185.936 714.598 185.821 714.347L184.695 711.877C184.805 711.677 184.913 711.477 185.017 711.274L187.696 710.838C187.969 710.795 188.198 710.613 188.304 710.357C188.409 710.103 188.376 709.812 188.214 709.588L186.629 707.386C186.698 707.169 186.765 706.95 186.828 706.73L189.369 705.78C189.627 705.683 189.818 705.461 189.871 705.19C189.925 704.919 189.835 704.641 189.633 704.453L187.645 702.598C187.669 702.375 187.692 702.149 187.711 701.925L190.024 700.493C190.258 700.349 190.401 700.092 190.401 699.816C190.401 699.541 190.259 699.284 190.024 699.14ZM174.545 718.326C173.661 718.135 173.1 717.265 173.289 716.379C173.478 715.494 174.348 714.931 175.231 715.121C176.114 715.31 176.677 716.183 176.487 717.067C176.298 717.951 175.427 718.515 174.545 718.326ZM173.759 713.011C172.953 712.838 172.16 713.351 171.988 714.158L171.167 717.99C168.633 719.14 165.819 719.779 162.855 719.779C159.824 719.779 156.949 719.109 154.37 717.91L153.549 714.078C153.377 713.271 152.584 712.758 151.779 712.931L148.396 713.657C147.768 713.011 147.184 712.322 146.647 711.595H163.107C163.293 711.595 163.417 711.562 163.417 711.392V705.57C163.417 705.4 163.293 705.366 163.107 705.366H158.293V701.676H163.5C163.975 701.676 166.041 701.811 166.701 704.452C166.908 705.264 167.363 707.906 167.673 708.752C167.983 709.7 169.243 711.595 170.585 711.595H178.788C178.881 711.595 178.98 711.585 179.085 711.566C178.516 712.339 177.892 713.071 177.22 713.754L173.759 713.011ZM150.993 718.246C150.11 718.436 149.24 717.873 149.05 716.988C148.861 716.102 149.423 715.232 150.306 715.041C151.189 714.852 152.059 715.416 152.249 716.3C152.438 717.185 151.875 718.056 150.993 718.246ZM144.749 692.925C145.115 693.752 144.742 694.721 143.916 695.087C143.091 695.454 142.124 695.081 141.758 694.253C141.391 693.426 141.764 692.459 142.59 692.092C143.416 691.725 144.382 692.098 144.749 692.925ZM142.829 697.475L146.353 695.909C147.106 695.575 147.446 694.692 147.112 693.938L146.386 692.297H149.241V705.163H143.482C142.982 703.407 142.714 701.554 142.714 699.639C142.714 698.907 142.754 698.185 142.829 697.475ZM158.294 696.225V692.433H165.091C165.442 692.433 167.57 692.839 167.57 694.43C167.57 695.751 165.938 696.225 164.596 696.225H158.294V696.225ZM182.997 699.639C182.997 700.142 182.979 700.64 182.942 701.134H180.875C180.668 701.134 180.585 701.27 180.585 701.472V702.421C180.585 704.655 179.326 705.141 178.222 705.265C177.171 705.383 176.005 704.825 175.862 704.182C175.242 700.694 174.208 699.949 172.577 698.662C174.602 697.376 176.709 695.479 176.709 692.94C176.709 690.198 174.829 688.471 173.548 687.624C171.75 686.44 169.76 686.202 169.223 686.202H147.851C150.75 682.968 154.677 680.677 159.12 679.843L161.639 682.486C162.208 683.082 163.152 683.104 163.748 682.534L166.566 679.838C172.472 680.938 177.473 684.614 180.355 689.658L178.425 694.017C178.092 694.771 178.432 695.653 179.184 695.987L182.899 697.637C182.963 698.297 182.997 698.963 182.997 699.639ZM161.64 677.595C162.293 676.969 163.328 676.994 163.953 677.648C164.577 678.303 164.553 679.34 163.899 679.964C163.246 680.59 162.211 680.565 161.586 679.911C160.963 679.256 160.986 678.22 161.64 677.595ZM180.789 693.005C181.155 692.178 182.121 691.805 182.947 692.172C183.773 692.538 184.145 693.507 183.779 694.333C183.413 695.161 182.447 695.534 181.621 695.167C180.796 694.801 180.423 693.833 180.789 693.005Z" fill="black"/>
<rect x="231.397" y="660.371" width="78.8875" height="78.8875" rx="14.5489" fill="white"/>
<path fill-rule="evenodd" clip-rule="evenodd" d="M276.996 710.35V694.665C276.996 694.397 276.889 694.14 276.699 693.95C276.51 693.761 276.252 693.654 275.984 693.654H260.318V677.464H292.156C292.289 677.464 292.421 677.49 292.543 677.541C292.666 677.592 292.778 677.666 292.872 677.76C292.966 677.854 293.04 677.966 293.091 678.088C293.142 678.211 293.168 678.343 293.168 678.476V710.35H276.996Z" fill="#8E75FF"/>
<path opacity="0.405" fill-rule="evenodd" clip-rule="evenodd" d="M260.318 677.464V693.654H245.366C245.266 693.654 245.168 693.624 245.085 693.569C245.001 693.513 244.937 693.434 244.898 693.342C244.86 693.25 244.85 693.148 244.87 693.05C244.889 692.952 244.937 692.862 245.008 692.791L260.318 677.464ZM276.996 725.318V710.35H293.168L277.859 725.676C277.788 725.746 277.698 725.794 277.6 725.814C277.502 725.833 277.4 725.823 277.308 725.785C277.216 725.747 277.137 725.682 277.081 725.599C277.025 725.516 276.996 725.418 276.996 725.318ZM260.318 693.654H276.49C276.624 693.654 276.753 693.707 276.847 693.802C276.942 693.897 276.996 694.026 276.996 694.16V710.35H261.329C261.196 710.35 261.065 710.324 260.942 710.273C260.82 710.222 260.708 710.148 260.614 710.054C260.52 709.96 260.446 709.848 260.395 709.726C260.344 709.603 260.318 709.471 260.318 709.339V693.654Z" fill="#8E75FF"/>
<rect x="339.383" y="660.371" width="78.8875" height="78.8875" rx="14.5489" fill="#F0DB4F"/>
<path d="M410.016 718.335C409.501 715.128 407.41 712.434 401.216 709.923C399.065 708.934 396.666 708.226 395.951 706.595C395.697 705.646 395.664 705.112 395.824 704.537C396.285 702.673 398.51 702.092 400.274 702.627C401.41 703.007 402.485 703.883 403.134 705.279C406.167 703.315 406.161 703.328 408.279 701.978C407.503 700.776 407.09 700.221 406.582 699.707C404.758 697.669 402.272 696.62 398.296 696.7L396.226 696.968C394.241 697.469 392.35 698.511 391.241 699.907C387.914 703.683 388.863 710.29 392.912 713.01C396.901 716.004 402.76 716.685 403.509 719.485C404.237 722.912 400.99 724.021 397.762 723.627C395.384 723.133 394.061 721.924 392.631 719.725C389.999 721.249 389.999 721.249 387.292 722.805C387.934 724.208 388.608 724.843 389.684 726.059C394.776 731.224 407.517 730.97 409.803 723.153C409.895 722.884 410.511 721.094 410.016 718.335ZM383.69 697.114H377.115L377.088 714.111C377.088 717.726 377.275 721.04 376.688 722.056C375.726 724.054 373.233 723.806 372.097 723.419C370.941 722.851 370.353 722.043 369.672 720.901C369.485 720.573 369.345 720.319 369.298 720.299L363.952 723.573C364.841 725.397 366.15 726.981 367.828 728.009C370.333 729.513 373.7 729.974 377.222 729.165C379.514 728.498 381.492 727.115 382.527 725.01C384.024 722.25 383.703 718.91 383.69 715.215C383.723 709.187 383.69 703.16 383.69 697.114Z" fill="#323330"/>
<rect x="447.368" y="660.371" width="78.8875" height="78.8875" rx="14.5489" fill="white"/>
<g clip-path="url(#clip0_792_8376)">
<path d="M486.811 725.276C500.872 725.276 512.272 713.877 512.272 699.815C512.272 685.754 500.872 674.355 486.811 674.355C472.749 674.355 461.35 685.754 461.35 699.815C461.35 713.877 472.749 725.276 486.811 725.276Z" fill="#1A171B"/>
<path d="M497.942 683.775C495.354 683.865 493.098 685.289 491.418 687.264C489.559 689.426 488.32 691.99 487.427 694.606C485.832 693.299 484.601 691.606 482.059 690.868C481.05 690.557 479.981 690.494 478.942 690.684C477.903 690.874 476.925 691.311 476.091 691.959C475.186 692.636 474.561 693.657 474.266 694.618C473.499 697.116 475.071 699.338 475.788 700.135L477.353 701.811C477.675 702.137 478.451 702.999 478.072 704.226C477.661 705.562 476.049 706.431 474.397 705.919C473.659 705.695 472.598 705.144 472.836 704.37C472.932 704.054 473.162 703.814 473.283 703.542C473.394 703.306 473.448 703.13 473.482 703.024C473.785 702.039 473.371 700.756 472.317 700.43C471.331 700.128 470.323 700.367 469.932 701.638C469.491 703.08 470.177 705.695 473.871 706.814C478.2 708.145 481.86 705.787 482.379 702.712C482.705 700.787 481.837 699.357 480.246 697.536L478.948 696.102C478.181 695.335 477.893 693.978 478.706 692.95C479.392 692.082 480.37 691.712 481.971 692.145C484.31 692.777 485.349 694.401 487.09 695.711C486.373 698.065 485.901 700.427 485.479 702.547L485.22 704.127C483.978 710.645 483.029 714.224 480.562 716.277C480.063 716.63 479.354 717.159 478.284 717.197C477.723 717.216 477.542 716.829 477.537 716.66C477.523 716.267 477.855 716.085 478.074 715.909C478.403 715.729 478.902 715.43 478.867 714.477C478.829 713.35 477.897 712.368 476.548 712.416C475.535 712.45 473.994 713.403 474.052 715.146C474.113 716.948 475.79 718.296 478.321 718.209C479.672 718.163 482.692 717.615 485.669 714.074C489.133 710.018 490.101 705.371 490.832 701.966L491.644 697.472L493.105 697.576C497.419 697.666 499.577 695.433 499.61 693.807C499.629 692.823 498.964 691.855 498.03 691.876C497.359 691.896 496.521 692.34 496.32 693.264C496.123 694.171 497.693 694.99 496.466 695.783C495.594 696.347 494.031 696.746 491.83 696.422L492.233 694.21C493.05 690.015 494.054 684.854 497.879 684.732C498.157 684.718 499.177 684.745 499.202 685.418C499.209 685.642 499.154 685.7 498.889 686.215C498.621 686.599 498.519 686.959 498.532 687.352C498.571 688.426 499.384 689.127 500.561 689.085C502.139 689.033 502.593 687.5 502.566 686.708C502.503 684.856 500.549 683.685 497.965 683.771L497.942 683.775Z" fill="white"/>
</g>
<rect x="555.353" y="660.371" width="78.8875" height="78.8875" rx="14.5489" fill="white"/>
<path d="M607.518 711.663L581.083 727.36L615.311 725.037L617.947 690.524L607.518 711.663Z" fill="url(#paint0_linear_792_8376)"/>
<path d="M615.367 725.014L612.425 704.709L604.412 715.29L615.367 725.014Z" fill="url(#paint1_linear_792_8376)"/>
<path d="M615.407 725.014L593.854 723.323L581.197 727.317L615.407 725.014Z" fill="url(#paint2_linear_792_8376)"/>
<path d="M581.228 727.321L586.612 709.682L574.764 712.215L581.228 727.321Z" fill="url(#paint3_linear_792_8376)"/>
<path d="M604.41 715.348L599.456 695.943L585.278 709.233L604.41 715.348Z" fill="url(#paint4_linear_792_8376)"/>
<path d="M616.823 696.217L603.421 685.271L599.689 697.336L616.823 696.217Z" fill="url(#paint5_linear_792_8376)"/>
<path d="M610.556 681.369L602.673 685.725L597.701 681.31L610.556 681.369Z" fill="url(#paint6_linear_792_8376)"/>
<path d="M571.646 718.131L574.948 712.109L572.277 704.935L571.646 718.131Z" fill="url(#paint7_linear_792_8376)"/>
<path d="M572.1 704.709L574.787 712.331L586.464 709.712L599.796 697.322L603.558 685.371L597.635 681.188L587.563 684.957C584.389 687.909 578.232 693.749 578.01 693.859C577.79 693.97 573.943 701.24 572.1 704.709Z" fill="white"/>
<path d="M581.537 691.015C588.414 684.196 597.28 680.167 600.682 683.6C604.083 687.033 600.477 695.376 593.599 702.192C586.722 709.009 577.966 713.26 574.566 709.827C571.163 706.396 574.659 697.831 581.537 691.015Z" fill="url(#paint8_linear_792_8376)"/>
<path d="M581.228 727.313L586.569 709.618L604.311 715.317C597.897 721.332 590.762 726.418 581.228 727.313Z" fill="url(#paint9_linear_792_8376)"/>
<path d="M599.82 697.287L604.375 715.328C609.734 709.694 614.543 703.637 616.898 696.145L599.82 697.287Z" fill="url(#paint10_linear_792_8376)"/>
<path d="M616.851 696.236C618.674 690.735 619.094 682.843 610.499 681.378L603.447 685.274L616.851 696.236Z" fill="url(#paint11_linear_792_8376)"/>
<path d="M571.646 718.053C571.898 727.132 578.449 727.267 581.239 727.347L574.794 712.294L571.646 718.053Z" fill="#9E1209"/>
<path d="M599.845 697.314C603.963 699.845 612.262 704.928 612.43 705.021C612.691 705.169 616.008 699.429 616.76 696.186L599.845 697.314Z" fill="url(#paint12_radial_792_8376)"/>
<path d="M586.563 709.618L593.704 723.396C597.927 721.106 601.234 718.316 604.262 715.327L586.563 709.618Z" fill="url(#paint13_radial_792_8376)"/>
<path d="M574.766 712.313L573.754 724.362C575.663 726.97 578.29 727.197 581.045 726.993C579.052 722.032 575.07 712.112 574.766 712.313Z" fill="url(#paint14_linear_792_8376)"/>
<path d="M603.405 685.303L617.592 687.294C616.835 684.086 614.51 682.015 610.547 681.368L603.405 685.303Z" fill="url(#paint15_linear_792_8376)"/>
<rect x="283.37" y="336.414" width="78.8875" height="78.8875" rx="14.5489" fill="#00DCFF"/>
<path fill-rule="evenodd" clip-rule="evenodd" d="M338.292 367.006C338.867 367.171 339.438 367.351 340.004 367.545C345.75 369.522 349.462 372.618 349.462 375.819C349.462 379.157 345.495 382.421 339.396 384.44C339.074 384.547 338.743 384.649 338.407 384.749C338.527 385.231 338.634 385.706 338.726 386.17C339.93 392.246 339.003 397.241 336.149 398.892C333.387 400.49 328.921 398.92 324.4 395.032C323.909 394.609 323.429 394.172 322.962 393.721C322.591 394.08 322.221 394.421 321.852 394.744C317.185 398.821 312.391 400.512 309.535 398.866C306.77 397.273 305.901 392.623 307.014 386.768C307.135 386.132 307.275 385.499 307.432 384.87C306.949 384.732 306.469 384.583 305.993 384.421C300.127 382.417 296.266 379.113 296.266 375.819C296.266 372.629 299.863 369.554 305.495 367.592C306.124 367.373 306.782 367.166 307.463 366.973C307.318 366.39 307.186 365.803 307.07 365.212C305.903 359.254 306.724 354.491 309.497 352.888C312.388 351.215 317.203 353.011 322.007 357.273C322.306 357.539 322.6 357.81 322.889 358.087C323.32 357.671 323.762 357.266 324.213 356.872C328.797 352.886 333.336 351.219 336.111 352.818C339.005 354.486 339.853 359.551 338.556 365.839C338.475 366.23 338.387 366.619 338.292 367.006ZM337.788 382.565C338.092 382.475 338.391 382.382 338.681 382.286H338.682C343.947 380.542 347.19 377.875 347.19 375.82C347.19 373.891 344.187 371.387 339.265 369.694C338.756 369.518 338.227 369.353 337.683 369.195C337.029 371.311 336.155 373.547 335.094 375.831C336.206 378.17 337.115 380.435 337.788 382.565ZM336.752 393.628C337.105 391.728 337.029 389.299 336.497 386.612C336.414 386.192 336.317 385.763 336.209 385.326C334.005 385.835 331.576 386.208 329.004 386.436C327.542 388.551 326.044 390.455 324.545 392.093C324.993 392.524 325.439 392.931 325.883 393.312C329.749 396.637 333.334 397.897 335.011 396.927C335.798 396.472 336.435 395.334 336.752 393.628ZM310.671 396.9C311.459 397.354 312.764 397.338 314.402 396.76H314.402C316.225 396.116 318.293 394.838 320.357 393.035C320.702 392.732 321.04 392.421 321.37 392.102C319.817 390.436 318.276 388.534 316.804 386.465C314.226 386.256 311.814 385.909 309.635 385.428C309.489 386.012 309.36 386.601 309.247 387.192C308.295 392.2 308.993 395.933 310.671 396.9ZM300.524 378.98C301.992 380.236 304.134 381.387 306.728 382.273C307.163 382.421 307.6 382.558 308.042 382.684C308.713 380.495 309.599 378.197 310.667 375.875C309.613 373.587 308.74 371.325 308.074 369.162C307.458 369.335 306.847 369.527 306.243 369.737C301.426 371.415 298.538 373.884 298.538 375.82C298.538 376.729 299.204 377.85 300.524 378.98ZM310.635 354.854C308.965 355.82 308.301 359.672 309.301 364.777V364.777C309.409 365.326 309.531 365.872 309.666 366.415C311.868 365.916 314.263 365.544 316.765 365.313C318.224 363.255 319.751 361.367 321.296 359.709C321.03 359.454 320.763 359.208 320.498 358.972C316.351 355.292 312.415 353.824 310.635 354.854ZM330.63 367.781C331.188 368.655 331.727 369.542 332.247 370.439C332.776 371.351 333.286 372.273 333.777 373.205C334.45 371.631 335.022 370.096 335.48 368.628C333.953 368.28 332.327 367.995 330.63 367.781ZM326.02 365.108C324.987 363.733 323.938 362.466 322.89 361.332C321.825 362.479 320.766 363.745 319.733 365.106C321.827 365.008 323.925 365.009 326.02 365.108ZM311.97 373.204C312.449 372.276 312.95 371.359 313.472 370.455C313.994 369.549 314.538 368.656 315.103 367.777C313.416 367.987 311.798 368.264 310.28 368.604C310.742 370.093 311.309 371.635 311.97 373.204ZM310.249 383.237C311.766 383.567 313.409 383.83 315.151 384.025C314.573 383.128 314.016 382.218 313.481 381.295C312.957 380.39 312.454 379.473 311.973 378.544C311.297 380.146 310.718 381.722 310.249 383.237ZM319.752 386.641C320.801 388.022 321.875 389.307 322.952 390.468C323.993 389.323 325.039 388.036 326.075 386.629C325.02 386.677 323.949 386.701 322.864 386.701C321.809 386.701 320.77 386.681 319.752 386.641ZM335.586 383.139C335.109 381.649 334.51 380.082 333.799 378.463C333.306 379.413 332.791 380.352 332.256 381.279C331.73 382.191 331.185 383.093 330.623 383.984C332.378 383.774 334.043 383.49 335.586 383.139ZM327.736 384.259C328.631 382.916 329.482 381.544 330.288 380.145H330.288C331.101 378.738 331.863 377.303 332.574 375.842C331.856 374.396 331.091 372.973 330.28 371.577C329.474 370.184 328.619 368.82 327.717 367.487C326.136 367.367 324.511 367.304 322.864 367.304C321.225 367.304 319.602 367.367 318.02 367.486C317.109 368.821 316.249 370.189 315.441 371.589V371.589C314.633 372.988 313.879 374.418 313.178 375.874C313.88 377.33 314.637 378.759 315.448 380.157C316.262 381.563 317.129 382.938 318.048 384.278C319.598 384.379 321.209 384.43 322.864 384.43C324.526 384.43 326.157 384.372 327.736 384.259ZM336.331 365.382C337.45 359.953 336.757 355.813 334.976 354.786C333.303 353.823 329.633 355.171 325.705 358.586C325.288 358.95 324.88 359.324 324.482 359.708C326.002 361.345 327.517 363.236 328.979 365.316C331.488 365.551 333.885 365.93 336.091 366.438C336.178 366.088 336.257 365.735 336.331 365.382Z" fill="white"/>
<path d="M322.864 371.074C325.488 371.074 327.614 373.199 327.614 375.821C327.614 378.443 325.488 380.568 322.864 380.568C320.241 380.568 318.114 378.443 318.114 375.821C318.114 373.199 320.241 371.074 322.864 371.074Z" fill="white"/>
<rect x="391.355" y="336.414" width="78.8875" height="78.8875" rx="14.5489" fill="white"/>
<path d="M402.363 351.333L430.799 400.385L459.234 351.333H447.86L430.799 380.764L413.595 351.333H402.363Z" fill="#4DBA87"/>
<path d="M413.596 351.332L430.8 380.905L447.861 351.332H437.34L430.8 362.706L424.117 351.332H413.596Z" fill="#435466"/>
<rect x="499.34" y="336.414" width="78.89" height="78.89" rx="14.55" fill="white"/>
<mask id="mask0_792_8376" style="mask-type:alpha" maskUnits="userSpaceOnUse" x="499" y="336" width="80" height="80">
<rect x="499.34" y="336.414" width="78.89" height="78.89" rx="14.55" fill="white"/>
</mask>
<g mask="url(#mask0_792_8376)">
<path fill-rule="evenodd" clip-rule="evenodd" d="M509.459 335.358C508.743 335.415 508.04 335.406 507.347 335.599C505.831 336.021 504.485 336.697 503.296 337.738C502.598 338.35 501.988 339.009 501.471 339.786C500.672 340.985 500.128 342.274 499.855 343.725C499.964 343.919 500.079 344.123 500.201 344.33C500.975 345.645 501.75 346.951 502.526 348.265L504.565 351.71C505.193 352.772 505.819 353.835 506.445 354.897L509.371 359.857C510.036 360.985 510.701 362.113 511.367 363.24C512.336 364.882 513.309 366.523 514.277 368.165L517.839 374.211C518.866 375.953 519.894 377.693 520.923 379.433L521.06 379.635C521.209 379.684 521.328 379.642 521.451 379.613C522.806 379.282 524.162 378.954 525.517 378.625C527.714 378.091 529.912 377.56 532.11 377.026L535.552 376.189C537.774 375.649 539.997 375.111 542.219 374.571C544.465 374.025 546.71 373.476 548.957 372.93C550.092 372.653 551.228 372.378 552.364 372.102C554.561 371.569 556.759 371.038 558.957 370.506L566.138 368.769L566.525 368.662L566.419 368.449L564.46 365.634L562.524 362.85L560.454 359.88L558.475 357.033L556.515 354.219L554.49 351.312C553.829 350.363 553.167 349.416 552.505 348.468L551.459 346.968C551.299 346.737 551.172 346.489 551.087 346.22C550.88 345.568 551.116 345.134 551.49 344.813C551.733 344.604 552.012 344.452 552.315 344.361C552.736 344.235 553.16 344.115 553.591 344.032C554.454 343.866 555.323 343.726 556.189 343.579L559.125 343.093C559.744 342.989 560.363 342.88 560.982 342.773C561.823 342.629 562.665 342.484 563.507 342.341C564.324 342.202 565.141 342.064 565.958 341.927L568.634 341.482L570.49 341.166C571.197 341.046 571.902 340.926 572.608 340.809C573.488 340.663 574.367 340.516 575.247 340.376C575.772 340.293 576.296 340.264 576.817 340.416C577.208 340.53 577.563 340.716 577.894 340.953L578.352 341.278C578.398 341.171 578.332 341.113 578.301 341.052C577.641 339.693 576.74 338.526 575.596 337.553C574.532 336.649 573.338 335.984 572.017 335.56C571.237 335.309 570.435 335.426 569.618 335.363L509.459 335.358ZM534.068 416.185C534.029 416.185 533.994 415.895 533.95 415.818C532.997 414.167 532.034 412.394 531.093 410.736C529.908 408.647 528.733 406.552 527.565 404.452C526.317 402.208 525.08 399.958 523.841 397.709C522.664 395.571 521.491 393.431 520.318 391.291C519.61 389.997 518.906 388.701 518.199 387.407L518.011 387.111L517.667 387.18C516.986 387.359 516.306 387.539 515.627 387.72C514.681 387.973 513.735 388.231 512.789 388.482C510.663 389.044 508.538 389.602 506.412 390.162C504.251 390.733 501.998 391.304 499.836 391.872C499.705 391.906 499.975 391.918 499.34 391.941V405.583C499.602 406.006 499.577 405.806 499.594 405.946C499.644 406.35 499.725 406.757 499.795 407.157C500.057 408.647 500.645 410.012 501.496 411.254C502.744 413.078 504.406 414.381 506.442 415.178C507.169 415.462 507.928 415.662 508.704 415.759L509.492 415.97" fill="#FD4F31"/>
<path fill-rule="evenodd" clip-rule="evenodd" d="M501.865 384.405C504.366 383.8 506.868 383.196 509.37 382.593C510.468 382.329 511.567 382.067 512.666 381.801C513.215 381.669 513.766 381.542 514.311 381.392C514.796 381.26 514.855 381.096 514.606 380.652C514.245 380.009 513.878 379.37 513.513 378.73L510.297 373.104L507.083 367.477C505.993 365.569 504.901 363.661 503.81 361.753C502.876 360.121 501.942 358.488 501.008 356.856C500.605 356.15 500.114 355.442 499.709 354.737C499.633 354.609 499.975 354.455 499.34 354.387V384.965C499.34 384.945 499.628 384.927 499.725 384.903L501.865 384.405ZM578.859 406.262C577.878 406.616 576.897 406.973 575.917 407.33C573.685 408.142 571.453 408.955 569.221 409.769C567.981 410.221 566.743 410.679 565.503 411.129C562.974 412.046 560.444 412.959 557.915 413.874C556.449 414.404 554.983 415.06 553.518 415.593C553.117 415.739 552.721 416.184 552.324 416.184H569.145L569.507 415.973C569.935 415.955 570.356 415.826 570.776 415.748C572.503 415.427 574.049 414.668 575.419 413.559C576.471 412.707 577.327 411.665 577.998 410.477C578.687 409.253 579.097 407.93 579.294 406.54C579.311 406.42 579.348 406.284 579.249 406.16C579.109 406.149 578.986 406.216 578.859 406.262ZM577.414 383.312C576.672 382.281 575.929 381.252 575.188 380.221C574.167 378.797 573.147 377.372 572.126 375.947C571.712 375.369 571.291 374.796 570.887 374.211C570.765 374.035 570.626 373.988 570.436 374.04L570.327 374.072C568.449 374.536 566.57 374.998 564.691 375.461L561.324 376.291C559.129 376.832 556.933 377.374 554.738 377.916C552.567 378.452 550.396 378.989 548.224 379.524L541.453 381.19C539.233 381.738 537.013 382.287 534.793 382.836L528.353 384.424C527.218 384.704 526.084 384.983 524.95 385.264C524.783 385.305 524.603 385.316 524.426 385.452L524.577 385.746C525.528 387.414 526.479 389.082 527.432 390.749C528.511 392.637 529.59 394.524 530.672 396.41C531.862 398.483 533.055 400.555 534.247 402.627C534.933 403.817 535.613 405.009 536.304 406.196C537.072 407.515 537.842 408.831 538.624 410.141C538.858 410.533 539.124 410.907 539.392 411.276C539.572 411.522 539.794 411.733 540.056 411.893C540.327 412.059 540.618 412.111 540.926 412.041C541.085 412.004 541.24 411.951 541.394 411.897L541.959 411.684C544.014 410.97 546.069 410.256 548.125 409.544C549.73 408.99 551.335 408.437 552.941 407.886C554.534 407.337 556.129 406.79 557.722 406.244L562.468 404.615C564.086 404.06 565.704 403.504 567.321 402.948C569.306 402.263 571.291 401.576 573.277 400.893C575.191 400.235 577.108 399.58 579.023 398.924C579.141 398.884 579.27 398.867 579.367 398.736L579.379 398.453C579.38 394.417 579.379 390.381 579.383 386.345C579.383 386.13 579.327 385.956 579.2 385.782C578.598 384.963 578.008 384.136 577.414 383.312ZM577.084 345.287C576.639 344.714 576.071 344.532 575.375 344.717C575.072 344.797 574.761 344.848 574.452 344.906C573.44 345.094 572.427 345.279 571.414 345.466C569.932 345.739 568.451 346.015 566.969 346.286C565.795 346.5 564.621 346.711 563.447 346.92L558.736 347.758C558.539 347.793 558.34 347.828 558.149 347.889C557.872 347.98 557.792 348.157 557.919 348.422C558.022 348.638 558.151 348.846 558.291 349.04C559.265 350.404 560.243 351.765 561.222 353.126C562.571 355.003 563.92 356.879 565.269 358.755C566.411 360.342 567.554 361.929 568.697 363.515C569.595 364.762 570.492 366.008 571.392 367.254L571.569 367.472L579.361 365.515L579.379 365.105C579.38 359.614 579.379 354.123 579.383 348.631C579.383 348.389 579.325 348.194 579.175 348.002C578.52 347.161 577.876 346.311 577.228 345.464L577.084 345.287ZM579.181 371.895C578.002 372.183 576.819 372.456 575.612 372.781C575.739 373.011 579.05 377.552 579.243 377.767L579.363 377.835L579.377 377.558L579.377 375.647C579.378 374.537 579.381 373.428 579.378 372.319C579.378 372.185 579.416 372.039 579.324 371.903L579.181 371.895Z" fill="#FD4F31"/>
</g>
<g opacity="0.1">
<rect x="607.328" y="336.414" width="78.8875" height="78.8875" rx="14.5489" fill="white"/>
</g>
<rect x="230.836" y="444.4" width="78.8875" height="78.8875" rx="14.5489" fill="white"/>
<path fill-rule="evenodd" clip-rule="evenodd" d="M270.28 454.723L243.17 464.391L247.305 500.238L270.28 512.963V490.66H263.059L259.652 499.163H253.333L270.28 461.161V454.723ZM270.28 473.508L265.33 485.418H270.28V473.508Z" fill="#DF2226"/>
<path fill-rule="evenodd" clip-rule="evenodd" d="M270.28 461.159V454.723L297.391 464.391L293.256 500.238L270.28 512.963V490.659H277.444L280.851 499.162H287.17L270.28 461.161V461.159ZM270.28 485.418V473.508L275.231 485.418H270.28Z" fill="#A51E22"/>
<g opacity="0.3">
<rect x="338.822" y="444.4" width="78.8875" height="78.8875" rx="14.5489" fill="white"/>
<path d="M384.406 475.986L378.972 481.042L373.93 470.871L376.539 465.021C377.218 463.833 378.276 463.847 378.938 465.021L384.406 475.986Z" fill="#FFA000"/>
<path d="M373.93 470.87L378.972 481.041L358.663 499.933L373.93 470.87Z" fill="#F57F17"/>
<path d="M390.35 468.258C391.32 467.325 392.325 467.643 392.581 468.965L397.868 499.683L380.345 510.202C379.734 510.541 378.105 510.687 378.105 510.687C378.105 510.687 376.622 510.511 376.057 510.178L358.663 499.934L390.35 468.258Z" fill="#FFCA28"/>
<path d="M373.929 470.87L358.664 499.933L365.463 457.458C365.714 456.134 366.467 456.007 367.139 457.174L373.929 470.87Z" fill="#FFA000"/>
</g>
<rect x="446.807" y="444.4" width="78.8875" height="78.8875" rx="14.5489" fill="white"/>
<path d="M478.104 500.808C478.104 500.808 475.734 502.187 479.793 502.653C484.712 503.215 487.225 503.134 492.644 502.11C492.644 502.11 494.072 503.002 496.062 503.776C483.91 508.982 468.561 503.474 478.104 500.808ZM476.618 494.013C476.618 494.013 473.959 495.982 478.022 496.403C483.276 496.945 487.425 496.989 494.607 495.607C494.607 495.607 495.598 496.614 497.159 497.164C482.469 501.46 466.109 497.502 476.618 494.013Z" fill="#7B80EA"/>
<path d="M489.136 482.486C492.132 485.934 488.35 489.034 488.35 489.034C488.35 489.034 495.952 485.11 492.462 480.195C489.201 475.613 486.7 473.337 500.236 465.487C500.236 465.487 478.989 470.792 489.136 482.486Z" fill="#FF4E62"/>
<path d="M505.206 505.834C505.206 505.834 506.961 507.281 503.273 508.399C496.261 510.523 474.083 511.164 467.923 508.484C465.71 507.521 469.862 506.184 471.168 505.903C472.53 505.608 473.308 505.661 473.308 505.661C470.845 503.928 457.39 509.067 466.474 510.542C491.247 514.557 511.631 508.733 505.206 505.834ZM479.246 486.972C479.246 486.972 467.965 489.651 475.251 490.625C478.328 491.037 484.459 490.942 490.174 490.463C494.843 490.071 499.528 489.233 499.528 489.233C499.528 489.233 497.883 489.939 496.692 490.751C485.235 493.765 463.107 492.361 469.478 489.28C474.864 486.675 479.246 486.972 479.246 486.972ZM499.481 498.282C511.127 492.232 505.742 486.418 501.983 487.201C501.064 487.393 500.652 487.559 500.652 487.559C500.652 487.559 500.994 487.023 501.647 486.792C509.082 484.179 514.799 494.501 499.249 498.589C499.249 498.588 499.427 498.426 499.481 498.282Z" fill="#7B80EA"/>
<path d="M492.462 452.811C492.462 452.811 498.91 459.263 486.344 469.181C476.268 477.139 484.047 481.676 486.341 486.862C480.458 481.555 476.143 476.882 479.038 472.534C483.288 466.153 495.063 463.057 492.462 452.811Z" fill="#FF4E62"/>
<path d="M480.39 514.68C491.566 515.395 508.732 514.283 509.139 508.994C509.139 508.994 508.357 510.999 499.902 512.59C490.362 514.386 478.593 514.176 471.616 513.024C471.616 513.025 473.045 514.208 480.39 514.68Z" fill="#7B80EA"/>
<rect x="554.792" y="444.4" width="78.8875" height="78.8875" rx="14.5489" fill="white"/>
<path d="M593.933 458.137C591.836 458.147 589.834 458.325 588.072 458.637C582.881 459.554 581.939 461.473 581.939 465.014V469.688H594.205V471.246H577.336C573.772 471.246 570.65 473.388 569.674 477.465C568.547 482.137 568.498 485.053 569.674 489.931C570.545 493.562 572.628 496.149 576.193 496.149H580.41V490.545C580.41 486.497 583.912 482.926 588.072 482.926H600.323C603.734 482.926 606.456 480.117 606.456 476.693V465.014C606.456 461.69 603.651 459.193 600.323 458.638C598.215 458.287 596.029 458.128 593.933 458.137ZM587.3 461.897C588.566 461.897 589.602 462.948 589.602 464.242C589.602 465.53 588.567 466.571 587.3 466.571C586.028 466.571 584.999 465.53 584.999 464.242C584.998 462.948 586.028 461.897 587.3 461.897Z" fill="#3774A7"/>
<path d="M607.985 471.247V476.693C607.985 480.915 604.405 484.469 600.323 484.469H588.072C584.716 484.469 581.94 487.342 581.94 490.703V502.383C581.94 505.706 584.829 507.662 588.072 508.615C591.954 509.756 595.678 509.962 600.323 508.615C603.411 507.72 606.456 505.921 606.456 502.383V497.708H594.205V496.149H612.589C616.153 496.149 617.482 493.663 618.722 489.931C620.003 486.089 619.948 482.394 618.722 477.465C617.841 473.916 616.159 471.246 612.589 471.246H607.985V471.247ZM601.095 500.824C602.367 500.824 603.396 501.866 603.396 503.155C603.396 504.447 602.366 505.498 601.095 505.498C599.828 505.498 598.793 504.447 598.793 503.155C598.793 501.866 599.828 500.824 601.095 500.824Z" fill="#FFD242"/>
<rect x="175.491" y="552.386" width="78.8875" height="78.8875" rx="14.5489" fill="#51E1D9"/>
<path d="M186.864 586.904C186.734 586.904 186.701 586.839 186.766 586.741L187.449 585.862C187.515 585.765 187.677 585.7 187.807 585.7H199.425C199.555 585.7 199.588 585.797 199.523 585.895L198.97 586.741C198.904 586.839 198.742 586.936 198.644 586.936L186.864 586.904Z" fill="white"/>
<path d="M181.95 589.899C181.82 589.899 181.787 589.834 181.852 589.736L182.535 588.857C182.601 588.76 182.763 588.695 182.893 588.695H197.733C197.863 588.695 197.928 588.792 197.896 588.89L197.635 589.671C197.603 589.801 197.473 589.866 197.342 589.866L181.95 589.899Z" fill="white"/>
<path d="M189.825 592.892C189.695 592.892 189.662 592.795 189.727 592.697L190.183 591.883C190.248 591.786 190.378 591.688 190.508 591.688H197.017C197.147 591.688 197.212 591.786 197.212 591.916L197.147 592.697C197.147 592.827 197.017 592.925 196.919 592.925L189.825 592.892Z" fill="white"/>
<path d="M223.604 586.318C221.554 586.839 220.155 587.23 218.137 587.75C217.649 587.88 217.616 587.913 217.193 587.425C216.705 586.872 216.347 586.514 215.664 586.188C213.613 585.179 211.628 585.472 209.773 586.676C207.56 588.108 206.422 590.223 206.454 592.859C206.487 595.463 208.276 597.611 210.847 597.969C213.06 598.261 214.915 597.48 216.38 595.821C216.672 595.463 216.933 595.072 217.258 594.617C216.087 594.617 214.622 594.617 210.977 594.617C210.294 594.617 210.131 594.194 210.359 593.64C210.782 592.632 211.563 590.939 212.019 590.093C212.116 589.898 212.344 589.573 212.832 589.573C214.492 589.573 220.61 589.573 224.678 589.573C224.613 590.451 224.613 591.33 224.483 592.209C224.125 594.552 223.246 596.699 221.814 598.587C219.471 601.678 216.412 603.598 212.54 604.119C209.35 604.542 206.389 603.924 203.786 601.971C201.377 600.149 200.011 597.741 199.653 594.747C199.23 591.2 200.271 588.011 202.419 585.212C204.729 582.185 207.788 580.265 211.531 579.582C214.59 579.029 217.519 579.387 220.155 581.177C221.879 582.316 223.116 583.878 223.929 585.765C224.125 586.058 223.995 586.221 223.604 586.318Z" fill="white"/>
<path d="M234.376 604.314C231.414 604.249 228.713 603.403 226.435 601.451C224.515 599.791 223.311 597.676 222.921 595.17C222.335 591.493 223.344 588.238 225.557 585.342C227.932 582.218 230.796 580.591 234.668 579.907C237.988 579.322 241.112 579.647 243.943 581.567C246.514 583.324 248.109 585.7 248.532 588.824C249.085 593.217 247.816 596.797 244.789 599.856C242.641 602.036 240.005 603.403 236.979 604.021C236.1 604.184 235.222 604.217 234.376 604.314ZM242.121 591.167C242.088 590.744 242.088 590.419 242.023 590.093C241.437 586.871 238.476 585.049 235.384 585.765C232.358 586.448 230.405 588.368 229.689 591.427C229.104 593.966 230.34 596.537 232.683 597.578C234.473 598.359 236.263 598.261 237.988 597.383C240.559 596.049 241.958 593.966 242.121 591.167Z" fill="white"/>
<rect x="283.477" y="552.386" width="78.8875" height="78.8875" rx="14.5489" fill="#F05138"/>
<path d="M336.229 610.913C330.07 614.28 321.605 614.626 313.085 611.171C306.442 608.5 300.762 603.912 296.782 598.003C298.632 599.407 300.652 600.573 302.796 601.475C311.594 605.376 320.386 605.106 326.578 601.475C317.764 595.07 310.28 586.742 304.703 579.941C303.603 578.792 302.621 577.537 301.771 576.195C308.512 582.023 319.233 589.379 323.047 591.461C317.601 585.932 312.597 579.992 308.079 573.695C315.589 580.927 323.853 587.348 332.731 592.851C333.124 593.059 333.429 593.235 333.673 593.4C333.933 592.77 334.157 592.127 334.344 591.472C336.401 584.391 334.05 576.343 328.917 569.68C340.802 576.475 347.87 589.242 344.91 599.932C344.832 600.223 344.749 600.481 344.66 600.783L344.766 600.904C350.636 607.842 349.023 615.187 348.286 613.813C345.098 607.892 339.206 609.721 336.229 610.913Z" fill="#FEFEFE"/>
<rect x="391.462" y="552.386" width="78.8875" height="78.8875" rx="14.5489" fill="#663399"/>
<g clip-path="url(#clip1_792_8376)">
<path d="M450.156 591.829H437.906V595.4H446.305C445.08 600.757 441.229 605.22 436.155 607.007L416.03 586.472C418.13 580.222 424.079 575.758 430.906 575.758C436.156 575.758 440.882 578.438 443.855 582.544L446.482 580.224C442.98 575.4 437.381 572.187 430.906 572.187C421.805 572.187 414.106 578.794 412.181 587.544L435.28 611.114C443.679 608.971 450.156 601.114 450.156 591.828V591.829ZM411.656 592.009C411.656 597.009 413.58 601.829 417.255 605.579C420.93 609.329 425.83 611.294 430.554 611.294L411.656 592.009Z" fill="white"/>
<path d="M430.906 566.83C417.431 566.83 406.406 578.08 406.406 591.83C406.406 605.58 417.431 616.83 430.906 616.83C444.381 616.83 455.406 605.58 455.406 591.83C455.406 578.08 444.381 566.83 430.906 566.83ZM417.255 605.759C413.58 602.009 411.655 597.009 411.655 592.189L430.73 611.473C425.83 611.293 420.93 609.508 417.255 605.758V605.759ZM435.104 610.939L412.181 587.544C414.106 578.794 421.805 572.187 430.906 572.187C437.381 572.187 442.98 575.401 446.481 580.223L443.855 582.543C440.882 578.437 436.156 575.759 430.906 575.759C424.081 575.759 418.306 580.223 416.03 586.473L436.156 607.009C441.232 605.223 445.08 600.759 446.305 595.402H437.907V591.83H450.157C450.157 601.116 443.682 608.973 435.107 610.937L435.104 610.939Z" fill="#663399"/>
</g>
<g opacity="0.3">
<rect x="499.447" y="552.386" width="78.8875" height="78.8875" rx="14.5489" fill="white"/>
<path d="M558.046 574.445C558.013 574.144 557.745 574.009 557.543 573.976C557.342 573.942 553.321 573.909 553.321 573.909C553.321 573.909 549.936 570.624 549.6 570.289C549.265 569.954 548.628 570.055 548.36 570.122C548.36 570.122 547.724 570.323 546.651 570.658C546.483 570.088 546.215 569.384 545.847 568.681C544.64 566.368 542.897 565.161 540.752 565.161C540.618 565.161 540.451 565.161 540.317 565.195C540.25 565.128 540.183 565.061 540.116 564.96C539.177 563.955 538.004 563.486 536.597 563.519C533.848 563.586 531.134 565.564 528.888 569.116C527.313 571.596 526.14 574.713 525.805 577.126C522.654 578.098 520.442 578.769 520.409 578.802C518.833 579.305 518.766 579.338 518.565 580.847C518.398 581.953 514.242 614.161 514.242 614.161L549.131 620.193L564.246 616.44C564.246 616.44 558.08 574.713 558.046 574.445ZM544.908 571.194C544.104 571.429 543.199 571.73 542.194 572.032C542.16 570.658 541.992 568.714 541.356 567.038C543.467 567.441 544.473 569.787 544.908 571.194ZM540.384 572.602C538.54 573.172 536.563 573.775 534.552 574.412C535.122 572.267 536.194 570.122 537.501 568.714C538.004 568.178 538.674 567.608 539.479 567.273C540.25 568.848 540.384 571.094 540.384 572.602ZM536.63 565.363C537.267 565.363 537.803 565.497 538.272 565.798C537.535 566.167 536.798 566.737 536.127 567.474C534.385 569.351 533.044 572.233 532.508 575.048C530.832 575.551 529.223 576.054 527.715 576.523C528.72 572.099 532.407 565.497 536.63 565.363Z" fill="#95BF47"/>
<path d="M557.543 573.976C557.342 573.943 553.321 573.909 553.321 573.909C553.321 573.909 549.936 570.625 549.6 570.289C549.466 570.155 549.299 570.088 549.131 570.088V620.194L564.246 616.44C564.246 616.44 558.08 574.747 558.046 574.445C557.979 574.144 557.745 574.01 557.543 573.976Z" fill="#5E8E3E"/>
<path d="M540.752 581.751L539.01 588.32C539.01 588.32 537.066 587.415 534.72 587.583C531.301 587.784 531.268 589.929 531.301 590.499C531.502 593.448 539.211 594.085 539.646 600.955C539.982 606.385 536.764 610.072 532.139 610.373C526.575 610.708 523.526 607.457 523.526 607.457L524.699 602.464C524.699 602.464 527.782 604.776 530.229 604.642C531.837 604.542 532.407 603.234 532.34 602.296C532.105 598.475 525.805 598.676 525.402 592.409C525.067 587.114 528.553 581.751 536.228 581.249C539.244 580.98 540.752 581.751 540.752 581.751Z" fill="white"/>
</g>
<rect x="607.432" y="552.386" width="78.8875" height="78.8875" rx="14.5489" fill="#4F5B93"/>
<path d="M646.877 576.91C630.619 576.91 617.439 583.589 617.439 591.828C617.439 600.067 630.619 606.746 646.877 606.746C663.134 606.746 676.314 600.067 676.314 591.828C676.314 583.589 663.134 576.91 646.877 576.91ZM639.217 594.734C638.514 595.391 637.734 595.663 636.875 595.942C636.016 596.222 634.923 596.164 633.593 596.164H630.58L629.745 600.983H626.227L629.367 584.6H636.132C638.167 584.6 639.651 585.186 640.585 586.254C641.518 587.322 641.798 588.839 641.426 590.753C641.273 591.542 641.014 592.275 640.649 592.928C640.283 593.582 639.806 594.193 639.217 594.734ZM649.485 596.164L650.873 589.216C651.031 588.403 650.974 587.799 650.699 587.503C650.425 587.207 649.841 587.009 648.948 587.009H646.158L644.36 596.164H640.87L644.009 580.264H647.5L646.665 584.6H649.774C651.731 584.6 653.08 584.993 653.823 585.675C654.565 586.358 654.788 587.292 654.491 588.821L653.031 596.164H649.485ZM668.883 590.778C668.73 591.567 668.471 592.288 668.106 592.941C667.741 593.595 667.264 594.193 666.675 594.734C665.972 595.391 665.192 595.663 664.333 595.942C663.474 596.222 662.38 596.164 661.051 596.164H658.038L657.203 600.983H653.685L656.824 584.6H663.59C665.625 584.6 667.109 585.186 668.042 586.254C668.975 587.322 669.255 588.865 668.883 590.778ZM662.256 587.009H659.847L658.533 593.755H660.673C662.091 593.755 663.148 593.615 663.842 593.081C664.536 592.547 665.004 591.718 665.248 590.469C665.481 589.268 665.375 588.332 664.929 587.839C664.484 587.345 663.593 587.009 662.256 587.009ZM634.799 587.009H632.389L631.075 593.755H633.214C634.633 593.755 635.689 593.615 636.384 593.081C637.078 592.547 637.546 591.718 637.789 590.469C638.022 589.268 637.916 588.332 637.471 587.839C637.026 587.345 636.135 587.009 634.799 587.009Z" fill="white"/>
<defs>
<linearGradient id="paint0_linear_792_8376" x1="612.326" y1="731.559" x2="602.558" y2="714.314" gradientUnits="userSpaceOnUse">
<stop stop-color="#FB7655"/>
<stop offset="0.41" stop-color="#E42B1E"/>
<stop offset="0.99" stop-color="#990000"/>
<stop offset="1" stop-color="#990000"/>
</linearGradient>
<linearGradient id="paint1_linear_792_8376" x1="617.191" y1="717.073" x2="604.602" y2="708.625" gradientUnits="userSpaceOnUse">
<stop stop-color="#871101"/>
<stop offset="0.99" stop-color="#911209"/>
<stop offset="1" stop-color="#911209"/>
</linearGradient>
<linearGradient id="paint2_linear_792_8376" x1="607.119" y1="732.083" x2="594.531" y2="723.636" gradientUnits="userSpaceOnUse">
<stop stop-color="#871101"/>
<stop offset="0.99" stop-color="#911209"/>
<stop offset="1" stop-color="#911209"/>
</linearGradient>
<linearGradient id="paint3_linear_792_8376" x1="580.69" y1="710.957" x2="582.641" y2="723.64" gradientUnits="userSpaceOnUse">
<stop stop-color="white"/>
<stop offset="0.23" stop-color="#E57252"/>
<stop offset="0.46" stop-color="#DE3B20"/>
<stop offset="0.99" stop-color="#A60003"/>
<stop offset="1" stop-color="#A60003"/>
</linearGradient>
<linearGradient id="paint4_linear_792_8376" x1="594.112" y1="699.115" x2="594.831" y2="712.058" gradientUnits="userSpaceOnUse">
<stop stop-color="white"/>
<stop offset="0.23" stop-color="#E4714E"/>
<stop offset="0.56" stop-color="#BE1A0D"/>
<stop offset="0.99" stop-color="#A80D00"/>
<stop offset="1" stop-color="#A80D00"/>
</linearGradient>
<linearGradient id="paint5_linear_792_8376" x1="606.023" y1="687.152" x2="608.176" y2="696.429" gradientUnits="userSpaceOnUse">
<stop stop-color="white"/>
<stop offset="0.18" stop-color="#E46342"/>
<stop offset="0.4" stop-color="#C82410"/>
<stop offset="0.99" stop-color="#A80D00"/>
<stop offset="1" stop-color="#A80D00"/>
</linearGradient>
<linearGradient id="paint6_linear_792_8376" x1="599.45" y1="683.886" x2="608.726" y2="679.248" gradientUnits="userSpaceOnUse">
<stop stop-color="white"/>
<stop offset="0.54" stop-color="#C81F11"/>
<stop offset="0.99" stop-color="#BF0905"/>
<stop offset="1" stop-color="#BF0905"/>
</linearGradient>
<linearGradient id="paint7_linear_792_8376" x1="572.558" y1="707.724" x2="573.322" y2="715.367" gradientUnits="userSpaceOnUse">
<stop stop-color="white"/>
<stop offset="0.31" stop-color="#DE4024"/>
<stop offset="0.99" stop-color="#BF190B"/>
<stop offset="1" stop-color="#BF190B"/>
</linearGradient>
<linearGradient id="paint8_linear_792_8376" x1="567.31" y1="717.434" x2="603.198" y2="680.531" gradientUnits="userSpaceOnUse">
<stop stop-color="#BD0012"/>
<stop offset="0.07" stop-color="white"/>
<stop offset="0.17" stop-color="white"/>
<stop offset="0.27" stop-color="#C82F1C"/>
<stop offset="0.33" stop-color="#820C01"/>
<stop offset="0.46" stop-color="#A31601"/>
<stop offset="0.72" stop-color="#B31301"/>
<stop offset="0.99" stop-color="#E82609"/>
<stop offset="1" stop-color="#E82609"/>
</linearGradient>
<linearGradient id="paint9_linear_792_8376" x1="594.799" y1="721.155" x2="583.989" y2="718.487" gradientUnits="userSpaceOnUse">
<stop stop-color="#8C0C01"/>
<stop offset="0.54" stop-color="#990C00"/>
<stop offset="0.99" stop-color="#A80D0E"/>
<stop offset="1" stop-color="#A80D0E"/>
</linearGradient>
<linearGradient id="paint10_linear_792_8376" x1="613.366" y1="708.183" x2="603.763" y2="699.576" gradientUnits="userSpaceOnUse">
<stop stop-color="#7E110B"/>
<stop offset="0.99" stop-color="#9E0C00"/>
<stop offset="1" stop-color="#9E0C00"/>
</linearGradient>
<linearGradient id="paint11_linear_792_8376" x1="616.894" y1="692.391" x2="612.111" y2="687.277" gradientUnits="userSpaceOnUse">
<stop stop-color="#79130D"/>
<stop offset="0.99" stop-color="#9E120B"/>
<stop offset="1" stop-color="#9E120B"/>
</linearGradient>
<radialGradient id="paint12_radial_792_8376" cx="0" cy="0" r="1" gradientUnits="userSpaceOnUse" gradientTransform="translate(605.258 699.74) scale(11.7683)">
<stop stop-color="#A80D00"/>
<stop offset="0.99" stop-color="#7E0E08"/>
<stop offset="1" stop-color="#7E0E08"/>
</radialGradient>
<radialGradient id="paint13_radial_792_8376" cx="0" cy="0" r="1" gradientUnits="userSpaceOnUse" gradientTransform="translate(588.961 715.247) scale(15.644)">
<stop stop-color="#A30C00"/>
<stop offset="0.99" stop-color="#800E08"/>
<stop offset="1" stop-color="#800E08"/>
</radialGradient>
<linearGradient id="paint14_linear_792_8376" x1="577.879" y1="727.304" x2="573.981" y2="714.078" gradientUnits="userSpaceOnUse">
<stop stop-color="#8B2114"/>
<stop offset="0.43" stop-color="#9E100A"/>
<stop offset="0.99" stop-color="#B3100C"/>
<stop offset="1" stop-color="#B3100C"/>
</linearGradient>
<linearGradient id="paint15_linear_792_8376" x1="607.784" y1="683.478" x2="616.523" y2="687.336" gradientUnits="userSpaceOnUse">
<stop stop-color="#B31000"/>
<stop offset="0.44" stop-color="#910F08"/>
<stop offset="0.99" stop-color="#791C12"/>
<stop offset="1" stop-color="#791C12"/>
</linearGradient>
<clipPath id="clip0_792_8376">
<rect width="50.9211" height="50.9211" fill="white" transform="translate(461.351 674.355)"/>
</clipPath>
<clipPath id="clip1_792_8376">
<rect width="49" height="50" fill="white" transform="translate(406.406 566.83)"/>
</clipPath>
</defs>
</svg>
