<svg width="363" height="329" viewBox="0 0 363 329" fill="none" xmlns="http://www.w3.org/2000/svg">
<path d="M279.961 77.2839V184.949C279.961 187.166 281.758 188.963 283.975 188.963H317.516C319.733 188.963 321.531 187.166 321.531 184.949V149.523C321.531 147.306 319.733 145.509 317.517 145.509H226.668" stroke="#AD6DE7" stroke-width="3.01051"/>
<rect width="8.69669" height="2.81114" transform="matrix(-1 0 0 1 220.757 139.698)" fill="#AD6DE7"/>
<rect width="8.69669" height="2.81114" transform="matrix(-1 0 0 1 220.757 148.922)" fill="#AD6DE7"/>
<path fill-rule="evenodd" clip-rule="evenodd" d="M220.847 134.032C220.071 134.032 219.442 134.661 219.442 135.437V155.993C219.442 156.77 220.071 157.399 220.847 157.399C221.623 157.399 222.252 156.77 222.252 155.993V155.203H229.894C234.179 155.203 237.787 152.309 238.873 148.37H241.665C243.131 148.37 244.32 147.181 244.32 145.715C244.32 144.249 243.131 143.061 241.665 143.061H238.768C237.571 139.302 234.051 136.579 229.894 136.579H222.252V135.437C222.252 134.661 221.623 134.032 220.847 134.032Z" fill="#8518E8"/>
<rect width="104.428" height="53.51" rx="8.02804" transform="matrix(-1 0 0 1 361.417 0.765137)" fill="#641C67" stroke="#FF5CAA" stroke-width="1.50526"/>
<rect width="104.428" height="53.51" rx="8.02804" transform="matrix(-1 0 0 1 351.681 10.271)" fill="#3E176C" stroke="#AD6DE7" stroke-width="1.50526"/>
<rect width="104.428" height="53.51" rx="8.02804" transform="matrix(-1 0 0 1 341.946 19.7764)" fill="#2F1979" stroke="#4F55E3" stroke-width="1.50526"/>
<rect x="227.782" y="29.2817" width="104.428" height="53.51" rx="8.02804" fill="#21004B" stroke="white" stroke-width="1.50526"/>
<path d="M279.115 42.1121H319.451" stroke="white" stroke-width="1.50526" stroke-linecap="round"/>
<path d="M279.115 51.7219H319.451" stroke="white" stroke-width="1.50526" stroke-linecap="round"/>
<path d="M279.115 61.3315H322.355" stroke="white" stroke-width="1.50526" stroke-linecap="round"/>
<path d="M279.115 70.9417H305.867" stroke="white" stroke-width="1.50526" stroke-linecap="round"/>
<path d="M269.312 46.0414V67.0083C269.311 68.5523 268.643 70.0328 267.454 71.125C266.266 72.2171 264.654 72.8317 262.973 72.8339H243.037C241.356 72.8317 239.744 72.2171 238.556 71.125C237.367 70.0328 236.699 68.5523 236.698 67.0083V46.0414C236.699 44.4978 237.367 43.0177 238.556 41.9262C239.745 40.8347 241.356 40.2211 243.037 40.22H262.973C264.654 40.2211 266.265 40.8347 267.454 41.9262C268.642 43.0177 269.311 44.4978 269.312 46.0414Z" stroke="white" stroke-width="1.50526" stroke-linecap="round"/>
<path d="M237.569 59.8472L243.962 54.2749L253.249 62.6678L259.51 57.7834L268.634 64.8692" stroke="white" stroke-width="1.50526" stroke-linecap="round" stroke-linejoin="round"/>
<circle cx="261.977" cy="49.9203" r="3.26506" stroke="white" stroke-width="1.50526" stroke-linecap="round"/>
<rect x="28.4583" y="289.183" width="39.582" height="39.582" rx="7.29993" fill="white"/>
<path d="M54.6301 314.919L41.3665 322.795L58.5404 321.629L59.8632 304.312L54.6301 314.919Z" fill="url(#paint0_linear_792_8897)"/>
<path d="M58.5682 321.618L57.0922 311.43L53.0715 316.739L58.5682 321.618Z" fill="url(#paint1_linear_792_8897)"/>
<path d="M58.5896 321.618L47.7753 320.769L41.425 322.773L58.5896 321.618Z" fill="url(#paint2_linear_792_8897)"/>
<path d="M41.44 322.775L44.1416 313.925L38.1965 315.196L41.44 322.775Z" fill="url(#paint3_linear_792_8897)"/>
<path d="M53.0713 316.768L50.5856 307.031L43.4719 313.7L53.0713 316.768Z" fill="url(#paint4_linear_792_8897)"/>
<path d="M59.2993 307.169L52.5749 301.677L50.7024 307.73L59.2993 307.169Z" fill="url(#paint5_linear_792_8897)"/>
<path d="M56.1544 299.719L52.1993 301.904L49.7043 299.689L56.1544 299.719Z" fill="url(#paint6_linear_792_8897)"/>
<path d="M36.6321 318.164L38.2888 315.143L36.9485 311.543L36.6321 318.164Z" fill="url(#paint7_linear_792_8897)"/>
<path d="M36.8586 311.43L38.2068 315.254L44.0661 313.94L50.7554 307.723L52.6431 301.727L49.6709 299.628L44.6173 301.519C43.025 303 39.9356 305.93 39.8242 305.986C39.7137 306.042 37.7837 309.689 36.8586 311.43Z" fill="white"/>
<path d="M41.5934 304.559C45.0439 301.138 49.4926 299.116 51.1999 300.838C52.9062 302.561 51.0969 306.747 47.646 310.167C44.1951 313.587 39.8016 315.72 38.0958 313.998C36.3883 312.276 38.1425 307.979 41.5934 304.559Z" fill="url(#paint8_linear_792_8897)"/>
<path d="M41.4407 322.771L44.1209 313.893L53.0231 316.752C49.8045 319.771 46.2245 322.322 41.4407 322.771Z" fill="url(#paint9_linear_792_8897)"/>
<path d="M50.7688 307.706L53.0542 316.758C55.7429 313.931 58.1559 310.892 59.3375 307.133L50.7688 307.706Z" fill="url(#paint10_linear_792_8897)"/>
<path d="M59.3149 307.178C60.2295 304.418 60.4404 300.459 56.1278 299.723L52.5891 301.678L59.3149 307.178Z" fill="url(#paint11_linear_792_8897)"/>
<path d="M36.6321 318.125C36.7587 322.68 40.0453 322.748 41.4455 322.788L38.2116 315.236L36.6321 318.125Z" fill="#9E1209"/>
<path d="M50.7805 307.719C52.8467 308.989 57.0104 311.54 57.0947 311.587C57.2259 311.66 58.89 308.78 59.2676 307.153L50.7805 307.719Z" fill="url(#paint12_radial_792_8897)"/>
<path d="M44.1165 313.893L47.6997 320.806C49.8184 319.657 51.4777 318.257 52.9972 316.757L44.1165 313.893Z" fill="url(#paint13_radial_792_8897)"/>
<path d="M38.1964 315.245L37.6887 321.291C38.6466 322.599 39.9645 322.713 41.3472 322.611C40.3469 320.122 38.349 315.144 38.1964 315.245Z" fill="url(#paint14_linear_792_8897)"/>
<path d="M52.5657 301.693L59.6841 302.692C59.3042 301.082 58.1376 300.043 56.1491 299.719L52.5657 301.693Z" fill="url(#paint15_linear_792_8897)"/>
<rect x="82.6401" y="289.183" width="39.582" height="39.582" rx="7.29993" fill="white"/>
<g clip-path="url(#clip0_792_8897)">
<path d="M102.43 321.749C109.486 321.749 115.205 316.029 115.205 308.974C115.205 301.919 109.486 296.199 102.43 296.199C95.3749 296.199 89.6554 301.919 89.6554 308.974C89.6554 316.029 95.3749 321.749 102.43 321.749Z" fill="#1A171B"/>
<path d="M108.015 300.926C106.717 300.971 105.585 301.686 104.742 302.676C103.809 303.761 103.188 305.048 102.739 306.36C101.939 305.704 101.322 304.855 100.046 304.485C99.5397 304.329 99.0032 304.297 98.482 304.392C97.9608 304.488 97.4702 304.707 97.0517 305.032C96.5977 305.372 96.2841 305.884 96.136 306.366C95.7512 307.62 96.54 308.734 96.8997 309.135L97.6846 309.975C97.8462 310.139 98.2358 310.572 98.0453 311.187C97.8395 311.858 97.0305 312.293 96.2014 312.037C95.8311 311.924 95.2991 311.648 95.4184 311.259C95.4665 311.101 95.5819 310.98 95.6425 310.844C95.6983 310.726 95.7253 310.637 95.7426 310.584C95.8945 310.09 95.6868 309.446 95.1577 309.283C94.6633 309.131 94.1574 309.251 93.9611 309.889C93.7399 310.612 94.0843 311.924 95.9378 312.486C98.1098 313.153 99.946 311.97 100.207 310.427C100.37 309.462 99.9345 308.744 99.1361 307.83L98.4849 307.111C98.1002 306.726 97.9559 306.045 98.3637 305.529C98.7081 305.094 99.1987 304.908 100.002 305.125C101.175 305.443 101.697 306.258 102.57 306.915C102.21 308.096 101.974 309.281 101.762 310.345L101.632 311.137C101.009 314.408 100.533 316.204 99.2948 317.234C99.0447 317.411 98.6888 317.676 98.1521 317.695C97.8703 317.705 97.7799 317.511 97.777 317.426C97.7702 317.229 97.9366 317.138 98.0463 317.049C98.2117 316.959 98.4618 316.809 98.4445 316.331C98.4253 315.765 97.9578 315.272 97.2806 315.297C96.7728 315.314 95.9994 315.792 96.0282 316.666C96.059 317.57 96.9007 318.247 98.1704 318.203C98.8485 318.18 100.364 317.905 101.857 316.129C103.595 314.093 104.081 311.762 104.448 310.053L104.856 307.799L105.589 307.85C107.753 307.896 108.836 306.775 108.852 305.959C108.862 305.466 108.528 304.98 108.06 304.991C107.723 305 107.303 305.224 107.202 305.687C107.103 306.142 107.89 306.553 107.275 306.951C106.837 307.234 106.053 307.434 104.949 307.271L105.151 306.161C105.561 304.057 106.065 301.467 107.984 301.406C108.123 301.399 108.635 301.413 108.647 301.75C108.651 301.863 108.623 301.892 108.491 302.15C108.356 302.343 108.305 302.524 108.312 302.721C108.331 303.259 108.739 303.611 109.329 303.59C110.121 303.564 110.349 302.795 110.335 302.397C110.304 301.468 109.324 300.881 108.027 300.924L108.015 300.926Z" fill="white"/>
</g>
<rect x="136.822" y="289.183" width="39.582" height="39.582" rx="7.29993" fill="#F0DB4F"/>
<path d="M172.263 318.266C172.004 316.657 170.955 315.306 167.847 314.046C166.768 313.55 165.564 313.194 165.206 312.376C165.078 311.9 165.061 311.632 165.142 311.344C165.373 310.408 166.49 310.117 167.375 310.385C167.945 310.576 168.484 311.015 168.81 311.716C170.332 310.73 170.328 310.737 171.391 310.059C171.002 309.456 170.794 309.178 170.54 308.92C169.624 307.897 168.377 307.371 166.382 307.411L165.343 307.545C164.348 307.797 163.399 308.32 162.842 309.02C161.173 310.915 161.649 314.23 163.681 315.595C165.682 317.097 168.622 317.439 168.998 318.843C169.363 320.563 167.734 321.12 166.115 320.922C164.921 320.674 164.257 320.067 163.54 318.964C162.219 319.729 162.219 319.729 160.861 320.51C161.183 321.214 161.521 321.532 162.061 322.142C164.616 324.734 171.009 324.606 172.156 320.684C172.202 320.549 172.511 319.651 172.263 318.266ZM159.054 307.619H155.755L155.741 316.147C155.741 317.961 155.835 319.624 155.54 320.134C155.058 321.136 153.807 321.012 153.237 320.817C152.657 320.532 152.362 320.127 152.02 319.554C151.926 319.389 151.856 319.262 151.832 319.252L149.15 320.895C149.596 321.81 150.253 322.605 151.095 323.121C152.352 323.875 154.041 324.106 155.808 323.701C156.958 323.366 157.951 322.672 158.47 321.616C159.221 320.231 159.06 318.555 159.053 316.701C159.07 313.677 159.054 310.653 159.054 307.619Z" fill="#323330"/>
<rect x="191.004" y="289.183" width="39.582" height="39.582" rx="7.29993" fill="white"/>
<path fill-rule="evenodd" clip-rule="evenodd" d="M213.882 314.26V306.39C213.882 306.256 213.828 306.127 213.733 306.032C213.638 305.936 213.509 305.883 213.374 305.883H205.514V297.76H221.489C221.555 297.76 221.621 297.773 221.683 297.798C221.745 297.824 221.8 297.861 221.848 297.908C221.895 297.955 221.932 298.011 221.958 298.073C221.983 298.134 221.996 298.2 221.996 298.267V314.26H213.882Z" fill="#8E75FF"/>
<path opacity="0.405" fill-rule="evenodd" clip-rule="evenodd" d="M205.514 297.76V305.883H198.012C197.961 305.883 197.912 305.868 197.871 305.84C197.829 305.812 197.796 305.773 197.777 305.726C197.758 305.68 197.753 305.629 197.763 305.58C197.772 305.531 197.797 305.485 197.832 305.45L205.514 297.76ZM213.882 321.77V314.26H221.997L214.315 321.95C214.28 321.985 214.235 322.009 214.185 322.019C214.136 322.029 214.085 322.024 214.039 322.005C213.992 321.986 213.953 321.953 213.925 321.911C213.897 321.87 213.882 321.821 213.882 321.77ZM205.514 305.883H213.628C213.695 305.883 213.76 305.91 213.808 305.957C213.855 306.005 213.882 306.069 213.882 306.137V314.26H206.021C205.955 314.26 205.889 314.247 205.827 314.221C205.766 314.196 205.71 314.159 205.663 314.111C205.615 314.064 205.578 314.008 205.553 313.947C205.527 313.885 205.514 313.819 205.514 313.753V305.883Z" fill="#8E75FF"/>
<rect x="245.186" y="289.183" width="39.582" height="39.582" rx="7.29993" fill="white"/>
<path d="M278.61 308.635L277.449 307.917C277.439 307.804 277.428 307.691 277.416 307.579L278.413 306.649C278.515 306.554 278.56 306.414 278.533 306.279C278.506 306.143 278.411 306.031 278.281 305.982L277.006 305.506C276.974 305.395 276.941 305.286 276.906 305.177L277.702 304.072C277.783 303.96 277.799 303.814 277.746 303.686C277.694 303.558 277.578 303.467 277.442 303.444L276.097 303.226C276.045 303.124 275.991 303.023 275.936 302.924L276.501 301.684C276.559 301.558 276.547 301.411 276.47 301.296C276.393 301.181 276.263 301.114 276.124 301.119L274.759 301.166C274.689 301.078 274.617 300.991 274.544 300.905L274.857 299.576C274.889 299.441 274.849 299.3 274.751 299.202C274.653 299.104 274.512 299.064 274.377 299.095L273.048 299.409C272.962 299.336 272.875 299.264 272.786 299.193L272.834 297.829C272.839 297.691 272.772 297.559 272.657 297.483C272.541 297.406 272.395 297.394 272.269 297.451L271.03 298.016C270.93 297.962 270.829 297.907 270.728 297.855L270.509 296.51C270.486 296.374 270.395 296.258 270.267 296.205C270.14 296.152 269.993 296.169 269.881 296.25L268.776 297.045C268.667 297.011 268.558 296.977 268.447 296.946L267.971 295.671C267.922 295.541 267.81 295.445 267.674 295.418C267.538 295.392 267.399 295.437 267.304 295.538L266.374 296.536C266.262 296.523 266.149 296.512 266.036 296.503L265.318 295.342C265.245 295.225 265.117 295.153 264.978 295.153C264.84 295.153 264.711 295.225 264.639 295.342L263.921 296.503C263.807 296.512 263.694 296.523 263.582 296.536L262.652 295.538C262.557 295.437 262.418 295.392 262.282 295.418C262.146 295.446 262.034 295.541 261.986 295.671L261.509 296.946C261.399 296.977 261.289 297.011 261.18 297.045L260.075 296.25C259.963 296.169 259.817 296.152 259.689 296.205C259.561 296.258 259.47 296.374 259.447 296.51L259.228 297.855C259.127 297.907 259.026 297.961 258.926 298.016L257.687 297.451C257.561 297.394 257.414 297.406 257.299 297.483C257.184 297.559 257.117 297.691 257.122 297.829L257.17 299.193C257.081 299.264 256.994 299.336 256.908 299.409L255.579 299.095C255.444 299.064 255.302 299.104 255.205 299.202C255.106 299.3 255.067 299.441 255.098 299.576L255.411 300.905C255.339 300.991 255.267 301.078 255.196 301.166L253.832 301.119C253.694 301.115 253.563 301.181 253.486 301.296C253.409 301.411 253.397 301.558 253.454 301.684L254.02 302.924C253.965 303.023 253.91 303.124 253.858 303.226L252.513 303.444C252.377 303.466 252.262 303.558 252.209 303.686C252.156 303.814 252.173 303.96 252.254 304.072L253.049 305.177C253.014 305.286 252.981 305.395 252.949 305.506L251.674 305.982C251.544 306.031 251.449 306.143 251.422 306.279C251.395 306.414 251.44 306.554 251.542 306.649L252.539 307.579C252.527 307.691 252.516 307.804 252.506 307.917L251.346 308.635C251.228 308.708 251.156 308.836 251.156 308.975C251.156 309.113 251.228 309.242 251.346 309.314L252.506 310.033C252.516 310.146 252.527 310.258 252.539 310.371L251.542 311.301C251.44 311.395 251.395 311.535 251.422 311.671C251.449 311.807 251.544 311.918 251.674 311.967L252.949 312.444C252.981 312.554 253.014 312.664 253.049 312.773L252.254 313.878C252.173 313.99 252.156 314.136 252.209 314.264C252.262 314.392 252.377 314.483 252.514 314.505L253.858 314.724C253.91 314.826 253.964 314.926 254.02 315.026L253.454 316.266C253.397 316.392 253.409 316.538 253.486 316.653C253.563 316.769 253.694 316.836 253.832 316.831L255.196 316.783C255.267 316.871 255.338 316.958 255.411 317.045L255.098 318.374C255.067 318.509 255.106 318.649 255.205 318.747C255.302 318.846 255.444 318.885 255.579 318.854L256.908 318.541C256.994 318.614 257.081 318.685 257.17 318.756L257.122 320.12C257.117 320.258 257.184 320.389 257.299 320.466C257.414 320.543 257.561 320.555 257.687 320.497L258.926 319.932C259.026 319.988 259.127 320.042 259.228 320.094L259.447 321.438C259.47 321.575 259.561 321.691 259.689 321.743C259.816 321.796 259.963 321.779 260.075 321.698L261.18 320.903C261.289 320.937 261.398 320.971 261.509 321.003L261.985 322.277C262.034 322.407 262.146 322.503 262.282 322.529C262.418 322.556 262.557 322.511 262.652 322.41L263.582 321.412C263.694 321.425 263.807 321.436 263.92 321.446L264.639 322.606C264.711 322.723 264.84 322.796 264.978 322.796C265.116 322.796 265.245 322.724 265.318 322.606L266.036 321.446C266.149 321.436 266.262 321.425 266.374 321.412L267.304 322.41C267.398 322.511 267.538 322.556 267.674 322.529C267.81 322.502 267.922 322.407 267.97 322.277L268.447 321.003C268.557 320.971 268.667 320.937 268.776 320.903L269.881 321.698C269.993 321.779 270.139 321.796 270.267 321.743C270.395 321.691 270.486 321.575 270.508 321.438L270.727 320.094C270.829 320.042 270.929 319.987 271.029 319.932L272.269 320.497C272.395 320.555 272.542 320.543 272.656 320.466C272.772 320.389 272.839 320.259 272.834 320.12L272.786 318.756C272.874 318.685 272.962 318.614 273.048 318.541L274.377 318.854C274.512 318.885 274.653 318.846 274.751 318.747C274.849 318.649 274.889 318.509 274.857 318.374L274.544 317.045C274.617 316.958 274.689 316.871 274.759 316.783L276.123 316.831C276.261 316.836 276.392 316.769 276.469 316.653C276.546 316.538 276.558 316.392 276.5 316.266L275.936 315.026C275.991 314.926 276.045 314.826 276.097 314.724L277.441 314.505C277.578 314.483 277.693 314.392 277.746 314.264C277.799 314.136 277.782 313.99 277.701 313.878L276.906 312.773C276.94 312.664 276.974 312.554 277.006 312.444L278.281 311.967C278.41 311.918 278.506 311.807 278.532 311.671C278.56 311.535 278.514 311.395 278.413 311.301L277.416 310.371C277.428 310.258 277.439 310.145 277.449 310.033L278.609 309.314C278.727 309.242 278.798 309.113 278.798 308.975C278.798 308.836 278.727 308.708 278.61 308.635ZM270.843 318.262C270.399 318.166 270.118 317.73 270.213 317.285C270.308 316.841 270.744 316.558 271.187 316.654C271.63 316.749 271.912 317.187 271.817 317.63C271.722 318.074 271.286 318.357 270.843 318.262ZM270.448 315.595C270.044 315.508 269.646 315.766 269.56 316.171L269.148 318.093C267.876 318.671 266.464 318.991 264.977 318.991C263.456 318.991 262.014 318.655 260.72 318.053L260.308 316.13C260.222 315.726 259.824 315.468 259.42 315.555L257.722 315.919C257.407 315.595 257.114 315.25 256.845 314.885H265.104C265.197 314.885 265.26 314.868 265.26 314.783V311.861C265.26 311.776 265.197 311.76 265.104 311.76H262.688V309.908H265.301C265.539 309.908 266.576 309.976 266.907 311.301C267.011 311.708 267.239 313.034 267.395 313.458C267.55 313.934 268.182 314.885 268.856 314.885H272.972C273.018 314.885 273.068 314.88 273.121 314.87C272.835 315.258 272.522 315.625 272.185 315.968L270.448 315.595ZM259.025 318.222C258.582 318.317 258.146 318.035 258.051 317.591C257.956 317.146 258.238 316.71 258.681 316.614C259.124 316.519 259.56 316.802 259.656 317.246C259.75 317.689 259.468 318.127 259.025 318.222ZM255.892 305.517C256.076 305.932 255.889 306.418 255.475 306.602C255.06 306.786 254.576 306.599 254.392 306.184C254.208 305.768 254.395 305.283 254.809 305.099C255.224 304.915 255.709 305.102 255.892 305.517ZM254.929 307.8L256.698 307.014C257.075 306.846 257.246 306.404 257.078 306.025L256.714 305.202H258.146V311.658H255.257C255.006 310.777 254.872 309.847 254.872 308.886C254.872 308.519 254.891 308.156 254.929 307.8ZM262.689 307.173V305.27H266.099C266.276 305.27 267.343 305.474 267.343 306.272C267.343 306.935 266.524 307.173 265.851 307.173H262.689V307.173ZM275.084 308.886C275.084 309.138 275.074 309.388 275.056 309.636H274.019C273.915 309.636 273.873 309.704 273.873 309.806V310.282C273.873 311.403 273.241 311.646 272.688 311.709C272.16 311.768 271.575 311.488 271.503 311.165C271.192 309.415 270.674 309.041 269.855 308.396C270.871 307.75 271.928 306.799 271.928 305.525C271.928 304.149 270.985 303.282 270.342 302.857C269.44 302.263 268.442 302.144 268.173 302.144H257.449C258.903 300.521 260.874 299.371 263.103 298.953L264.367 300.279C264.653 300.578 265.126 300.589 265.425 300.303L266.839 298.951C269.803 299.502 272.312 301.347 273.758 303.878L272.79 306.065C272.622 306.443 272.793 306.886 273.17 307.053L275.034 307.881C275.067 308.212 275.084 308.547 275.084 308.886ZM264.368 297.825C264.695 297.511 265.215 297.524 265.528 297.852C265.841 298.18 265.829 298.7 265.501 299.014C265.173 299.328 264.654 299.316 264.34 298.987C264.028 298.659 264.04 298.139 264.368 297.825ZM273.976 305.557C274.159 305.142 274.644 304.955 275.058 305.139C275.473 305.323 275.66 305.809 275.476 306.224C275.292 306.639 274.808 306.826 274.393 306.642C273.979 306.458 273.792 305.973 273.976 305.557Z" fill="black"/>
<g opacity="0.1">
<rect x="0.354736" y="126.637" width="39.582" height="39.582" rx="7.29993" fill="white"/>
</g>
<rect x="54.5366" y="126.637" width="39.5832" height="39.5832" rx="7.30049" fill="white"/>
<mask id="mask0_792_8897" style="mask-type:alpha" maskUnits="userSpaceOnUse" x="54" y="126" width="41" height="41">
<rect x="54.5366" y="126.637" width="39.5832" height="39.5832" rx="7.30049" fill="white"/>
</mask>
<g mask="url(#mask0_792_8897)">
<path fill-rule="evenodd" clip-rule="evenodd" d="M59.6135 126.107C59.2544 126.135 58.9017 126.131 58.5541 126.228C57.7935 126.44 57.1177 126.779 56.5216 127.301C56.1711 127.608 55.8653 127.939 55.6056 128.329C55.2048 128.93 54.9317 129.577 54.7947 130.305C54.8495 130.403 54.9072 130.505 54.9683 130.609C55.3567 131.269 55.7455 131.924 56.1348 132.583L57.1582 134.312C57.473 134.845 57.7872 135.378 58.1013 135.911L59.5695 138.399C59.9031 138.965 60.237 139.531 60.5709 140.097C61.0574 140.921 61.5452 141.744 62.0311 142.568L63.8183 145.602C64.3335 146.475 64.8496 147.348 65.3658 148.222L65.4346 148.323C65.5095 148.347 65.5691 148.327 65.6309 148.312C66.3108 148.146 66.9907 147.981 67.6707 147.816C68.7734 147.549 69.8761 147.282 70.9789 147.014L72.7061 146.594C73.8209 146.323 74.9361 146.053 76.0509 145.782C77.1779 145.508 78.3045 145.233 79.4318 144.959C80.0014 144.82 80.5711 144.682 81.1411 144.543C82.2439 144.276 83.3466 144.009 84.4493 143.743L88.0523 142.871L88.2469 142.817L88.1937 142.71L87.2105 141.298L86.2393 139.901L85.2006 138.411L84.2078 136.982L83.2239 135.571L82.2082 134.112C81.8765 133.636 81.5442 133.161 81.2122 132.685L80.6874 131.932C80.6071 131.817 80.5431 131.692 80.5004 131.557C80.3965 131.23 80.5151 131.012 80.703 130.851C80.8248 130.746 80.9649 130.67 81.1166 130.624C81.3279 130.561 81.541 130.501 81.757 130.459C82.19 130.376 82.6259 130.306 83.0605 130.232L84.5338 129.988C84.8444 129.936 85.1548 129.881 85.4654 129.828C85.8876 129.755 86.3097 129.682 86.7322 129.611C87.1423 129.541 87.5524 129.472 87.9624 129.403L89.3047 129.18L90.2364 129.021C90.5907 128.961 90.9447 128.901 91.2987 128.842C91.7403 128.769 92.1815 128.695 92.6231 128.625C92.8863 128.583 93.1495 128.568 93.4108 128.645C93.6067 128.702 93.7851 128.795 93.9511 128.915L94.1809 129.077C94.2038 129.024 94.1707 128.994 94.1554 128.964C93.824 128.282 93.3722 127.696 92.7981 127.209C92.2644 126.755 91.6651 126.421 91.0023 126.208C90.6108 126.082 90.2083 126.141 89.7986 126.11L59.6135 126.107ZM71.9615 166.662C71.9417 166.662 71.9242 166.517 71.9019 166.478C71.424 165.649 70.9409 164.76 70.4687 163.928C69.8739 162.88 69.2844 161.829 68.6982 160.775C68.0721 159.649 67.4514 158.52 66.8301 157.392C66.2394 156.319 65.6506 155.245 65.0621 154.171C64.7069 153.522 64.3538 152.872 63.9989 152.223L63.9046 152.074L63.7319 152.109C63.3904 152.198 63.0494 152.289 62.7085 152.38C62.2338 152.507 61.7594 152.636 61.2843 152.762C60.2179 153.044 59.1515 153.324 58.0851 153.605C57.0005 153.891 55.8704 154.178 54.7855 154.463C54.7195 154.48 54.8552 154.486 54.5366 154.497V161.342C54.6679 161.555 54.6555 161.455 54.6637 161.525C54.6889 161.727 54.7297 161.931 54.7648 162.132C54.896 162.88 55.1914 163.565 55.6183 164.188C56.2444 165.103 57.0782 165.757 58.0997 166.157C58.4645 166.299 58.8453 166.4 59.2346 166.448L59.63 166.554" fill="#FD4F31"/>
<path fill-rule="evenodd" clip-rule="evenodd" d="M55.8034 150.716C57.0585 150.413 58.3138 150.11 59.5689 149.807C60.1201 149.675 60.6716 149.543 61.2228 149.41C61.4984 149.343 61.7746 149.28 62.048 149.205C62.2914 149.138 62.3214 149.056 62.1962 148.833C62.0152 148.511 61.831 148.19 61.6478 147.869L60.0344 145.046L58.4215 142.223C57.8745 141.265 57.3268 140.308 56.7794 139.351C56.3107 138.532 55.842 137.713 55.3736 136.894C55.171 136.539 54.925 136.184 54.7214 135.831C54.6835 135.766 54.8552 135.689 54.5366 135.655V150.998C54.5366 150.987 54.681 150.978 54.7297 150.966L55.8034 150.716ZM94.4351 161.683C93.9432 161.861 93.4509 162.04 92.9593 162.219C91.8394 162.627 90.7194 163.035 89.5995 163.443C88.9772 163.67 88.3562 163.899 87.7337 164.125C86.4649 164.585 85.1955 165.044 83.9265 165.503C83.1911 165.769 82.4554 166.098 81.7204 166.365C81.519 166.438 81.3205 166.662 81.1211 166.662H89.5612L89.7428 166.556C89.9576 166.547 90.1688 166.482 90.3798 166.443C91.2461 166.282 92.0219 165.901 92.7092 165.345C93.2371 164.917 93.6666 164.394 94.0031 163.798C94.3491 163.184 94.5546 162.52 94.6534 161.823C94.662 161.763 94.6805 161.694 94.6308 161.632C94.5607 161.627 94.4988 161.66 94.4351 161.683ZM93.7103 150.168C93.3381 149.651 92.965 149.135 92.5935 148.617C92.0809 147.903 91.5692 147.187 91.0571 146.473C90.8491 146.183 90.6382 145.895 90.4352 145.602C90.374 145.513 90.3043 145.49 90.209 145.516L90.1545 145.532C89.212 145.764 88.2692 145.996 87.3265 146.229L85.6371 146.645C84.5357 146.917 83.4339 147.189 82.3325 147.461C81.2431 147.73 80.1538 147.999 79.0641 148.267L75.667 149.103C74.5528 149.378 73.4392 149.654 72.3253 149.929L69.0939 150.726C68.5245 150.866 67.9552 151.006 67.3864 151.147C67.3027 151.168 67.2125 151.173 67.1233 151.242L67.1994 151.389C67.6764 152.226 68.1534 153.063 68.6316 153.9C69.1729 154.847 69.7146 155.794 70.2575 156.74C70.8546 157.78 71.4533 158.819 72.0513 159.859C72.3951 160.456 72.7367 161.054 73.0833 161.65C73.4685 162.312 73.855 162.972 74.2472 163.63C74.3648 163.826 74.4983 164.014 74.6328 164.199C74.7229 164.323 74.8344 164.428 74.966 164.509C75.1018 164.592 75.248 164.618 75.4022 164.583C75.4819 164.564 75.5599 164.538 75.637 164.511L75.9206 164.404C76.952 164.046 77.983 163.687 79.0147 163.33C79.8195 163.052 80.6253 162.775 81.4308 162.498C82.2302 162.222 83.0302 161.948 83.83 161.674L86.2113 160.857C87.0231 160.578 87.8347 160.299 88.6462 160.02C89.6422 159.677 90.6378 159.332 91.6345 158.989C92.5951 158.659 93.5567 158.331 94.5176 158.001C94.5766 157.981 94.6416 157.973 94.6903 157.907L94.6964 157.765C94.6967 155.74 94.6961 153.715 94.6983 151.69C94.6983 151.582 94.6699 151.494 94.6062 151.407C94.3042 150.997 94.0082 150.582 93.7103 150.168ZM93.5449 131.089C93.3212 130.801 93.0364 130.71 92.6872 130.803C92.5352 130.843 92.3791 130.869 92.2242 130.897C91.7164 130.992 91.2079 131.085 90.7 131.178C89.9563 131.316 89.213 131.454 88.4693 131.59C87.8805 131.698 87.2914 131.804 86.7023 131.908L84.3388 132.329C84.2397 132.346 84.1397 132.364 84.0441 132.395C83.9048 132.44 83.8647 132.529 83.9284 132.662C83.9803 132.77 84.045 132.874 84.1151 132.972C84.6039 133.656 85.0949 134.339 85.5859 135.022C86.2626 135.964 86.9397 136.905 87.6167 137.846C88.1896 138.643 88.7631 139.439 89.3363 140.235C89.7868 140.86 90.2373 141.486 90.6885 142.111L90.7774 142.22L94.6871 141.239L94.6964 141.033C94.6967 138.277 94.6961 135.522 94.6983 132.767C94.6983 132.645 94.6693 132.547 94.5938 132.451C94.265 132.029 93.9422 131.602 93.6169 131.178L93.5449 131.089ZM94.5967 144.439C94.0053 144.584 93.4117 144.721 92.806 144.884C92.8701 144.999 94.5313 147.278 94.6279 147.386L94.6884 147.42L94.6951 147.281L94.6954 146.322C94.6958 145.765 94.697 145.209 94.6958 144.652C94.6958 144.585 94.7146 144.512 94.6687 144.443L94.5967 144.439Z" fill="#FD4F31"/>
</g>
<rect x="108.72" y="126.637" width="39.582" height="39.582" rx="7.29993" fill="white"/>
<path d="M114.245 134.123L128.513 158.734L142.78 134.123H137.073L128.513 148.89L119.881 134.123H114.245Z" fill="#4DBA87"/>
<path d="M119.882 134.122L128.514 148.96L137.074 134.122H131.795L128.514 139.829L125.161 134.122H119.882Z" fill="#435466"/>
<rect x="162.902" y="126.637" width="39.582" height="39.582" rx="7.29993" fill="#00DCFF"/>
<path fill-rule="evenodd" clip-rule="evenodd" d="M190.459 141.986C190.748 142.069 191.034 142.16 191.318 142.257C194.201 143.249 196.064 144.802 196.064 146.408C196.064 148.083 194.073 149.721 191.013 150.734C190.851 150.788 190.686 150.839 190.517 150.889C190.577 151.131 190.631 151.369 190.677 151.602C191.281 154.651 190.816 157.157 189.384 157.985C187.998 158.787 185.757 157.999 183.489 156.049C183.242 155.836 183.002 155.617 182.767 155.391C182.581 155.571 182.396 155.742 182.21 155.904C179.868 157.949 177.463 158.798 176.03 157.972C174.643 157.173 174.207 154.84 174.765 151.902C174.826 151.583 174.896 151.265 174.975 150.95C174.733 150.881 174.492 150.805 174.253 150.724C171.31 149.719 169.372 148.061 169.372 146.408C169.372 144.808 171.177 143.265 174.003 142.28C174.319 142.17 174.649 142.067 174.991 141.97C174.918 141.677 174.852 141.383 174.794 141.087C174.208 138.097 174.62 135.707 176.011 134.902C177.462 134.063 179.878 134.964 182.288 137.103C182.438 137.236 182.586 137.372 182.731 137.511C182.947 137.303 183.169 137.099 183.395 136.902C185.695 134.902 187.972 134.065 189.365 134.868C190.817 135.704 191.242 138.246 190.592 141.401C190.551 141.597 190.507 141.792 190.459 141.986ZM190.206 149.793C190.359 149.748 190.508 149.701 190.654 149.653H190.654C193.296 148.778 194.923 147.44 194.923 146.409C194.923 145.441 193.417 144.185 190.947 143.335C190.691 143.247 190.426 143.164 190.153 143.085C189.825 144.146 189.387 145.268 188.854 146.414C189.412 147.588 189.868 148.725 190.206 149.793ZM189.686 155.344C189.863 154.391 189.825 153.172 189.558 151.824C189.516 151.613 189.468 151.398 189.414 151.179C188.308 151.434 187.089 151.621 185.798 151.735C185.065 152.796 184.313 153.752 183.561 154.574C183.786 154.79 184.01 154.994 184.232 155.186C186.172 156.854 187.971 157.486 188.812 157C189.208 156.771 189.527 156.2 189.686 155.344ZM176.6 156.986C176.995 157.214 177.65 157.206 178.472 156.916H178.472C179.386 156.593 180.424 155.951 181.46 155.046C181.633 154.895 181.803 154.739 181.968 154.578C181.189 153.743 180.416 152.788 179.677 151.75C178.384 151.645 177.173 151.471 176.08 151.23C176.007 151.523 175.942 151.818 175.885 152.115C175.408 154.627 175.758 156.501 176.6 156.986ZM171.509 147.994C172.245 148.625 173.32 149.202 174.622 149.647C174.84 149.721 175.059 149.79 175.281 149.853C175.618 148.754 176.062 147.601 176.598 146.436C176.069 145.289 175.631 144.154 175.297 143.068C174.988 143.155 174.681 143.252 174.378 143.357C171.961 144.199 170.512 145.438 170.512 146.409C170.512 146.865 170.847 147.428 171.509 147.994ZM176.582 135.889C175.744 136.374 175.411 138.306 175.912 140.868V140.868C175.967 141.144 176.028 141.418 176.096 141.69C177.201 141.44 178.402 141.253 179.658 141.137C180.39 140.104 181.156 139.157 181.931 138.325C181.797 138.197 181.664 138.074 181.531 137.956C179.45 136.109 177.475 135.373 176.582 135.889ZM186.614 142.375C186.894 142.814 187.165 143.259 187.426 143.709C187.691 144.167 187.947 144.629 188.194 145.097C188.531 144.307 188.818 143.537 189.048 142.8C188.282 142.625 187.466 142.483 186.614 142.375ZM184.301 141.034C183.783 140.344 183.257 139.709 182.731 139.139C182.196 139.715 181.665 140.35 181.147 141.033C182.198 140.984 183.25 140.984 184.301 141.034ZM177.252 145.096C177.492 144.631 177.743 144.171 178.005 143.717C178.268 143.263 178.54 142.815 178.824 142.373C177.977 142.479 177.165 142.618 176.404 142.788C176.636 143.535 176.92 144.309 177.252 145.096ZM176.388 150.13C177.149 150.296 177.974 150.428 178.848 150.526C178.558 150.076 178.278 149.619 178.01 149.156C177.747 148.702 177.495 148.242 177.253 147.776C176.914 148.58 176.624 149.37 176.388 150.13ZM181.156 151.838C181.683 152.531 182.222 153.176 182.762 153.759C183.285 153.184 183.809 152.538 184.329 151.833C183.8 151.856 183.262 151.868 182.718 151.868C182.188 151.868 181.667 151.858 181.156 151.838ZM189.101 150.081C188.862 149.334 188.561 148.547 188.205 147.735C187.957 148.212 187.699 148.683 187.43 149.148C187.166 149.606 186.893 150.058 186.611 150.505C187.491 150.4 188.327 150.258 189.101 150.081ZM185.162 150.643C185.611 149.969 186.038 149.281 186.443 148.579H186.443C186.851 147.873 187.233 147.153 187.59 146.42C187.229 145.694 186.846 144.981 186.439 144.28C186.035 143.581 185.606 142.897 185.153 142.228C184.359 142.168 183.544 142.136 182.718 142.136C181.895 142.136 181.081 142.167 180.288 142.227C179.83 142.897 179.398 143.584 178.993 144.286V144.286C178.588 144.988 178.209 145.705 177.858 146.436C178.21 147.167 178.59 147.883 178.997 148.585C179.405 149.291 179.84 149.98 180.301 150.653C181.079 150.703 181.887 150.729 182.718 150.729C183.552 150.729 184.37 150.7 185.162 150.643ZM189.475 141.171C190.036 138.447 189.689 136.37 188.795 135.855C187.956 135.372 186.114 136.048 184.143 137.762C183.934 137.944 183.73 138.132 183.53 138.324C184.292 139.146 185.052 140.095 185.786 141.138C187.045 141.256 188.247 141.446 189.355 141.702C189.398 141.526 189.438 141.349 189.475 141.171Z" fill="white"/>
<path d="M182.719 144.028C184.035 144.028 185.102 145.094 185.102 146.409C185.102 147.725 184.035 148.791 182.719 148.791C181.403 148.791 180.336 147.725 180.336 146.409C180.336 145.094 181.403 144.028 182.719 144.028Z" fill="white"/>
<rect x="28.4583" y="180.819" width="39.582" height="39.582" rx="7.29993" fill="white"/>
<path d="M48.0969 187.712C47.0446 187.717 46.0403 187.806 45.156 187.963C42.5516 188.423 42.0791 189.386 42.0791 191.162V193.507H48.2332V194.289H39.7693C37.9809 194.289 36.4148 195.364 35.9248 197.41C35.3595 199.754 35.3346 201.217 35.9248 203.664C36.3622 205.486 37.4069 206.784 39.1956 206.784H41.3117V203.972C41.3117 201.941 43.069 200.149 45.1563 200.149H51.3034C53.0145 200.149 54.3803 198.74 54.3803 197.022V191.162C54.3803 189.494 52.9732 188.241 51.3034 187.963C50.2457 187.787 49.1488 187.707 48.0969 187.712ZM44.7687 189.598C45.4042 189.598 45.9236 190.126 45.9236 190.775C45.9236 191.421 45.4045 191.943 44.7687 191.943C44.1307 191.943 43.6141 191.421 43.6141 190.775C43.6138 190.126 44.1307 189.598 44.7687 189.598Z" fill="#3774A7"/>
<path d="M55.1479 194.289V197.022C55.1479 199.141 53.3515 200.924 51.3034 200.924H45.1563C43.4725 200.924 42.0793 202.365 42.0793 204.051V209.912C42.0793 211.579 43.5293 212.561 45.1563 213.039C47.1042 213.611 48.9724 213.715 51.3034 213.039C52.8525 212.59 54.3803 211.687 54.3803 209.912V207.566H48.2334V206.784H57.4577C59.2461 206.784 59.913 205.537 60.5351 203.664C61.1776 201.736 61.1499 199.882 60.5351 197.41C60.093 195.629 59.2488 194.289 57.4577 194.289H55.1479V194.289ZM51.6904 209.13C52.3287 209.13 52.8453 209.652 52.8453 210.299C52.8453 210.948 52.3284 211.475 51.6904 211.475C51.0549 211.475 50.5357 210.948 50.5357 210.299C50.5357 209.652 51.0549 209.13 51.6904 209.13Z" fill="#FFD242"/>
<rect x="82.6401" y="180.819" width="39.582" height="39.582" rx="7.29993" fill="white"/>
<path d="M98.344 209.122C98.344 209.122 97.1547 209.814 99.1915 210.047C101.659 210.329 102.921 210.289 105.639 209.775C105.639 209.775 106.356 210.223 107.354 210.611C101.257 213.223 93.5557 210.46 98.344 209.122ZM97.5986 205.713C97.5986 205.713 96.2643 206.7 98.3029 206.911C100.939 207.184 103.021 207.206 106.624 206.512C106.624 206.512 107.121 207.017 107.905 207.293C100.534 209.449 92.3252 207.463 97.5986 205.713Z" fill="#7B80EA"/>
<path d="M103.881 199.929C105.384 201.659 103.487 203.214 103.487 203.214C103.487 203.214 107.301 201.246 105.55 198.779C103.913 196.48 102.659 195.338 109.45 191.399C109.45 191.4 98.7895 194.061 103.881 199.929Z" fill="#FF4E62"/>
<path d="M111.944 211.644C111.944 211.644 112.824 212.37 110.974 212.931C107.455 213.996 96.3274 214.318 93.2368 212.973C92.1264 212.49 94.2096 211.819 94.865 211.678C95.5483 211.53 95.9385 211.557 95.9385 211.557C94.7028 210.687 87.9517 213.266 92.5098 214.006C104.939 216.021 115.167 213.098 111.944 211.644ZM98.9178 202.179C98.9178 202.179 93.258 203.524 96.9137 204.013C98.4575 204.219 101.534 204.172 104.401 203.931C106.744 203.734 109.095 203.314 109.095 203.314C109.095 203.314 108.269 203.668 107.672 204.076C101.923 205.588 90.8203 204.883 94.017 203.338C96.7194 202.031 98.9178 202.179 98.9178 202.179ZM109.071 207.854C114.914 204.819 112.212 201.902 110.327 202.295C109.866 202.391 109.659 202.474 109.659 202.474C109.659 202.474 109.83 202.205 110.158 202.089C113.888 200.778 116.757 205.957 108.954 208.008C108.954 208.008 109.044 207.927 109.071 207.854Z" fill="#7B80EA"/>
<path d="M105.55 185.039C105.55 185.039 108.785 188.276 102.481 193.253C97.4245 197.246 101.328 199.522 102.479 202.124C99.5271 199.462 97.3621 197.117 98.8144 194.935C100.947 191.734 106.855 190.18 105.55 185.039Z" fill="#FF4E62"/>
<path d="M99.4919 216.082C105.099 216.441 113.713 215.883 113.916 213.229C113.916 213.229 113.524 214.235 109.282 215.033C104.495 215.934 98.5903 215.829 95.0892 215.251C95.0892 215.252 95.8065 215.845 99.4919 216.082Z" fill="#7B80EA"/>
<g opacity="0.3">
<rect x="136.822" y="180.819" width="39.582" height="39.582" rx="7.29993" fill="white"/>
<path d="M159.694 196.667L156.967 199.204L154.437 194.101L155.747 191.166C156.087 190.57 156.618 190.576 156.95 191.166L159.694 196.667Z" fill="#FFA000"/>
<path d="M154.437 194.1L156.967 199.204L146.777 208.683L154.437 194.1Z" fill="#F57F17"/>
<path d="M162.676 192.79C163.163 192.321 163.667 192.481 163.796 193.145L166.448 208.557L157.656 213.835C157.35 214.005 156.532 214.079 156.532 214.079C156.532 214.079 155.788 213.99 155.505 213.823L146.777 208.683L162.676 192.79Z" fill="#FFCA28"/>
<path d="M154.438 194.1L146.779 208.683L150.19 187.371C150.316 186.707 150.694 186.643 151.031 187.229L154.438 194.1Z" fill="#FFA000"/>
</g>
<rect x="191.004" y="180.819" width="39.582" height="39.582" rx="7.29993" fill="white"/>
<path fill-rule="evenodd" clip-rule="evenodd" d="M210.794 185.999L197.191 190.85L199.266 208.836L210.794 215.221V204.03H207.171L205.462 208.296H202.291L210.794 189.23V185.999ZM210.794 195.425L208.311 201.4H210.794V195.425Z" fill="#DF2226"/>
<path fill-rule="evenodd" clip-rule="evenodd" d="M210.795 189.228V185.999L224.398 190.85L222.323 208.836L210.795 215.221V204.03H214.391L216.1 208.296H219.271L210.797 189.229L210.795 189.232V189.228ZM210.795 201.4V195.428L210.797 195.424L213.28 201.4H210.795Z" fill="#A51E22"/>
<rect x="0.354736" y="235.001" width="39.582" height="39.582" rx="7.29993" fill="#4F5B93"/>
<path d="M20.1445 247.306C11.9874 247.306 5.37427 250.657 5.37427 254.791C5.37427 258.925 11.9874 262.277 20.1445 262.277C28.3016 262.277 34.9148 258.925 34.9148 254.791C34.9148 250.657 28.3016 247.306 20.1445 247.306ZM16.3012 256.25C15.9487 256.579 15.5573 256.716 15.1263 256.856C14.6952 256.996 14.1466 256.967 13.4796 256.967H11.9679L11.5489 259.385H9.78378L11.3589 251.165H14.7532C15.7744 251.165 16.5193 251.459 16.9876 251.995C17.4559 252.531 17.5966 253.291 17.4099 254.252C17.3328 254.648 17.203 255.016 17.0197 255.344C16.8362 255.672 16.5967 255.978 16.3012 256.25ZM21.4534 256.967L22.1499 253.481C22.2292 253.073 22.2002 252.77 22.0627 252.622C21.9249 252.473 21.6319 252.374 21.1839 252.374H19.7841L18.882 256.967H17.1307L18.7058 248.989H20.4571L20.0384 251.165H21.5985C22.5803 251.165 23.2572 251.362 23.6298 251.704C24.0023 252.047 24.114 252.516 23.9651 253.283L23.2323 256.967H21.4534ZM31.1866 254.265C31.1097 254.661 30.9796 255.022 30.7966 255.35C30.6133 255.678 30.374 255.978 30.0783 256.25C29.7258 256.579 29.3342 256.716 28.9034 256.856C28.4725 256.996 27.9235 256.967 27.2565 256.967H25.7447L25.326 259.385H23.5609L25.1357 251.165H28.5303C29.5515 251.165 30.2964 251.459 30.7644 251.995C31.2323 252.531 31.3732 253.305 31.1866 254.265ZM27.8614 252.374H26.6523L25.993 255.758H27.0669C27.7782 255.758 28.3086 255.688 28.6568 255.42C29.0054 255.152 29.2401 254.736 29.3622 254.109C29.4792 253.507 29.426 253.037 29.2027 252.79C28.979 252.542 28.532 252.374 27.8614 252.374ZM14.0845 252.374H12.8752L12.2159 255.758H13.2896C14.0011 255.758 14.5313 255.688 14.8797 255.42C15.228 255.152 15.463 254.736 15.5849 254.109C15.7019 253.507 15.6487 253.037 15.4253 252.79C15.2019 252.542 14.7551 252.374 14.0845 252.374Z" fill="white"/>
<g opacity="0.3">
<rect x="54.5366" y="235.001" width="39.582" height="39.582" rx="7.29993" fill="white"/>
<path d="M83.9393 246.069C83.9225 245.918 83.788 245.851 83.6871 245.834C83.5862 245.817 81.5682 245.8 81.5682 245.8C81.5682 245.8 79.8698 244.152 79.7016 243.984C79.5335 243.816 79.214 243.866 79.0794 243.9C79.0794 243.9 78.7599 244.001 78.2218 244.169C78.1377 243.883 78.0032 243.53 77.8182 243.177C77.2128 242.017 76.3384 241.411 75.2621 241.411C75.1949 241.411 75.1108 241.411 75.0435 241.428C75.0099 241.394 74.9763 241.361 74.9426 241.31C74.4718 240.806 73.8832 240.57 73.1769 240.587C71.798 240.621 70.4359 241.613 69.3092 243.396C68.5188 244.64 67.9302 246.204 67.7621 247.415C66.1813 247.902 65.0715 248.239 65.0546 248.255C64.2643 248.508 64.2306 248.525 64.1298 249.281C64.0457 249.836 61.9604 265.997 61.9604 265.997L79.4662 269.024L87.0504 267.14C87.0504 267.14 83.9562 246.204 83.9393 246.069ZM77.3474 244.438C76.9438 244.556 76.4897 244.707 75.9852 244.859C75.9684 244.169 75.8843 243.194 75.5648 242.353C76.6243 242.555 77.1287 243.732 77.3474 244.438ZM75.0772 245.144C74.1523 245.43 73.1601 245.733 72.1511 246.053C72.437 244.976 72.9751 243.9 73.631 243.194C73.8832 242.925 74.2195 242.639 74.6231 242.471C75.0099 243.261 75.0772 244.388 75.0772 245.144ZM73.1937 241.512C73.5132 241.512 73.7823 241.579 74.0177 241.731C73.6478 241.916 73.2778 242.202 72.9415 242.572C72.067 243.513 71.3944 244.96 71.1253 246.372C70.2845 246.624 69.4773 246.877 68.7206 247.112C69.2251 244.892 71.0749 241.579 73.1937 241.512Z" fill="#95BF47"/>
<path d="M83.6872 245.834C83.5863 245.817 81.5683 245.801 81.5683 245.801C81.5683 245.801 79.8699 244.153 79.7017 243.984C79.6345 243.917 79.5504 243.884 79.4663 243.884V269.024L87.0505 267.14C87.0505 267.14 83.9563 246.221 83.9394 246.07C83.9058 245.918 83.7881 245.851 83.6872 245.834Z" fill="#5E8E3E"/>
<path d="M75.2621 249.735L74.3877 253.031C74.3877 253.031 73.4123 252.577 72.2352 252.661C70.5199 252.762 70.5031 253.838 70.5199 254.124C70.6208 255.604 74.4886 255.924 74.7072 259.371C74.8753 262.095 73.261 263.945 70.9403 264.096C68.1488 264.265 66.6185 262.633 66.6185 262.633L67.2071 260.128C67.2071 260.128 68.7542 261.288 69.9818 261.221C70.789 261.17 71.0748 260.514 71.0412 260.044C70.9235 258.127 67.762 258.227 67.5602 255.083C67.3921 252.426 69.141 249.735 72.9919 249.483C74.5054 249.348 75.2621 249.735 75.2621 249.735Z" fill="white"/>
</g>
<rect x="108.719" y="235.001" width="39.582" height="39.582" rx="7.29993" fill="#663399"/>
<g clip-path="url(#clip1_792_8897)">
<path d="M138.169 254.792H132.023V256.584H136.237C135.622 259.271 133.69 261.511 131.144 262.407L121.046 252.104C122.1 248.968 125.085 246.728 128.51 246.728C131.144 246.728 133.516 248.073 135.008 250.133L136.325 248.969C134.568 246.549 131.759 244.936 128.51 244.936C123.944 244.936 120.081 248.251 119.115 252.642L130.705 264.468C134.919 263.393 138.169 259.451 138.169 254.791V254.792ZM118.851 254.882C118.851 257.391 119.817 259.81 121.661 261.691C123.505 263.573 125.964 264.558 128.334 264.558L118.851 254.882Z" fill="white"/>
<path d="M128.509 242.248C121.748 242.248 116.217 247.893 116.217 254.792C116.217 261.691 121.748 267.336 128.509 267.336C135.271 267.336 140.802 261.691 140.802 254.792C140.802 247.893 135.271 242.248 128.509 242.248ZM121.66 261.781C119.816 259.9 118.85 257.391 118.85 254.972L128.421 264.648C125.963 264.558 123.504 263.663 121.66 261.781V261.781ZM130.616 264.38L119.114 252.642C120.08 248.251 123.943 244.936 128.509 244.936C131.758 244.936 134.568 246.549 136.324 248.968L135.007 250.132C133.515 248.072 131.144 246.729 128.509 246.729C125.085 246.729 122.187 248.969 121.045 252.105L131.144 262.409C133.691 261.512 135.622 259.273 136.236 256.585H132.022V254.792H138.169C138.169 259.451 134.92 263.394 130.617 264.379L130.616 264.38Z" fill="#663399"/>
</g>
<rect x="162.9" y="235.001" width="39.582" height="39.582" rx="7.29993" fill="#F05138"/>
<path d="M189.369 264.367C186.279 266.057 182.031 266.231 177.756 264.497C174.423 263.157 171.573 260.855 169.576 257.89C170.504 258.594 171.518 259.179 172.594 259.632C177.008 261.589 181.42 261.454 184.526 259.632C180.104 256.418 176.349 252.24 173.551 248.827C172.999 248.251 172.506 247.621 172.08 246.947C175.462 249.872 180.841 253.563 182.755 254.607C180.022 251.833 177.512 248.853 175.245 245.693C179.013 249.322 183.159 252.544 187.614 255.305C187.811 255.409 187.964 255.498 188.087 255.58C188.217 255.264 188.33 254.941 188.423 254.613C189.455 251.06 188.276 247.022 185.7 243.678C191.663 247.088 195.21 253.494 193.725 258.857C193.686 259.004 193.644 259.133 193.599 259.285L193.652 259.345C196.598 262.827 195.788 266.512 195.418 265.823C193.819 262.851 190.862 263.769 189.369 264.367Z" fill="#FEFEFE"/>
<rect x="217.082" y="235.001" width="39.582" height="39.582" rx="7.29993" fill="#51E1D9"/>
<path d="M222.788 252.32C222.723 252.32 222.707 252.288 222.739 252.239L223.082 251.798C223.115 251.749 223.196 251.716 223.262 251.716H229.091C229.156 251.716 229.173 251.765 229.14 251.814L228.862 252.239C228.83 252.288 228.748 252.337 228.699 252.337L222.788 252.32Z" fill="white"/>
<path d="M220.323 253.823C220.258 253.823 220.242 253.79 220.274 253.742L220.617 253.301C220.65 253.252 220.732 253.219 220.797 253.219H228.243C228.308 253.219 228.341 253.268 228.324 253.317L228.194 253.709C228.177 253.774 228.112 253.807 228.047 253.807L220.323 253.823Z" fill="white"/>
<path d="M224.275 255.325C224.209 255.325 224.193 255.276 224.226 255.227L224.454 254.819C224.487 254.77 224.552 254.721 224.617 254.721H227.883C227.948 254.721 227.981 254.77 227.981 254.835L227.948 255.227C227.948 255.293 227.883 255.342 227.834 255.342L224.275 255.325Z" fill="white"/>
<path d="M241.223 252.027C240.194 252.288 239.492 252.484 238.479 252.745C238.235 252.81 238.218 252.827 238.006 252.582C237.761 252.304 237.581 252.125 237.239 251.961C236.21 251.455 235.214 251.602 234.283 252.206C233.173 252.925 232.601 253.986 232.618 255.309C232.634 256.615 233.532 257.693 234.822 257.872C235.932 258.019 236.863 257.627 237.598 256.795C237.745 256.615 237.875 256.419 238.039 256.19C237.451 256.19 236.716 256.19 234.887 256.19C234.544 256.19 234.463 255.978 234.577 255.701C234.789 255.194 235.181 254.345 235.41 253.921C235.459 253.823 235.573 253.66 235.818 253.66C236.651 253.66 239.72 253.66 241.761 253.66C241.729 254.1 241.729 254.541 241.664 254.982C241.484 256.158 241.043 257.235 240.325 258.183C239.149 259.734 237.614 260.697 235.671 260.958C234.071 261.171 232.585 260.86 231.279 259.881C230.07 258.966 229.385 257.758 229.205 256.256C228.993 254.476 229.515 252.876 230.593 251.472C231.752 249.953 233.287 248.99 235.165 248.647C236.7 248.369 238.169 248.549 239.492 249.447C240.357 250.018 240.978 250.802 241.386 251.749C241.484 251.896 241.419 251.978 241.223 252.027Z" fill="white"/>
<path d="M246.629 261.056C245.143 261.024 243.788 260.599 242.645 259.62C241.681 258.787 241.077 257.725 240.881 256.468C240.587 254.623 241.094 252.99 242.204 251.537C243.396 249.97 244.833 249.153 246.776 248.81C248.441 248.516 250.009 248.68 251.429 249.643C252.719 250.525 253.519 251.717 253.732 253.284C254.009 255.489 253.372 257.285 251.854 258.819C250.776 259.913 249.454 260.599 247.935 260.91C247.494 260.991 247.053 261.007 246.629 261.056ZM250.515 254.46C250.499 254.248 250.499 254.084 250.466 253.921C250.172 252.304 248.686 251.39 247.135 251.749C245.617 252.092 244.637 253.056 244.278 254.59C243.984 255.864 244.604 257.154 245.78 257.677C246.678 258.068 247.576 258.019 248.441 257.579C249.731 256.909 250.433 255.864 250.515 254.46Z" fill="white"/>
<defs>
<linearGradient id="paint0_linear_792_8897" x1="57.0425" y1="324.902" x2="52.1417" y2="316.249" gradientUnits="userSpaceOnUse">
<stop stop-color="#FB7655"/>
<stop offset="0.41" stop-color="#E42B1E"/>
<stop offset="0.99" stop-color="#990000"/>
<stop offset="1" stop-color="#990000"/>
</linearGradient>
<linearGradient id="paint1_linear_792_8897" x1="59.4834" y1="317.633" x2="53.1672" y2="313.395" gradientUnits="userSpaceOnUse">
<stop stop-color="#871101"/>
<stop offset="0.99" stop-color="#911209"/>
<stop offset="1" stop-color="#911209"/>
</linearGradient>
<linearGradient id="paint2_linear_792_8897" x1="54.4313" y1="325.165" x2="48.1153" y2="320.926" gradientUnits="userSpaceOnUse">
<stop stop-color="#871101"/>
<stop offset="0.99" stop-color="#911209"/>
<stop offset="1" stop-color="#911209"/>
</linearGradient>
<linearGradient id="paint3_linear_792_8897" x1="41.1698" y1="314.565" x2="42.1489" y2="320.928" gradientUnits="userSpaceOnUse">
<stop stop-color="white"/>
<stop offset="0.23" stop-color="#E57252"/>
<stop offset="0.46" stop-color="#DE3B20"/>
<stop offset="0.99" stop-color="#A60003"/>
<stop offset="1" stop-color="#A60003"/>
</linearGradient>
<linearGradient id="paint4_linear_792_8897" x1="47.9044" y1="308.623" x2="48.2652" y2="315.117" gradientUnits="userSpaceOnUse">
<stop stop-color="white"/>
<stop offset="0.23" stop-color="#E4714E"/>
<stop offset="0.56" stop-color="#BE1A0D"/>
<stop offset="0.99" stop-color="#A80D00"/>
<stop offset="1" stop-color="#A80D00"/>
</linearGradient>
<linearGradient id="paint5_linear_792_8897" x1="53.8802" y1="302.621" x2="54.9604" y2="307.275" gradientUnits="userSpaceOnUse">
<stop stop-color="white"/>
<stop offset="0.18" stop-color="#E46342"/>
<stop offset="0.4" stop-color="#C82410"/>
<stop offset="0.99" stop-color="#A80D00"/>
<stop offset="1" stop-color="#A80D00"/>
</linearGradient>
<linearGradient id="paint6_linear_792_8897" x1="50.5821" y1="300.981" x2="55.2361" y2="298.655" gradientUnits="userSpaceOnUse">
<stop stop-color="white"/>
<stop offset="0.54" stop-color="#C81F11"/>
<stop offset="0.99" stop-color="#BF0905"/>
<stop offset="1" stop-color="#BF0905"/>
</linearGradient>
<linearGradient id="paint7_linear_792_8897" x1="37.0898" y1="312.942" x2="37.473" y2="316.777" gradientUnits="userSpaceOnUse">
<stop stop-color="white"/>
<stop offset="0.31" stop-color="#DE4024"/>
<stop offset="0.99" stop-color="#BF190B"/>
<stop offset="1" stop-color="#BF190B"/>
</linearGradient>
<linearGradient id="paint8_linear_792_8897" x1="34.4553" y1="317.815" x2="52.462" y2="299.299" gradientUnits="userSpaceOnUse">
<stop stop-color="#BD0012"/>
<stop offset="0.07" stop-color="white"/>
<stop offset="0.17" stop-color="white"/>
<stop offset="0.27" stop-color="#C82F1C"/>
<stop offset="0.33" stop-color="#820C01"/>
<stop offset="0.46" stop-color="#A31601"/>
<stop offset="0.72" stop-color="#B31301"/>
<stop offset="0.99" stop-color="#E82609"/>
<stop offset="1" stop-color="#E82609"/>
</linearGradient>
<linearGradient id="paint9_linear_792_8897" x1="48.2502" y1="319.682" x2="42.8263" y2="318.343" gradientUnits="userSpaceOnUse">
<stop stop-color="#8C0C01"/>
<stop offset="0.54" stop-color="#990C00"/>
<stop offset="0.99" stop-color="#A80D0E"/>
<stop offset="1" stop-color="#A80D0E"/>
</linearGradient>
<linearGradient id="paint10_linear_792_8897" x1="57.5654" y1="313.173" x2="52.747" y2="308.855" gradientUnits="userSpaceOnUse">
<stop stop-color="#7E110B"/>
<stop offset="0.99" stop-color="#9E0C00"/>
<stop offset="1" stop-color="#9E0C00"/>
</linearGradient>
<linearGradient id="paint11_linear_792_8897" x1="59.3363" y1="305.249" x2="56.9363" y2="302.683" gradientUnits="userSpaceOnUse">
<stop stop-color="#79130D"/>
<stop offset="0.99" stop-color="#9E120B"/>
<stop offset="1" stop-color="#9E120B"/>
</linearGradient>
<radialGradient id="paint12_radial_792_8897" cx="0" cy="0" r="1" gradientUnits="userSpaceOnUse" gradientTransform="translate(53.4964 308.936) scale(5.90475)">
<stop stop-color="#A80D00"/>
<stop offset="0.99" stop-color="#7E0E08"/>
<stop offset="1" stop-color="#7E0E08"/>
</radialGradient>
<radialGradient id="paint13_radial_792_8897" cx="0" cy="0" r="1" gradientUnits="userSpaceOnUse" gradientTransform="translate(45.3197 316.717) scale(7.84939)">
<stop stop-color="#A30C00"/>
<stop offset="0.99" stop-color="#800E08"/>
<stop offset="1" stop-color="#800E08"/>
</radialGradient>
<linearGradient id="paint14_linear_792_8897" x1="39.7584" y1="322.767" x2="37.8026" y2="316.131" gradientUnits="userSpaceOnUse">
<stop stop-color="#8B2114"/>
<stop offset="0.43" stop-color="#9E100A"/>
<stop offset="0.99" stop-color="#B3100C"/>
<stop offset="1" stop-color="#B3100C"/>
</linearGradient>
<linearGradient id="paint15_linear_792_8897" x1="54.7631" y1="300.777" x2="59.1479" y2="302.713" gradientUnits="userSpaceOnUse">
<stop stop-color="#B31000"/>
<stop offset="0.44" stop-color="#910F08"/>
<stop offset="0.99" stop-color="#791C12"/>
<stop offset="1" stop-color="#791C12"/>
</linearGradient>
<clipPath id="clip0_792_8897">
<rect width="25.5498" height="25.5498" fill="white" transform="translate(89.6558 296.199)"/>
</clipPath>
<clipPath id="clip1_792_8897">
<rect width="24.5859" height="25.0876" fill="white" transform="translate(116.217 242.248)"/>
</clipPath>
</defs>
</svg>
