<svg width="200" height="332" viewBox="0 0 200 332" fill="none" xmlns="http://www.w3.org/2000/svg">
<rect x="86.0297" y="194.5" width="78.3739" height="94.8034" rx="3.88617" fill="#1C0040" stroke="#F0EEFF" stroke-width="1.53435"/>
<path d="M101.773 228.294H148.665" stroke="#F0EEFF" stroke-width="1.53435" stroke-linecap="round"/>
<path d="M101.773 249.354H148.665" stroke="#F0EEFF" stroke-width="1.53435" stroke-linecap="round"/>
<path d="M101.773 270.414H148.665" stroke="#F0EEFF" stroke-width="1.53435" stroke-linecap="round"/>
<circle cx="114.008" cy="228.294" r="4.99286" fill="#2F1979" stroke="#4F55E3" stroke-width="1.53435"/>
<circle cx="133.536" cy="249.354" r="4.99286" fill="#641C67" stroke="#FF5CAA" stroke-width="1.53435"/>
<circle cx="121.977" cy="270.414" r="4.99286" fill="#3E176C" stroke="#AD6DE7" stroke-width="1.53435"/>
<rect x="1.06876" y="41.8617" width="128.62" height="104.603" rx="3.88617" fill="#1C0040" stroke="#F0EEFF" stroke-width="1.53435"/>
<circle cx="11.2922" cy="54.0842" r="3.34295" fill="#FF5C97"/>
<circle cx="22.6555" cy="54.0842" r="3.34295" fill="#AD6DE7"/>
<circle cx="34.0226" cy="54.0842" r="3.34295" fill="#4F55E3"/>
<path d="M1.83594 66.4701H128.922" stroke="#F0EEFF" stroke-width="1.53435"/>
<path fill-rule="evenodd" clip-rule="evenodd" d="M40.1914 103.984C40.1913 103.776 40.3105 103.607 40.4577 103.607L56.7931 103.594C56.9402 103.594 57.0596 103.763 57.0596 103.971L57.0613 108.124C57.0613 108.333 56.9421 108.502 56.795 108.502L40.4596 108.515C40.3125 108.515 40.1931 108.346 40.193 108.138L40.1914 103.984Z" fill="white"/>
<path fill-rule="evenodd" clip-rule="evenodd" d="M35.9624 95.4944C36.1306 95.3262 36.1306 95.0534 35.9624 94.8852L24.6853 83.6081C24.5171 83.4399 24.2443 83.4399 24.0761 83.6081L21.091 86.5932C20.9228 86.7614 20.9228 87.0341 21.091 87.2024L28.7738 94.8852C28.9421 95.0534 28.9421 95.3262 28.7738 95.4944L21.091 103.177C20.9228 103.345 20.9228 103.618 21.091 103.786L24.0761 106.772C24.2443 106.94 24.5171 106.94 24.6853 106.772L35.9624 95.4944Z" fill="white"/>
<rect x="88.1641" y="306.804" width="41.3671" height="24.1957" rx="12.0978" fill="#21004B" stroke="white" stroke-width="1.53435"/>
<circle cx="100.521" cy="318.902" r="8.19495" fill="#FF5CAA" stroke="#FF5CAA" stroke-width="1.53435"/>
<rect x="64.7422" y="1.35864" width="73.9021" height="22.0208" rx="4.60304" fill="#21004B" stroke="white" stroke-width="1.53435"/>
<rect x="70.2344" y="7.76611" width="35.8626" height="9.20609" rx="2.55725" fill="#FF5CAA"/>
<path d="M116.133 9.8363L121.86 15.5633C122.06 15.7631 122.383 15.7631 122.583 15.5633L128.31 9.8363" stroke="white" stroke-width="1.53435" stroke-linecap="round" stroke-linejoin="round"/>
<rect x="38.6602" y="168.757" width="25.5725" height="25.5725" rx="4.60304" stroke="white" stroke-width="1.53435"/>
<path fill-rule="evenodd" clip-rule="evenodd" d="M47.7162 176.322C47.7162 176.124 47.6377 175.935 47.4978 175.795C47.3579 175.655 47.1682 175.576 46.9704 175.576C46.7726 175.576 46.5829 175.655 46.443 175.795C46.3031 175.935 46.2245 176.124 46.2245 176.322V184.964L45.2601 183.999C45.1194 183.863 44.931 183.788 44.7355 183.79C44.5399 183.792 44.3528 183.87 44.2146 184.008C44.0763 184.147 43.9978 184.334 43.9961 184.529C43.9944 184.725 44.0696 184.913 44.2055 185.054L46.4431 187.291C46.5829 187.431 46.7726 187.51 46.9704 187.51C47.1682 187.51 47.3578 187.431 47.4977 187.291L49.7353 185.054C49.8712 184.913 49.9463 184.725 49.9446 184.529C49.9429 184.334 49.8645 184.147 49.7262 184.008C49.5879 183.87 49.4009 183.792 49.2053 183.79C49.0097 183.788 48.8213 183.863 48.6806 183.999L47.7162 184.964V176.322ZM52.1914 177.068C51.9936 177.068 51.8039 177.146 51.664 177.286C51.5241 177.426 51.4456 177.616 51.4456 177.814C51.4456 178.012 51.5241 178.201 51.664 178.341C51.8039 178.481 51.9936 178.56 52.1914 178.56H58.1583C58.3562 178.56 58.5459 178.481 58.6857 178.341C58.8256 178.201 58.9042 178.012 58.9042 177.814C58.9042 177.616 58.8256 177.426 58.6857 177.286C58.5459 177.146 58.3562 177.068 58.1583 177.068H52.1914ZM52.1914 180.797C51.9936 180.797 51.8039 180.876 51.664 181.016C51.5241 181.156 51.4456 181.345 51.4456 181.543C51.4456 181.741 51.5241 181.931 51.664 182.07C51.8039 182.21 51.9936 182.289 52.1914 182.289H55.1749C55.3727 182.289 55.5624 182.21 55.7023 182.07C55.8422 181.931 55.9207 181.741 55.9207 181.543C55.9207 181.345 55.8422 181.156 55.7023 181.016C55.5624 180.876 55.3727 180.797 55.1749 180.797H52.1914ZM52.1914 184.527C51.9936 184.527 51.8039 184.605 51.664 184.745C51.5241 184.885 51.4456 185.075 51.4456 185.272C51.4456 185.47 51.5241 185.66 51.664 185.8C51.8039 185.94 51.9936 186.018 52.1914 186.018H52.9373C53.1351 186.018 53.3248 185.94 53.4647 185.8C53.6046 185.66 53.6832 185.47 53.6832 185.272C53.6832 185.075 53.6046 184.885 53.4647 184.745C53.3248 184.605 53.1351 184.527 52.9373 184.527H52.1914Z" fill="#FF5CAA"/>
<rect x="38.8906" y="205.734" width="25.5725" height="25.5725" rx="4.60304" stroke="white" stroke-width="1.53435"/>
<path fill-rule="evenodd" clip-rule="evenodd" d="M45.254 213.523C45.3733 213.5 45.4964 213.507 45.6124 213.543C45.7285 213.578 45.8341 213.642 45.92 213.728L47.7631 215.571C47.8188 215.629 47.8856 215.676 47.9597 215.708C48.0337 215.741 48.1135 215.758 48.1943 215.759C48.275 215.76 48.3552 215.745 48.43 215.714C48.5048 215.684 48.5728 215.638 48.6299 215.581C48.687 215.524 48.7321 215.456 48.7626 215.381C48.793 215.307 48.8082 215.227 48.8072 215.146C48.8062 215.065 48.7891 214.985 48.7568 214.911C48.7246 214.837 48.6778 214.77 48.6193 214.715L46.777 212.872C46.6911 212.786 46.6275 212.681 46.5917 212.565C46.5559 212.448 46.549 212.325 46.5716 212.206C46.5943 212.086 46.6458 211.974 46.7216 211.879C46.7974 211.784 46.8953 211.709 47.0068 211.661C47.7406 211.341 48.547 211.225 49.3413 211.325C50.1355 211.425 50.888 211.737 51.5196 212.229C52.1512 212.721 52.6385 213.374 52.9301 214.119C53.2217 214.865 53.3068 215.675 53.1765 216.465L58.3073 221.596C58.553 221.835 58.7487 222.121 58.883 222.437C59.0173 222.753 59.0876 223.092 59.0897 223.435C59.0919 223.778 59.0259 224.119 58.8956 224.436C58.7653 224.753 58.5733 225.042 58.3306 225.284C58.088 225.527 57.7996 225.719 57.4822 225.849C57.1648 225.98 56.8247 226.046 56.4815 226.043C56.1384 226.041 55.7991 225.971 55.4834 225.837C55.1676 225.702 54.8817 225.507 54.6422 225.261L49.5114 220.13C48.7211 220.261 47.9103 220.175 47.1644 219.884C46.4186 219.592 45.7653 219.104 45.2736 218.472C44.7818 217.839 44.4698 217.086 44.3703 216.291C44.2709 215.497 44.3879 214.69 44.7088 213.956C44.7575 213.845 44.8327 213.747 44.9277 213.672C45.0227 213.596 45.1347 213.545 45.254 213.523V213.523ZM45.8283 215.746C45.8289 216.2 45.9339 216.648 46.1353 217.054C46.3367 217.461 46.629 217.816 46.9897 218.091C47.3503 218.367 47.7695 218.556 48.2148 218.643C48.6601 218.73 49.1196 218.714 49.5576 218.595C49.6844 218.561 49.8179 218.561 49.9447 218.595C50.0714 218.629 50.187 218.696 50.2796 218.789L55.6968 224.206C55.9051 224.402 56.1815 224.509 56.4675 224.504C56.7534 224.5 57.0264 224.385 57.2286 224.182C57.4309 223.98 57.5464 223.707 57.5507 223.421C57.5551 223.135 57.4479 222.859 57.2519 222.651L51.8355 217.233C51.7426 217.141 51.6758 217.025 51.6417 216.899C51.6077 216.772 51.6076 216.639 51.6416 216.512C51.7602 216.074 51.7766 215.615 51.6894 215.17C51.6023 214.725 51.4139 214.306 51.1389 213.946C50.8639 213.585 50.5096 213.293 50.1035 213.091C49.6974 212.89 49.2503 212.784 48.7968 212.783L49.6747 213.66C50.0681 214.053 50.2891 214.587 50.2891 215.143C50.2891 215.699 50.0681 216.233 49.6747 216.626C49.2814 217.02 48.7479 217.241 48.1916 217.241C47.6353 217.241 47.1018 217.02 46.7084 216.626L45.8283 215.746Z" fill="#AD6DE7"/>
<rect x="38.8906" y="242.712" width="25.5725" height="25.5725" rx="4.60304" stroke="white" stroke-width="1.53435"/>
<path fill-rule="evenodd" clip-rule="evenodd" d="M50.0753 248.04C49.8775 248.04 49.6878 248.118 49.5479 248.258C49.408 248.398 49.3294 248.588 49.3294 248.786V249.966C48.815 250.174 48.3323 250.453 47.8951 250.795L46.8725 250.204C46.7012 250.106 46.4977 250.079 46.3066 250.13C46.1155 250.181 45.9526 250.306 45.8537 250.477L44.362 253.061C44.2631 253.232 44.2363 253.436 44.2875 253.627C44.3386 253.818 44.4636 253.981 44.635 254.08L45.6568 254.67C45.5803 255.22 45.5803 255.777 45.6568 256.327L44.635 256.916C44.55 256.965 44.4756 257.031 44.4159 257.108C44.3562 257.186 44.3124 257.275 44.2871 257.37C44.2617 257.464 44.2553 257.563 44.2682 257.66C44.281 257.757 44.3129 257.851 44.362 257.936L45.8537 260.52C45.9526 260.691 46.1155 260.816 46.3066 260.867C46.4977 260.918 46.7012 260.892 46.8725 260.793L47.8951 260.202C48.3285 260.541 48.811 260.821 49.3294 261.031V262.211C49.3294 262.409 49.408 262.599 49.5479 262.739C49.6878 262.879 49.8775 262.957 50.0753 262.957H53.0587C53.2566 262.957 53.4463 262.879 53.5861 262.739C53.726 262.599 53.8046 262.409 53.8046 262.211V261.031C54.319 260.823 54.8017 260.544 55.2389 260.202L56.2615 260.793C56.4328 260.892 56.6364 260.918 56.8274 260.867C57.0185 260.816 57.1814 260.691 57.2803 260.52L58.7721 257.936C58.871 257.765 58.8978 257.561 58.8466 257.37C58.7954 257.179 58.6704 257.016 58.4991 256.917L57.4772 256.327C57.5537 255.777 57.5537 255.22 57.4772 254.67L58.4991 254.081C58.584 254.032 58.6584 253.966 58.7181 253.889C58.7778 253.811 58.8216 253.722 58.8469 253.627C58.8723 253.533 58.8787 253.434 58.8659 253.337C58.853 253.24 58.8211 253.146 58.7721 253.061L57.2803 250.477C57.1814 250.306 57.0185 250.181 56.8274 250.13C56.6364 250.079 56.4328 250.106 56.2615 250.204L55.2389 250.795C54.8017 250.453 54.319 250.174 53.8046 249.966V248.786C53.8046 248.588 53.726 248.398 53.5861 248.258C53.4463 248.118 53.2566 248.04 53.0587 248.04H50.0753ZM50.8211 250.494V249.532H52.3129V250.494C52.313 250.654 52.3649 250.811 52.461 250.94C52.5571 251.068 52.6922 251.163 52.8462 251.208C53.5177 251.409 54.1327 251.765 54.6415 252.247C54.7582 252.357 54.9075 252.427 55.0672 252.446C55.2268 252.465 55.3883 252.431 55.5275 252.351L56.3614 251.869L57.1073 253.161L56.2742 253.642C56.1351 253.722 56.0257 253.845 55.9621 253.993C55.8986 254.14 55.8843 254.304 55.9214 254.46C56.0836 255.143 56.0836 255.854 55.9214 256.537C55.8843 256.693 55.8986 256.857 55.9621 257.004C56.0257 257.152 56.1351 257.275 56.2742 257.355L57.1073 257.836L56.3614 259.128L55.5268 258.646C55.3877 258.566 55.2263 258.533 55.0668 258.551C54.9073 258.57 54.7581 258.64 54.6415 258.751C54.1327 259.233 53.5177 259.588 52.8462 259.789C52.6922 259.835 52.5571 259.929 52.461 260.058C52.3649 260.186 52.313 260.343 52.3129 260.503V261.465H50.8211V260.503C50.8211 260.343 50.7691 260.186 50.673 260.058C50.5769 259.929 50.4418 259.835 50.2879 259.789C49.6163 259.588 49.0013 259.233 48.4926 258.751C48.3758 258.64 48.2265 258.57 48.0669 258.551C47.9072 258.532 47.7457 258.566 47.6065 258.646L46.7726 259.128L46.0267 257.836L46.8599 257.355C46.9989 257.275 47.1083 257.152 47.1719 257.004C47.2354 256.857 47.2497 256.693 47.2127 256.537C47.0504 255.854 47.0504 255.143 47.2127 254.46C47.2497 254.304 47.2354 254.14 47.1719 253.993C47.1083 253.845 46.9989 253.722 46.8599 253.642L46.0267 253.161L46.7726 251.869L47.6065 252.351C47.7457 252.431 47.9072 252.465 48.0669 252.446C48.2265 252.427 48.3758 252.357 48.4926 252.247C49.0013 251.765 49.6163 251.409 50.2879 251.208C50.4418 251.163 50.5769 251.068 50.673 250.94C50.7691 250.811 50.8211 250.654 50.8211 250.494ZM50.0753 255.499C50.0753 255.103 50.2324 254.723 50.5122 254.444C50.792 254.164 51.1714 254.007 51.567 254.007C51.9626 254.007 52.3421 254.164 52.6218 254.444C52.9016 254.723 53.0587 255.103 53.0587 255.499C53.0587 255.894 52.9016 256.274 52.6218 256.553C52.3421 256.833 51.9626 256.99 51.567 256.99C51.1714 256.99 50.792 256.833 50.5122 256.553C50.2324 256.274 50.0753 255.894 50.0753 255.499ZM51.567 252.515C50.7757 252.515 50.0169 252.829 49.4574 253.389C48.8979 253.948 48.5836 254.707 48.5836 255.499C48.5836 256.29 48.8979 257.049 49.4574 257.608C50.0169 258.168 50.7757 258.482 51.567 258.482C52.3583 258.482 53.1171 258.168 53.6766 257.608C54.2361 257.049 54.5505 256.29 54.5505 255.499C54.5505 254.707 54.2361 253.948 53.6766 253.389C53.1171 252.829 52.3583 252.515 51.567 252.515V252.515Z" fill="#FF5CAA"/>
<rect x="2.0625" y="205.734" width="25.5725" height="25.5725" rx="4.60304" stroke="white" stroke-width="1.53435"/>
<path fill-rule="evenodd" clip-rule="evenodd" d="M9.62891 214.791C9.62891 214.594 9.70749 214.404 9.84736 214.264C9.98724 214.124 10.177 214.046 10.3748 214.046H19.3251C19.523 214.046 19.7127 214.124 19.8525 214.264C19.9924 214.404 20.071 214.594 20.071 214.791C20.071 214.989 19.9924 215.179 19.8525 215.319C19.7127 215.459 19.523 215.537 19.3251 215.537H10.3748C10.177 215.537 9.98724 215.459 9.84736 215.319C9.70749 215.179 9.62891 214.989 9.62891 214.791ZM9.62891 218.521C9.62891 218.323 9.70749 218.133 9.84736 217.993C9.98724 217.853 10.177 217.775 10.3748 217.775H19.3251C19.523 217.775 19.7127 217.853 19.8525 217.993C19.9924 218.133 20.071 218.323 20.071 218.521C20.071 218.719 19.9924 218.908 19.8525 219.048C19.7127 219.188 19.523 219.267 19.3251 219.267H10.3748C10.177 219.267 9.98724 219.188 9.84736 219.048C9.70749 218.908 9.62891 218.719 9.62891 218.521ZM9.62891 222.25C9.62891 222.052 9.70749 221.863 9.84736 221.723C9.98724 221.583 10.177 221.504 10.3748 221.504H14.1041C14.3019 221.504 14.4916 221.583 14.6315 221.723C14.7714 221.863 14.85 222.052 14.85 222.25C14.85 222.448 14.7714 222.638 14.6315 222.777C14.4916 222.917 14.3019 222.996 14.1041 222.996H10.3748C10.177 222.996 9.98724 222.917 9.84736 222.777C9.70749 222.638 9.62891 222.448 9.62891 222.25Z" fill="#FF4E62"/>
<rect x="1.83594" y="168.757" width="25.5725" height="25.5725" rx="4.60304" stroke="white" stroke-width="1.53435" stroke-linecap="round" stroke-dasharray="1.53 4.09"/>
<rect x="70.2289" y="108.871" width="128.62" height="98.1538" rx="3.88617" fill="#1C0040" stroke="#F0EEFF" stroke-width="1.53435"/>
<rect x="80.6726" y="145.663" width="9.46181" height="9.46181" rx="2.17366" fill="#F0EEFF" stroke="white" stroke-width="0.767174"/>
<path d="M82.6406 150.339L84.3962 152.074L87.7534 148.714" stroke="#AD6DE7" stroke-width="1.0229" stroke-linecap="round"/>
<rect x="80.6726" y="158.868" width="9.46181" height="9.46181" rx="2.17366" fill="#F0EEFF" stroke="white" stroke-width="0.767174"/>
<path d="M82.6406 163.544L84.3962 165.279L87.7534 161.919" stroke="#4F55E3" stroke-width="1.0229" stroke-linecap="round"/>
<rect x="80.8005" y="172.2" width="9.20609" height="9.20609" rx="2.0458" stroke="white" stroke-width="1.0229"/>
<rect x="80.2891" y="184.894" width="10.229" height="10.229" rx="2.55725" fill="white"/>
<path d="M82.6406 189.953L84.3962 191.689L87.7534 188.328" stroke="#FF4E62" stroke-width="1.0229" stroke-linecap="round"/>
<rect x="95.8953" y="145.663" width="45.2653" height="9.46181" rx="2.17366" fill="#AD6DE7" stroke="#220E4F" stroke-width="0.767174"/>
<rect x="95.8953" y="158.868" width="32.3295" height="9.46181" rx="2.17366" fill="#4F55E3" stroke="#220E4F" stroke-width="0.767174"/>
<rect x="131.548" y="158.868" width="29.0567" height="9.46181" rx="2.17366" fill="#4F55E3" stroke="#220E4F" stroke-width="0.767174"/>
<rect x="163.93" y="158.868" width="21.044" height="9.46181" rx="2.17366" fill="#4F55E3" stroke="#220E4F" stroke-width="0.767174"/>
<rect x="95.8953" y="172.073" width="59.6303" height="9.46181" rx="2.17366" fill="#FF5C97" stroke="#220E4F" stroke-width="0.767174"/>
<rect x="95.8953" y="185.277" width="29.515" height="9.46181" rx="2.17366" fill="#FF4E62" stroke="#220E4F" stroke-width="0.767174"/>
<circle cx="80.4523" cy="121.094" r="3.34295" fill="#FF5C97"/>
<circle cx="91.8195" cy="121.094" r="3.34295" fill="#AD6DE7"/>
<circle cx="103.183" cy="121.094" r="3.34295" fill="#4F55E3"/>
<path d="M70.9961 133.48H198.082" stroke="#F0EEFF" stroke-width="1.53435"/>
</svg>
