<svg width="686" height="740" viewBox="0 0 686 740" fill="none" xmlns="http://www.w3.org/2000/svg">
<path d="M265.034 110.77H412.187C416.605 110.77 420.187 114.351 420.187 118.77V246.805C420.187 251.224 416.605 254.805 412.187 254.805H129.837C125.418 254.805 121.837 258.387 121.837 262.805V465.397C121.837 469.815 118.255 473.397 113.837 473.397H48.9807C44.5624 473.397 40.9807 469.815 40.9807 465.397V382.835C40.9807 378.416 44.5624 374.835 48.9807 374.835H230.043" stroke="#AD6DE7" stroke-width="6"/>
<rect x="241.824" y="363.252" width="17.3326" height="5.60265" fill="#AD6DE7"/>
<rect x="241.824" y="381.636" width="17.3326" height="5.60265" fill="#AD6DE7"/>
<path fill-rule="evenodd" clip-rule="evenodd" d="M241.649 351.96C243.195 351.96 244.449 353.214 244.449 354.761V395.73C244.449 397.277 243.195 398.531 241.649 398.531C240.102 398.531 238.848 397.277 238.848 395.73V394.154H223.615C215.076 394.154 207.884 388.387 205.721 380.536H200.154C197.232 380.536 194.863 378.167 194.863 375.246C194.863 372.324 197.232 369.955 200.154 369.955H205.929C208.316 362.463 215.332 357.037 223.615 357.037H238.848V354.761C238.848 353.214 240.102 351.96 241.649 351.96Z" fill="#8518E8"/>
<rect x="1.91818" y="2.46021" width="208.127" height="106.646" rx="16" fill="#641C67" stroke="#FF5CAA" stroke-width="3"/>
<rect x="21.3215" y="21.4053" width="208.127" height="106.646" rx="16" fill="#3E176C" stroke="#AD6DE7" stroke-width="3"/>
<rect x="40.7249" y="40.3501" width="208.127" height="106.646" rx="16" fill="#2F1979" stroke="#4F55E3" stroke-width="3"/>
<rect x="60.128" y="59.2944" width="208.127" height="106.646" rx="16" fill="#21004B" stroke="white" stroke-width="3"/>
<path d="M162.438 84.8657H242.828" stroke="white" stroke-width="3" stroke-linecap="round"/>
<path d="M162.438 104.018H242.828" stroke="white" stroke-width="3" stroke-linecap="round"/>
<path d="M162.438 123.17H248.616" stroke="white" stroke-width="3" stroke-linecap="round"/>
<path d="M162.438 142.323H215.755" stroke="white" stroke-width="3" stroke-linecap="round"/>
<path d="M142.9 92.6966V134.484C142.898 137.561 141.566 140.512 139.198 142.689C136.829 144.865 133.617 146.09 130.266 146.094H90.5345C87.1836 146.09 83.9714 144.865 81.6028 142.689C79.2342 140.512 77.9027 137.561 77.9003 134.484V92.6966C77.9027 89.6202 79.2345 86.6704 81.6034 84.4951C83.9722 82.3197 87.1844 81.0967 90.5345 81.0945H130.266C133.616 81.0967 136.828 82.3197 139.197 84.4951C141.566 86.6704 142.898 89.6202 142.9 92.6966Z" stroke="white" stroke-width="3" stroke-linecap="round"/>
<path d="M79.6331 120.212L92.3753 109.106L110.885 125.833L123.362 116.099L141.547 130.221" stroke="white" stroke-width="3" stroke-linecap="round" stroke-linejoin="round"/>
<circle cx="128.28" cy="100.427" r="6.50732" stroke="white" stroke-width="3" stroke-linecap="round"/>
<rect x="123.02" y="661" width="78.8875" height="78.8875" rx="14.5489" fill="white"/>
<path d="M189.632 699.768L187.319 698.337C187.3 698.112 187.278 697.887 187.254 697.663L189.241 695.809C189.443 695.621 189.534 695.342 189.479 695.072C189.426 694.801 189.236 694.578 188.977 694.481L186.437 693.531C186.373 693.311 186.306 693.093 186.238 692.875L187.823 690.674C187.984 690.45 188.017 690.159 187.912 689.904C187.807 689.65 187.577 689.468 187.305 689.423L184.625 688.987C184.521 688.784 184.413 688.584 184.303 688.385L185.429 685.914C185.545 685.663 185.521 685.37 185.367 685.142C185.214 684.912 184.954 684.778 184.678 684.788L181.958 684.883C181.818 684.707 181.675 684.533 181.529 684.362L182.154 681.713C182.217 681.444 182.137 681.163 181.942 680.968C181.747 680.773 181.465 680.692 181.196 680.755L178.548 681.38C178.377 681.234 178.202 681.091 178.026 680.95L178.121 678.231C178.132 677.956 177.998 677.694 177.768 677.541C177.538 677.388 177.247 677.365 176.996 677.479L174.525 678.605C174.326 678.496 174.126 678.387 173.924 678.283L173.487 675.603C173.442 675.331 173.26 675.101 173.006 674.995C172.751 674.89 172.46 674.924 172.236 675.085L170.033 676.67C169.816 676.601 169.598 676.535 169.378 676.471L168.428 673.93C168.332 673.671 168.109 673.481 167.838 673.427C167.567 673.374 167.289 673.464 167.101 673.665L165.247 675.654C165.023 675.63 164.798 675.607 164.573 675.589L163.142 673.275C162.997 673.041 162.741 672.898 162.465 672.898C162.189 672.898 161.933 673.041 161.788 673.275L160.357 675.589C160.131 675.607 159.906 675.63 159.682 675.654L157.828 673.665C157.64 673.464 157.361 673.374 157.091 673.427C156.82 673.482 156.597 673.671 156.501 673.93L155.551 676.471C155.33 676.535 155.113 676.601 154.895 676.67L152.693 675.085C152.469 674.923 152.178 674.889 151.923 674.995C151.669 675.101 151.486 675.331 151.442 675.603L151.005 678.283C150.803 678.387 150.603 678.495 150.403 678.605L147.933 677.479C147.681 677.364 147.389 677.388 147.16 677.541C146.931 677.694 146.797 677.956 146.807 678.231L146.902 680.95C146.726 681.091 146.552 681.234 146.38 681.38L143.732 680.755C143.463 680.693 143.181 680.773 142.986 680.968C142.79 681.163 142.711 681.444 142.774 681.713L143.397 684.362C143.253 684.534 143.11 684.707 142.969 684.883L140.25 684.788C139.976 684.78 139.713 684.912 139.56 685.142C139.407 685.37 139.383 685.663 139.498 685.914L140.624 688.385C140.515 688.584 140.406 688.784 140.301 688.987L137.622 689.423C137.35 689.467 137.121 689.649 137.015 689.904C136.91 690.159 136.944 690.45 137.104 690.674L138.689 692.875C138.62 693.093 138.553 693.311 138.49 693.531L135.949 694.481C135.691 694.578 135.501 694.801 135.447 695.072C135.394 695.342 135.484 695.621 135.685 695.809L137.673 697.663C137.649 697.887 137.626 698.112 137.607 698.337L135.295 699.768C135.06 699.913 134.918 700.169 134.918 700.445C134.918 700.722 135.06 700.978 135.295 701.122L137.607 702.553C137.626 702.779 137.649 703.003 137.673 703.227L135.685 705.082C135.484 705.269 135.394 705.548 135.447 705.818C135.501 706.09 135.691 706.312 135.949 706.409L138.49 707.359C138.553 707.579 138.62 707.798 138.689 708.015L137.104 710.217C136.943 710.441 136.909 710.732 137.015 710.986C137.121 711.242 137.351 711.424 137.623 711.467L140.301 711.903C140.406 712.106 140.514 712.306 140.624 712.506L139.498 714.976C139.383 715.227 139.407 715.519 139.56 715.749C139.714 715.979 139.976 716.113 140.25 716.102L142.968 716.007C143.11 716.184 143.252 716.357 143.397 716.529L142.774 719.178C142.711 719.446 142.79 719.727 142.986 719.922C143.18 720.119 143.463 720.197 143.732 720.134L146.38 719.51C146.552 719.656 146.726 719.799 146.902 719.939L146.807 722.658C146.797 722.934 146.931 723.195 147.16 723.348C147.389 723.501 147.681 723.525 147.933 723.41L150.403 722.284C150.602 722.395 150.802 722.502 151.005 722.607L151.442 725.285C151.486 725.557 151.668 725.788 151.923 725.893C152.177 725.999 152.469 725.964 152.693 725.804L154.894 724.218C155.112 724.287 155.33 724.354 155.55 724.417L156.5 726.958C156.596 727.215 156.82 727.407 157.091 727.459C157.361 727.514 157.64 727.423 157.828 727.221L159.682 725.233C159.906 725.259 160.131 725.281 160.356 725.301L161.788 727.613C161.932 727.847 162.188 727.99 162.464 727.99C162.74 727.99 162.996 727.847 163.141 727.613L164.573 725.301C164.798 725.281 165.023 725.259 165.247 725.233L167.1 727.221C167.288 727.423 167.567 727.514 167.837 727.459C168.108 727.406 168.332 727.215 168.428 726.958L169.378 724.417C169.598 724.354 169.816 724.287 170.034 724.218L172.236 725.804C172.459 725.964 172.751 725.999 173.005 725.893C173.26 725.788 173.442 725.557 173.486 725.285L173.923 722.607C174.125 722.502 174.325 722.393 174.525 722.284L176.995 723.41C177.246 723.525 177.539 723.501 177.768 723.348C177.997 723.195 178.131 722.934 178.121 722.658L178.026 719.939C178.202 719.798 178.376 719.656 178.548 719.51L181.196 720.134C181.465 720.197 181.747 720.119 181.941 719.922C182.137 719.727 182.216 719.446 182.153 719.178L181.529 716.529C181.675 716.357 181.818 716.184 181.958 716.007L184.677 716.102C184.951 716.113 185.213 715.979 185.367 715.749C185.52 715.519 185.544 715.227 185.429 714.976L184.303 712.506C184.413 712.306 184.521 712.106 184.625 711.903L187.304 711.467C187.577 711.424 187.806 711.242 187.912 710.986C188.017 710.732 187.984 710.441 187.822 710.217L186.237 708.015C186.306 707.798 186.372 707.579 186.436 707.359L188.977 706.409C189.235 706.312 189.426 706.09 189.479 705.818C189.533 705.548 189.443 705.269 189.241 705.082L187.253 703.227C187.277 703.003 187.299 702.778 187.319 702.553L189.632 701.122C189.866 700.978 190.009 700.721 190.009 700.445C190.009 700.17 189.866 699.913 189.632 699.768ZM174.153 718.955C173.269 718.764 172.708 717.894 172.897 717.008C173.086 716.123 173.956 715.56 174.839 715.75C175.722 715.939 176.285 716.811 176.095 717.696C175.906 718.58 175.035 719.144 174.153 718.955ZM173.367 713.64C172.561 713.467 171.768 713.98 171.595 714.787L170.774 718.619C168.24 719.769 165.427 720.408 162.463 720.408C159.432 720.408 156.557 719.737 153.978 718.538L153.157 714.707C152.985 713.9 152.192 713.386 151.386 713.56L148.004 714.286C147.376 713.64 146.791 712.951 146.254 712.224H162.715C162.901 712.224 163.025 712.191 163.025 712.021V706.198C163.025 706.029 162.901 705.995 162.715 705.995H157.901V702.304H163.107C163.583 702.304 165.649 702.44 166.309 705.081C166.516 705.893 166.97 708.535 167.281 709.381C167.59 710.329 168.851 712.224 170.193 712.224H178.396C178.489 712.224 178.588 712.214 178.693 712.195C178.124 712.968 177.5 713.7 176.827 714.383L173.367 713.64ZM150.601 718.875C149.717 719.065 148.848 718.502 148.658 717.617C148.469 716.731 149.031 715.861 149.914 715.67C150.797 715.481 151.667 716.045 151.857 716.929C152.045 717.814 151.483 718.685 150.601 718.875ZM144.356 693.554C144.723 694.381 144.35 695.35 143.524 695.716C142.698 696.083 141.732 695.71 141.366 694.882C140.999 694.055 141.372 693.087 142.198 692.721C143.024 692.354 143.99 692.727 144.356 693.554ZM142.437 698.104L145.961 696.538C146.714 696.203 147.054 695.321 146.72 694.567L145.994 692.926H148.848V705.792H143.09C142.59 704.036 142.322 702.183 142.322 700.267C142.322 699.536 142.362 698.814 142.437 698.104ZM157.902 696.854V693.062H164.699C165.05 693.062 167.178 693.467 167.178 695.059C167.178 696.38 165.546 696.854 164.204 696.854H157.902V696.854ZM182.605 700.267C182.605 700.771 182.586 701.269 182.55 701.763H180.483C180.276 701.763 180.193 701.899 180.193 702.101V703.05C180.193 705.284 178.933 705.77 177.83 705.894C176.779 706.012 175.613 705.454 175.469 704.81C174.849 701.323 173.816 700.578 172.184 699.291C174.209 698.005 176.316 696.108 176.316 693.569C176.316 690.827 174.437 689.1 173.156 688.253C171.358 687.069 169.368 686.831 168.831 686.831H147.459C150.357 683.597 154.285 681.305 158.728 680.472L161.247 683.115C161.816 683.711 162.76 683.733 163.355 683.163L166.174 680.467C172.08 681.567 177.081 685.243 179.962 690.287L178.033 694.645C177.7 695.4 178.04 696.282 178.792 696.616L182.507 698.266C182.571 698.926 182.605 699.592 182.605 700.267ZM161.248 678.224C161.9 677.598 162.936 677.623 163.561 678.277C164.184 678.932 164.161 679.968 163.506 680.593C162.854 681.219 161.818 681.194 161.194 680.54C160.57 679.885 160.594 678.849 161.248 678.224ZM180.397 693.634C180.763 692.807 181.729 692.434 182.555 692.801C183.381 693.167 183.753 694.135 183.387 694.962C183.021 695.79 182.055 696.163 181.228 695.796C180.404 695.43 180.031 694.462 180.397 693.634Z" fill="black"/>
<rect x="231.005" y="661" width="78.8875" height="78.8875" rx="14.5489" fill="white"/>
<path fill-rule="evenodd" clip-rule="evenodd" d="M276.603 710.979V695.294C276.603 695.026 276.497 694.769 276.307 694.579C276.117 694.39 275.86 694.283 275.592 694.283H259.926V678.093H291.764C291.897 678.093 292.029 678.119 292.151 678.17C292.274 678.221 292.386 678.295 292.479 678.389C292.573 678.483 292.648 678.595 292.699 678.717C292.75 678.84 292.776 678.972 292.776 679.104V710.979H276.603Z" fill="#8E75FF"/>
<path opacity="0.405" fill-rule="evenodd" clip-rule="evenodd" d="M259.926 678.093V694.283H244.973C244.873 694.283 244.776 694.253 244.692 694.198C244.609 694.142 244.545 694.063 244.506 693.971C244.468 693.879 244.458 693.777 244.477 693.679C244.497 693.581 244.545 693.491 244.616 693.42L259.926 678.093ZM276.603 725.947V710.979H292.776L277.467 726.304C277.396 726.375 277.306 726.423 277.208 726.443C277.11 726.462 277.008 726.452 276.916 726.414C276.823 726.376 276.744 726.311 276.689 726.228C276.633 726.145 276.604 726.047 276.603 725.947ZM259.926 694.283H276.098C276.232 694.283 276.36 694.336 276.455 694.431C276.55 694.526 276.603 694.655 276.603 694.789V710.979H260.937C260.804 710.979 260.673 710.953 260.55 710.902C260.427 710.851 260.316 710.777 260.222 710.683C260.128 710.589 260.054 710.477 260.003 710.355C259.952 710.232 259.926 710.1 259.926 709.968V694.283Z" fill="#8E75FF"/>
<rect x="338.99" y="661" width="78.8875" height="78.8875" rx="14.5489" fill="#F0DB4F"/>
<path d="M409.624 718.963C409.109 715.757 407.018 713.063 400.824 710.552C398.672 709.563 396.274 708.855 395.559 707.224C395.305 706.275 395.271 705.741 395.432 705.166C395.893 703.302 398.118 702.721 399.882 703.255C401.018 703.636 402.093 704.511 402.742 705.908C405.775 703.944 405.769 703.957 407.887 702.607C407.111 701.405 406.697 700.85 406.19 700.336C404.365 698.298 401.88 697.248 397.904 697.329L395.833 697.597C393.849 698.098 391.958 699.14 390.849 700.536C387.522 704.312 388.47 710.919 392.519 713.639C396.508 716.633 402.368 717.314 403.117 720.113C403.845 723.541 400.598 724.65 397.37 724.256C394.992 723.761 393.669 722.553 392.239 720.354C389.606 721.878 389.606 721.878 386.9 723.434C387.542 724.837 388.216 725.472 389.292 726.688C394.384 731.853 407.125 731.599 409.411 723.782C409.503 723.513 410.119 721.723 409.624 718.963ZM383.298 697.743H376.723L376.696 714.74C376.696 718.355 376.883 721.669 376.295 722.685C375.334 724.683 372.841 724.435 371.705 724.048C370.549 723.48 369.961 722.672 369.28 721.53C369.093 721.202 368.953 720.948 368.905 720.928L363.56 724.202C364.449 726.026 365.758 727.609 367.435 728.638C369.941 730.142 373.308 730.603 376.83 729.794C379.122 729.127 381.1 727.744 382.135 725.639C383.632 722.879 383.311 719.538 383.297 715.844C383.331 709.816 383.298 703.789 383.298 697.743Z" fill="#323330"/>
<rect x="446.976" y="661" width="78.8875" height="78.8875" rx="14.5489" fill="white"/>
<g clip-path="url(#clip0_792_8376)">
<path d="M486.419 725.905C500.48 725.905 511.879 714.506 511.879 700.444C511.879 686.383 500.48 674.984 486.419 674.984C472.357 674.984 460.958 686.383 460.958 700.444C460.958 714.506 472.357 725.905 486.419 725.905Z" fill="#1A171B"/>
<path d="M497.55 684.404C494.962 684.494 492.705 685.918 491.026 687.893C489.167 690.055 487.928 692.618 487.035 695.235C485.44 693.928 484.209 692.235 481.667 691.497C480.658 691.186 479.588 691.123 478.55 691.313C477.511 691.503 476.533 691.94 475.699 692.588C474.794 693.265 474.169 694.286 473.874 695.247C473.107 697.745 474.679 699.967 475.396 700.764L476.961 702.44C477.283 702.766 478.059 703.628 477.679 704.855C477.269 706.191 475.657 707.06 474.004 706.548C473.266 706.324 472.206 705.773 472.444 704.999C472.54 704.683 472.77 704.443 472.891 704.171C473.002 703.935 473.055 703.759 473.09 703.653C473.393 702.668 472.979 701.385 471.924 701.059C470.939 700.756 469.931 700.996 469.54 702.267C469.099 703.709 469.785 706.324 473.479 707.443C477.808 708.774 481.468 706.416 481.987 703.341C482.313 701.416 481.445 699.986 479.853 698.165L478.556 696.731C477.789 695.964 477.501 694.606 478.314 693.579C479 692.71 479.978 692.34 481.579 692.774C483.918 693.406 484.957 695.03 486.697 696.339C485.98 698.694 485.509 701.055 485.087 703.176L484.828 704.755C483.586 711.273 482.637 714.853 480.17 716.906C479.671 717.259 478.962 717.788 477.892 717.826C477.331 717.845 477.15 717.458 477.145 717.289C477.131 716.896 477.463 716.714 477.681 716.538C478.011 716.358 478.51 716.058 478.475 715.106C478.437 713.978 477.505 712.997 476.155 713.045C475.143 713.079 473.602 714.032 473.659 715.775C473.721 717.577 475.398 718.925 477.929 718.838C479.28 718.792 482.3 718.244 485.277 714.703C488.741 710.647 489.709 706 490.439 702.595L491.252 698.101L492.713 698.205C497.027 698.295 499.185 696.062 499.218 694.436C499.237 693.452 498.572 692.484 497.638 692.505C496.967 692.525 496.129 692.969 495.928 693.893C495.731 694.8 497.301 695.619 496.074 696.412C495.201 696.976 493.639 697.375 491.438 697.051L491.841 694.838C492.658 690.644 493.662 685.483 497.487 685.36C497.765 685.347 498.784 685.374 498.809 686.047C498.817 686.271 498.761 686.329 498.497 686.844C498.229 687.228 498.127 687.588 498.14 687.981C498.179 689.055 498.992 689.756 500.169 689.714C501.746 689.662 502.201 688.129 502.174 687.337C502.111 685.485 500.157 684.314 497.573 684.4L497.55 684.404Z" fill="white"/>
</g>
<rect x="554.961" y="661" width="78.8875" height="78.8875" rx="14.5489" fill="white"/>
<path d="M607.126 712.292L580.691 727.989L614.919 725.666L617.555 691.153L607.126 712.292Z" fill="url(#paint0_linear_792_8376)"/>
<path d="M614.974 725.643L612.033 705.338L604.02 715.919L614.974 725.643Z" fill="url(#paint1_linear_792_8376)"/>
<path d="M615.014 725.643L593.462 723.952L580.805 727.945L615.014 725.643Z" fill="url(#paint2_linear_792_8376)"/>
<path d="M580.836 727.95L586.22 710.311L574.372 712.844L580.836 727.95Z" fill="url(#paint3_linear_792_8376)"/>
<path d="M604.017 715.977L599.063 696.572L584.886 709.862L604.017 715.977Z" fill="url(#paint4_linear_792_8376)"/>
<path d="M616.431 696.846L603.029 685.9L599.297 697.965L616.431 696.846Z" fill="url(#paint5_linear_792_8376)"/>
<path d="M610.164 681.997L602.281 686.353L597.308 681.939L610.164 681.997Z" fill="url(#paint6_linear_792_8376)"/>
<path d="M571.254 718.76L574.556 712.738L571.885 705.564L571.254 718.76Z" fill="url(#paint7_linear_792_8376)"/>
<path d="M571.708 705.338L574.395 712.96L586.072 710.341L599.404 697.951L603.166 686L597.243 681.817L587.171 685.586C583.997 688.538 577.84 694.378 577.618 694.487C577.398 694.599 573.551 701.869 571.708 705.338Z" fill="white"/>
<path d="M581.144 691.643C588.021 684.825 596.888 680.796 600.29 684.229C603.691 687.662 600.085 696.004 593.207 702.821C586.33 709.637 577.573 713.889 574.174 710.455C570.771 707.025 574.267 698.46 581.144 691.643Z" fill="url(#paint8_linear_792_8376)"/>
<path d="M580.835 727.941L586.177 710.247L603.919 715.946C597.505 721.961 590.37 727.047 580.835 727.941Z" fill="url(#paint9_linear_792_8376)"/>
<path d="M599.428 697.916L603.983 715.957C609.341 710.323 614.15 704.266 616.506 696.773L599.428 697.916Z" fill="url(#paint10_linear_792_8376)"/>
<path d="M616.459 696.865C618.282 691.364 618.702 683.472 610.107 682.007L603.055 685.903L616.459 696.865Z" fill="url(#paint11_linear_792_8376)"/>
<path d="M571.254 718.682C571.506 727.76 578.057 727.895 580.847 727.975L574.402 712.923L571.254 718.682Z" fill="#9E1209"/>
<path d="M599.453 697.943C603.571 700.474 611.869 705.557 612.037 705.65C612.299 705.798 615.615 700.058 616.368 696.814L599.453 697.943Z" fill="url(#paint12_radial_792_8376)"/>
<path d="M586.171 710.247L593.312 724.025C597.535 721.735 600.842 718.944 603.87 715.956L586.171 710.247Z" fill="url(#paint13_radial_792_8376)"/>
<path d="M574.374 712.942L573.362 724.991C575.271 727.599 577.897 727.826 580.653 727.622C578.66 722.661 574.678 712.741 574.374 712.942Z" fill="url(#paint14_linear_792_8376)"/>
<path d="M603.013 685.932L617.2 687.923C616.443 684.715 614.117 682.644 610.154 681.997L603.013 685.932Z" fill="url(#paint15_linear_792_8376)"/>
<rect x="282.978" y="337.043" width="78.8875" height="78.8875" rx="14.5489" fill="#00DCFF"/>
<path fill-rule="evenodd" clip-rule="evenodd" d="M337.9 367.635C338.475 367.8 339.046 367.98 339.612 368.174C345.357 370.15 349.07 373.246 349.07 376.447C349.07 379.786 345.102 383.05 339.004 385.069C338.682 385.176 338.351 385.278 338.015 385.378C338.135 385.86 338.242 386.334 338.334 386.799C339.538 392.875 338.611 397.87 335.757 399.521C332.994 401.119 328.529 399.549 324.008 395.661C323.517 395.238 323.037 394.8 322.57 394.35C322.199 394.708 321.829 395.05 321.46 395.373C316.792 399.45 311.999 401.141 309.143 399.495C306.378 397.902 305.509 393.252 306.622 387.397C306.743 386.76 306.883 386.128 307.04 385.499C306.556 385.361 306.077 385.211 305.601 385.05C299.735 383.046 295.874 379.742 295.874 376.447C295.874 373.258 299.471 370.183 305.102 368.221C305.732 368.001 306.39 367.795 307.071 367.602C306.925 367.019 306.794 366.431 306.678 365.841C305.511 359.882 306.332 355.12 309.105 353.517C311.996 351.844 316.811 353.64 321.615 357.902C321.914 358.168 322.208 358.439 322.497 358.716C322.928 358.3 323.369 357.895 323.821 357.501C328.405 353.515 332.944 351.848 335.719 353.447C338.613 355.115 339.46 360.18 338.164 366.468C338.083 366.858 337.995 367.248 337.9 367.635ZM337.396 383.194C337.7 383.104 337.998 383.011 338.289 382.915H338.289C343.555 381.171 346.798 378.503 346.798 376.449C346.798 374.519 343.795 372.016 338.872 370.323C338.363 370.147 337.835 369.981 337.291 369.824C336.637 371.94 335.763 374.176 334.702 376.46C335.814 378.799 336.722 381.064 337.396 383.194ZM336.36 394.256C336.713 392.357 336.637 389.928 336.104 387.241C336.021 386.821 335.925 386.392 335.817 385.955C333.613 386.464 331.184 386.837 328.612 387.065C327.15 389.179 325.652 391.084 324.153 392.722C324.6 393.153 325.047 393.56 325.49 393.941C329.357 397.266 332.942 398.526 334.618 397.556C335.406 397.101 336.043 395.963 336.36 394.256ZM310.279 397.529C311.067 397.983 312.372 397.967 314.009 397.389H314.01C315.832 396.745 317.901 395.467 319.965 393.664C320.31 393.361 320.648 393.05 320.978 392.731C319.425 391.065 317.883 389.163 316.412 387.093C313.834 386.885 311.422 386.538 309.243 386.056C309.097 386.641 308.968 387.23 308.855 387.821C307.903 392.829 308.601 396.562 310.279 397.529ZM300.132 379.608C301.6 380.865 303.742 382.016 306.336 382.902C306.77 383.05 307.208 383.187 307.649 383.313C308.321 381.124 309.207 378.826 310.274 376.504C309.221 374.216 308.347 371.954 307.682 369.79C307.066 369.964 306.455 370.156 305.851 370.366C301.034 372.044 298.146 374.513 298.146 376.449C298.146 377.358 298.812 378.479 300.132 379.608ZM310.243 355.483C308.573 356.449 307.909 360.301 308.908 365.406V365.406C309.017 365.955 309.138 366.501 309.274 367.044C311.476 366.545 313.871 366.173 316.373 365.941C317.832 363.884 319.359 361.996 320.904 360.338C320.638 360.083 320.371 359.837 320.106 359.601C315.958 355.921 312.023 354.453 310.243 355.483ZM330.237 368.41C330.796 369.284 331.335 370.17 331.855 371.068C332.383 371.98 332.894 372.902 333.385 373.834C334.058 372.26 334.63 370.725 335.088 369.257C333.561 368.908 331.935 368.624 330.237 368.41ZM325.628 365.737C324.595 364.362 323.546 363.095 322.497 361.961C321.433 363.108 320.374 364.373 319.341 365.735C321.435 365.637 323.533 365.638 325.628 365.737ZM311.578 373.833C312.057 372.905 312.558 371.988 313.08 371.084C313.602 370.178 314.146 369.285 314.711 368.405C313.024 368.616 311.406 368.893 309.888 369.233C310.35 370.722 310.916 372.264 311.578 373.833ZM309.857 383.866C311.374 384.196 313.017 384.459 314.759 384.654C314.181 383.757 313.624 382.847 313.089 381.924C312.565 381.019 312.062 380.102 311.581 379.173C310.905 380.775 310.326 382.351 309.857 383.866ZM319.36 387.269C320.409 388.651 321.483 389.936 322.56 391.097C323.601 389.952 324.647 388.665 325.683 387.258C324.628 387.305 323.556 387.33 322.472 387.33C321.417 387.33 320.378 387.309 319.36 387.269ZM335.193 383.768C334.717 382.278 334.118 380.711 333.407 379.092C332.914 380.042 332.399 380.981 331.864 381.908C331.338 382.82 330.793 383.722 330.231 384.613C331.986 384.403 333.651 384.119 335.193 383.768ZM327.343 384.888C328.239 383.545 329.09 382.172 329.896 380.774H329.896C330.709 379.367 331.471 377.932 332.182 376.471C331.464 375.025 330.699 373.602 329.888 372.206C329.082 370.813 328.227 369.449 327.325 368.116C325.743 367.996 324.119 367.933 322.472 367.933C320.832 367.933 319.21 367.995 317.628 368.115C316.717 369.45 315.856 370.818 315.049 372.218V372.218C314.241 373.617 313.486 375.047 312.786 376.503C313.488 377.959 314.245 379.388 315.056 380.786C315.87 382.192 316.737 383.567 317.656 384.907C319.206 385.007 320.817 385.059 322.472 385.059C324.134 385.059 325.765 385.001 327.343 384.888ZM335.938 366.011C337.058 360.582 336.365 356.442 334.584 355.415C332.911 354.451 329.241 355.8 325.313 359.215C324.896 359.579 324.488 359.953 324.09 360.337C325.61 361.973 327.125 363.865 328.587 365.945C331.096 366.18 333.492 366.559 335.699 367.067C335.785 366.717 335.865 366.364 335.938 366.011Z" fill="white"/>
<path d="M322.472 371.703C325.096 371.703 327.222 373.828 327.222 376.45C327.222 379.071 325.096 381.197 322.472 381.197C319.849 381.197 317.722 379.071 317.722 376.45C317.722 373.828 319.849 371.703 322.472 371.703Z" fill="white"/>
<rect x="390.963" y="337.043" width="78.8875" height="78.8875" rx="14.5489" fill="white"/>
<path d="M401.971 351.962L430.407 401.014L458.842 351.962H447.468L430.407 381.393L413.203 351.962H401.971Z" fill="#4DBA87"/>
<path d="M413.204 351.96L430.407 381.533L447.469 351.96H436.948L430.407 363.335L423.725 351.96H413.204Z" fill="#435466"/>
<rect x="498.948" y="337.043" width="78.89" height="78.89" rx="14.55" fill="white"/>
<mask id="mask0_792_8376" style="mask-type:alpha" maskUnits="userSpaceOnUse" x="498" y="337" width="80" height="79">
<rect x="498.948" y="337.043" width="78.89" height="78.89" rx="14.55" fill="white"/>
</mask>
<g mask="url(#mask0_792_8376)">
<path fill-rule="evenodd" clip-rule="evenodd" d="M509.066 335.987C508.351 336.044 507.648 336.035 506.955 336.227C505.439 336.65 504.092 337.326 502.904 338.367C502.206 338.978 501.596 339.638 501.079 340.415C500.28 341.614 499.736 342.903 499.463 344.354C499.572 344.548 499.687 344.752 499.809 344.959C500.583 346.274 501.357 347.58 502.133 348.893L504.173 352.339C504.8 353.401 505.427 354.464 506.053 355.526L508.979 360.486C509.644 361.614 510.309 362.742 510.975 363.869C511.944 365.511 512.916 367.152 513.885 368.794L517.447 374.84C518.473 376.581 519.502 378.322 520.531 380.062L520.668 380.264C520.817 380.313 520.936 380.271 521.059 380.242C522.414 379.911 523.769 379.583 525.124 379.254C527.322 378.72 529.52 378.189 531.718 377.654L535.16 376.818C537.382 376.278 539.605 375.74 541.826 375.2C544.073 374.654 546.318 374.105 548.565 373.559C549.7 373.282 550.835 373.007 551.971 372.731C554.169 372.198 556.367 371.667 558.565 371.135L565.745 369.398L566.133 369.291L566.027 369.078L564.068 366.263L562.132 363.479L560.062 360.509L558.083 357.662L556.122 354.848L554.098 351.941C553.437 350.992 552.775 350.045 552.113 349.097L551.067 347.597C550.907 347.366 550.779 347.118 550.694 346.849C550.487 346.197 550.724 345.762 551.098 345.442C551.341 345.233 551.62 345.08 551.922 344.99C552.343 344.864 552.768 344.744 553.199 344.661C554.062 344.495 554.931 344.355 555.797 344.208L558.733 343.722C559.352 343.618 559.971 343.509 560.59 343.402C561.431 343.258 562.272 343.113 563.115 342.97C563.932 342.831 564.749 342.693 565.566 342.556L568.242 342.111L570.098 341.795C570.804 341.675 571.51 341.555 572.215 341.438C573.096 341.292 573.975 341.145 574.855 341.005C575.38 340.922 575.904 340.893 576.425 341.045C576.815 341.159 577.171 341.345 577.502 341.582L577.96 341.907C578.005 341.8 577.939 341.742 577.909 341.68C577.249 340.322 576.348 339.155 575.204 338.182C574.14 337.278 572.946 336.613 571.625 336.189C570.844 335.938 570.042 336.055 569.226 335.992L509.066 335.987ZM533.676 416.814C533.637 416.814 533.602 416.524 533.557 416.447C532.605 414.795 531.642 413.023 530.701 411.365C529.516 409.276 528.341 407.181 527.172 405.081C525.925 402.837 524.688 400.587 523.449 398.338C522.272 396.2 521.099 394.06 519.926 391.92C519.218 390.626 518.514 389.33 517.807 388.036L517.619 387.74L517.275 387.809C516.594 387.987 515.914 388.167 515.235 388.349C514.289 388.602 513.343 388.86 512.396 389.111C510.271 389.673 508.146 390.231 506.02 390.791C503.859 391.362 501.606 391.933 499.444 392.501C499.313 392.535 499.583 392.547 498.948 392.569V406.212C499.21 406.635 499.185 406.435 499.202 406.575C499.252 406.979 499.333 407.386 499.403 407.786C499.664 409.276 500.253 410.641 501.104 411.883C502.352 413.706 504.014 415.01 506.049 415.807C506.777 416.091 507.535 416.291 508.311 416.388L509.099 416.599" fill="#FD4F31"/>
<path fill-rule="evenodd" clip-rule="evenodd" d="M501.473 385.034C503.974 384.429 506.476 383.825 508.977 383.222C510.076 382.957 511.175 382.696 512.274 382.43C512.823 382.297 513.374 382.171 513.918 382.021C514.404 381.888 514.463 381.725 514.214 381.281C513.853 380.638 513.486 379.999 513.121 379.359L509.905 373.733L506.691 368.106C505.601 366.198 504.509 364.29 503.418 362.382C502.484 360.749 501.55 359.117 500.616 357.485C500.212 356.779 499.722 356.071 499.316 355.366C499.241 355.238 499.583 355.084 498.948 355.016V385.594C498.948 385.574 499.236 385.556 499.333 385.532L501.473 385.034ZM578.466 406.891C577.486 407.245 576.505 407.602 575.525 407.958C573.293 408.771 571.061 409.584 568.829 410.398C567.589 410.85 566.351 411.307 565.11 411.758C562.582 412.675 560.052 413.588 557.523 414.503C556.057 415.033 554.591 415.689 553.126 416.222C552.725 416.368 552.329 416.813 551.931 416.813H568.753L569.115 416.602C569.543 416.584 569.964 416.455 570.384 416.377C572.111 416.056 573.657 415.297 575.027 414.188C576.079 413.336 576.935 412.294 577.605 411.106C578.295 409.882 578.705 408.559 578.901 407.169C578.919 407.049 578.955 406.913 578.856 406.789C578.717 406.778 578.593 406.845 578.466 406.891ZM577.022 383.941C576.28 382.91 575.537 381.881 574.796 380.85C573.774 379.426 572.755 378.001 571.734 376.576C571.319 375.998 570.899 375.424 570.495 374.84C570.373 374.664 570.234 374.617 570.044 374.669L569.935 374.701C568.057 375.164 566.178 375.627 564.299 376.09L560.932 376.92C558.737 377.461 556.541 378.003 554.346 378.545C552.175 379.081 550.003 379.618 547.832 380.153L541.061 381.819C538.841 382.366 536.621 382.916 534.401 383.465L527.961 385.053C526.826 385.333 525.692 385.612 524.558 385.893C524.391 385.934 524.211 385.945 524.034 386.081L524.185 386.375C525.136 388.043 526.087 389.711 527.04 391.378C528.119 393.266 529.198 395.153 530.28 397.039C531.47 399.112 532.663 401.183 533.855 403.256C534.54 404.446 535.221 405.638 535.912 406.825C536.68 408.144 537.45 409.46 538.232 410.77C538.466 411.162 538.732 411.536 539 411.905C539.18 412.151 539.402 412.362 539.664 412.522C539.935 412.688 540.226 412.74 540.534 412.67C540.692 412.633 540.848 412.58 541.002 412.526L541.567 412.313C543.622 411.599 545.677 410.885 547.733 410.173C549.337 409.618 550.943 409.066 552.549 408.515C554.142 407.966 555.736 407.419 557.33 406.873L562.076 405.244C563.694 404.689 565.312 404.133 566.929 403.576C568.914 402.892 570.898 402.205 572.885 401.522C574.799 400.863 576.716 400.209 578.631 399.553C578.748 399.513 578.878 399.496 578.975 399.365L578.987 399.082C578.988 395.046 578.987 391.01 578.991 386.974C578.991 386.759 578.934 386.585 578.807 386.411C578.206 385.592 577.616 384.765 577.022 383.941ZM576.692 345.916C576.247 345.343 575.679 345.161 574.983 345.345C574.68 345.426 574.369 345.477 574.06 345.534C573.048 345.723 572.034 345.908 571.022 346.094C569.54 346.368 568.059 346.644 566.577 346.915C565.403 347.129 564.229 347.34 563.055 347.549L558.344 348.387C558.147 348.422 557.947 348.456 557.757 348.518C557.479 348.609 557.399 348.785 557.526 349.051C557.63 349.267 557.759 349.474 557.899 349.669C558.873 351.033 559.851 352.394 560.83 353.755C562.179 355.632 563.528 357.508 564.877 359.384C566.019 360.971 567.162 362.558 568.304 364.144C569.202 365.391 570.1 366.637 570.999 367.883L571.177 368.101L578.969 366.144L578.987 365.734C578.988 360.243 578.987 354.752 578.991 349.26C578.991 349.018 578.933 348.823 578.783 348.631C578.127 347.79 577.484 346.94 576.836 346.093L576.692 345.916ZM578.788 372.524C577.61 372.812 576.427 373.085 575.22 373.41C575.347 373.64 578.658 378.181 578.851 378.396L578.971 378.464L578.985 378.187L578.985 376.275C578.986 375.166 578.988 374.057 578.986 372.948C578.986 372.813 579.023 372.668 578.932 372.532L578.788 372.524Z" fill="#FD4F31"/>
</g>
<g opacity="0.1">
<rect x="606.936" y="337.043" width="78.8875" height="78.8875" rx="14.5489" fill="white"/>
</g>
<rect x="230.444" y="445.029" width="78.8875" height="78.8875" rx="14.5489" fill="white"/>
<path fill-rule="evenodd" clip-rule="evenodd" d="M269.888 455.352L242.777 465.02L246.912 500.867L269.888 513.592V491.288H262.666L259.259 499.791H252.94L269.888 461.79V455.352ZM269.888 474.137L264.938 486.047H269.888V474.137Z" fill="#DF2226"/>
<path fill-rule="evenodd" clip-rule="evenodd" d="M269.888 461.788V455.352L296.999 465.02L292.864 500.867L269.888 513.592V491.288H277.052L280.459 499.791H286.778L269.888 461.79V461.788ZM269.888 486.047V474.137L274.839 486.047H269.888Z" fill="#A51E22"/>
<rect x="338.43" y="445.029" width="78.8875" height="78.8875" rx="14.5489" fill="white"/>
<path d="M384.014 476.615L378.58 481.671L373.538 471.5L376.147 465.65C376.826 464.462 377.884 464.475 378.546 465.65L384.014 476.615Z" fill="#FFA000"/>
<path d="M373.538 471.499L378.58 481.67L358.271 500.562L373.538 471.499Z" fill="#F57F17"/>
<path d="M389.958 468.887C390.928 467.953 391.932 468.272 392.189 469.594L397.475 500.312L379.953 510.831C379.342 511.17 377.713 511.316 377.713 511.316C377.713 511.316 376.23 511.14 375.665 510.807L358.271 500.563L389.958 468.887Z" fill="#FFCA28"/>
<path d="M373.537 471.499L358.272 500.562L365.071 458.087C365.322 456.763 366.075 456.636 366.747 457.803L373.537 471.499Z" fill="#FFA000"/>
<rect x="446.415" y="445.029" width="78.8875" height="78.8875" rx="14.5489" fill="white"/>
<path d="M477.712 501.437C477.712 501.437 475.342 502.816 479.401 503.282C484.32 503.844 486.833 503.763 492.252 502.739C492.252 502.739 493.68 503.631 495.669 504.405C483.518 509.611 468.169 504.103 477.712 501.437ZM476.226 494.642C476.226 494.642 473.567 496.611 477.63 497.032C482.884 497.574 487.033 497.618 494.215 496.236C494.215 496.236 495.206 497.243 496.766 497.793C482.077 502.089 465.716 498.131 476.226 494.642Z" fill="#7B7EEF"/>
<path d="M488.744 483.114C491.74 486.563 487.958 489.663 487.958 489.663C487.958 489.663 495.56 485.739 492.07 480.824C488.808 476.242 486.308 473.966 499.844 466.116C499.844 466.116 478.597 471.421 488.744 483.114Z" fill="#FF4E62"/>
<path d="M504.814 506.463C504.814 506.463 506.569 507.91 502.881 509.028C495.869 511.152 473.691 511.793 467.531 509.113C465.318 508.149 469.47 506.813 470.776 506.531C472.138 506.237 472.915 506.29 472.915 506.29C470.453 504.556 456.998 509.696 466.082 511.171C490.855 515.186 511.239 509.362 504.814 506.463ZM478.853 487.6C478.853 487.6 467.573 490.28 474.859 491.254C477.936 491.666 484.067 491.571 489.781 491.092C494.45 490.7 499.136 489.862 499.136 489.862C499.136 489.862 497.491 490.567 496.3 491.38C484.843 494.394 462.715 492.99 469.086 489.909C474.472 487.304 478.853 487.6 478.853 487.6ZM499.089 498.911C510.735 492.861 505.35 487.047 501.591 487.83C500.672 488.022 500.26 488.188 500.26 488.188C500.26 488.188 500.602 487.652 501.255 487.421C508.69 484.808 514.407 495.129 498.856 499.218C498.856 499.217 499.035 499.055 499.089 498.911Z" fill="#7B7EEF"/>
<path d="M492.07 453.439C492.07 453.439 498.518 459.891 485.952 469.81C475.875 477.768 483.655 482.305 485.949 487.491C480.066 482.184 475.751 477.511 478.645 473.163C482.896 466.782 494.671 463.686 492.07 453.439Z" fill="#FF4E62"/>
<path d="M479.998 515.309C491.174 516.024 508.34 514.912 508.746 509.623C508.746 509.623 507.965 511.628 499.509 513.219C489.97 515.015 478.201 514.805 471.224 513.653C471.224 513.654 472.653 514.837 479.998 515.309Z" fill="#7B7EEF"/>
<rect x="554.4" y="445.029" width="78.8875" height="78.8875" rx="14.5489" fill="white"/>
<path d="M593.541 458.766C591.444 458.776 589.442 458.954 587.68 459.266C582.489 460.183 581.547 462.102 581.547 465.642V470.317H593.812V471.875H576.944C573.379 471.875 570.258 474.017 569.282 478.094C568.155 482.766 568.105 485.682 569.282 490.56C570.153 494.191 572.236 496.778 575.8 496.778H580.018V491.174C580.018 487.125 583.52 483.555 587.68 483.555H599.931C603.342 483.555 606.064 480.746 606.064 477.322V465.643C606.064 462.318 603.259 459.822 599.931 459.267C597.823 458.916 595.637 458.757 593.541 458.766ZM586.908 462.526C588.174 462.526 589.209 463.577 589.209 464.871C589.209 466.158 588.175 467.2 586.908 467.2C585.636 467.2 584.606 466.158 584.606 464.871C584.606 463.577 585.636 462.526 586.908 462.526Z" fill="#3774A7"/>
<path d="M607.593 471.875V477.322C607.593 481.544 604.013 485.098 599.931 485.098H587.68C584.324 485.098 581.547 487.971 581.547 491.331V503.012C581.547 506.335 584.437 508.291 587.68 509.244C591.562 510.385 595.285 510.591 599.931 509.244C603.019 508.349 606.063 506.55 606.063 503.012V498.337H593.813V496.778H612.197C615.761 496.778 617.09 494.292 618.33 490.56C619.611 486.718 619.555 483.023 618.33 478.094C617.449 474.545 615.767 471.875 612.197 471.875H607.593V471.875ZM600.702 501.453C601.975 501.453 603.004 502.494 603.004 503.783C603.004 505.076 601.974 506.127 600.702 506.127C599.436 506.127 598.401 505.076 598.401 503.783C598.401 502.494 599.436 501.453 600.702 501.453Z" fill="#FFD242"/>
<rect x="175.099" y="553.015" width="78.8875" height="78.8875" rx="14.5489" fill="#51E1D9"/>
<path d="M186.472 587.533C186.341 587.533 186.309 587.468 186.374 587.37L187.057 586.491C187.122 586.394 187.285 586.329 187.415 586.329H199.033C199.163 586.329 199.196 586.426 199.131 586.524L198.577 587.37C198.512 587.468 198.35 587.565 198.252 587.565L186.472 587.533Z" fill="white"/>
<path d="M181.558 590.528C181.427 590.528 181.395 590.462 181.46 590.365L182.143 589.486C182.208 589.389 182.371 589.323 182.501 589.323H197.341C197.471 589.323 197.536 589.421 197.503 589.519L197.243 590.3C197.211 590.43 197.08 590.495 196.95 590.495L181.558 590.528Z" fill="white"/>
<path d="M189.433 593.521C189.303 593.521 189.27 593.424 189.335 593.326L189.791 592.512C189.856 592.415 189.986 592.317 190.116 592.317H196.625C196.755 592.317 196.82 592.415 196.82 592.545L196.755 593.326C196.755 593.456 196.625 593.554 196.527 593.554L189.433 593.521Z" fill="white"/>
<path d="M223.212 586.947C221.162 587.468 219.762 587.858 217.745 588.379C217.257 588.509 217.224 588.542 216.801 588.054C216.313 587.5 215.955 587.142 215.271 586.817C213.221 585.808 211.236 586.101 209.381 587.305C207.168 588.737 206.029 590.852 206.062 593.488C206.094 596.092 207.884 598.24 210.455 598.597C212.668 598.89 214.523 598.109 215.987 596.45C216.28 596.092 216.541 595.701 216.866 595.246C215.695 595.246 214.23 595.246 210.585 595.246C209.902 595.246 209.739 594.823 209.967 594.269C210.39 593.26 211.171 591.568 211.627 590.722C211.724 590.527 211.952 590.201 212.44 590.201C214.1 590.201 220.218 590.201 224.286 590.201C224.221 591.08 224.221 591.959 224.091 592.837C223.733 595.181 222.854 597.328 221.422 599.216C219.079 602.307 216.02 604.227 212.147 604.748C208.958 605.171 205.997 604.553 203.393 602.6C200.985 600.778 199.618 598.37 199.26 595.376C198.837 591.829 199.879 588.639 202.027 585.841C204.337 582.814 207.396 580.894 211.139 580.211C214.198 579.658 217.126 580.016 219.762 581.805C221.487 582.944 222.724 584.507 223.537 586.394C223.733 586.687 223.602 586.85 223.212 586.947Z" fill="white"/>
<path d="M233.983 604.943C231.022 604.878 228.321 604.032 226.043 602.079C224.123 600.42 222.919 598.305 222.528 595.799C221.943 592.121 222.951 588.867 225.164 585.971C227.54 582.847 230.404 581.22 234.276 580.536C237.596 579.95 240.72 580.276 243.551 582.196C246.122 583.953 247.716 586.329 248.14 589.453C248.693 593.846 247.424 597.426 244.397 600.485C242.249 602.665 239.613 604.032 236.587 604.65C235.708 604.813 234.83 604.846 233.983 604.943ZM241.729 591.796C241.696 591.373 241.696 591.048 241.631 590.722C241.045 587.5 238.084 585.678 234.992 586.394C231.966 587.077 230.013 588.997 229.297 592.056C228.712 594.595 229.948 597.166 232.291 598.207C234.081 598.988 235.871 598.89 237.596 598.012C240.167 596.677 241.566 594.595 241.729 591.796Z" fill="white"/>
<rect x="283.084" y="553.015" width="78.8875" height="78.8875" rx="14.5489" fill="#F05138"/>
<path d="M335.837 611.542C329.678 614.909 321.213 615.255 312.693 611.8C306.05 609.129 300.37 604.541 296.39 598.632C298.239 600.036 300.26 601.202 302.404 602.104C311.202 606.005 319.994 605.735 326.186 602.104C317.372 595.699 309.888 587.371 304.311 580.57C303.211 579.421 302.228 578.166 301.379 576.824C308.12 582.652 318.841 590.008 322.654 592.09C317.209 586.561 312.205 580.621 307.687 574.324C315.197 581.556 323.46 587.977 332.339 593.48C332.732 593.688 333.037 593.864 333.281 594.029C333.541 593.399 333.765 592.756 333.952 592.101C336.008 585.02 333.658 576.972 328.525 570.309C340.41 577.104 347.478 589.87 344.518 600.561C344.44 600.852 344.357 601.11 344.268 601.412L344.373 601.533C350.244 608.471 348.631 615.816 347.893 614.442C344.706 608.52 338.813 610.35 335.837 611.542Z" fill="#FEFEFE"/>
<rect x="391.07" y="553.015" width="78.8875" height="78.8875" rx="14.5489" fill="#663399"/>
<g clip-path="url(#clip1_792_8376)">
<path d="M449.764 592.458H437.514V596.029H445.913C444.688 601.386 440.836 605.849 435.763 607.636L415.637 587.101C417.738 580.851 423.687 576.387 430.514 576.387C435.763 576.387 440.49 579.067 443.463 583.173L446.089 580.853C442.587 576.029 436.988 572.815 430.514 572.815C421.413 572.815 413.713 579.422 411.789 588.172L434.888 611.743C443.286 609.6 449.764 601.743 449.764 592.457V592.458ZM411.263 592.638C411.263 597.638 413.188 602.458 416.863 606.208C420.538 609.958 425.438 611.922 430.162 611.922L411.263 592.638Z" fill="white"/>
<path d="M430.514 567.458C417.039 567.458 406.014 578.708 406.014 592.458C406.014 606.208 417.039 617.458 430.514 617.458C443.989 617.458 455.014 606.208 455.014 592.458C455.014 578.708 443.989 567.458 430.514 567.458ZM416.862 606.388C413.187 602.638 411.263 597.638 411.263 592.818L430.337 612.101C425.437 611.922 420.537 610.137 416.862 606.387V606.388ZM434.712 611.568L411.789 588.173C413.713 579.423 421.413 572.816 430.514 572.816C436.988 572.816 442.587 576.03 446.089 580.851L443.463 583.172C440.49 579.066 435.763 576.388 430.514 576.388C423.689 576.388 417.914 580.852 415.637 587.102L435.763 607.638C440.84 605.852 444.688 601.388 445.913 596.031H437.514V592.458H449.764C449.764 601.744 443.29 609.601 434.715 611.566L434.712 611.568Z" fill="#663399"/>
</g>
<g opacity="0.3">
<rect x="499.055" y="553.015" width="78.8875" height="78.8875" rx="14.5489" fill="white"/>
<path d="M557.654 575.074C557.621 574.772 557.352 574.638 557.151 574.605C556.95 574.571 552.928 574.538 552.928 574.538C552.928 574.538 549.543 571.253 549.208 570.918C548.873 570.583 548.236 570.684 547.968 570.751C547.968 570.751 547.331 570.952 546.259 571.287C546.091 570.717 545.823 570.013 545.455 569.309C544.248 566.997 542.505 565.79 540.36 565.79C540.226 565.79 540.059 565.79 539.925 565.824C539.858 565.757 539.79 565.69 539.723 565.589C538.785 564.584 537.612 564.115 536.204 564.148C533.456 564.215 530.741 566.193 528.496 569.745C526.921 572.225 525.748 575.342 525.412 577.755C522.262 578.727 520.05 579.398 520.017 579.431C518.441 579.934 518.374 579.967 518.173 581.475C518.006 582.581 513.85 614.79 513.85 614.79L548.739 620.822L563.854 617.069C563.854 617.069 557.688 575.342 557.654 575.074ZM544.516 571.823C543.712 572.058 542.807 572.359 541.801 572.661C541.768 571.287 541.6 569.343 540.964 567.667C543.075 568.069 544.08 570.415 544.516 571.823ZM539.992 573.231C538.148 573.801 536.171 574.404 534.16 575.041C534.73 572.896 535.802 570.751 537.109 569.343C537.612 568.807 538.282 568.237 539.087 567.902C539.858 569.477 539.992 571.723 539.992 573.231ZM536.238 565.991C536.875 565.991 537.411 566.126 537.88 566.427C537.143 566.796 536.405 567.366 535.735 568.103C533.992 569.98 532.652 572.862 532.116 575.677C530.44 576.18 528.831 576.683 527.323 577.152C528.328 572.728 532.015 566.126 536.238 565.991Z" fill="#95BF47"/>
<path d="M557.151 574.605C556.95 574.572 552.928 574.538 552.928 574.538C552.928 574.538 549.543 571.254 549.208 570.918C549.074 570.784 548.907 570.717 548.739 570.717V620.822L563.854 617.069C563.854 617.069 557.688 575.376 557.654 575.074C557.587 574.773 557.352 574.639 557.151 574.605Z" fill="#5E8E3E"/>
<path d="M540.36 582.38L538.617 588.949C538.617 588.949 536.674 588.044 534.327 588.212C530.909 588.413 530.875 590.558 530.909 591.128C531.11 594.077 538.819 594.714 539.254 601.584C539.589 607.014 536.372 610.7 531.747 611.002C526.183 611.337 523.133 608.086 523.133 608.086L524.306 603.093C524.306 603.093 527.39 605.405 529.836 605.271C531.445 605.17 532.015 603.863 531.948 602.925C531.713 599.104 525.412 599.305 525.01 593.038C524.675 587.743 528.161 582.38 535.836 581.877C538.852 581.609 540.36 582.38 540.36 582.38Z" fill="white"/>
</g>
<rect x="607.04" y="553.015" width="78.8875" height="78.8875" rx="14.5489" fill="#4F5B93"/>
<path d="M646.484 577.539C630.227 577.539 617.047 584.218 617.047 592.457C617.047 600.696 630.227 607.375 646.484 607.375C662.742 607.375 675.922 600.696 675.922 592.457C675.922 584.218 662.742 577.539 646.484 577.539ZM638.825 595.363C638.122 596.02 637.342 596.292 636.483 596.571C635.624 596.851 634.53 596.793 633.201 596.793H630.188L629.353 601.612H625.835L628.974 585.229H635.739C637.775 585.229 639.259 585.815 640.193 586.883C641.126 587.951 641.406 589.467 641.034 591.382C640.881 592.171 640.622 592.904 640.257 593.557C639.891 594.211 639.413 594.822 638.825 595.363ZM649.093 596.793L650.481 589.845C650.639 589.032 650.581 588.428 650.307 588.132C650.033 587.836 649.449 587.638 648.556 587.638H645.766L643.968 596.793H640.478L643.617 580.893H647.107L646.273 585.229H649.382C651.339 585.229 652.688 585.622 653.431 586.304C654.173 586.986 654.396 587.921 654.099 589.45L652.638 596.793H649.093ZM668.491 591.407C668.338 592.196 668.079 592.917 667.714 593.57C667.349 594.224 666.872 594.822 666.283 595.363C665.58 596.02 664.799 596.292 663.941 596.571C663.082 596.851 661.988 596.793 660.659 596.793H657.646L656.811 601.612H653.293L656.432 585.229H663.197C665.233 585.229 666.717 585.815 667.65 586.883C668.582 587.951 668.863 589.493 668.491 591.407ZM661.864 587.638H659.454L658.14 594.384H660.281C661.698 594.384 662.756 594.244 663.449 593.71C664.144 593.176 664.612 592.347 664.855 591.097C665.089 589.897 664.983 588.961 664.537 588.468C664.092 587.974 663.201 587.638 661.864 587.638ZM634.407 587.638H631.996L630.683 594.384H632.822C634.24 594.384 635.297 594.244 635.991 593.71C636.686 593.176 637.154 592.347 637.397 591.097C637.63 589.897 637.524 588.961 637.079 588.468C636.634 587.974 635.743 587.638 634.407 587.638Z" fill="white"/>
<defs>
<linearGradient id="paint0_linear_792_8376" x1="611.933" y1="732.188" x2="602.166" y2="714.943" gradientUnits="userSpaceOnUse">
<stop stop-color="#FB7655"/>
<stop offset="0.41" stop-color="#E42B1E"/>
<stop offset="0.99" stop-color="#990000"/>
<stop offset="1" stop-color="#990000"/>
</linearGradient>
<linearGradient id="paint1_linear_792_8376" x1="616.798" y1="717.701" x2="604.21" y2="709.254" gradientUnits="userSpaceOnUse">
<stop stop-color="#871101"/>
<stop offset="0.99" stop-color="#911209"/>
<stop offset="1" stop-color="#911209"/>
</linearGradient>
<linearGradient id="paint2_linear_792_8376" x1="606.727" y1="732.712" x2="594.139" y2="724.265" gradientUnits="userSpaceOnUse">
<stop stop-color="#871101"/>
<stop offset="0.99" stop-color="#911209"/>
<stop offset="1" stop-color="#911209"/>
</linearGradient>
<linearGradient id="paint3_linear_792_8376" x1="580.297" y1="711.586" x2="582.249" y2="724.269" gradientUnits="userSpaceOnUse">
<stop stop-color="white"/>
<stop offset="0.23" stop-color="#E57252"/>
<stop offset="0.46" stop-color="#DE3B20"/>
<stop offset="0.99" stop-color="#A60003"/>
<stop offset="1" stop-color="#A60003"/>
</linearGradient>
<linearGradient id="paint4_linear_792_8376" x1="593.72" y1="699.744" x2="594.439" y2="712.687" gradientUnits="userSpaceOnUse">
<stop stop-color="white"/>
<stop offset="0.23" stop-color="#E4714E"/>
<stop offset="0.56" stop-color="#BE1A0D"/>
<stop offset="0.99" stop-color="#A80D00"/>
<stop offset="1" stop-color="#A80D00"/>
</linearGradient>
<linearGradient id="paint5_linear_792_8376" x1="605.631" y1="687.781" x2="607.784" y2="697.058" gradientUnits="userSpaceOnUse">
<stop stop-color="white"/>
<stop offset="0.18" stop-color="#E46342"/>
<stop offset="0.4" stop-color="#C82410"/>
<stop offset="0.99" stop-color="#A80D00"/>
<stop offset="1" stop-color="#A80D00"/>
</linearGradient>
<linearGradient id="paint6_linear_792_8376" x1="599.058" y1="684.514" x2="608.333" y2="679.877" gradientUnits="userSpaceOnUse">
<stop stop-color="white"/>
<stop offset="0.54" stop-color="#C81F11"/>
<stop offset="0.99" stop-color="#BF0905"/>
<stop offset="1" stop-color="#BF0905"/>
</linearGradient>
<linearGradient id="paint7_linear_792_8376" x1="572.166" y1="708.353" x2="572.93" y2="715.996" gradientUnits="userSpaceOnUse">
<stop stop-color="white"/>
<stop offset="0.31" stop-color="#DE4024"/>
<stop offset="0.99" stop-color="#BF190B"/>
<stop offset="1" stop-color="#BF190B"/>
</linearGradient>
<linearGradient id="paint8_linear_792_8376" x1="566.918" y1="718.063" x2="602.806" y2="681.16" gradientUnits="userSpaceOnUse">
<stop stop-color="#BD0012"/>
<stop offset="0.07" stop-color="white"/>
<stop offset="0.17" stop-color="white"/>
<stop offset="0.27" stop-color="#C82F1C"/>
<stop offset="0.33" stop-color="#820C01"/>
<stop offset="0.46" stop-color="#A31601"/>
<stop offset="0.72" stop-color="#B31301"/>
<stop offset="0.99" stop-color="#E82609"/>
<stop offset="1" stop-color="#E82609"/>
</linearGradient>
<linearGradient id="paint9_linear_792_8376" x1="594.407" y1="721.784" x2="583.597" y2="719.116" gradientUnits="userSpaceOnUse">
<stop stop-color="#8C0C01"/>
<stop offset="0.54" stop-color="#990C00"/>
<stop offset="0.99" stop-color="#A80D0E"/>
<stop offset="1" stop-color="#A80D0E"/>
</linearGradient>
<linearGradient id="paint10_linear_792_8376" x1="612.974" y1="708.812" x2="603.371" y2="700.205" gradientUnits="userSpaceOnUse">
<stop stop-color="#7E110B"/>
<stop offset="0.99" stop-color="#9E0C00"/>
<stop offset="1" stop-color="#9E0C00"/>
</linearGradient>
<linearGradient id="paint11_linear_792_8376" x1="616.502" y1="693.02" x2="611.719" y2="687.906" gradientUnits="userSpaceOnUse">
<stop stop-color="#79130D"/>
<stop offset="0.99" stop-color="#9E120B"/>
<stop offset="1" stop-color="#9E120B"/>
</linearGradient>
<radialGradient id="paint12_radial_792_8376" cx="0" cy="0" r="1" gradientUnits="userSpaceOnUse" gradientTransform="translate(604.866 700.369) scale(11.7683)">
<stop stop-color="#A80D00"/>
<stop offset="0.99" stop-color="#7E0E08"/>
<stop offset="1" stop-color="#7E0E08"/>
</radialGradient>
<radialGradient id="paint13_radial_792_8376" cx="0" cy="0" r="1" gradientUnits="userSpaceOnUse" gradientTransform="translate(588.569 715.876) scale(15.644)">
<stop stop-color="#A30C00"/>
<stop offset="0.99" stop-color="#800E08"/>
<stop offset="1" stop-color="#800E08"/>
</radialGradient>
<linearGradient id="paint14_linear_792_8376" x1="577.487" y1="727.933" x2="573.589" y2="714.707" gradientUnits="userSpaceOnUse">
<stop stop-color="#8B2114"/>
<stop offset="0.43" stop-color="#9E100A"/>
<stop offset="0.99" stop-color="#B3100C"/>
<stop offset="1" stop-color="#B3100C"/>
</linearGradient>
<linearGradient id="paint15_linear_792_8376" x1="607.392" y1="684.107" x2="616.131" y2="687.965" gradientUnits="userSpaceOnUse">
<stop stop-color="#B31000"/>
<stop offset="0.44" stop-color="#910F08"/>
<stop offset="0.99" stop-color="#791C12"/>
<stop offset="1" stop-color="#791C12"/>
</linearGradient>
<clipPath id="clip0_792_8376">
<rect width="50.9211" height="50.9211" fill="white" transform="translate(460.959 674.984)"/>
</clipPath>
<clipPath id="clip1_792_8376">
<rect width="49" height="50" fill="white" transform="translate(406.014 567.458)"/>
</clipPath>
</defs>
</svg>
