<svg width="24" height="24" viewBox="0 0 24 24" fill="none" xmlns="http://www.w3.org/2000/svg">
<path fill-rule="evenodd" clip-rule="evenodd" d="M9.70679 6.29279C9.89426 6.48031 9.99957 6.73462 9.99957 6.99979C9.99957 7.26495 9.89426 7.51926 9.70679 7.70679L5.41379 11.9998L9.70679 16.2928C9.88894 16.4814 9.98974 16.734 9.98746 16.9962C9.98518 17.2584 9.88001 17.5092 9.6946 17.6946C9.5092 17.88 9.25838 17.9852 8.99619 17.9875C8.73399 17.9897 8.48139 17.8889 8.29279 17.7068L3.29279 12.7068C3.10532 12.5193 3 12.265 3 11.9998C3 11.7346 3.10532 11.4803 3.29279 11.2928L8.29279 6.29279C8.48031 6.10532 8.73462 6 8.99979 6C9.26495 6 9.51926 6.10532 9.70679 6.29279V6.29279ZM14.2928 6.29279C14.4803 6.10532 14.7346 6 14.9998 6C15.265 6 15.5193 6.10532 15.7068 6.29279L20.7068 11.2928C20.8943 11.4803 20.9996 11.7346 20.9996 11.9998C20.9996 12.265 20.8943 12.5193 20.7068 12.7068L15.7068 17.7068C15.5182 17.8889 15.2656 17.9897 15.0034 17.9875C14.7412 17.9852 14.4904 17.88 14.305 17.6946C14.1196 17.5092 14.0144 17.2584 14.0121 16.9962C14.0098 16.734 14.1106 16.4814 14.2928 16.2928L18.5858 11.9998L14.2928 7.70679C14.1053 7.51926 14 7.26495 14 6.99979C14 6.73462 14.1053 6.48031 14.2928 6.29279V6.29279Z" fill="#000"/>
</svg>
