<svg width="19" height="18" viewBox="0 0 19 18" fill="none" xmlns="http://www.w3.org/2000/svg">
<path fill-rule="evenodd" clip-rule="evenodd" d="M0.0859375 1.66406C0.0859375 1.39885 0.191294 1.14449 0.378831 0.956956C0.566367 0.76942 0.820721 0.664062 1.08594 0.664062H17.0859C17.3512 0.664062 17.6055 0.76942 17.793 0.956956C17.9806 1.14449 18.0859 1.39885 18.0859 1.66406V3.66406C18.0859 3.92928 17.9806 4.18363 17.793 4.37117C17.6055 4.55871 17.3512 4.66406 17.0859 4.66406C16.8207 4.66406 16.5664 4.55871 16.3788 4.37117C16.1913 4.18363 16.0859 3.92928 16.0859 3.66406V2.66406H10.0859V15.6641H12.0859C12.3512 15.6641 12.6055 15.7694 12.793 15.957C12.9806 16.1445 13.0859 16.3988 13.0859 16.6641C13.0859 16.9293 12.9806 17.1836 12.793 17.3712C12.6055 17.5587 12.3512 17.6641 12.0859 17.6641H6.08594C5.82072 17.6641 5.56637 17.5587 5.37883 17.3712C5.19129 17.1836 5.08594 16.9293 5.08594 16.6641C5.08594 16.3988 5.19129 16.1445 5.37883 15.957C5.56637 15.7694 5.82072 15.6641 6.08594 15.6641H8.08594V2.66406H2.08594V3.66406C2.08594 3.92928 1.98058 4.18363 1.79304 4.37117C1.60551 4.55871 1.35115 4.66406 1.08594 4.66406C0.820721 4.66406 0.566367 4.55871 0.378831 4.37117C0.191294 4.18363 0.0859375 3.92928 0.0859375 3.66406V1.66406Z" fill="#000"/>
</svg>
