<svg width="12" height="8" viewBox="0 0 12 8" fill="none" xmlns="http://www.w3.org/2000/svg">
<path fill-rule="evenodd" clip-rule="evenodd" d="M0.527222 1.19962C0.652241 1.07464 0.821779 1.00443 0.998556 1.00443C1.17533 1.00443 1.34487 1.07464 1.46989 1.19962L5.66522 5.39495L9.86056 1.19962C9.92205 1.13595 9.99562 1.08516 10.077 1.05022C10.1583 1.01528 10.2458 0.996888 10.3343 0.996119C10.4228 0.99535 10.5106 1.01222 10.5925 1.04574C10.6745 1.07926 10.7489 1.12876 10.8115 1.19136C10.8741 1.25395 10.9236 1.32839 10.9571 1.41032C10.9906 1.49225 11.0075 1.58003 11.0067 1.66855C11.006 1.75707 10.9876 1.84455 10.9526 1.92589C10.9177 2.00722 10.8669 2.08079 10.8032 2.14229L6.13656 6.80895C6.01154 6.93393 5.842 7.00414 5.66522 7.00414C5.48845 7.00414 5.31891 6.93393 5.19389 6.80895L0.527222 2.14229C0.402242 2.01727 0.332031 1.84773 0.332031 1.67095C0.332031 1.49418 0.402242 1.32464 0.527222 1.19962Z" fill="#000"/>
</svg>
