<svg width="56" height="56" viewBox="0 0 56 56" fill="none" xmlns="http://www.w3.org/2000/svg">
<rect x="13.9014" y="5.82861" width="28.7563" height="45.2096" rx="2.25889" stroke="#EDEEF7" stroke-width="1.5" stroke-linecap="round" stroke-linejoin="round"/>
<path d="M14.1338 40.4348H42.5306" stroke="#EDEEF7" stroke-width="1.5" stroke-linecap="round" stroke-linejoin="round"/>
<path d="M14.1338 11.437H42.5306" stroke="#EDEEF7" stroke-width="1.5" stroke-linecap="round" stroke-linejoin="round"/>
<circle cx="28.3333" cy="45.6008" r="1.95703" fill="#EDEEF7"/>
<path d="M28.323 25.0806V31.8485" stroke="#705B8C" stroke-width="1.5" stroke-linecap="round" stroke-linejoin="round"/>
<path d="M28.1633 18.8643C28.2372 18.8268 28.3246 18.8268 28.3985 18.8643L33.9839 21.6962C34.1738 21.7925 34.1738 22.0637 33.9839 22.16L28.3985 24.9919C28.3246 25.0294 28.2372 25.0294 28.1633 24.9919L22.578 22.16C22.3881 22.0637 22.3881 21.7925 22.578 21.6962L28.1633 18.8643Z" stroke="#705B8C" stroke-width="1.5" stroke-linecap="round" stroke-linejoin="round"/>
<path d="M34.4412 22.1914V29.2009C34.4412 29.2989 34.3862 29.3885 34.2988 29.4328L28.3985 32.4244C28.3246 32.4619 28.2372 32.4619 28.1633 32.4244L22.263 29.4328C22.1757 29.3885 22.1206 29.2989 22.1206 29.2009V22.1914" stroke="#705B8C" stroke-width="1.5" stroke-linecap="round" stroke-linejoin="round"/>
</svg>
