<svg width="24" height="24" viewBox="0 0 24 24" fill="none" xmlns="http://www.w3.org/2000/svg">
<path fill-rule="evenodd" clip-rule="evenodd" d="M2 5C2 4.20435 2.31607 3.44129 2.87868 2.87868C3.44129 2.31607 4.20435 2 5 2H19C19.7956 2 20.5587 2.31607 21.1213 2.87868C21.6839 3.44129 22 4.20435 22 5V19C22 19.7956 21.6839 20.5587 21.1213 21.1213C20.5587 21.6839 19.7956 22 19 22H5C4.20435 22 3.44129 21.6839 2.87868 21.1213C2.31607 20.5587 2 19.7956 2 19V5ZM5 4C4.73478 4 4.48043 4.10536 4.29289 4.29289C4.10536 4.48043 4 4.73478 4 5V10H20V5C20 4.73478 19.8946 4.48043 19.7071 4.29289C19.5196 4.10536 19.2652 4 19 4H5ZM4 12V19C4 19.2652 4.10536 19.5196 4.29289 19.7071C4.48043 19.8946 4.73478 20 5 20H19C19.2652 20 19.5196 19.8946 19.7071 19.7071C19.8946 19.5196 20 19.2652 20 19V12H4ZM14 13C14.2652 13.0001 14.5195 13.1055 14.707 13.293L18.707 17.293C18.8892 17.4816 18.99 17.7342 18.9877 17.9964C18.9854 18.2586 18.8802 18.5094 18.6948 18.6948C18.5094 18.8802 18.2586 18.9854 17.9964 18.9877C17.7342 18.99 17.4816 18.8892 17.293 18.707L14 15.414L11.707 17.707L10.707 18.707C10.5184 18.8892 10.2658 18.99 10.0036 18.9877C9.7414 18.9854 9.49059 18.8802 9.30518 18.6948C9.11977 18.5094 9.0146 18.2586 9.01233 17.9964C9.01005 17.7342 9.11084 17.4816 9.293 17.293L9.586 17L9 16.414L6.707 18.707C6.5184 18.8892 6.2658 18.99 6.0036 18.9877C5.7414 18.9854 5.49059 18.8802 5.30518 18.6948C5.11977 18.5094 5.0146 18.2586 5.01233 17.9964C5.01005 17.7342 5.11084 17.4816 5.293 17.293L8.293 14.293C8.48053 14.1055 8.73484 14.0002 9 14.0002C9.26516 14.0002 9.51947 14.1055 9.707 14.293L11 15.586L13.293 13.293C13.4805 13.1055 13.7348 13.0001 14 13ZM11 7C11 6.73478 11.1054 6.48043 11.2929 6.29289C11.4804 6.10536 11.7348 6 12 6H17C17.2652 6 17.5196 6.10536 17.7071 6.29289C17.8946 6.48043 18 6.73478 18 7C18 7.26522 17.8946 7.51957 17.7071 7.70711C17.5196 7.89464 17.2652 8 17 8H12C11.7348 8 11.4804 7.89464 11.2929 7.70711C11.1054 7.51957 11 7.26522 11 7ZM7 8.75C7.46413 8.75 7.90925 8.56563 8.23744 8.23744C8.56563 7.90925 8.75 7.46413 8.75 7C8.75 6.53587 8.56563 6.09075 8.23744 5.76256C7.90925 5.43437 7.46413 5.25 7 5.25C6.53587 5.25 6.09075 5.43437 5.76256 5.76256C5.43437 6.09075 5.25 6.53587 5.25 7C5.25 7.46413 5.43437 7.90925 5.76256 8.23744C6.09075 8.56563 6.53587 8.75 7 8.75V8.75Z" fill="#000"/>
</svg>
