<svg width="25" height="25" viewBox="0 0 25 25" fill="none" xmlns="http://www.w3.org/2000/svg">
<path fill-rule="evenodd" clip-rule="evenodd" d="M19.0751 24.3238C18.2717 24.0155 17.5076 23.6131 16.799 23.1248C15.4699 23.6623 14.0178 23.9582 12.5001 23.9582C6.17196 23.9582 1.04175 18.828 1.04175 12.4998C1.04175 6.17171 6.17196 1.0415 12.5001 1.0415C18.8282 1.0415 23.9584 6.17171 23.9584 12.4998C23.9584 14.8738 23.2355 17.0811 21.998 18.9113C21.9199 20.4248 22.7136 21.7915 23.5397 23.0019C24.2615 24.0613 24.0803 24.9144 22.7334 24.9915C22.1292 25.0248 20.823 24.9863 19.0751 24.3248V24.3238ZM3.12508 12.4998C3.12508 10.0134 4.1128 7.62886 5.87095 5.87071C7.62911 4.11256 10.0137 3.12484 12.5001 3.12484C14.9865 3.12484 17.3711 4.11256 19.1292 5.87071C20.8874 7.62886 21.8751 10.0134 21.8751 12.4998C21.8751 14.5311 21.2292 16.4092 20.1334 17.9436C19.648 18.6228 19.898 19.8957 20.0647 20.6259C20.2261 21.3342 20.5761 22.0884 20.923 22.7207C20.5463 22.6291 20.1758 22.514 19.8136 22.3759C19.0056 22.0629 18.2471 21.6349 17.5615 21.105C17.41 20.9887 17.2293 20.9162 17.0394 20.8957C16.8494 20.8751 16.6574 20.9072 16.4845 20.9884C15.238 21.5742 13.8773 21.8769 12.5001 21.8748C10.0137 21.8748 7.62911 20.8871 5.87095 19.129C4.1128 17.3708 3.12508 14.9862 3.12508 12.4998ZM7.29175 14.0623C7.70615 14.0623 8.10358 13.8977 8.3966 13.6047C8.68963 13.3117 8.85425 12.9142 8.85425 12.4998C8.85425 12.0854 8.68963 11.688 8.3966 11.395C8.10358 11.102 7.70615 10.9373 7.29175 10.9373C6.87735 10.9373 6.47992 11.102 6.18689 11.395C5.89387 11.688 5.72925 12.0854 5.72925 12.4998C5.72925 12.9142 5.89387 13.3117 6.18689 13.6047C6.47992 13.8977 6.87735 14.0623 7.29175 14.0623ZM14.0626 12.4998C14.0626 12.9142 13.898 13.3117 13.6049 13.6047C13.3119 13.8977 12.9145 14.0623 12.5001 14.0623C12.0857 14.0623 11.6883 13.8977 11.3952 13.6047C11.1022 13.3117 10.9376 12.9142 10.9376 12.4998C10.9376 12.0854 11.1022 11.688 11.3952 11.395C11.6883 11.102 12.0857 10.9373 12.5001 10.9373C12.9145 10.9373 13.3119 11.102 13.6049 11.395C13.898 11.688 14.0626 12.0854 14.0626 12.4998ZM17.7084 14.0623C18.1228 14.0623 18.5202 13.8977 18.8133 13.6047C19.1063 13.3117 19.2709 12.9142 19.2709 12.4998C19.2709 12.0854 19.1063 11.688 18.8133 11.395C18.5202 11.102 18.1228 10.9373 17.7084 10.9373C17.294 10.9373 16.8966 11.102 16.6036 11.395C16.3105 11.688 16.1459 12.0854 16.1459 12.4998C16.1459 12.9142 16.3105 13.3117 16.6036 13.6047C16.8966 13.8977 17.294 14.0623 17.7084 14.0623Z" fill="#000"/>
</svg>
