<svg width="48" height="49" viewBox="0 0 48 49" fill="none" xmlns="http://www.w3.org/2000/svg">
<g>
<path fill-rule="evenodd" clip-rule="evenodd" d="M19.4136 12.7676C19.7885 13.1427 19.9991 13.6513 19.9991 14.1816C19.9991 14.712 19.7885 15.2206 19.4136 15.5956L10.8276 24.1816L19.4136 32.7676C19.7779 33.1448 19.9795 33.65 19.9749 34.1744C19.9704 34.6988 19.76 35.2005 19.3892 35.5713C19.0184 35.9421 18.5168 36.1524 17.9924 36.157C17.468 36.1615 16.9628 35.96 16.5856 35.5956L6.58557 25.5956C6.21063 25.2206 6 24.712 6 24.1816C6 23.6513 6.21063 23.1427 6.58557 22.7676L16.5856 12.7676C16.9606 12.3927 17.4692 12.1821 17.9996 12.1821C18.5299 12.1821 19.0385 12.3927 19.4136 12.7676V12.7676ZM28.5856 12.7676C28.9606 12.3927 29.4692 12.1821 29.9996 12.1821C30.5299 12.1821 31.0385 12.3927 31.4136 12.7676L41.4136 22.7676C41.7885 23.1427 41.9991 23.6513 41.9991 24.1816C41.9991 24.712 41.7885 25.2206 41.4136 25.5956L31.4136 35.5956C31.0364 35.96 30.5312 36.1615 30.0068 36.157C29.4824 36.1524 28.9808 35.9421 28.6099 35.5713C28.2391 35.2005 28.0288 34.6988 28.0242 34.1744C28.0197 33.65 28.2213 33.1448 28.5856 32.7676L37.1716 24.1816L28.5856 15.5956C28.2106 15.2206 28 14.712 28 14.1816C28 13.6513 28.2106 13.1427 28.5856 12.7676V12.7676Z" fill="#000"/>
</g>
</svg>
