<svg width="24" height="25" viewBox="0 0 24 25" fill="none" xmlns="http://www.w3.org/2000/svg">
<path fill-rule="evenodd" clip-rule="evenodd" d="M5.29279 5.41076C5.48031 5.22329 5.73462 5.11797 5.99979 5.11797C6.26495 5.11797 6.51926 5.22329 6.70679 5.41076L11.9998 10.7038L17.2928 5.41076C17.385 5.31525 17.4954 5.23906 17.6174 5.18666C17.7394 5.13425 17.8706 5.10666 18.0034 5.10551C18.1362 5.10435 18.2678 5.12965 18.3907 5.17994C18.5136 5.23022 18.6253 5.30447 18.7192 5.39836C18.8131 5.49225 18.8873 5.60391 18.9376 5.7268C18.9879 5.8497 19.0132 5.98138 19.012 6.11416C19.0109 6.24694 18.9833 6.37816 18.9309 6.50016C18.8785 6.62217 18.8023 6.73251 18.7068 6.82476L13.4138 12.1178L18.7068 17.4108C18.8889 17.5994 18.9897 17.852 18.9875 18.1142C18.9852 18.3764 18.88 18.6272 18.6946 18.8126C18.5092 18.998 18.2584 19.1032 17.9962 19.1054C17.734 19.1077 17.4814 19.0069 17.2928 18.8248L11.9998 13.5318L6.70679 18.8248C6.51818 19.0069 6.26558 19.1077 6.00339 19.1054C5.74119 19.1032 5.49038 18.998 5.30497 18.8126C5.11956 18.6272 5.01439 18.3764 5.01211 18.1142C5.00983 17.852 5.11063 17.5994 5.29279 17.4108L10.5858 12.1178L5.29279 6.82476C5.10532 6.63723 5 6.38292 5 6.11776C5 5.85259 5.10532 5.59828 5.29279 5.41076V5.41076Z" fill="black"/>
</svg>
