<svg width="117" height="117" viewBox="0 0 117 117" fill="none" xmlns="http://www.w3.org/2000/svg">
<rect x="1.02051" y="1.29004" width="115" height="115" rx="15.5" stroke="#EDEEF7" stroke-opacity="0.3"/>
<g clip-path="url(#clip0_671_6315)">
<path d="M56.9398 20.1335C57.8625 20.1413 58.7403 20.1483 59.6181 20.163C59.9469 20.1708 60.2695 20.2142 60.5765 20.3383C60.737 20.4034 60.92 20.4111 61.0883 20.4329C61.7032 20.5057 62.3173 20.5647 62.9322 20.6523C63.3052 20.7027 63.6642 20.7833 64.0372 20.8415C64.183 20.871 64.3373 20.8779 64.4908 20.9074C65.0616 21.0392 65.6245 21.178 66.1952 21.3238C66.4441 21.3897 66.6853 21.4626 66.9195 21.5797C67.1025 21.6666 67.3227 21.6813 67.5344 21.7255C67.615 21.7402 67.6949 21.7472 67.7755 21.7689C68.4052 21.9736 69.0418 22.1783 69.6707 22.4048C70.2119 22.594 70.7392 22.8056 71.2727 23.0173C71.434 23.0832 71.5945 23.1639 71.7558 23.229C72.7155 23.6319 73.6577 24.0753 74.5798 24.5581C74.9094 24.7333 75.2529 24.8721 75.5825 25.0544C75.722 25.135 75.8461 25.2443 75.9779 25.3397C76.1454 25.456 76.3214 25.5801 76.4975 25.6902C76.9069 25.9383 77.3241 26.1717 77.7335 26.4199C77.9894 26.5804 78.2235 26.7851 78.4725 26.9456C78.816 27.1651 79.1013 27.4714 79.4673 27.6544C79.5642 27.6962 79.6494 27.7612 79.7155 27.8436C79.8333 28.0188 80.0086 28.1072 80.1768 28.2088C80.3164 28.2964 80.4405 28.3988 80.5645 28.5011C80.7181 28.6252 80.8871 28.7345 81.0407 28.8586C81.15 28.9462 81.2601 29.0338 81.3477 29.1362C81.4873 29.3114 81.6331 29.465 81.8455 29.5673C81.9843 29.6402 82.1162 29.7565 82.2038 29.8883C82.2914 30.0047 82.3938 30.0853 82.4961 30.1807C82.7233 30.3993 82.9939 30.5676 83.1475 30.8522C83.1769 30.9034 83.2211 30.9398 83.2646 30.9763C83.5127 31.1515 83.7182 31.3702 83.9012 31.6191C83.9454 31.6842 84.0035 31.7501 84.0617 31.8013C84.2447 31.9688 84.399 32.1588 84.5673 32.334C84.9697 32.7434 85.2915 33.218 85.6862 33.6266C85.9421 33.8965 86.1546 34.2105 86.3818 34.5029C86.6454 34.8456 86.9083 35.1821 87.1719 35.5249C87.3913 35.8095 87.6178 36.0948 87.8233 36.3864C87.9551 36.5763 88.0202 36.8097 88.1815 36.985C88.2691 37.0804 88.342 37.1897 88.4157 37.2921C88.4738 37.3649 88.532 37.4378 88.5762 37.5185C88.9561 38.197 89.3229 38.891 89.7254 39.5625C90.1208 40.2123 90.3984 40.921 90.735 41.5995C90.8955 41.9213 91.042 42.2571 91.1886 42.5851C91.3716 43.0015 91.5398 43.4249 91.7151 43.8413C91.8981 44.2941 92.0881 44.747 92.2563 45.206C92.3959 45.6015 92.5052 46.0101 92.6293 46.411C92.6805 46.587 92.7394 46.7693 92.7836 46.9445C92.9666 47.6307 93.1558 48.317 93.3171 49.011C93.4567 49.6096 93.559 50.223 93.6761 50.8286L93.8514 51.7924C93.8808 51.9382 93.9026 52.0917 93.925 52.2453C94.0049 53.0191 94.1003 53.8008 94.1592 54.5816C94.2174 55.2904 94.2755 55.9983 94.298 56.714C94.3333 57.6002 94.3137 58.4877 94.2391 59.3714C94.1809 59.9847 94.1592 60.6051 94.0856 61.2184C93.9692 62.2482 93.8444 63.2849 93.6319 64.3C93.459 65.1329 93.2713 65.9628 93.069 66.7891C92.8782 67.549 92.6658 68.3011 92.4021 69.0386C92.337 69.2208 92.3153 69.4255 92.2416 69.6077C92.0725 70.0558 91.8969 70.5015 91.7151 70.9445C91.5251 71.4191 91.3274 71.8937 91.1374 72.3682C91.1297 72.376 91.1297 72.3899 91.1219 72.3969C90.7499 73.1641 90.372 73.9285 89.9882 74.6898C89.785 75.0961 89.5731 75.4978 89.3524 75.8948C89.1547 76.2376 88.9352 76.5733 88.7297 76.9091C88.6568 77.0262 88.5839 77.1502 88.5033 77.2603C88.2102 77.6907 87.9109 78.1288 87.6108 78.56L86.7113 79.8518C86.4616 80.2023 86.184 80.5381 85.8909 80.8521C85.7079 81.0491 85.5474 81.2615 85.3791 81.4724C85.0643 81.8819 84.7061 82.2471 84.3618 82.634C84.0135 83.0279 83.6498 83.4079 83.2715 83.7731C83.0816 83.9631 82.8699 84.1236 82.6721 84.3058C82.4597 84.5028 82.2332 84.6935 82.0425 84.9122C81.8013 85.189 81.509 85.4007 81.2306 85.6349C81.0911 85.759 80.9523 85.883 80.8065 86.0071C80.7623 86.0435 80.7258 86.1017 80.6824 86.1234C80.3017 86.3359 79.9938 86.6499 79.6573 86.9128C79.3355 87.1609 78.992 87.3873 78.6772 87.6425C78.5678 87.7301 78.443 87.7882 78.3259 87.8689C77.9894 88.1023 77.6598 88.3365 77.3233 88.5699C77.2287 88.6358 77.1186 88.6792 77.024 88.7451C76.782 88.9056 76.5479 89.0886 76.2997 89.2336C75.9996 89.4166 75.6918 89.5779 75.3847 89.7454C75.3553 89.7601 75.3188 89.7749 75.2894 89.7888L74.1045 90.4681C74.0239 90.5123 73.951 90.5844 73.8626 90.6077C73.5121 90.7015 73.2043 90.8992 72.8677 91.038C72.6413 91.1326 72.4288 91.2497 72.2024 91.359C72.0783 91.4172 71.9465 91.4831 71.8217 91.5343C71.6073 91.6237 71.3974 91.7236 71.1928 91.8336C70.9214 91.9871 70.6074 92.067 70.3143 92.1771L69.9855 92.2857C69.7877 92.3524 69.5823 92.4097 69.3853 92.4764L68.6533 92.7168C68.5882 92.7393 68.5292 92.7827 68.4633 92.7975C67.7903 92.9874 67.1102 93.1774 66.4372 93.3596C65.6831 93.5654 64.9216 93.7431 64.1543 93.8923C63.313 94.0536 62.4786 94.2141 61.6295 94.3087C61.3372 94.3382 61.0449 94.3599 60.7595 94.3894C59.0908 94.5422 57.4229 94.6158 55.7472 94.5499C54.277 94.4918 52.806 94.3669 51.3506 94.1265C50.648 94.0094 49.9455 93.8854 49.243 93.7613C48.5846 93.645 47.948 93.462 47.2967 93.2937C46.5135 93.0898 45.7458 92.8486 44.9999 92.5416C44.8386 92.4764 44.6633 92.4539 44.4951 92.3958C44.0337 92.2305 43.5751 92.0575 43.1195 91.877C42.6557 91.6837 42.1945 91.4841 41.7361 91.2784C41.4073 91.1256 41.0848 90.9574 40.7637 90.7969C40.6242 90.731 40.4784 90.6875 40.3466 90.6216C39.9147 90.3952 39.4827 90.1618 39.0516 89.9276C38.6926 89.7307 38.3343 89.5337 37.9761 89.3437C37.9466 89.329 37.9102 89.315 37.8807 89.2926C37.2216 88.811 36.4757 88.4605 35.8468 87.9278C35.6638 87.7665 35.4444 87.6572 35.2396 87.5184C35.0055 87.3579 34.7783 87.1974 34.5518 87.0369C34.4565 86.9709 34.3688 86.8903 34.2665 86.8391C33.7028 86.5181 33.2274 86.0947 32.7808 85.6202C32.6645 85.4961 32.5404 85.3643 32.4086 85.248C32.1666 85.0285 31.9177 84.8168 31.6766 84.5982C31.5525 84.4881 31.4424 84.3717 31.3253 84.2616C31.2889 84.2329 31.2664 84.1887 31.2299 84.16C30.8787 83.8894 30.6011 83.5397 30.2793 83.2396C29.9674 82.959 29.6785 82.6538 29.4155 82.327C29.1673 82.0129 28.8882 81.7361 28.64 81.429C28.3477 81.0646 28.0476 80.7063 27.7623 80.3411C27.4769 79.9766 27.1985 79.5967 26.9209 79.2245C26.8899 79.1885 26.8629 79.1492 26.8403 79.1074C26.6208 78.698 26.306 78.3405 26.0424 77.9606C25.9261 77.7861 25.8307 77.5961 25.7206 77.4209C25.669 77.3286 25.6104 77.2405 25.5453 77.1572C25.4058 76.9827 25.2739 76.8075 25.1941 76.5958C25.1576 76.5004 25.077 76.4206 25.0258 76.3322C24.7474 75.8437 24.4698 75.3613 24.1992 74.8721C23.9208 74.368 23.6874 73.85 23.4308 73.339C23.233 72.9451 23.0283 72.5504 22.867 72.134C22.56 71.3385 22.187 70.5716 21.9598 69.7465C21.7403 69.2937 21.6457 68.7974 21.4922 68.3159C21.4038 68.06 21.3379 67.8041 21.265 67.549C21.1409 67.1109 21.0169 66.6728 20.9137 66.2346C20.7897 65.7236 20.6726 65.2126 20.5625 64.7016C20.3545 63.6704 20.1935 62.6303 20.0802 61.5844C19.8088 59.0573 19.8313 56.524 19.9918 53.99C20.029 53.4573 20.1158 52.9245 20.1825 52.3911C20.2407 51.9529 20.2988 51.5148 20.3725 51.0767C20.4896 50.3757 20.6067 49.6748 20.7897 48.9815C20.9579 48.3387 21.0967 47.6889 21.2797 47.0469C21.4627 46.397 21.6457 45.7472 21.9086 45.1192C22.0994 44.6593 22.2451 44.177 22.4436 43.7102C22.8314 42.7751 23.2408 41.8477 23.6649 40.921C23.9208 40.3658 24.2062 39.8331 24.528 39.3213C24.6745 39.081 24.7916 38.8251 24.9382 38.5847C25.2383 38.0884 25.5523 37.5983 25.8602 37.1021C25.9261 36.9927 25.9625 36.8687 26.0284 36.7586C26.2766 36.3786 26.5185 35.9925 26.8186 35.6497C26.9868 35.459 27.1179 35.2325 27.2575 35.0139C27.3709 34.824 27.5086 34.6496 27.6669 34.4951C27.8134 34.3641 27.9522 34.2183 28.0623 34.057C28.2229 33.8089 28.4276 33.5972 28.6183 33.3855C28.64 33.356 28.6695 33.3421 28.6912 33.3056C28.9107 32.9257 29.2619 32.6628 29.555 32.3418C29.7597 32.1153 29.9427 31.8742 30.1327 31.6408C30.4033 31.305 30.6887 30.9832 31.04 30.7281C31.2299 30.5885 31.3765 30.4063 31.5517 30.2536C31.72 30.107 31.896 29.976 32.0635 29.8302C32.2248 29.6906 32.3714 29.5448 32.5326 29.4138C32.8102 29.1796 33.0886 28.954 33.3662 28.7198C33.7912 28.3693 34.2006 28.0041 34.6325 27.6761C35.1226 27.3039 35.5909 26.8875 36.1616 26.6246C36.205 26.6029 36.2492 26.5804 36.2779 26.5517C36.447 26.3036 36.7176 26.2159 36.9588 26.0694C36.9952 26.0477 37.0541 26.0407 37.0828 26.0112C37.4566 25.6607 37.9249 25.4708 38.3708 25.2374C39.0004 24.9016 39.6146 24.5511 40.2512 24.2293C40.8072 23.9525 41.3345 23.6237 41.9121 23.4043C42.1099 23.3314 42.2851 23.2151 42.4751 23.1197C42.541 23.091 42.5992 23.0538 42.6658 23.0321C43.0024 22.9002 43.3389 22.7692 43.6824 22.6451C43.7778 22.6087 43.8802 22.5792 43.9825 22.5505C44.0414 22.535 44.0996 22.5211 44.1508 22.4994C44.6626 22.2218 45.2116 22.083 45.7753 21.9519C46.0126 21.8952 46.2449 21.8195 46.4701 21.7255C46.843 21.572 47.2238 21.4843 47.6115 21.3967C48.0287 21.3021 48.4458 21.178 48.863 21.0679C49.3825 20.9291 49.9091 20.8051 50.4503 20.7833C50.5457 20.7756 50.6403 20.7756 50.7287 20.7539C51.387 20.5786 52.0671 20.5352 52.7401 20.484C53.0217 20.4667 53.2998 20.4127 53.5675 20.3235C53.8234 20.2281 54.087 20.1995 54.3576 20.1917C55.218 20.1578 56.0788 20.1384 56.9398 20.1335V20.1335ZM72.0047 58.948C71.8147 58.8534 71.7263 58.6782 71.6387 58.5169C71.5293 58.3129 71.427 58.1012 71.251 57.9407C71.1851 57.8818 71.1486 57.7872 71.1044 57.6996C70.9881 57.4879 70.878 57.2615 70.7531 57.0568C70.4538 56.5682 70.146 56.0859 69.8459 55.6036C69.7583 55.4656 69.7001 55.3043 69.5978 55.188C69.4737 55.0484 69.407 54.8957 69.3341 54.7351C69.2318 54.5304 69.2465 54.304 69.2829 54.0853C69.2937 54.0152 69.3221 53.9489 69.3655 53.8928C69.4089 53.8366 69.4659 53.7924 69.5311 53.7643C69.7435 53.6759 69.9421 53.5519 70.1902 53.5596C70.4096 53.5674 70.6368 53.5379 70.8563 53.5084C71.061 53.479 71.1269 53.4208 71.1339 53.2161C71.1486 52.8803 71.1486 52.5376 71.1339 52.2011C71.1261 52.0336 71.061 51.9754 70.8927 51.9607C70.7904 51.9529 70.6803 51.9529 70.5779 51.9529C68.0973 51.9529 65.6175 51.9452 63.137 51.9452H62.8888C62.6686 51.9607 62.6174 52.0041 62.6097 52.2166C62.6027 52.5299 62.6097 52.8447 62.6097 53.1579V53.1944C62.6329 53.4131 62.6911 53.479 62.9105 53.5154C63.0493 53.5379 63.1881 53.5519 63.3269 53.5596C63.803 53.5674 64.2202 53.7566 64.5637 54.0636C64.7909 54.2606 64.9809 54.5017 65.1639 54.7421C65.4051 55.0709 65.6245 55.4144 65.837 55.7649C66.144 56.2906 66.4806 56.7939 66.8024 57.3049C67.0807 57.7508 67.3514 58.2036 67.6367 58.6417C67.9291 59.0938 68.1485 59.5831 68.5145 59.9847C68.5307 60.0013 68.5432 60.0211 68.5509 60.0429C68.6828 60.3934 68.9169 60.6927 69.1069 61.0145C69.4435 61.562 69.7808 62.1024 70.1173 62.6499C70.1567 62.7144 70.2088 62.7704 70.2703 62.8143C70.3319 62.8583 70.4017 62.8894 70.4755 62.9058C70.695 62.9639 70.8997 63.0298 71.1191 62.9058C71.1556 62.8833 71.2145 62.8903 71.2587 62.8903C71.4045 62.898 71.4991 62.8181 71.5728 62.701C71.7123 62.4746 71.8659 62.2482 72.0047 62.0218C72.29 61.5542 72.5684 61.0874 72.853 60.6128C73.1825 60.0654 73.5043 59.5102 73.8556 58.9697C74.324 58.247 74.7551 57.4949 75.2165 56.7644C75.5894 56.1588 75.912 55.5238 76.3284 54.9468C76.468 54.7569 76.5843 54.5591 76.7456 54.3847C77.0457 54.0489 77.3752 53.7713 77.8358 53.6542C78.084 53.5891 78.3337 53.5154 78.5895 53.5084C78.8532 53.5007 78.9625 53.3479 79.0432 53.144C79.0649 53.092 79.0649 53.0269 79.0649 52.968C79.0649 52.771 79.0726 52.5741 79.0649 52.3693C79.0501 52.0553 78.9253 51.9242 78.6113 51.9165C78.3406 51.9087 78.07 51.932 77.8064 51.932C76.285 51.932 74.7628 51.9242 73.2484 51.9242C73.1678 51.9242 73.0872 51.9242 73.0073 51.939C72.9189 51.9529 72.853 51.9971 72.839 52.0917C72.7948 52.4864 72.7731 52.8803 72.8235 53.282C72.846 53.4355 72.8972 53.472 73.0585 53.4937C73.2779 53.5154 73.5043 53.5519 73.7238 53.5379C74.0091 53.5224 74.2511 53.6395 74.4845 53.7566C74.7334 53.8806 74.8357 54.173 74.7481 54.4428C74.6752 54.6909 74.5504 54.9174 74.4116 55.1368C74.2069 55.4578 74.0022 55.7866 73.8044 56.1154C73.6067 56.4434 73.409 56.7792 73.212 57.1079C72.9042 57.6197 72.5901 58.123 72.2753 58.627C72.1947 58.7433 72.1512 58.8751 72.0039 58.948H72.0047ZM54.3065 54.0272C54.291 53.9977 54.2692 53.9683 54.2623 53.9318C54.2123 53.5028 54.2024 53.07 54.2328 52.6392C54.2463 52.5011 54.2489 52.3621 54.2406 52.2236C54.2328 52.0258 54.1816 51.9677 53.9986 51.9529C53.8381 51.9452 53.6698 51.9452 53.5086 51.9452C52.1159 51.9369 50.7233 51.9322 49.3306 51.9312C49.2507 51.9312 49.1701 51.9312 49.0902 51.939C48.9281 51.9607 48.8553 52.0258 48.8553 52.1871C48.8475 52.5516 48.8475 52.9098 48.8553 53.275C48.8553 53.4208 48.9212 53.479 49.0747 53.5007C49.236 53.5232 49.4043 53.5379 49.5648 53.5379C49.8431 53.5301 50.0921 53.6178 50.3479 53.7131C50.5457 53.786 50.6922 53.9171 50.8016 54.0853C50.9187 54.2676 51.0357 54.4653 51.0575 54.691C51.0869 54.9468 51.1381 55.2027 51.1381 55.4586C51.1459 56.7427 51.1381 58.0284 51.1459 59.3125C51.1459 59.6343 51.1017 59.9405 51.0218 60.2476C50.8822 60.7803 50.5457 61.1161 49.9827 61.1967C49.7478 61.2262 49.5136 61.2479 49.2872 61.2696C49.0313 61.2921 48.9871 61.3286 48.9801 61.5914C48.9723 61.8682 48.9723 62.1536 48.9723 62.4304V62.5041C48.9948 62.7809 49.0383 62.8321 49.3019 62.8398H49.55C51.6941 62.8398 53.8304 62.8476 55.9744 62.8476C56.114 62.8476 56.252 62.8476 56.3916 62.8321C56.6258 62.8104 56.6986 62.7305 56.7056 62.4963C56.7134 62.2265 56.7134 61.9559 56.7056 61.693C56.6986 61.2921 56.6692 61.2696 56.252 61.2549C56.0186 61.2409 55.7844 61.2479 55.5572 61.1967C55.1912 61.1161 54.8772 60.9122 54.7306 60.5539C54.6135 60.2623 54.5182 59.9483 54.4964 59.6412C54.4453 58.7805 54.4011 57.9183 54.5693 57.0568C54.6135 56.8303 54.6135 56.59 54.6794 56.3705C54.8252 55.9029 55.0594 55.4726 55.3595 55.0779L55.4471 54.9693C55.755 54.677 56.0768 54.4211 56.4575 54.2241C56.8452 54.0264 57.2476 54.0264 57.6501 53.983C57.7741 53.9683 57.8401 54.0559 57.8401 54.18C57.8401 54.3629 57.8401 54.5522 57.8323 54.7351C57.8253 55.2392 58.3743 55.8014 58.8714 55.8595C59.1428 55.896 59.4064 55.9107 59.6763 55.8742C60.0205 55.83 60.3354 55.706 60.5618 55.4284C60.5975 55.3817 60.6392 55.34 60.6859 55.3043C60.9859 55.0856 61.0891 54.7638 61.1108 54.4211C61.1247 54.1071 61.1108 53.793 61.0953 53.479C61.0849 53.3741 61.0604 53.271 61.0224 53.1727C60.8796 52.7757 60.6288 52.4266 60.2981 52.1646C59.9321 51.88 59.5444 51.6684 59.0691 51.6249C59.0544 51.6249 59.0474 51.6249 59.0327 51.6172C58.6772 51.5346 58.3087 51.5249 57.9494 51.5885C57.5842 51.6466 57.2182 51.6831 56.8669 51.8444C56.2592 52.1183 55.7102 52.5072 55.2502 52.9897C54.9943 53.2603 54.7523 53.5449 54.5476 53.8582C54.4964 53.9465 54.4375 54.0411 54.3065 54.0272ZM43.1776 53.6178C43.0388 53.8737 42.907 54.0776 42.8124 54.304C42.6651 54.6328 42.6217 54.9763 42.8124 55.3121C42.8488 55.385 42.8775 55.4656 42.9 55.5385C42.9729 55.7866 43.1264 55.9541 43.3312 56.1154C43.5731 56.3046 43.8429 56.4 44.136 56.4364C44.5532 56.4876 44.9626 56.4364 45.3147 56.1883C45.5783 56.0053 45.8048 55.7866 45.9583 55.4726C46.1777 55.0267 46.2219 54.5886 46.1041 54.114C45.9907 53.6955 45.783 53.3085 45.4969 52.9827C45.3364 52.7927 45.1604 52.6322 44.934 52.5229C44.8171 52.4683 44.7045 52.4048 44.5974 52.3329C44.2175 52.063 43.7925 51.9165 43.3389 51.8289C43.2583 51.8141 43.1706 51.8072 43.1047 51.7637C42.9807 51.6761 42.8411 51.6684 42.7023 51.6684C42.5705 51.6606 42.4464 51.6606 42.3146 51.6389C41.8168 51.566 41.312 51.5303 40.8072 51.5877C40.3031 51.6466 39.7759 51.6249 39.2928 51.8358C39.285 51.8436 39.2711 51.8436 39.2563 51.8436C38.971 51.939 38.6639 52.0119 38.3933 52.1429C38.0195 52.3259 37.6248 52.4864 37.31 52.7788C37.2934 52.7947 37.2736 52.8069 37.2519 52.8144C37.0177 52.9098 36.8486 53.0998 36.6812 53.275C36.5199 53.4425 36.3663 53.6178 36.2128 53.793C36.1391 53.8806 36.0515 53.9683 36.0003 54.0706C35.715 54.5894 35.3932 55.0926 35.2614 55.6843C35.1668 56.1154 35.0419 56.5458 35.0566 56.9908C35.0644 57.2467 35.0644 57.5026 35.0566 57.7585C35.0349 58.3633 35.2102 58.9333 35.4226 59.4955C35.6785 60.1895 36.088 60.8028 36.6075 61.3355C36.82 61.5542 37.0541 61.7442 37.2883 61.9342C37.5077 62.1172 37.7706 62.2187 38.0048 62.3723C38.5104 62.708 39.095 62.8251 39.651 63.0368C40.01 63.0802 40.3683 63.1531 40.7265 63.1686C41.3484 63.1903 41.9703 63.1973 42.5782 63.0802C42.717 63.0515 42.8636 63.0663 42.9946 63.0151C43.4413 62.8398 43.9096 62.7158 44.3121 62.4599C44.4284 62.387 44.5385 62.2994 44.6633 62.2265C44.9409 62.073 45.1898 61.876 45.3946 61.6348C45.8048 61.1603 46.1188 60.6346 46.3018 60.0359C46.3243 59.97 46.346 59.8971 46.3824 59.8459C46.4701 59.7219 46.4631 59.5831 46.4553 59.4443C46.4476 59.3055 46.3972 59.2621 46.2584 59.2473C46.163 59.2396 46.0676 59.2326 45.98 59.2326L45.1968 59.2543C45.1387 59.3784 45.0875 59.4955 45.0216 59.6048C44.875 59.8607 44.744 60.1235 44.568 60.3492C44.2896 60.7152 43.9391 60.9998 43.5211 61.2115C43.2148 61.365 42.9148 61.4813 42.5635 61.496C42.0285 61.5178 41.5167 61.4301 41.0049 61.2913C40.9154 61.2659 40.8295 61.2294 40.749 61.1828C40.2659 60.8827 39.8495 60.5105 39.5487 60.0282C39.2544 59.5631 39.0464 59.0488 38.9345 58.5099C38.8521 58.1102 38.7982 57.7052 38.7732 57.2979C38.7368 56.5023 38.8244 55.7207 39.1245 54.9686C39.2928 54.5529 39.52 54.1799 39.8123 53.8364C39.9224 53.7054 40.0604 53.5883 40.2078 53.4937C40.5218 53.289 40.8808 53.1797 41.2243 53.0409C41.2691 53.0251 41.3169 53.02 41.3639 53.0261C41.7144 53.0703 42.0587 53.0703 42.41 53.1432C42.7465 53.1874 42.9799 53.3696 43.1776 53.6178Z" fill="#000"/>
</g>
<defs>
<clipPath id="clip0_671_6315">
<rect width="74.4404" height="74.4404" fill="#000" transform="translate(19.873 20.1335)"/>
</clipPath>
</defs>
</svg>
