<svg width="50" height="50" viewBox="0 0 50 50" fill="none" xmlns="http://www.w3.org/2000/svg">
<g clip-path="url(#clip0_1_893)">
<path d="M17.889 17.5345L15.8481 15.4141L15.856 30.7297L15.8807 31.4447C15.8906 31.7828 15.9522 32.1618 16.0509 32.5562L32.2157 38.4769L36.26 36.6177L36.2635 36.6116L17.8881 17.5345H17.889Z" fill="#000"/>
<path d="M16.0513 32.5562H16.0527C16.0513 32.55 16.0488 32.5428 16.0458 32.5357C16.0493 32.5434 16.0493 32.551 16.0508 32.5562H16.0513ZM36.256 36.6177L32.2117 38.4769L16.0493 32.5562C16.3575 33.7874 17.0416 35.1713 17.7765 35.9263L23.0489 41.3743L34.7813 41.3897L36.2511 36.6177H36.256Z" fill="#000" fill-opacity="0.6"/>
<path d="M15.9034 15.4146L9.61843 25.2715C9.09662 25.8502 9.35703 27.0446 10.197 27.9245L13.825 31.7228L16.1056 32.5577C16.007 32.1643 15.9448 31.7894 15.9354 31.4463L15.9108 30.7313L15.9034 15.4156V15.4146Z" fill="#000" fill-opacity="0.6"/>
<path d="M32.3489 15.6118C31.9691 15.5119 31.6052 15.4489 31.2772 15.4392L30.5482 15.4115L15.8481 15.4151L36.263 36.6121L38.0563 32.4122L32.3499 15.6128L32.3489 15.6118Z" fill="#000" fill-opacity="0.4"/>
<path d="M32.3302 15.6082C32.3366 15.6108 32.3435 15.6123 32.3489 15.6133V15.6113C32.3425 15.6098 32.3366 15.6098 32.3302 15.6072V15.6082ZM35.5927 17.4101C34.8505 16.6341 33.5361 15.9247 32.3489 15.6133L38.0553 32.4112L36.2601 36.6111L40.6407 35.1575L40.6506 22.685L35.5922 17.4095L35.5927 17.4101Z" fill="#000" fill-opacity="0.6"/>
<path d="M31.5489 13.2583L27.8992 9.4887C27.0479 8.61953 25.8978 8.34808 25.3454 8.88894L15.8541 15.4141L30.5541 15.4105L31.2831 15.4382C31.6111 15.4484 31.9756 15.5109 32.3548 15.6108L31.5499 13.2573L31.5489 13.2583Z" fill="#000"/>
</g>
<defs>
<clipPath id="clip0_1_893">
<rect width="31.5653" height="32.7794" fill="#000" transform="translate(9.21735 8.61032)"/>
</clipPath>
</defs>
</svg>
