<svg width="57" height="56" viewBox="0 0 57 56" fill="none" xmlns="http://www.w3.org/2000/svg">
<path fill-rule="evenodd" clip-rule="evenodd" d="M13.0476 10.1519C13.2649 9.88055 13.5403 9.66148 13.8536 9.51087C14.1669 9.36026 14.51 9.28196 14.8576 9.28174H42.7026C43.0502 9.28196 43.3933 9.36026 43.7065 9.51087C44.0198 9.66148 44.2952 9.88055 44.5125 10.1519L53.7942 21.754C54.1397 22.1849 54.3202 22.725 54.3032 23.277C54.2861 23.8291 54.0728 24.357 53.7013 24.7659L30.4972 50.2905C30.2797 50.5297 30.0146 50.7209 29.7189 50.8517C29.4232 50.9826 29.1034 51.0501 28.7801 51.0501C28.4567 51.0501 28.1369 50.9826 27.8412 50.8517C27.5455 50.7209 27.2804 50.5297 27.063 50.2905L3.85879 24.7659C3.48737 24.357 3.27397 23.8291 3.25696 23.277C3.23995 22.725 3.42043 22.1849 3.76597 21.754L13.0476 10.1519ZM15.9714 13.9226L10.4024 20.8838H18.3846L23.9536 13.9226H15.9714ZM28.7801 15.3148L24.3249 20.8838H33.2353L28.7801 15.3148ZM34.7482 25.5247H22.812L28.7801 41.9393L34.7482 25.5247ZM22.5753 38.454L17.8741 25.5247H10.82L22.5753 38.454ZM34.9849 38.454L39.686 25.5247H46.7401L34.9849 38.454ZM47.1578 20.8838H39.1802L33.6112 13.9226H41.5888L47.1578 20.8838Z" fill="black"/>
</svg>
