<svg width="24" height="25" viewBox="0 0 24 25" fill="none" xmlns="http://www.w3.org/2000/svg">
<path fill-rule="evenodd" clip-rule="evenodd" d="M17.3489 19.9595C17.3489 19.9595 16.6876 19.1792 16.1366 18.4896C18.5429 17.8182 19.4613 16.3302 19.4613 16.3302C18.7082 16.8201 17.9918 17.1649 17.3489 17.4008C16.4305 17.7819 15.5488 18.036 14.6855 18.1811C12.9221 18.5078 11.3056 18.417 9.92798 18.163C8.88097 17.9634 7.9809 17.673 7.22779 17.3827C6.80531 17.2194 6.34609 17.0198 5.88688 16.7657C5.83177 16.7294 5.77666 16.7113 5.72156 16.675C5.68482 16.6568 5.66645 16.6387 5.64808 16.6205C5.31745 16.4391 5.13376 16.312 5.13376 16.312C5.13376 16.312 6.01546 17.7638 8.34828 18.4533C7.79722 19.1429 7.11758 19.9595 7.11758 19.9595C3.0581 19.8325 1.51514 17.2012 1.51514 17.2012C1.51514 11.3581 4.16022 6.62184 4.16022 6.62184C6.80531 4.66202 9.32181 4.71646 9.32181 4.71646L9.5055 4.93422C6.19914 5.87783 4.67455 7.3114 4.67455 7.3114C4.67455 7.3114 5.07865 7.09365 5.75829 6.78516C7.72374 5.93227 9.28508 5.69637 9.92798 5.64193C10.0382 5.62378 10.13 5.60564 10.2402 5.60564C11.3607 5.46046 12.6282 5.42417 13.9507 5.56934C15.6957 5.76895 17.5693 6.27706 19.4797 7.3114C19.4797 7.3114 18.0286 5.95042 14.9059 5.0068L15.163 4.71646C15.163 4.71646 17.6795 4.66202 20.3246 6.62184C20.3246 6.62184 22.9697 11.3581 22.9697 17.2012C22.9697 17.2012 21.4084 19.8325 17.3489 19.9595ZM9.32482 11.8143C8.28606 11.8143 7.46599 12.7485 7.46599 13.8882C7.46599 15.0279 8.30429 15.9621 9.32482 15.9621C10.3636 15.9621 11.1837 15.0279 11.1837 13.8882C11.2019 12.7485 10.3636 11.8143 9.32482 11.8143ZM15.9765 11.8143C14.9378 11.8143 14.1177 12.7485 14.1177 13.8882C14.1177 15.0279 14.956 15.9621 15.9765 15.9621C17.0153 15.9621 17.8354 15.0279 17.8354 13.8882C17.8354 12.7485 17.0153 11.8143 15.9765 11.8143Z" fill="#000"/>
</svg>
