<svg width="24" height="24" viewBox="0 0 24 24" fill="none" xmlns="http://www.w3.org/2000/svg">
<path fill-rule="evenodd" clip-rule="evenodd" d="M3.00009 6.152V19.309C3.99209 18.864 5.40409 18.4 7.00009 18.4C8.59009 18.4 10.0001 18.86 11.0001 19.31V6.151C10.7203 5.98994 10.4323 5.84374 10.1371 5.713C9.31009 5.35 8.20409 5 7.00009 5C5.26409 5 3.74009 5.725 3.00009 6.152ZM13.0001 6.152V19.358C13.9981 18.935 15.4101 18.5 17.0001 18.5C18.5961 18.5 20.0101 18.938 21.0001 19.358V6.152C20.2601 5.725 18.7361 5 17.0001 5C15.7961 5 14.6881 5.349 13.8631 5.714C13.5679 5.84474 13.2799 5.99094 13.0001 6.152V6.152ZM12.0001 4.42C11.7301 4.264 11.3731 4.075 10.9471 3.886C9.96709 3.45 8.57409 3 7.00009 3C4.69209 3 2.76209 3.97 1.92409 4.464C1.63964 4.63416 1.40469 4.87582 1.24259 5.16493C1.08049 5.45405 0.996885 5.78056 1.00009 6.112V20.024C1.00009 20.648 1.37009 21.121 1.79509 21.359C2.21709 21.594 2.78509 21.657 3.30209 21.385C4.12509 20.953 5.48309 20.4 7.00009 20.4C8.90509 20.4 10.5521 21.273 11.1851 21.662C11.4267 21.8098 11.7037 21.8899 11.9869 21.894C12.2702 21.898 12.5493 21.8258 12.7951 21.685C13.4321 21.32 15.0841 20.5 17.0001 20.5C18.5411 20.5 19.9171 21.03 20.7371 21.437C21.6891 21.907 23.0001 21.281 23.0001 20.059V6.112C23.0001 5.477 22.6921 4.827 22.0761 4.464C21.2381 3.971 19.3081 3 17.0001 3C15.4261 3 14.0341 3.451 13.0531 3.886C12.6271 4.075 12.2701 4.264 12.0001 4.42Z" fill="#000"/>
</svg>
