<svg width="50" height="50" viewBox="0 0 50 50" fill="none" xmlns="http://www.w3.org/2000/svg">
<path d="M5.48549 32.8332C5.06572 32.8332 4.70892 32.6933 4.41507 32.4135C4.12123 32.1266 3.9743 31.7859 3.9743 31.3914C3.9743 30.9896 4.12123 30.6454 4.41507 30.3585C4.70892 30.0715 5.06572 29.928 5.48549 29.928C5.91226 29.928 6.27257 30.0715 6.56641 30.3585C6.86725 30.6454 7.01768 30.9896 7.01768 31.3914C7.01768 31.7859 6.86725 32.1266 6.56641 32.4135C6.27257 32.6933 5.91226 32.8332 5.48549 32.8332Z" fill="#000"/>
<path d="M22.2664 32.5965H19.5379L12.3493 21.2556C12.1674 20.9686 12.0169 20.6709 11.898 20.3625H11.835C11.891 20.6925 11.919 21.3991 11.919 22.4821V32.5965H9.50522V17.1667H12.4122L19.3595 28.2387C19.6533 28.6979 19.8423 29.0135 19.9262 29.1856H19.9682C19.8982 28.7768 19.8632 28.0846 19.8632 27.1089V17.1667H22.2664V32.5965Z" fill="#000"/>
<path d="M34.0194 32.5965H25.5714V17.1667H33.6836V19.3403H28.0692V23.7088H33.2429V25.8716H28.0692V30.4338H34.0194V32.5965Z" fill="#000"/>
<path d="M46.0258 19.3403H41.7021V32.5965H39.2044V19.3403H34.8912V17.1667H46.0258V19.3403Z" fill="#000"/>
</svg>
