<svg width="25" height="25" viewBox="0 0 25 25" fill="none" xmlns="http://www.w3.org/2000/svg">
<path fill-rule="evenodd" clip-rule="evenodd" d="M8.85408 5.00433C7.30795 5.75722 6.03248 6.96985 5.20251 8.47601C4.37253 9.98217 4.02866 11.7082 4.21803 13.4174C4.40741 15.1267 5.12075 16.7355 6.26029 18.0235C7.39983 19.3114 8.9098 20.2154 10.5833 20.6116L10.6041 20.4043C10.6697 19.6752 10.678 18.896 10.551 18.372C10.4333 17.8908 10.1208 17.4783 9.66658 16.9241C9.65551 16.9102 9.6444 16.8963 9.63325 16.8825C9.43534 16.6408 9.19575 16.3491 9.00617 16.046C8.80096 15.7179 8.59784 15.295 8.56659 14.7866C8.51971 14.0366 8.852 13.47 9.21763 13.0741C9.53013 12.7345 9.93013 12.4564 10.2176 12.2564L10.2801 12.2127C10.627 11.971 10.8114 11.8283 10.9124 11.7033C10.92 11.6942 10.9273 11.6848 10.9343 11.6752C10.8624 11.3929 10.7155 11.2481 10.2655 10.9283L10.1926 10.8762C9.75096 10.5647 9.04679 10.0679 8.70513 9.09704C8.22179 7.72517 8.52388 6.12725 8.85408 5.00433ZM11.552 3.78767L11.551 3.79079L11.5405 3.81162L11.4947 3.90537C11.4413 4.01832 11.3899 4.13223 11.3405 4.24704C12.6524 4.06106 13.9898 4.1915 15.241 4.62748C16.4922 5.06346 17.621 5.79233 18.5333 6.75329C18.3124 6.89287 18.077 7.0585 17.8583 7.246C17.5958 7.471 17.2895 7.78558 17.101 8.18454C16.7364 8.9585 16.8947 9.75954 16.9718 10.1512C16.9822 10.2002 16.9905 10.2429 16.9958 10.2793C17.0333 10.4981 17.028 10.5731 17.0228 10.6012V10.6033C17.0088 10.6214 16.9931 10.6381 16.976 10.6533C16.9231 10.6318 16.871 10.6086 16.8197 10.5835C16.4895 10.4283 15.7114 10.0627 14.7874 10.4991C14.2905 10.7325 13.9916 11.1522 13.8155 11.4825C13.6322 11.8262 13.5166 12.2002 13.4405 12.5137C13.3474 12.9004 13.2857 13.2941 13.2562 13.6908L13.2541 13.7137V13.7262L14.2937 13.7845L13.2541 13.7262C13.2409 13.9585 13.3059 14.1884 13.4386 14.3795C13.5713 14.5705 13.7641 14.7117 13.9864 14.7804L14.003 14.7856L14.0843 14.8137C14.5167 14.9706 14.9281 15.1802 15.3093 15.4377C15.9791 15.9064 16.2103 16.347 16.0947 16.8179C16.026 17.097 15.7718 17.5075 15.2583 18.0158C14.7687 18.5033 14.1385 18.9866 13.4958 19.422C13.2333 19.5991 12.9728 19.7658 12.7249 19.9189C12.751 19.2647 12.7312 18.521 12.5749 17.8783C12.3343 16.8918 11.7218 16.145 11.3051 15.6366L11.2791 15.6043C11.097 15.3934 10.9276 15.1718 10.7718 14.9408C10.6603 14.7637 10.6468 14.6825 10.6468 14.6585L10.6458 14.6564C10.6437 14.6491 10.6353 14.6095 10.7489 14.4866C10.8989 14.3241 11.1208 14.1668 11.4739 13.921L11.4947 13.9064C11.7905 13.7002 12.2176 13.4012 12.5291 13.0179C12.8958 12.5679 13.1447 11.947 12.9624 11.195C12.6958 10.1022 11.9541 9.57412 11.4833 9.23662L11.4749 9.23246C10.9791 8.87829 10.7833 8.72412 10.6697 8.40329C10.4114 7.66996 10.553 6.59079 10.8718 5.53037C11.0218 5.03037 11.1947 4.58871 11.3301 4.27204L11.3405 4.24704L11.552 3.78767ZM16.2343 19.9522C16.4041 19.8033 16.5697 19.6502 16.727 19.4939C17.3228 18.9022 17.9114 18.1585 18.1176 17.3137C18.552 15.5408 17.378 14.3418 16.503 13.7304C16.1659 13.4974 15.8094 13.2939 15.4374 13.122L15.4635 13.0064C15.5187 12.7814 15.5843 12.5929 15.6551 12.4616C15.6697 12.4332 15.686 12.4057 15.7041 12.3793C15.7468 12.3929 15.8416 12.4304 16.0478 12.521C16.2312 12.6033 16.5926 12.7627 17.0301 12.7606C17.5197 12.7575 17.9572 12.5595 18.3405 12.2272C18.7426 11.8762 18.9791 11.4575 19.0676 10.997C19.1489 10.5793 19.0937 10.1908 19.051 9.93454L19.028 9.80121C18.9416 9.28662 18.927 9.19808 18.9864 9.07204L18.9968 9.05329C19.0103 9.03408 19.0249 9.01565 19.0405 8.99808C19.0801 8.95016 19.1385 8.89392 19.2145 8.82725C19.3708 8.69392 19.5666 8.55954 19.776 8.43454C20.4714 9.67659 20.8355 11.0767 20.8333 12.5002C20.8337 14.0467 20.4037 15.5629 19.5915 16.879C18.7793 18.1951 17.6169 19.2592 16.2343 19.9522ZM21.0051 6.4835C22.2521 8.24165 22.9202 10.3447 22.9166 12.5002C22.9166 18.2533 18.253 22.9168 12.4999 22.9168C6.74679 22.9168 2.08325 18.2533 2.08325 12.5002C2.08325 6.74704 6.74679 2.0835 12.4999 2.0835C14.1662 2.08224 15.8084 2.48125 17.2883 3.24696C18.7682 4.01266 20.0426 5.12264 21.0041 6.4835H21.0051ZM15.6916 12.3752C15.6749 12.371 15.6708 12.3731 15.6708 12.3752L15.6728 12.3793L15.6739 12.3804L15.6749 12.3835C15.6805 12.3809 15.6861 12.3781 15.6916 12.3752Z" fill="#000"/>
</svg>
