<svg width="56" height="56" viewBox="0 0 56 56" fill="none" xmlns="http://www.w3.org/2000/svg">
<rect x="5.7998" y="10.0789" width="44.4007" height="36.71" rx="1.64829" stroke="#EDEEF7" stroke-width="1.5"/>
<path d="M6.14746 17.3718H50.0933" stroke="#EDEEF7" stroke-width="1.5"/>
<circle cx="9.83566" cy="13.8032" r="0.75" fill="#705B8C" stroke="#705B8C" stroke-width="0.665469"/>
<circle cx="14.2868" cy="13.8032" r="0.75" fill="#705B8C" stroke="#705B8C" stroke-width="0.665469"/>
<circle cx="18.738" cy="13.8032" r="0.75" fill="#705B8C" stroke="#705B8C" stroke-width="0.665469"/>
<path d="M28.708 13.0535C28.2938 13.0535 27.958 13.3893 27.958 13.8035C27.958 14.2177 28.2938 14.5535 28.708 14.5535V13.0535ZM46.1671 14.5535C46.5813 14.5535 46.9171 14.2177 46.9171 13.8035C46.9171 13.3893 46.5813 13.0535 46.1671 13.0535V14.5535ZM28.708 14.5535H46.1671V13.0535H28.708V14.5535Z" fill="#705B8C"/>
<circle cx="23.6933" cy="38.7116" r="1.66697" fill="#EDEEF7"/>
<circle cx="32.9023" cy="38.7116" r="1.66697" fill="#EDEEF7"/>
<path d="M14.2861 23.6541H17.6093C18.1177 23.6541 18.5639 23.9927 18.7007 24.4823L21.4819 34.4361C21.6187 34.9258 22.0649 35.2644 22.5733 35.2644H34.2251C34.7077 35.2644 35.1373 34.9588 35.2956 34.503L37.3255 28.6592C37.5813 27.9229 37.0346 27.1542 36.2551 27.1542H19.4743" stroke="#EDEEF7" stroke-width="1.5" stroke-linecap="round"/>
</svg>
