<svg width="101" height="101" viewBox="0 0 101 101" fill="none" xmlns="http://www.w3.org/2000/svg">
<rect x="0.924569" y="1.00758" width="99.1509" height="99.1509" rx="13.1616" stroke="#EDEEF7" stroke-opacity="0.3" stroke-width="0.849138"/>
<path d="M65.9848 42.9208C65.9805 42.7469 66.0105 42.5739 66.0729 42.412C66.1353 42.25 66.2288 42.1023 66.3481 41.9776C66.4674 41.8528 66.6099 41.7534 66.7675 41.6853C66.925 41.6171 67.0943 41.5816 67.2656 41.5807C67.4416 41.5744 67.6171 41.604 67.7815 41.668C67.946 41.732 68.0961 41.829 68.2228 41.9532C68.3495 42.0774 68.4504 42.2262 68.5192 42.3909C68.588 42.5555 68.6235 42.7325 68.6235 42.9114C68.6235 43.0902 68.588 43.2673 68.5192 43.4319C68.4504 43.5965 68.3495 43.7454 68.2228 43.8696C68.0961 43.9938 67.946 44.0908 67.7815 44.1548C67.6171 44.2187 67.4416 44.2484 67.2656 44.242C67.0958 44.2416 66.9278 44.207 66.7713 44.1402C66.6148 44.0734 66.4729 43.9757 66.3537 43.8528C66.2347 43.7299 66.1407 43.5843 66.0774 43.4243C66.0141 43.2643 65.9826 43.0932 65.9848 42.9208Z" fill="black"/>
<path d="M35.8267 41.6131C35.8267 41.2159 36.018 40.9977 36.2816 40.9977H47.0987C47.1589 40.9977 47.2184 41.0098 47.274 41.0333C47.3295 41.0569 47.3798 41.0914 47.4222 41.1348C47.4645 41.1782 47.4979 41.2298 47.5205 41.2864C47.543 41.3431 47.5542 41.4037 47.5536 41.4648V42.8287C47.5536 42.9512 47.5057 43.0687 47.4204 43.1554C47.335 43.242 47.2193 43.2907 47.0987 43.2907H38.2942V48.9167H44.2702C44.3897 48.9205 44.5032 48.9704 44.5877 49.0563C44.6722 49.1421 44.7213 49.2574 44.7251 49.3787V50.717C44.7213 50.8384 44.6722 50.9536 44.5877 51.0395C44.5032 51.1253 44.3897 51.1752 44.2702 51.1791H38.2942V56.8085C38.2901 56.9297 38.2408 57.0448 38.1564 57.1304C38.072 57.2162 37.9586 57.2662 37.8393 57.2705H36.2816C36.1836 57.2732 36.0873 57.2449 36.0058 57.1897C35.9243 57.1344 35.8617 57.0548 35.8267 56.9619V41.6131Z" fill="black"/>
<path d="M51.9393 45.5565C54.8148 45.5565 56.9953 47.7233 56.9953 50.7153C56.9953 50.9096 56.9702 51.3001 56.9466 51.4944C56.9371 51.6245 56.8802 51.7462 56.7871 51.836C56.6941 51.9259 56.5714 51.9773 56.4431 51.9803H48.802C48.8254 53.4891 50.1667 55.049 52.1071 55.049C53.3779 55.049 54.1433 54.5871 54.8148 54.1011C55.0548 53.9307 55.2697 53.8573 55.4611 54.1489L56.109 55.1718C56.3004 55.4156 56.3961 55.6338 56.0603 55.9253C55.2697 56.638 53.8077 57.3199 51.9628 57.3199C48.6055 57.3199 46.4233 54.6433 46.4233 51.4314C46.4301 48.2621 48.6089 45.5565 51.9393 45.5565ZM54.6252 50.18C54.5764 48.8161 53.5222 47.6228 51.8939 47.6228C50.1448 47.6228 49.0907 48.765 48.9228 50.18H54.6252Z" fill="black"/>
<path d="M66.0635 46.339C66.0684 46.1989 66.1253 46.0659 66.2228 45.9667C66.3202 45.8674 66.451 45.8092 66.5888 45.8036H67.9318C68.0685 45.8132 68.1971 45.8727 68.294 45.9711C68.3909 46.0695 68.4494 46.2002 68.4588 46.339V56.5101C68.4535 56.6504 68.3962 56.7834 68.2985 56.8826C68.2008 56.9818 68.0699 57.04 67.9318 57.0455H66.5888C66.4496 57.0442 66.3165 56.9873 66.2182 56.8871C66.1199 56.7869 66.0643 56.6516 66.0635 56.5101V46.339Z" fill="black"/>
<path d="M76.3162 45.5565C78.0419 45.5565 79.311 46.2145 80.345 47.5034C80.3925 47.5617 80.4278 47.6292 80.4488 47.7018C80.4698 47.7744 80.476 47.8506 80.467 47.9258C80.458 48.0009 80.4342 48.0734 80.3967 48.1388C80.3592 48.2042 80.3092 48.2612 80.2493 48.3064L79.3831 49.1128C79.0709 49.4043 78.8561 49.186 78.6647 48.9917C78.1611 48.4325 77.2748 47.8716 76.3885 47.8716C74.4949 47.8716 73.0311 49.4298 73.0311 51.4246C73.0311 53.4192 74.4681 55.0047 76.3129 55.0047C77.7498 55.0047 78.3273 54.1778 78.9248 53.617C78.9686 53.5616 79.0234 53.5161 79.0855 53.4834C79.1476 53.4508 79.2157 53.4315 79.2855 53.4271C79.3553 53.4226 79.4253 53.4328 79.4909 53.4573C79.5566 53.4818 79.6165 53.5199 79.6668 53.5692L80.4087 54.1778C80.6723 54.42 80.7932 54.6893 80.6018 54.9809C80.1366 55.7086 79.4973 56.3048 78.7438 56.7139C77.9904 57.1229 77.1471 57.3314 76.2928 57.3199C73.2024 57.3199 70.6392 54.8377 70.6392 51.4553C70.6392 48.1393 73.2494 45.5565 76.3162 45.5565Z" fill="black"/>
<path d="M82.6411 46.339C82.6465 46.1987 82.7038 46.0658 82.8015 45.9665C82.8992 45.8673 83.0302 45.8092 83.1683 45.8036H84.5111C84.6478 45.8132 84.7765 45.8727 84.8733 45.9711C84.9702 46.0695 85.0288 46.2002 85.0383 46.339V56.5101C85.0328 56.6504 84.9756 56.7834 84.8778 56.8826C84.7802 56.9818 84.6492 57.04 84.5111 57.0455H83.1683C83.0289 57.0442 82.8955 56.9873 82.797 56.8872C82.6984 56.7871 82.6425 56.6517 82.6411 56.5101V46.339Z" fill="black"/>
<path d="M87.1559 56.1691C87.0583 56.1135 86.9845 56.0231 86.9489 55.9153C86.9132 55.8076 86.9182 55.6902 86.9629 55.5861L87.4664 54.5393C87.5873 54.2955 87.8979 54.2222 88.1849 54.3927C88.8332 54.7575 89.6237 55.2195 90.9409 55.2195C91.8745 55.2195 92.4013 54.7575 92.4013 54.125C92.4013 53.3714 91.5625 52.8839 90.0297 52.1781C88.3293 51.4007 87.0351 50.4733 87.0351 48.6269C87.0351 47.2152 88.017 45.5582 90.7013 45.5582C92.234 45.5582 93.3866 46.0219 93.9358 46.3867C94.0659 46.4728 94.1625 46.6036 94.2056 46.7553C94.2495 46.907 94.2383 47.0695 94.1745 47.2135L93.7918 47.9926C93.7599 48.056 93.7151 48.1122 93.6616 48.1577C93.6082 48.2033 93.5452 48.2373 93.478 48.2577C93.4107 48.2781 93.3409 48.2845 93.2711 48.2764C93.2013 48.2683 93.134 48.2461 93.0728 48.2108C92.3306 47.8542 91.522 47.6635 90.7013 47.6517C89.7426 47.6517 89.2875 48.1376 89.2875 48.649C89.2875 49.3787 90.078 49.8169 91.1797 50.3027C93.2159 51.179 94.7504 51.9343 94.7504 54.0261C94.7504 55.7855 93.2642 57.3199 90.7987 57.3199C89.4978 57.3199 88.2273 56.9185 87.1559 56.1691Z" fill="black"/>
<path d="M82.5395 42.9208C82.5352 42.7469 82.5652 42.5739 82.6275 42.412C82.6899 42.25 82.7834 42.1023 82.9027 41.9776C83.022 41.8528 83.1646 41.7534 83.3221 41.6853C83.4796 41.6171 83.649 41.5816 83.8202 41.5807C83.9962 41.5744 84.1717 41.604 84.3361 41.668C84.5006 41.732 84.6507 41.829 84.7774 41.9532C84.9041 42.0774 85.005 42.2262 85.0738 42.3909C85.1427 42.5555 85.1782 42.7325 85.1782 42.9114C85.1782 43.0902 85.1427 43.2673 85.0738 43.4319C85.005 43.5965 84.9041 43.7454 84.7774 43.8696C84.6507 43.9938 84.5006 44.0908 84.3361 44.1548C84.1717 44.2187 83.9962 44.2484 83.8202 44.242C83.6504 44.2416 83.4825 44.207 83.3259 44.1402C83.1694 44.0734 83.0275 43.9757 82.9084 43.8528C82.7893 43.7299 82.6953 43.5843 82.632 43.4243C82.5687 43.2643 82.5372 43.0932 82.5395 42.9208Z" fill="black"/>
<path d="M63.7835 56.7641C63.7836 56.8399 63.7682 56.9148 63.7382 56.9842C63.7082 57.0536 63.6644 57.116 63.6095 57.1672C63.5545 57.2185 63.4897 57.2577 63.4191 57.2822C63.3486 57.3067 63.2737 57.316 63.1994 57.3097C61.7378 57.1767 60.6327 56.5254 59.8841 55.356C59.3637 54.5308 59.1035 53.3419 59.1035 51.7894V42.6991C59.1035 42.6275 59.1174 42.5565 59.1444 42.4903C59.1714 42.4242 59.211 42.364 59.2608 42.3133C59.3108 42.2627 59.37 42.2225 59.4352 42.1951C59.5003 42.1677 59.5702 42.1536 59.6407 42.1536H60.9551C61.0256 42.1536 61.0954 42.1677 61.1606 42.1951C61.2258 42.2225 61.285 42.2627 61.3349 42.3133C61.3848 42.364 61.4244 42.4242 61.4514 42.4903C61.4783 42.5565 61.4922 42.6275 61.4922 42.6991V51.7894C61.4922 52.8464 61.6355 53.6062 61.922 54.0688C62.2051 54.5518 62.6678 54.836 63.3102 54.9212C63.4399 54.9377 63.5593 55.0013 63.6464 55.1003C63.7334 55.1994 63.7821 55.3272 63.7835 55.4599V56.7641Z" fill="black"/>
<path d="M26.2101 50.7443C24.8186 51.329 22.9183 51.1569 17.0649 48.6984C19.4889 42.7537 20.7126 41.267 22.1008 40.6857C23.4891 40.1043 25.2903 40.6038 26.0758 42.532C26.2979 43.0305 26.4434 43.5606 26.5073 44.1039C26.5198 44.2983 26.5629 44.4894 26.6349 44.6699C26.7103 44.8492 26.8128 45.0154 26.9386 45.1626C27.2734 45.5909 27.5417 46.0687 27.7343 46.5793C28.5216 48.5109 27.6 50.1596 26.2101 50.7443Z" fill="black"/>
<path d="M9.99747 57.5638C11.3873 56.979 12.6111 55.4924 15.0334 49.5509C9.18333 47.0908 7.28144 46.9204 5.89154 47.4966C4.50163 48.0728 3.58006 49.73 4.36566 51.6581C4.55901 52.17 4.8291 52.6485 5.16636 53.0766C5.29284 53.2237 5.39591 53.3899 5.47188 53.5693C5.54231 53.7503 5.58533 53.9412 5.59945 54.1353C5.6616 54.6812 5.80596 55.2143 6.0275 55.7157C6.80807 57.6456 8.60588 58.1485 9.99747 57.5638Z" fill="black"/>
<path d="M18.5486 60.9871C19.0526 60.7895 19.5241 60.5152 19.947 60.174C20.0913 60.0456 20.2544 59.9409 20.4305 59.8636C20.6087 59.7923 20.7967 59.7486 20.9877 59.734C21.5244 59.6732 22.0486 59.5289 22.5422 59.3061C24.4407 58.5065 24.9375 56.6807 24.3618 55.2673C23.7861 53.854 22.3205 52.6129 16.4722 50.1528C14.0483 56.0959 13.8771 58.0275 14.4579 59.4391C15.0386 60.8508 16.6501 61.785 18.5486 60.9871Z" fill="black"/>
<path d="M7.73611 42.9736C8.31188 44.3852 9.77733 45.628 15.6257 48.0881C18.0547 42.1468 18.2242 40.2152 17.6484 38.8035C17.0726 37.3919 15.4494 36.456 13.5509 37.2538C13.0468 37.4511 12.5753 37.7253 12.1526 38.067C12.0072 38.1947 11.8437 38.2993 11.6674 38.3773C11.4894 38.4493 11.3013 38.4924 11.1101 38.5052C10.5723 38.5666 10.0469 38.7115 9.55239 38.9348C7.65722 39.7344 7.16034 41.5603 7.73611 42.9736Z" fill="black"/>
</svg>
