<svg width="25" height="25" viewBox="0 0 25 25" fill="none" xmlns="http://www.w3.org/2000/svg">
<path fill-rule="evenodd" clip-rule="evenodd" d="M3.125 7.29167C3.125 7.0154 3.23475 6.75045 3.4301 6.5551C3.62545 6.35975 3.8904 6.25 4.16667 6.25H20.8333C21.1096 6.25 21.3746 6.35975 21.5699 6.5551C21.7653 6.75045 21.875 7.0154 21.875 7.29167C21.875 7.56793 21.7653 7.83289 21.5699 8.02824C21.3746 8.22359 21.1096 8.33333 20.8333 8.33333H4.16667C3.8904 8.33333 3.62545 8.22359 3.4301 8.02824C3.23475 7.83289 3.125 7.56793 3.125 7.29167ZM6.25 12.5C6.25 12.2237 6.35975 11.9588 6.5551 11.7634C6.75045 11.5681 7.0154 11.4583 7.29167 11.4583H17.7083C17.9846 11.4583 18.2496 11.5681 18.4449 11.7634C18.6403 11.9588 18.75 12.2237 18.75 12.5C18.75 12.7763 18.6403 13.0412 18.4449 13.2366C18.2496 13.4319 17.9846 13.5417 17.7083 13.5417H7.29167C7.0154 13.5417 6.75045 13.4319 6.5551 13.2366C6.35975 13.0412 6.25 12.7763 6.25 12.5ZM9.375 17.7083C9.375 17.4321 9.48475 17.1671 9.6801 16.9718C9.87545 16.7764 10.1404 16.6667 10.4167 16.6667H14.5833C14.8596 16.6667 15.1246 16.7764 15.3199 16.9718C15.5153 17.1671 15.625 17.4321 15.625 17.7083C15.625 17.9846 15.5153 18.2496 15.3199 18.4449C15.1246 18.6403 14.8596 18.75 14.5833 18.75H10.4167C10.1404 18.75 9.87545 18.6403 9.6801 18.4449C9.48475 18.2496 9.375 17.9846 9.375 17.7083Z" fill="#000"/>
</svg>
