<svg width="56" height="56" viewBox="0 0 56 56" fill="none" xmlns="http://www.w3.org/2000/svg">
<circle cx="35.4756" cy="23.0019" r="11.7642" stroke="#EDEEF7" stroke-width="1.5"/>
<circle cx="35.4766" cy="23.0018" r="8.35303" stroke="#705B8C" stroke-width="1.5"/>
<path d="M42.6685 32.4164L48.5275 38.2754C49.1712 38.9191 50.2148 38.9191 50.8585 38.2754L50.9266 38.2074C51.5703 37.5637 51.5703 36.52 50.9266 35.8763L45.0675 30.0173" stroke="#EDEEF7" stroke-width="1.5"/>
<path fill-rule="evenodd" clip-rule="evenodd" d="M28.2394 13.7258C25.8116 12.2907 22.9794 11.4672 19.9549 11.4672C10.9504 11.4672 3.65088 18.7667 3.65088 27.7712C3.65088 36.7756 10.9504 44.0752 19.9549 44.0752C26.4658 44.0752 32.0853 40.2587 34.6983 34.7408C34.1645 34.706 33.6405 34.6356 33.1285 34.5319C31.1613 38.3573 27.5769 41.2146 23.2785 42.2006C23.372 41.9942 23.4534 41.7847 23.53 41.5875L23.5449 41.5493C23.6868 41.1844 23.8283 40.8237 24.0289 40.4448C25.2934 38.0564 24.6471 35.4716 24.1045 33.3017L24.0937 33.2582C23.9203 32.5649 23.5957 32.0303 23.1468 31.6186C22.71 31.2182 22.1898 30.9657 21.674 30.7756C21.2781 30.6296 20.8414 30.5061 20.4192 30.3867C20.3019 30.3535 20.1858 30.3207 20.0719 30.2877C19.5293 30.1308 18.9951 29.961 18.4732 29.7212C17.0275 29.057 15.6819 29.422 14.5401 29.9738C14.0031 30.2334 13.4781 30.5504 12.9921 30.8439L12.9128 30.8918C12.391 31.2068 11.9148 31.4901 11.4488 31.7018C10.7559 32.0168 10.2706 32.429 9.98862 32.9213C9.70349 33.4192 9.66678 33.9288 9.7485 34.3547C9.83762 34.8192 10.0192 35.2517 10.1837 35.6081C10.6824 36.6886 11.9682 37.7522 14.3926 37.664C14.8195 37.6485 15.1244 37.6429 15.3501 37.6526C15.4429 37.6565 15.5135 37.6627 15.5673 37.6701C15.5715 37.702 15.5761 37.7428 15.5806 37.7942C15.5872 37.8701 15.593 37.9612 15.5996 38.0667C15.6231 38.4395 15.6577 38.9909 15.7829 39.6759C15.9068 40.3536 16.1188 41.174 16.4943 42.1685C11.8973 41.0676 8.13391 37.8222 6.32077 33.5489C6.7143 32.6129 7.34654 31.231 8.04751 29.93C8.42087 29.237 8.80841 28.577 9.18485 28.0235C9.56856 27.4594 9.91184 27.0494 10.1893 26.8198C10.5935 26.4853 11.0149 26.2183 11.4372 25.974C11.5815 25.8906 11.7366 25.8041 11.8933 25.7167C12.1647 25.5653 12.4413 25.411 12.6754 25.265C13.0626 25.0236 13.46 24.7323 13.7575 24.3366C14.0707 23.9199 14.2463 23.4239 14.2463 22.8291C14.2463 21.6436 13.607 20.9133 13.0463 20.4044C12.9215 20.2911 12.7941 20.183 12.6795 20.0859L12.6455 20.057C12.518 19.9488 12.4078 19.8543 12.3087 19.761C12.1059 19.5702 12.0038 19.4331 11.9559 19.3168C11.8021 18.9431 11.52 18.6464 11.2466 18.4212C10.9645 18.1889 10.6349 17.9865 10.3103 17.8156C10.0072 17.656 9.69161 17.5151 9.39435 17.3965C12.0803 14.6627 15.8196 12.9672 19.9549 12.9672C22.5299 12.9672 24.9515 13.6246 27.0607 14.7808C27.4293 14.4036 27.8231 14.051 28.2394 13.7258ZM5.15088 27.7712C5.15088 24.3091 6.33926 21.1247 8.33036 18.6035C8.7019 18.7274 9.17832 18.9148 9.61146 19.1429C9.88204 19.2853 10.1163 19.4335 10.2928 19.5789C10.4779 19.7315 10.549 19.8397 10.5689 19.8879C10.7382 20.2991 11.024 20.6119 11.2808 20.8535C11.4114 20.9764 11.5489 21.0937 11.6748 21.2006L11.707 21.2279C11.8247 21.3277 11.933 21.4196 12.0382 21.5151C12.4859 21.9215 12.7463 22.2772 12.7463 22.8291C12.7463 23.103 12.6738 23.2819 12.5584 23.4353C12.4274 23.6097 12.2159 23.7838 11.8817 23.9923C11.6714 24.1234 11.4586 24.2417 11.218 24.3755C11.0559 24.4656 10.8812 24.5628 10.6862 24.6756C10.2301 24.9393 9.72853 25.2541 9.23294 25.6642C8.79059 26.0303 8.35252 26.5801 7.94454 27.1799C7.52929 27.7905 7.1148 28.4987 6.72699 29.2185C6.32234 29.9695 5.94094 30.7439 5.61176 31.4507C5.31086 30.2742 5.15088 29.0414 5.15088 27.7712ZM20.4338 42.5597C20.4108 42.562 20.3881 42.5653 20.3659 42.5696C20.2293 42.5733 20.0923 42.5752 19.9549 42.5752C19.3742 42.5752 18.8013 42.5417 18.238 42.4767C17.6675 41.1613 17.3964 40.1607 17.2585 39.4062C17.1511 38.8188 17.1239 38.3908 17.1005 38.0223C17.0925 37.8972 17.085 37.779 17.0749 37.6637C17.0571 37.4597 17.0261 37.1912 16.9144 36.9456C16.7798 36.6494 16.5528 36.4328 16.2479 36.3062C15.9878 36.1982 15.694 36.1659 15.414 36.1539C15.1227 36.1415 14.7644 36.1495 14.3381 36.165C12.4351 36.2342 11.7577 35.4391 11.5456 34.9795C11.3928 34.6486 11.2752 34.3511 11.2216 34.0721C11.1978 33.9478 11.2073 33.8116 11.2902 33.6668C11.3763 33.5166 11.5808 33.2895 12.0695 33.0674C12.6274 32.8138 13.1762 32.4849 13.6878 32.1761L13.7473 32.1402C14.2503 31.8365 14.7206 31.5526 15.1929 31.3243C16.1657 30.8542 16.9966 30.6936 17.8469 31.0842C18.473 31.3719 19.0937 31.5663 19.6552 31.7287C19.7912 31.768 19.9217 31.805 20.0476 31.8406C20.4586 31.957 20.8192 32.0591 21.1552 32.183C21.5841 32.3411 21.9 32.5106 22.133 32.7242C22.3538 32.9267 22.5325 33.1983 22.6384 33.622C23.2107 35.911 23.6642 37.9278 22.7032 39.743C22.457 40.208 22.2875 40.6438 22.1468 41.0056C21.9996 41.3843 21.8944 41.6512 21.7648 41.8709C21.6464 42.0717 21.522 42.2059 21.3534 42.307C21.1764 42.4132 20.8998 42.513 20.4338 42.5597Z" fill="#EDEEF7"/>
<path d="M26.1684 15.8057C25.8361 15.9642 25.4837 16.1588 25.116 16.4009C23.821 17.2538 23.2272 17.7616 22.7658 18.3028C22.5929 18.5056 22.4391 18.7134 22.2859 18.9203C22.2464 18.9737 22.2067 19.0273 22.167 19.0804C21.9674 19.3474 21.7293 19.6547 21.3752 20.0531C21.091 20.3728 20.5105 20.7469 19.7514 21.2245L19.6988 21.2576C19.0182 21.6857 18.2157 22.1904 17.6848 22.7319C17.4099 23.0122 17.1381 23.3697 17.0307 23.8025C16.9117 24.282 17.0176 24.7589 17.331 25.1754C17.6195 25.5586 18.0681 25.8737 18.6255 26.15C19.1924 26.4311 19.9308 26.7007 20.8632 26.9636C22.4852 27.4211 23.7544 27.7056 24.7722 27.8908C24.5299 27.3612 24.3258 26.8104 24.1633 26.2421C23.3546 26.0711 22.4033 25.8395 21.2704 25.52C20.3878 25.271 19.7455 25.0311 19.2918 24.8061C18.8284 24.5764 18.6164 24.3887 18.5296 24.2734C18.4739 24.1994 18.4816 24.1779 18.4855 24.1671L18.4865 24.1638C18.5006 24.1073 18.5613 23.9804 18.7558 23.7821C19.1497 23.3803 19.8047 22.9632 20.5502 22.4942L20.6186 22.4511C21.2817 22.0342 22.0513 21.5503 22.4963 21.0496C22.8869 20.6103 23.1522 20.2677 23.3683 19.9786C23.4187 19.9113 23.4648 19.849 23.5082 19.7905C23.6559 19.5912 23.7709 19.4359 23.9073 19.2759C24.0634 19.0929 24.2494 18.9023 24.5373 18.6634C24.9471 17.631 25.4988 16.6704 26.1684 15.8057Z" fill="#EDEEF7"/>
</svg>
