<svg width="30" height="30" viewBox="0 0 30 30" fill="none" xmlns="http://www.w3.org/2000/svg">
<path d="M15 2.5C8.09375 2.5 2.5 8.09375 2.5 15C2.49858 17.6241 3.32352 20.182 4.85777 22.3108C6.39202 24.4397 8.55768 26.0313 11.0475 26.86C11.6725 26.9688 11.9063 26.5937 11.9063 26.265C11.9063 25.9687 11.89 24.985 11.89 23.9375C8.75 24.5162 7.9375 23.1725 7.6875 22.4688C7.54625 22.1088 6.9375 21 6.40625 20.7025C5.96875 20.4688 5.34375 19.89 6.39 19.875C7.375 19.8587 8.0775 20.7812 8.3125 21.1562C9.4375 23.0462 11.235 22.515 11.9525 22.1875C12.0625 21.375 12.39 20.8288 12.75 20.5163C9.96875 20.2038 7.0625 19.125 7.0625 14.3438C7.0625 12.9838 7.54625 11.86 8.34375 10.9837C8.21875 10.6712 7.78125 9.39 8.46875 7.67125C8.46875 7.67125 9.515 7.34375 11.9063 8.95375C12.9238 8.67133 13.9752 8.52918 15.0313 8.53125C16.0938 8.53125 17.1563 8.67125 18.1563 8.9525C20.5463 7.3275 21.5938 7.6725 21.5938 7.6725C22.2813 9.39125 21.8438 10.6725 21.7188 10.985C22.515 11.86 23 12.9688 23 14.3438C23 19.1413 20.0788 20.2038 17.2975 20.5163C17.75 20.9062 18.1413 21.6562 18.1413 22.8288C18.1413 24.5 18.125 25.8438 18.125 26.2663C18.125 26.5938 18.36 26.9837 18.985 26.8587C21.4663 26.021 23.6224 24.4262 25.1499 22.2989C26.6774 20.1716 27.4993 17.6189 27.5 15C27.5 8.09375 21.9063 2.5 15 2.5Z" fill="#000"/>
</svg>
