<svg width="24" height="24" viewBox="0 0 24 24" fill="none" xmlns="http://www.w3.org/2000/svg">
<path d="M5.88322 18.6528C5.58322 18.4528 5.32522 18.1978 5.02322 17.8368C4.86647 17.6449 4.71113 17.4519 4.55722 17.2578C4.09422 16.6828 3.80222 16.4178 3.50022 16.3088C3.25052 16.2191 3.04666 16.034 2.93348 15.794C2.8203 15.5541 2.80708 15.279 2.89672 15.0293C2.98637 14.7796 3.17153 14.5757 3.41149 14.4625C3.65144 14.3494 3.92652 14.3361 4.17622 14.4258C4.92822 14.6958 5.43722 15.1608 6.12322 16.0138C6.02922 15.8968 6.46322 16.4408 6.55622 16.5528C6.74622 16.7798 6.88622 16.9178 6.99622 16.9908C7.20022 17.1278 7.58322 17.1868 8.14622 17.1308C8.16922 16.7488 8.24022 16.3778 8.34822 16.0358C5.38022 15.3098 3.70022 13.3958 3.70022 9.63978C3.70022 8.39978 4.07022 7.28378 4.75822 6.34778C4.54022 5.45378 4.57322 4.37278 5.06022 3.15578C5.11549 3.01811 5.2007 2.89447 5.30966 2.79381C5.41862 2.69315 5.54862 2.61799 5.69022 2.57378C5.77122 2.54978 5.81722 2.53878 5.89822 2.52678C6.70122 2.40378 7.83522 2.69678 9.31322 3.62278C10.194 3.41686 11.0957 3.31351 12.0002 3.31478C12.9122 3.31478 13.8182 3.41878 14.6842 3.62278C16.1612 2.68978 17.2972 2.39678 18.1062 2.52678C18.1912 2.53978 18.2632 2.55678 18.3242 2.57678C18.4631 2.62256 18.5902 2.69821 18.6966 2.79842C18.803 2.89863 18.8862 3.02095 18.9402 3.15678C19.4272 4.37278 19.4602 5.45378 19.2422 6.34678C19.9332 7.28278 20.3002 8.39178 20.3002 9.63978C20.3002 13.3968 18.6262 15.3048 15.6582 16.0318C15.7832 16.4468 15.8482 16.9108 15.8482 17.4118C15.8483 18.3171 15.8443 19.2225 15.8362 20.1278C16.0608 20.1768 16.2616 20.3016 16.405 20.4813C16.5483 20.6611 16.6253 20.8847 16.623 21.1145C16.6208 21.3444 16.5395 21.5664 16.3927 21.7433C16.2459 21.9202 16.0427 22.0412 15.8172 22.0858C14.6782 22.3138 13.8342 21.5538 13.8342 20.5608L13.8362 20.1148L13.8412 19.4098C13.8462 18.7018 13.8482 18.0718 13.8482 17.4118C13.8482 16.7148 13.6652 16.2598 13.4232 16.0518C12.7622 15.4818 13.0972 14.3968 13.9632 14.2998C16.9302 13.9668 18.3002 12.8178 18.3002 9.63978C18.3002 8.68478 17.9882 7.89578 17.3872 7.23578C17.2606 7.09702 17.1756 6.92541 17.142 6.74059C17.1084 6.55577 17.1275 6.36523 17.1972 6.19078C17.3632 5.77678 17.4342 5.23378 17.2932 4.57678L17.2832 4.57978C16.7922 4.71878 16.1732 5.01978 15.4252 5.52878C15.3046 5.61063 15.1676 5.66513 15.0237 5.68845C14.8798 5.71177 14.7325 5.70335 14.5922 5.66378C13.7481 5.43007 12.8761 5.31265 12.0002 5.31478C11.1102 5.31478 10.2282 5.43378 9.40822 5.66478C9.26844 5.70404 9.12179 5.71238 8.97846 5.68924C8.83512 5.6661 8.69855 5.61203 8.57822 5.53078C7.82622 5.02378 7.20422 4.72378 6.71022 4.58378C6.56622 5.23678 6.63722 5.77778 6.80222 6.19078C6.87203 6.36514 6.89133 6.55563 6.8579 6.74044C6.82448 6.92525 6.73968 7.09692 6.61322 7.23578C6.01622 7.88978 5.70022 8.69378 5.70022 9.63978C5.70022 12.8118 7.07122 13.9678 10.0222 14.2998C10.8872 14.3968 11.2232 15.4768 10.5662 16.0478C10.3742 16.2158 10.1372 16.7798 10.1372 17.4118V20.5618C10.1372 21.5478 9.30222 22.2868 8.17722 22.0898C7.94899 22.0497 7.74176 21.9316 7.59094 21.7557C7.44013 21.5798 7.35509 21.3569 7.35037 21.1252C7.34564 20.8936 7.42153 20.6674 7.56504 20.4855C7.70856 20.3036 7.91081 20.1771 8.13722 20.1278V19.1378C7.22722 19.1988 6.47522 19.0498 5.88322 18.6528V18.6528Z" fill="#000"/>
</svg>
