<svg width="22" height="20" viewBox="0 0 22 20" fill="none" xmlns="http://www.w3.org/2000/svg">
<path fill-rule="evenodd" clip-rule="evenodd" d="M10.9451 0.0751953C5.17071 0.0751953 0.488281 4.62015 0.488281 10.2271C0.488281 14.7125 3.48447 18.518 7.63928 19.8604C8.16187 19.9543 8.35374 19.6401 8.35374 19.372C8.35374 19.1299 8.34404 18.3302 8.33954 17.4819C5.43045 18.096 4.81659 16.2841 4.81659 16.2841C4.34092 15.1106 3.65555 14.7986 3.65555 14.7986C2.70681 14.1685 3.72707 14.1815 3.72707 14.1815C4.77711 14.2529 5.33001 15.2276 5.33001 15.2276C6.26265 16.7797 7.77625 16.331 8.37296 16.0716C8.46681 15.4156 8.73781 14.9674 9.03685 14.7141C6.71426 14.4573 4.2727 13.5868 4.2727 9.69686C4.2727 8.58848 4.68118 7.68285 5.3501 6.9719C5.24153 6.71603 4.88361 5.68364 5.4514 4.28527C5.4514 4.28527 6.32949 4.01242 8.32776 5.3259C9.16187 5.10096 10.0564 4.98816 10.9451 4.98429C11.8337 4.98816 12.729 5.10096 13.5646 5.3259C15.5605 4.01242 16.4374 4.28527 16.4374 4.28527C17.0065 5.68364 16.6485 6.71603 16.5399 6.9719C17.2104 7.68285 17.6161 8.58848 17.6161 9.69686C17.6161 13.5961 15.1698 14.4547 12.8414 14.706C13.2164 15.021 13.5506 15.6388 13.5506 16.586C13.5506 17.9442 13.5385 19.0374 13.5385 19.372C13.5385 19.6421 13.7267 19.9587 14.2568 19.859C18.4093 18.5151 21.4017 14.711 21.4017 10.2271C21.4017 4.62015 16.72 0.0751953 10.9451 0.0751953Z" fill="#000"/>
<path fill-rule="evenodd" clip-rule="evenodd" d="M4.4488 14.6512C4.42577 14.7018 4.34404 14.7167 4.26958 14.6821C4.19374 14.649 4.15114 14.5802 4.17573 14.5296C4.19824 14.4777 4.28014 14.4634 4.35581 14.4979C4.43183 14.5311 4.47512 14.6006 4.4488 14.6512Z" fill="#000"/>
<path fill-rule="evenodd" clip-rule="evenodd" d="M4.87235 15.1098C4.82248 15.1547 4.72499 15.1338 4.65884 15.0629C4.59045 14.9921 4.57763 14.8975 4.62819 14.8519C4.67962 14.807 4.77417 14.828 4.84274 14.8988C4.91114 14.9704 4.92447 15.0644 4.87235 15.1098Z" fill="#000"/>
<path fill-rule="evenodd" clip-rule="evenodd" d="M5.28465 15.6945C5.22058 15.7377 5.11581 15.6972 5.05105 15.6069C4.98698 15.5166 4.98698 15.4084 5.05244 15.365C5.11737 15.3216 5.22058 15.3606 5.2862 15.4502C5.3501 15.5418 5.3501 15.6503 5.28465 15.6945Z" fill="#000"/>
<path fill-rule="evenodd" clip-rule="evenodd" d="M5.84949 16.2594C5.79218 16.3207 5.6701 16.3042 5.58075 16.2205C5.48932 16.1386 5.46387 16.0225 5.52136 15.9611C5.57936 15.8996 5.70213 15.9169 5.79218 16C5.88291 16.0817 5.91062 16.1987 5.84949 16.2594Z" fill="#000"/>
<path fill-rule="evenodd" clip-rule="evenodd" d="M6.62871 16.5873C6.60343 16.6669 6.48586 16.703 6.36742 16.6692C6.24915 16.6344 6.17174 16.5413 6.19564 16.4609C6.22023 16.3809 6.33832 16.3432 6.45763 16.3794C6.57573 16.414 6.6533 16.5065 6.62871 16.5873Z" fill="#000"/>
<path fill-rule="evenodd" clip-rule="evenodd" d="M7.48447 16.6482C7.48742 16.7319 7.38698 16.8014 7.26265 16.8027C7.13763 16.8056 7.03651 16.7378 7.03512 16.6554C7.03512 16.5709 7.1333 16.5021 7.25832 16.5001C7.38265 16.4977 7.48447 16.565 7.48447 16.6482Z" fill="#000"/>
<path fill-rule="evenodd" clip-rule="evenodd" d="M8.28084 16.5166C8.29573 16.5983 8.20932 16.6822 8.08586 16.7044C7.96447 16.726 7.85209 16.6756 7.83668 16.5946C7.82161 16.5109 7.90958 16.427 8.03079 16.4053C8.15443 16.3844 8.26508 16.4335 8.28084 16.5166Z" fill="#000"/>
</svg>
