<svg width="19" height="20" viewBox="0 0 19 20" fill="none" xmlns="http://www.w3.org/2000/svg">
<path d="M3.96721 16.3168C3.66721 16.1168 3.40921 15.8618 3.10721 15.5008C2.95045 15.309 2.79511 15.116 2.64121 14.9218C2.17821 14.3468 1.88621 14.0818 1.58421 13.9728C1.33451 13.8832 1.13064 13.698 1.01747 13.4581C0.904287 13.2181 0.891065 12.943 0.980709 12.6933C1.07035 12.4436 1.25552 12.2398 1.49547 12.1266C1.73542 12.0134 2.01051 12.0002 2.26021 12.0898C3.01221 12.3598 3.52121 12.8248 4.20721 13.6778C4.11321 13.5608 4.54721 14.1048 4.64021 14.2168C4.83021 14.4438 4.97021 14.5818 5.08021 14.6548C5.28421 14.7918 5.66721 14.8508 6.23021 14.7948C6.25321 14.4128 6.32421 14.0418 6.43221 13.6998C3.46421 12.9738 1.78421 11.0598 1.78421 7.30384C1.78421 6.06384 2.15421 4.94784 2.84221 4.01184C2.62421 3.11784 2.65721 2.03684 3.14421 0.819841C3.19948 0.682177 3.28468 0.558532 3.39364 0.45787C3.50261 0.357208 3.6326 0.282049 3.77421 0.237841C3.85521 0.213841 3.90121 0.202841 3.98221 0.190841C4.78521 0.0678414 5.91921 0.360841 7.39721 1.28684C8.278 1.08092 9.17966 0.977571 10.0842 0.978842C10.9962 0.978842 11.9022 1.08284 12.7682 1.28684C14.2452 0.353841 15.3812 0.0608415 16.1902 0.190841C16.2752 0.203841 16.3472 0.220841 16.4082 0.240841C16.547 0.286618 16.6741 0.362275 16.7806 0.462484C16.887 0.562693 16.9702 0.685017 17.0242 0.820842C17.5112 2.03684 17.5442 3.11784 17.3262 4.01084C18.0172 4.94684 18.3842 6.05584 18.3842 7.30384C18.3842 11.0608 16.7102 12.9688 13.7422 13.6958C13.8672 14.1108 13.9322 14.5748 13.9322 15.0758C13.9323 15.9812 13.9283 16.8865 13.9202 17.7918C14.1448 17.8408 14.3456 17.9657 14.4889 18.1454C14.6322 18.3251 14.7093 18.5487 14.707 18.7786C14.7048 19.0084 14.6235 19.2305 14.4767 19.4074C14.3299 19.5843 14.1267 19.7052 13.9012 19.7498C12.7622 19.9778 11.9182 19.2178 11.9182 18.2248L11.9202 17.7788L11.9252 17.0738C11.9302 16.3658 11.9322 15.7358 11.9322 15.0758C11.9322 14.3788 11.7492 13.9238 11.5072 13.7158C10.8462 13.1458 11.1812 12.0608 12.0472 11.9638C15.0142 11.6308 16.3842 10.4818 16.3842 7.30384C16.3842 6.34884 16.0722 5.55984 15.4712 4.89984C15.3446 4.76109 15.2596 4.58947 15.226 4.40465C15.1924 4.21983 15.2115 4.02929 15.2812 3.85484C15.4472 3.44084 15.5182 2.89784 15.3772 2.24084L15.3672 2.24384C14.8762 2.38284 14.2572 2.68384 13.5092 3.19284C13.3886 3.2747 13.2515 3.32919 13.1076 3.35251C12.9638 3.37583 12.8165 3.36741 12.6762 3.32784C11.8321 3.09413 10.9601 2.97671 10.0842 2.97884C9.19421 2.97884 8.31221 3.09784 7.49221 3.32884C7.35243 3.3681 7.20577 3.37645 7.06244 3.35331C6.91911 3.33017 6.78253 3.27609 6.66221 3.19484C5.91021 2.68784 5.28821 2.38784 4.79421 2.24784C4.65021 2.90084 4.72121 3.44184 4.88621 3.85484C4.95602 4.0292 4.97531 4.21969 4.94189 4.4045C4.90846 4.58932 4.82366 4.76098 4.69721 4.89984C4.10021 5.55384 3.78421 6.35784 3.78421 7.30384C3.78421 10.4758 5.15521 11.6318 8.10621 11.9638C8.97121 12.0608 9.30721 13.1408 8.65021 13.7118C8.45821 13.8798 8.22121 14.4438 8.22121 15.0758V18.2258C8.22121 19.2118 7.38621 19.9508 6.26121 19.7538C6.03297 19.7138 5.82574 19.5957 5.67493 19.4197C5.52411 19.2438 5.43907 19.021 5.43435 18.7893C5.42963 18.5576 5.50551 18.3315 5.64903 18.1496C5.79255 17.9676 5.9948 17.8412 6.22121 17.7918V16.8018C5.31121 16.8628 4.55921 16.7138 3.96721 16.3168Z" fill="#000"/>
</svg>
