<svg width="25" height="25" viewBox="0 0 25 25" fill="none" xmlns="http://www.w3.org/2000/svg">
<path d="M12.7109 2.93555C7.18594 2.93555 2.71094 7.41055 2.71094 12.9355C2.7098 15.0348 3.36975 17.0812 4.59715 18.7842C5.82456 20.4873 7.55708 21.7606 9.54894 22.4235C10.0489 22.5105 10.2359 22.2105 10.2359 21.9475C10.2359 21.7105 10.2229 20.9235 10.2229 20.0855C7.71094 20.5485 7.06094 19.4735 6.86094 18.9105C6.74794 18.6225 6.26094 17.7355 5.83594 17.4975C5.48594 17.3105 4.98594 16.8475 5.82294 16.8355C6.61094 16.8225 7.17294 17.5605 7.36094 17.8605C8.26094 19.3725 9.69894 18.9475 10.2729 18.6855C10.3609 18.0355 10.6229 17.5985 10.9109 17.3485C8.68594 17.0985 6.36094 16.2355 6.36094 12.4105C6.36094 11.3225 6.74794 10.4235 7.38594 9.72255C7.28594 9.47255 6.93594 8.44755 7.48594 7.07255C7.48594 7.07255 8.32294 6.81055 10.2359 8.09855C11.05 7.87261 11.8911 7.75889 12.7359 7.76055C13.5859 7.76055 14.4359 7.87255 15.2359 8.09755C17.1479 6.79755 17.9859 7.07355 17.9859 7.07355C18.5359 8.44855 18.1859 9.47355 18.0859 9.72355C18.7229 10.4235 19.1109 11.3105 19.1109 12.4105C19.1109 16.2485 16.7739 17.0985 14.5489 17.3485C14.9109 17.6605 15.2239 18.2605 15.2239 19.1985C15.2239 20.5355 15.2109 21.6105 15.2109 21.9485C15.2109 22.2105 15.3989 22.5225 15.8989 22.4225C17.884 21.7523 19.6089 20.4765 20.8308 18.7747C22.0528 17.0729 22.7104 15.0307 22.7109 12.9355C22.7109 7.41055 18.2359 2.93555 12.7109 2.93555Z" fill="#000"/>
</svg>
