<svg width="50" height="50" viewBox="0 0 50 50" fill="none" xmlns="http://www.w3.org/2000/svg">
<path d="M7.87552 22.028C7.79697 22.028 7.77733 21.9887 7.81661 21.9298L8.22903 21.3995C8.26831 21.3406 8.36651 21.3013 8.44507 21.3013H15.4563C15.5349 21.3013 15.5545 21.3602 15.5152 21.4191L15.1814 21.9298C15.1421 21.9887 15.0439 22.0476 14.985 22.0476L7.87552 22.028Z" fill="#000"/>
<path d="M4.91132 23.8352C4.83276 23.8352 4.81312 23.7959 4.8524 23.737L5.26483 23.2067C5.30411 23.1478 5.40231 23.1085 5.48086 23.1085H14.4364C14.515 23.1085 14.5543 23.1674 14.5346 23.2263L14.3775 23.6977C14.3579 23.7762 14.2793 23.8155 14.2008 23.8155L4.91132 23.8352Z" fill="#000"/>
<path d="M9.66291 25.6422C9.58435 25.6422 9.56471 25.5833 9.60399 25.5244L9.87894 25.0334C9.91822 24.9745 9.99678 24.9156 10.0753 24.9156H14.0032C14.0818 24.9156 14.121 24.9745 14.121 25.053L14.0818 25.5244C14.0818 25.603 14.0032 25.6619 13.9443 25.6619L9.66291 25.6422Z" fill="#000"/>
<path d="M30.0479 21.6746C28.8106 21.9889 27.9662 22.2245 26.7485 22.5388C26.4539 22.6173 26.4343 22.637 26.179 22.3424C25.8844 22.0085 25.6683 21.7925 25.2559 21.5961C24.0186 20.9873 22.8206 21.164 21.7012 21.8907C20.3657 22.7548 19.6783 24.0314 19.698 25.6222C19.7176 27.1933 20.7978 28.4895 22.3493 28.7055C23.6848 28.8823 24.8042 28.411 25.688 27.4093C25.8647 27.1933 26.0219 26.9576 26.2182 26.6827C25.5112 26.6827 24.6275 26.6827 22.4278 26.6827C22.0154 26.6827 21.9172 26.4274 22.0547 26.0935C22.31 25.4847 22.7814 24.4634 23.0563 23.9528C23.1152 23.835 23.2527 23.6386 23.5473 23.6386C24.5489 23.6386 28.2411 23.6386 30.696 23.6386C30.6567 24.1688 30.6567 24.6991 30.5782 25.2294C30.3622 26.6434 29.8319 27.9396 28.9678 29.0787C27.5537 30.9444 25.7076 32.1032 23.3705 32.4174C21.4459 32.6727 19.6587 32.2995 18.0875 31.1212C16.6342 30.0214 15.8094 28.5681 15.5933 26.7612C15.338 24.6206 15.9665 22.6959 17.2627 21.0069C18.6571 19.1804 20.5032 18.0217 22.7617 17.6093C24.6078 17.2754 26.3754 17.4915 27.9662 18.5716C29.007 19.259 29.7533 20.2017 30.2443 21.3408C30.3622 21.5175 30.2836 21.6157 30.0479 21.6746Z" fill="#000"/>
<path d="M36.548 32.5349C34.7609 32.4957 33.1308 31.985 31.756 30.8067C30.5973 29.8051 29.8707 28.5285 29.635 27.0163C29.2815 24.797 29.8903 22.8331 31.2258 21.0852C32.6594 19.1998 34.3877 18.2178 36.7248 17.8054C38.728 17.4519 40.6134 17.6483 42.322 18.807C43.8735 19.8675 44.8359 21.3012 45.0912 23.1866C45.425 25.8379 44.6591 27.9982 42.8326 29.8444C41.5364 31.1602 39.9457 31.985 38.1192 32.3582C37.5889 32.4564 37.0587 32.476 36.548 32.5349ZM41.2222 24.6006C41.2026 24.3453 41.2026 24.1489 41.1633 23.9525C40.8098 22.0082 39.0226 20.9084 37.1569 21.3405C35.3304 21.7529 34.152 22.9116 33.72 24.7578C33.3665 26.2896 34.1128 27.8411 35.5268 28.4696C36.607 28.9409 37.6871 28.882 38.728 28.3518C40.2795 27.5465 41.124 26.2896 41.2222 24.6006Z" fill="#000"/>
</svg>
