<svg width="33" height="13" viewBox="0 0 33 13" fill="none" xmlns="http://www.w3.org/2000/svg">
<path d="M2.79279 3.82302C2.73047 3.82302 2.71489 3.79186 2.74605 3.74512L3.07324 3.32445C3.1044 3.27771 3.1823 3.24655 3.24462 3.24655H8.80681C8.86913 3.24655 8.88471 3.29329 8.85355 3.34003L8.58868 3.74512C8.55752 3.79186 8.47962 3.8386 8.43288 3.8386L2.79279 3.82302Z" fill="#000"/>
<path d="M0.441228 5.25671C0.378906 5.25671 0.363326 5.22555 0.394487 5.17881L0.721674 4.75814C0.752835 4.7114 0.830737 4.68024 0.893058 4.68024H7.9977C8.06002 4.68024 8.09118 4.72698 8.0756 4.77372L7.95096 5.14765C7.93538 5.20997 7.87306 5.24113 7.81074 5.24113L0.441228 5.25671Z" fill="#000"/>
<path d="M4.21076 6.6903C4.14844 6.6903 4.13286 6.64356 4.16402 6.59682L4.38214 6.20731C4.4133 6.16057 4.47563 6.11383 4.53795 6.11383H7.65402C7.71634 6.11383 7.7475 6.16057 7.7475 6.22289L7.71634 6.59682C7.71634 6.65914 7.65402 6.70588 7.60728 6.70588L4.21076 6.6903Z" fill="#000"/>
<path d="M20.3827 3.54273C19.4011 3.79202 18.7311 3.97898 17.7652 4.22827C17.5314 4.29059 17.5159 4.30617 17.3133 4.07246C17.0796 3.8076 16.9082 3.63621 16.581 3.48041C15.5995 2.99742 14.6491 3.13764 13.761 3.71412C12.7015 4.39965 12.1562 5.41237 12.1718 6.67438C12.1874 7.92081 13.0443 8.94912 14.2752 9.1205C15.3346 9.26072 16.2227 8.88679 16.9238 8.0922C17.064 7.92081 17.1887 7.73385 17.3445 7.51572C16.7836 7.51572 16.0825 7.51572 14.3375 7.51572C14.0103 7.51572 13.9324 7.31318 14.0414 7.04831C14.244 6.56532 14.6179 5.75514 14.836 5.35005C14.8828 5.25657 14.9918 5.10077 15.2256 5.10077C16.0202 5.10077 18.9493 5.10077 20.8968 5.10077C20.8656 5.52144 20.8656 5.94211 20.8033 6.36278C20.6319 7.48456 20.2113 8.51287 19.5257 9.41653C18.4039 10.8967 16.9394 11.8159 15.0853 12.0652C13.5585 12.2677 12.1406 11.9717 10.8942 11.0369C9.74127 10.1644 9.08689 9.01144 8.91551 7.57804C8.71296 5.87978 9.21154 4.35291 10.2398 3.013C11.346 1.56403 12.8106 0.644784 14.6023 0.317597C16.0669 0.0527306 17.4691 0.224115 18.7311 1.08103C19.5569 1.62635 20.1489 2.3742 20.5385 3.27786C20.6319 3.41809 20.5696 3.49599 20.3827 3.54273Z" fill="#000"/>
<path d="M25.5393 12.1584C24.1215 12.1273 22.8283 11.7222 21.7377 10.7874C20.8185 9.99277 20.242 8.98005 20.055 7.78036C19.7746 6.01978 20.2576 4.46175 21.317 3.07509C22.4544 1.57938 23.8255 0.800359 25.6795 0.473172C27.2687 0.192725 28.7645 0.348529 30.1199 1.26777C31.3508 2.10911 32.1142 3.24648 32.3168 4.74219C32.5816 6.84554 31.974 8.55938 30.525 10.0239C29.4967 11.0678 28.2347 11.7222 26.7857 12.0182C26.3651 12.0961 25.9444 12.1117 25.5393 12.1584ZM29.2474 5.86398C29.2319 5.66143 29.2319 5.50563 29.2007 5.34983C28.9203 3.80737 27.5024 2.93487 26.0223 3.27764C24.5733 3.60482 23.6385 4.52407 23.2957 5.98862C23.0153 7.20389 23.6073 8.43474 24.7291 8.93331C25.5861 9.30724 26.443 9.2605 27.2687 8.83983C28.4996 8.20103 29.1695 7.20389 29.2474 5.86398Z" fill="#000"/>
</svg>
