<svg width="272" height="47" viewBox="0 0 272 47" fill="none" xmlns="http://www.w3.org/2000/svg">
<path d="M105.502 16.7109L101.848 20.3096C100.99 19.4647 99.8309 18.9057 98.2089 18.9057C95.5097 18.9057 93.6012 20.9777 93.6012 23.9632C93.6012 27.4391 95.8506 29.1702 98.2904 29.1702C100.69 29.1702 102.066 28.2292 102.612 26.3623H98.1405V22.5722H107.628C107.71 23.1725 107.738 23.7451 107.738 24.2895C107.738 30.6559 103.007 33.8457 98.5223 33.8457C92.5244 33.8457 88.2988 29.7559 88.2988 23.9632C88.2988 18.1561 92.5244 14.0661 98.5223 14.0661C101.548 14.0661 103.88 15.0613 105.502 16.7109" fill="#FEFEFE"/>
<path d="M114.206 23.9631C114.206 26.88 116.129 28.8972 118.909 28.8972C121.691 28.8972 123.612 26.88 123.612 23.9631C123.612 21.0454 121.691 19.0284 118.909 19.0284C116.129 19.0284 114.206 21.0454 114.206 23.9631ZM128.997 23.9631C128.997 29.6605 124.812 33.8594 118.909 33.8594C113.007 33.8594 108.822 29.6605 108.822 23.9631C108.822 18.265 113.007 14.066 118.909 14.066C124.812 14.066 128.997 18.265 128.997 23.9631" fill="#FEFEFE"/>
<path d="M141.261 19.0678V22.4623H144.533C145.813 22.4623 146.754 21.9307 146.754 20.7722C146.754 19.6131 145.813 19.0678 144.533 19.0678H141.261ZM151.989 20.7722C151.989 23.7167 150.285 25.8291 147.054 26.4972L152.248 33.5039H146.141L141.547 26.7291H141.261V33.5039H136.08V14.4199H144.586C149.439 14.4199 151.989 16.9281 151.989 20.7722" fill="#FEFEFE"/>
<path d="M161.355 25.2434H165.268L163.318 19.6002L161.355 25.2434ZM173.637 33.5039H168.143L166.876 29.8641H159.746L158.492 33.5039H153.08L160.305 14.4199H166.412L173.637 33.5039" fill="#FEFEFE"/>
<path d="M174.795 33.5039H179.975V14.4199H174.795V33.5039V33.5039Z" fill="#FEFEFE"/>
<path d="M196.795 33.5039H182.428V14.4199H187.607V28.7331H196.795V33.5039" fill="#FEFEFE"/>
<path d="M211.906 20.3233C210.652 19.6139 208.758 18.7285 206.399 18.7285C205.009 18.7285 203.946 19.1099 203.946 19.9686C203.946 21.0454 205.895 21.1544 207.844 21.5366L208.458 21.6592C212.397 22.4226 214.401 24.3169 214.401 27.2476C214.401 32.0735 210.325 33.8594 206.263 33.8594C202.841 33.8594 199.734 33.0412 197.553 31.4869L200.088 27.2614C201.601 28.1748 203.428 29.2243 206.331 29.2243C207.721 29.2243 208.744 28.8429 208.744 27.9019C208.744 26.9067 207.558 26.7299 205.187 26.3212L204.464 26.1984C200.074 25.4488 198.248 23.5536 198.343 20.1729C198.438 16.5202 201.505 14.0798 206.086 14.0798C208.58 14.0798 210.83 14.3391 214.142 16.084L211.906 20.3233Z" fill="#FEFEFE"/>
<path d="M57.6816 34.3516L70.5158 13.5748L70.5336 13.7513L69.5362 30.9966L57.6816 34.3516Z" fill="white"/>
<path d="M83.3478 34.3516L70.5137 13.5748V13.8225L72.2723 30.9966L83.3478 34.3516Z" fill="white"/>
</svg>
