<svg width="57" height="56" viewBox="0 0 57 56" fill="none" xmlns="http://www.w3.org/2000/svg">
<path fill-rule="evenodd" clip-rule="evenodd" d="M27.1947 7.17003C27.4977 7.03145 27.8269 6.95972 28.16 6.95972C28.4932 6.95972 28.8224 7.03145 29.1253 7.17003L52.3295 17.779C52.734 17.9638 53.0768 18.261 53.3171 18.6352C53.5575 19.0093 53.6853 19.4447 53.6853 19.8894C53.6853 20.3341 53.5575 20.7694 53.3171 21.1436C53.0768 21.5177 52.734 21.8149 52.3295 21.9998L46.7234 24.5616V38.1638C46.7234 38.6302 46.6073 39.1407 46.3103 39.6164C45.5446 40.8486 40.1612 48.7287 28.16 48.7287C16.1565 48.7287 10.7778 40.8486 10.0097 39.6164C9.73885 39.1804 9.59574 38.6771 9.5967 38.1638V24.5616L3.99058 21.9998C3.58611 21.8149 3.24329 21.5177 3.00292 21.1436C2.76256 20.7694 2.63477 20.3341 2.63477 19.8894C2.63477 19.4447 2.76256 19.0093 3.00292 18.6352C3.24329 18.261 3.58611 17.9638 3.99058 17.779L27.1947 7.17235V7.17003ZM14.2375 26.6847V37.5907C15.3745 39.1663 19.607 44.0879 28.16 44.0879C36.7154 44.0879 40.9455 39.1663 42.0825 37.5907V26.6847L29.1253 32.6064C28.8224 32.745 28.4932 32.8167 28.16 32.8167C27.8269 32.8167 27.4977 32.745 27.1947 32.6064L14.2375 26.6847ZM10.5365 19.8859L12.8801 20.9579L28.16 27.9447L43.4377 20.9603L45.7813 19.8882L28.16 11.8341L10.5365 19.8859ZM54.8448 26.6847C54.8448 27.6079 54.4781 28.4932 53.8254 29.1459C53.1726 29.7987 52.2873 30.1654 51.3642 30.1654C50.4411 30.1654 49.5558 29.7987 48.903 29.1459C48.2503 28.4932 47.8836 27.6079 47.8836 26.6847C47.8836 25.7616 48.2503 24.8763 48.903 24.2236C49.5558 23.5708 50.4411 23.2041 51.3642 23.2041C52.2873 23.2041 53.1726 23.5708 53.8254 24.2236C54.4781 24.8763 54.8448 25.7616 54.8448 26.6847ZM53.6846 33.646C53.6846 33.0306 53.4401 32.4404 53.005 32.0052C52.5698 31.57 51.9796 31.3256 51.3642 31.3256C50.7488 31.3256 50.1586 31.57 49.7234 32.0052C49.2883 32.4404 49.0438 33.0306 49.0438 33.646V46.4083C49.0438 47.0237 49.2883 47.6139 49.7234 48.0491C50.1586 48.4842 50.7488 48.7287 51.3642 48.7287C51.9796 48.7287 52.5698 48.4842 53.005 48.0491C53.4401 47.6139 53.6846 47.0237 53.6846 46.4083V33.646Z" fill="black"/>
</svg>
