<svg width="21" height="21" viewBox="0 0 21 21" fill="none" xmlns="http://www.w3.org/2000/svg">
<path fill-rule="evenodd" clip-rule="evenodd" d="M0.0859375 3.66406C0.0859375 2.86841 0.402008 2.10535 0.964617 1.54274C1.52723 0.980133 2.29029 0.664063 3.08594 0.664062H17.0859C17.8816 0.664063 18.6446 0.980133 19.2073 1.54274C19.7699 2.10535 20.0859 2.86841 20.0859 3.66406V17.6641C20.0859 18.4597 19.7699 19.2228 19.2073 19.7854C18.6446 20.348 17.8816 20.6641 17.0859 20.6641H3.08594C2.29029 20.6641 1.52723 20.348 0.964617 19.7854C0.402008 19.2228 0.0859375 18.4597 0.0859375 17.6641V3.66406ZM3.08594 2.66406C2.82072 2.66406 2.56637 2.76942 2.37883 2.95696C2.19129 3.14449 2.08594 3.39885 2.08594 3.66406V8.66406H18.0859V3.66406C18.0859 3.39885 17.9806 3.14449 17.793 2.95696C17.6055 2.76942 17.3512 2.66406 17.0859 2.66406H3.08594ZM2.08594 10.6641V17.6641C2.08594 17.9293 2.19129 18.1836 2.37883 18.3712C2.56637 18.5587 2.82072 18.6641 3.08594 18.6641H17.0859C17.3512 18.6641 17.6055 18.5587 17.793 18.3712C17.9806 18.1836 18.0859 17.9293 18.0859 17.6641V10.6641H2.08594ZM12.0859 11.6641C12.3511 11.6641 12.6054 11.7695 12.7929 11.9571L16.7929 15.9571C16.9751 16.1457 17.0759 16.3983 17.0736 16.6605C17.0713 16.9227 16.9662 17.1735 16.7808 17.3589C16.5953 17.5443 16.3445 17.6495 16.0823 17.6517C15.8201 17.654 15.5675 17.5532 15.3789 17.3711L12.0859 14.0781L9.79294 16.3711L8.79294 17.3711C8.60433 17.5532 8.35173 17.654 8.08954 17.6517C7.82734 17.6495 7.57653 17.5443 7.39112 17.3589C7.20571 17.1735 7.10054 16.9227 7.09826 16.6605C7.09599 16.3983 7.19678 16.1457 7.37894 15.9571L7.67194 15.6641L7.08594 15.0781L4.79294 17.3711C4.60434 17.5532 4.35173 17.654 4.08954 17.6517C3.82734 17.6495 3.57653 17.5443 3.39112 17.3589C3.20571 17.1735 3.10054 16.9227 3.09826 16.6605C3.09598 16.3983 3.19678 16.1457 3.37894 15.9571L6.37894 12.9571C6.56647 12.7696 6.82077 12.6643 7.08594 12.6643C7.3511 12.6643 7.60541 12.7696 7.79294 12.9571L9.08594 14.2501L11.3789 11.9571C11.5664 11.7695 11.8207 11.6641 12.0859 11.6641ZM9.08594 5.66406C9.08594 5.39885 9.19129 5.14449 9.37883 4.95696C9.56637 4.76942 9.82072 4.66406 10.0859 4.66406H15.0859C15.3512 4.66406 15.6055 4.76942 15.793 4.95696C15.9806 5.14449 16.0859 5.39885 16.0859 5.66406C16.0859 5.92928 15.9806 6.18363 15.793 6.37117C15.6055 6.55871 15.3512 6.66406 15.0859 6.66406H10.0859C9.82072 6.66406 9.56637 6.55871 9.37883 6.37117C9.19129 6.18363 9.08594 5.92928 9.08594 5.66406ZM5.08594 7.41406C5.55007 7.41406 5.99519 7.22969 6.32337 6.9015C6.65156 6.57331 6.83594 6.12819 6.83594 5.66406C6.83594 5.19993 6.65156 4.75481 6.32337 4.42663C5.99519 4.09844 5.55007 3.91406 5.08594 3.91406C4.62181 3.91406 4.17669 4.09844 3.8485 4.42663C3.52031 4.75481 3.33594 5.19993 3.33594 5.66406C3.33594 6.12819 3.52031 6.57331 3.8485 6.9015C4.17669 7.22969 4.62181 7.41406 5.08594 7.41406Z" fill="#000"/>
</svg>
