<svg width="24" height="25" viewBox="0 0 24 25" fill="none" xmlns="http://www.w3.org/2000/svg">
<path fill-rule="evenodd" clip-rule="evenodd" d="M4 5.11768C3.73478 5.11768 3.48043 5.22303 3.29289 5.41057C3.10536 5.59811 3 5.85246 3 6.11768C3 6.38289 3.10536 6.63725 3.29289 6.82478C3.48043 7.01232 3.73478 7.11768 4 7.11768H20C20.2652 7.11768 20.5196 7.01232 20.7071 6.82478C20.8946 6.63725 21 6.38289 21 6.11768C21 5.85246 20.8946 5.59811 20.7071 5.41057C20.5196 5.22303 20.2652 5.11768 20 5.11768H4ZM3 12.1177C3 11.8525 3.10536 11.5981 3.29289 11.4106C3.48043 11.223 3.73478 11.1177 4 11.1177H20C20.2652 11.1177 20.5196 11.223 20.7071 11.4106C20.8946 11.5981 21 11.8525 21 12.1177C21 12.3829 20.8946 12.6372 20.7071 12.8248C20.5196 13.0123 20.2652 13.1177 20 13.1177H4C3.73478 13.1177 3.48043 13.0123 3.29289 12.8248C3.10536 12.6372 3 12.3829 3 12.1177ZM3 18.1177C3 17.8525 3.10536 17.5981 3.29289 17.4106C3.48043 17.223 3.73478 17.1177 4 17.1177H20C20.2652 17.1177 20.5196 17.223 20.7071 17.4106C20.8946 17.5981 21 17.8525 21 18.1177C21 18.3829 20.8946 18.6372 20.7071 18.8248C20.5196 19.0123 20.2652 19.1177 20 19.1177H4C3.73478 19.1177 3.48043 19.0123 3.29289 18.8248C3.10536 18.6372 3 18.3829 3 18.1177Z" fill="black"/>
</svg>
