<svg width="18" height="15" viewBox="0 0 18 15" fill="none" xmlns="http://www.w3.org/2000/svg">
<path fill-rule="evenodd" clip-rule="evenodd" d="M1 0.117676C0.734784 0.117676 0.48043 0.223033 0.292893 0.410569C0.105357 0.598106 0 0.852459 0 1.11768C0 1.38289 0.105357 1.63725 0.292893 1.82478C0.48043 2.01232 0.734784 2.11768 1 2.11768H17C17.2652 2.11768 17.5196 2.01232 17.7071 1.82478C17.8946 1.63725 18 1.38289 18 1.11768C18 0.852459 17.8946 0.598106 17.7071 0.410569C17.5196 0.223033 17.2652 0.117676 17 0.117676H1ZM0 7.11768C0 6.85246 0.105357 6.59811 0.292893 6.41057C0.48043 6.22303 0.734784 6.11768 1 6.11768H17C17.2652 6.11768 17.5196 6.22303 17.7071 6.41057C17.8946 6.59811 18 6.85246 18 7.11768C18 7.38289 17.8946 7.63725 17.7071 7.82478C17.5196 8.01232 17.2652 8.11768 17 8.11768H1C0.734784 8.11768 0.48043 8.01232 0.292893 7.82478C0.105357 7.63725 0 7.38289 0 7.11768ZM0 13.1177C0 12.8525 0.105357 12.5981 0.292893 12.4106C0.48043 12.223 0.734784 12.1177 1 12.1177H17C17.2652 12.1177 17.5196 12.223 17.7071 12.4106C17.8946 12.5981 18 12.8525 18 13.1177C18 13.3829 17.8946 13.6372 17.7071 13.8248C17.5196 14.0123 17.2652 14.1177 17 14.1177H1C0.734784 14.1177 0.48043 14.0123 0.292893 13.8248C0.105357 13.6372 0 13.3829 0 13.1177Z" fill="#000"/>
</svg>
