<svg width="272" height="47" viewBox="0 0 272 47" fill="none" xmlns="http://www.w3.org/2000/svg">
<g clip-path="url(#clip0_2330_10424)">
<g filter="url(#filter0_d_2330_10424)">
<path fill-rule="evenodd" clip-rule="evenodd" d="M54.4933 0.0917969C67.4214 0.0917969 77.9017 10.5721 77.9017 23.5002C77.9017 36.4282 67.4214 46.9085 54.4933 46.9085C41.5652 46.9085 31.085 36.4282 31.085 23.5002C31.085 10.5721 41.5652 0.0917969 54.4933 0.0917969ZM44.6941 13.6806C46.3125 13.6806 47.6151 14.9437 48.43 16.3419C49.6607 18.4536 51.9453 19.8722 54.5603 19.8722C57.1599 19.8722 59.4331 18.4702 60.6689 16.379C61.5047 14.9646 62.8266 13.6806 64.4695 13.6806C66.2746 13.6806 67.7379 15.1439 67.7379 16.9489V30.2808C67.7379 32.0859 66.2746 33.5492 64.4695 33.5492C62.8266 33.5492 61.5047 32.2651 60.6689 30.8506C59.4331 28.7595 57.1599 27.3576 54.5603 27.3576C51.9453 27.3576 49.6607 28.7761 48.43 30.8878C47.6151 32.286 46.3125 33.5492 44.6941 33.5492C42.9162 33.5492 41.4748 32.1078 41.4748 30.3299V16.8999C41.4748 15.1219 42.9162 13.6806 44.6941 13.6806Z" fill="white"/>
</g>
</g>
<path d="M94.5957 34.827V11.6094H99.5045V21.1889H109.47V11.6094H114.367V34.827H109.47V25.2361H99.5045V34.827H94.5957Z" fill="white"/>
<path d="M126.254 35.1676C124.463 35.1676 122.921 34.8048 121.628 34.0792C120.344 33.3461 119.354 32.3107 118.658 30.973C117.963 29.6277 117.615 28.0368 117.615 26.2002C117.615 24.409 117.963 22.837 118.658 21.4841C119.354 20.1313 120.332 19.0769 121.594 18.3212C122.864 17.5654 124.353 17.1875 126.061 17.1875C127.21 17.1875 128.279 17.3727 129.269 17.743C130.267 18.1057 131.136 18.6537 131.877 19.3868C132.625 20.12 133.207 21.042 133.623 22.153C134.038 23.2564 134.246 24.5488 134.246 26.0302V27.3566H119.543V24.3637H129.7C129.7 23.6683 129.549 23.0524 129.247 22.5158C128.944 21.9792 128.525 21.5597 127.988 21.2574C127.459 20.9475 126.843 20.7926 126.141 20.7926C125.407 20.7926 124.757 20.9627 124.191 21.3028C123.631 21.6353 123.193 22.085 122.876 22.6518C122.558 23.2111 122.396 23.8346 122.388 24.5224V27.3679C122.388 28.2295 122.547 28.974 122.864 29.6013C123.189 30.2285 123.646 30.7122 124.236 31.0523C124.825 31.3924 125.525 31.5625 126.333 31.5625C126.87 31.5625 127.361 31.4869 127.807 31.3358C128.253 31.1846 128.635 30.9579 128.952 30.6556C129.269 30.3532 129.511 29.9829 129.678 29.5445L134.144 29.8393C133.917 30.9125 133.453 31.8497 132.75 32.6508C132.054 33.4444 131.155 34.0641 130.052 34.51C128.956 34.9484 127.69 35.1676 126.254 35.1676Z" fill="white"/>
<path d="M142.234 11.6094V34.827H137.404V11.6094H142.234Z" fill="white"/>
<path d="M150.933 11.6094V34.827H146.104V11.6094H150.933Z" fill="white"/>
<path d="M162.67 35.1676C160.91 35.1676 159.386 34.7935 158.102 34.0452C156.824 33.2895 155.838 32.2389 155.143 30.8936C154.448 29.5408 154.1 27.9725 154.1 26.1889C154.1 24.3901 154.448 22.8181 155.143 21.4728C155.838 20.1199 156.824 19.0694 158.102 18.3212C159.386 17.5654 160.91 17.1875 162.67 17.1875C164.431 17.1875 165.95 17.5654 167.228 18.3212C168.512 19.0694 169.503 20.1199 170.198 21.4728C170.893 22.8181 171.241 24.3901 171.241 26.1889C171.241 27.9725 170.893 29.5408 170.198 30.8936C169.503 32.2389 168.512 33.2895 167.228 34.0452C165.95 34.7935 164.431 35.1676 162.67 35.1676ZM162.693 31.4265C163.494 31.4265 164.163 31.1997 164.7 30.7462C165.236 30.2852 165.641 29.6579 165.913 28.8643C166.193 28.0708 166.332 27.1676 166.332 26.1549C166.332 25.1421 166.193 24.2389 165.913 23.4454C165.641 22.6518 165.236 22.0245 164.7 21.5635C164.163 21.1024 163.494 20.8719 162.693 20.8719C161.884 20.8719 161.204 21.1024 160.653 21.5635C160.108 22.0245 159.696 22.6518 159.417 23.4454C159.145 24.2389 159.008 25.1421 159.008 26.1549C159.008 27.1676 159.145 28.0708 159.417 28.8643C159.696 29.6579 160.108 30.2852 160.653 30.7462C161.204 31.1997 161.884 31.4265 162.693 31.4265Z" fill="white"/>
<path d="M179.21 24.7604V34.8275H174.381V17.4142H178.984V20.4865H179.188C179.573 19.4738 180.219 18.6726 181.126 18.0831C182.033 17.486 183.133 17.1875 184.425 17.1875C185.635 17.1875 186.689 17.452 187.588 17.9811C188.488 18.5101 189.187 19.2659 189.685 20.2484C190.184 21.2234 190.434 22.3873 190.434 23.7401V34.8275H185.604V24.6017C185.612 23.5361 185.34 22.7047 184.788 22.1076C184.236 21.503 183.477 21.2007 182.509 21.2007C181.86 21.2007 181.285 21.3405 180.786 21.6202C180.295 21.8998 179.91 22.3079 179.63 22.8445C179.358 23.3736 179.218 24.0122 179.21 24.7604Z" fill="white"/>
<path d="M202.172 35.1676C200.381 35.1676 198.839 34.8048 197.547 34.0792C196.262 33.3461 195.271 32.3107 194.577 30.973C193.881 29.6277 193.533 28.0368 193.533 26.2002C193.533 24.409 193.881 22.837 194.577 21.4841C195.271 20.1313 196.25 19.0769 197.513 18.3212C198.782 17.5654 200.271 17.1875 201.979 17.1875C203.128 17.1875 204.197 17.3727 205.188 17.743C206.185 18.1057 207.054 18.6537 207.795 19.3868C208.543 20.12 209.125 21.042 209.541 22.153C209.957 23.2564 210.165 24.5488 210.165 26.0302V27.3566H195.461V24.3637H205.618C205.618 23.6683 205.467 23.0524 205.165 22.5158C204.863 21.9792 204.443 21.5597 203.906 21.2574C203.378 20.9475 202.761 20.7926 202.059 20.7926C201.325 20.7926 200.676 20.9627 200.109 21.3028C199.549 21.6353 199.111 22.085 198.794 22.6518C198.476 23.2111 198.314 23.8346 198.306 24.5224V27.3679C198.306 28.2295 198.465 28.974 198.782 29.6013C199.107 30.2285 199.565 30.7122 200.154 31.0523C200.744 31.3924 201.442 31.5625 202.251 31.5625C202.788 31.5625 203.279 31.4869 203.725 31.3358C204.171 31.1846 204.553 30.9579 204.87 30.6556C205.188 30.3532 205.429 29.9829 205.596 29.5445L210.063 29.8393C209.836 30.9125 209.371 31.8497 208.668 32.6508C207.973 33.4444 207.073 34.0641 205.97 34.51C204.874 34.9484 203.608 35.1676 202.172 35.1676Z" fill="white"/>
<path d="M217.043 17.4121L220.24 23.5L223.516 17.4121H228.47L223.425 26.1188L228.606 34.8254H223.675L220.24 28.8056L216.861 34.8254H211.873L217.043 26.1188L212.054 17.4121H217.043Z" fill="white"/>
<path d="M240.598 17.4141V21.0419H230.111V17.4141H240.598ZM232.492 13.2422H237.321V29.4764C237.321 29.9223 237.39 30.27 237.526 30.5194C237.661 30.7612 237.85 30.9313 238.092 31.0295C238.342 31.1278 238.629 31.1769 238.954 31.1769C239.18 31.1769 239.407 31.158 239.634 31.1203C239.861 31.0749 240.034 31.0409 240.156 31.0182L240.915 34.612C240.673 34.6875 240.333 34.7745 239.895 34.8727C239.457 34.9785 238.923 35.0427 238.296 35.0654C237.133 35.1108 236.112 34.9559 235.236 34.6006C234.366 34.2454 233.69 33.6937 233.206 32.9455C232.723 32.1972 232.484 31.2525 232.492 30.1113V13.2422Z" fill="white"/>
<defs>
<filter id="filter0_d_2330_10424" x="31.0771" y="0.0839844" width="46.832" height="46.832" filterUnits="userSpaceOnUse" color-interpolation-filters="sRGB">
<feFlood flood-opacity="0" result="BackgroundImageFix"/>
<feColorMatrix in="SourceAlpha" type="matrix" values="0 0 0 0 0 0 0 0 0 0 0 0 0 0 0 0 0 0 127 0" result="hardAlpha"/>
<feOffset/>
<feGaussianBlur stdDeviation="0.00390625"/>
<feColorMatrix type="matrix" values="0 0 0 0 0 0 0 0 0 0 0 0 0 0 0 0 0 0 0.25 0"/>
<feBlend mode="normal" in2="BackgroundImageFix" result="effect1_dropShadow_2330_10424"/>
<feBlend mode="normal" in="SourceGraphic" in2="effect1_dropShadow_2330_10424" result="shape"/>
</filter>
<clipPath id="clip0_2330_10424">
<rect width="46.8167" height="46.8167" fill="white" transform="translate(31.084 0.0917969)"/>
</clipPath>
</defs>
</svg>
