<svg width="272" height="47" viewBox="0 0 272 47" fill="none" xmlns="http://www.w3.org/2000/svg">
<path d="M32.2391 39.3236C41.5367 39.3236 49.0739 31.748 49.0739 22.403C49.0739 13.058 41.5367 5.48242 32.2391 5.48242C22.9415 5.48242 15.4043 13.058 15.4043 22.403C15.4043 31.748 22.9415 39.3236 32.2391 39.3236Z" fill="white"/>
<path d="M49.0743 22.4034C49.0743 13.0584 41.537 5.48285 32.2395 5.48285C22.9418 5.48285 15.4046 13.0584 15.4046 22.4034C15.4046 31.7484 22.9418 39.324 32.2395 39.324C41.537 39.324 49.0743 31.7484 49.0743 22.4034ZM13.4668 22.4034C13.4668 11.9828 21.8716 3.53516 32.2395 3.53516C42.6073 3.53516 51.0121 11.9828 51.0121 22.4034C51.0121 32.824 42.6073 41.2717 32.2395 41.2717C21.8716 41.2717 13.4668 32.824 13.4668 22.4034Z" fill="#14002D"/>
<path d="M37.7089 17.7982C38.3263 18.0173 38.572 19.293 39.1957 18.9597C40.3769 18.3284 40.8253 16.8543 40.1972 15.6671C39.5692 14.4799 38.1025 14.0292 36.9213 14.6605C35.7401 15.2917 35.2917 16.7659 35.9198 17.9531C36.2162 18.5134 37.1571 17.6023 37.7089 17.7982Z" fill="#14002D"/>
<path d="M26.2967 17.7982C25.6793 18.0173 25.4337 19.293 24.81 18.9597C23.6288 18.3284 23.1804 16.8543 23.8084 15.6671C24.4365 14.4799 25.9032 14.0292 27.0844 14.6605C28.2656 15.2917 28.714 16.7659 28.0859 17.9531C27.7895 18.5134 26.8486 17.6023 26.2967 17.7982Z" fill="#14002D"/>
<path d="M32.1182 29.4824C36.8796 29.4824 38.4161 25.2155 38.4161 23.0244C38.4161 21.8856 37.6545 22.2441 36.4347 22.8511C35.3074 23.412 33.7888 24.1852 32.1182 24.1852C28.64 24.1852 25.8203 20.8333 25.8203 23.0244C25.8203 25.2155 27.3568 29.4824 32.1182 29.4824Z" fill="#3A3B45"/>
<path d="M17.8563 25.4473C17.072 25.4473 16.371 25.7711 15.8822 26.3583C15.5799 26.722 15.264 27.3083 15.2383 28.1862C14.9094 28.0913 14.593 28.0382 14.2975 28.0382C13.5466 28.0382 12.8684 28.3274 12.3888 28.8528C11.7725 29.5272 11.4988 30.3559 11.618 31.1852C11.6747 31.5801 11.806 31.934 12.0022 32.2617C11.5884 32.5982 11.2837 33.0666 11.1364 33.63C11.0211 34.0716 10.9029 34.9914 11.5201 35.939C11.4809 36.0008 11.4441 36.0651 11.4097 36.1308C11.0386 36.8388 11.0149 37.6388 11.3423 38.3838C11.8389 39.513 13.0728 40.4026 15.4689 41.3575C16.9596 41.9515 18.3233 42.3313 18.3355 42.3347C20.3062 42.8484 22.0885 43.1094 23.6315 43.1094C26.4675 43.1094 28.4979 42.2364 29.6664 40.5146C31.547 37.7421 31.2782 35.2062 28.8447 32.7618C27.4979 31.4091 26.6027 29.4147 26.4162 28.977C26.0402 27.6808 25.0461 26.24 23.3936 26.24H23.3932C23.2541 26.24 23.1136 26.2512 22.9751 26.2731C22.2513 26.3875 21.6186 26.8063 21.1666 27.4363C20.6788 26.8267 20.205 26.3417 19.7762 26.0681C19.13 25.6562 18.4842 25.4473 17.8563 25.4473ZM17.8563 27.395C18.1034 27.395 18.4052 27.5006 18.738 27.7129C19.7714 28.3717 21.7654 31.8167 22.4955 33.1567C22.7401 33.6057 23.1582 33.7956 23.5346 33.7956C24.2817 33.7956 24.8649 33.0491 23.6029 32.1006C21.7053 30.6734 22.371 28.3406 23.2769 28.1969C23.3166 28.1906 23.3559 28.1877 23.3936 28.1877C24.2172 28.1877 24.5806 29.6143 24.5806 29.6143C24.5806 29.6143 25.6454 32.3022 27.4747 34.1393C29.304 35.977 29.3985 37.4519 28.0652 39.4171C27.1559 40.7571 25.4153 41.1617 23.6315 41.1617C21.7814 41.1617 19.8847 40.7264 18.8218 40.4494C18.7695 40.4357 12.3054 38.6005 13.1242 37.0385C13.2618 36.776 13.4885 36.6708 13.7738 36.6708C14.9268 36.6708 17.024 38.3955 17.9256 38.3955C18.1271 38.3955 18.2691 38.3093 18.3272 38.099C18.7114 36.7137 12.4861 36.1313 13.0108 34.1247C13.1033 33.7697 13.3543 33.6256 13.707 33.6261C15.2306 33.6261 18.6489 36.3193 19.3654 36.3193C19.4201 36.3193 19.4594 36.3032 19.4807 36.2691C19.8397 35.6868 19.643 35.2802 17.1127 33.741C14.5824 32.2014 12.8064 31.2752 13.8165 30.1699C13.9327 30.0424 14.0974 29.9859 14.2975 29.9859C15.8337 29.9864 19.4633 33.3062 19.4633 33.3062C19.4633 33.3062 20.4428 34.3302 21.0353 34.3302C21.1715 34.3302 21.2872 34.2761 21.3657 34.1427C21.7857 33.4309 17.4644 30.1393 17.2207 28.7812C17.0555 27.8609 17.3365 27.395 17.8563 27.395Z" fill="#14002D"/>
<path d="M28.0653 39.4167C29.3985 37.4515 29.3041 35.9766 27.4748 34.1389C25.6455 32.3018 24.5806 29.6139 24.5806 29.6139C24.5806 29.6139 24.1829 28.0529 23.277 28.1965C22.371 28.3402 21.7059 30.673 23.6035 32.1002C25.5011 33.5269 23.2256 34.4963 22.4955 33.1563C21.7655 31.8163 19.7719 28.3713 18.7381 27.7125C17.7048 27.0537 16.9771 27.4228 17.2208 28.7808C17.4645 30.1388 21.7863 33.4304 21.3658 34.1428C20.9453 34.8547 19.4633 33.3058 19.4633 33.3058C19.4633 33.3058 14.8261 29.0642 13.8165 30.1695C12.8069 31.2748 14.5825 32.201 17.1128 33.7406C19.6436 35.2798 19.8398 35.6864 19.4808 36.2687C19.1213 36.8511 13.5355 32.1177 13.0109 34.1243C12.4867 36.1309 18.7115 36.7133 18.3273 38.0986C17.9431 39.4844 13.9425 35.4765 13.1242 37.0381C12.3055 38.6001 18.7696 40.4353 18.8219 40.449C20.9099 40.9933 26.2128 42.1469 28.0653 39.4167Z" fill="white"/>
<path d="M46.8641 25.4473C47.6485 25.4473 48.3495 25.7711 48.8383 26.3583C49.1406 26.722 49.4565 27.3083 49.4821 28.1862C49.8111 28.0913 50.1274 28.0382 50.4229 28.0382C51.1739 28.0382 51.8521 28.3274 52.3317 28.8528C52.9479 29.5272 53.2216 30.3559 53.1025 31.1852C53.0458 31.5801 52.9145 31.934 52.7183 32.2617C53.132 32.5982 53.4367 33.0666 53.584 33.63C53.6993 34.0716 53.8175 34.9914 53.2003 35.939C53.2396 36.0008 53.2764 36.0651 53.3108 36.1308C53.6819 36.8388 53.7056 37.6388 53.3781 38.3838C52.8816 39.513 51.6477 40.4026 49.2515 41.3575C47.7609 41.9515 46.3971 42.3313 46.385 42.3347C44.4142 42.8484 42.6319 43.1094 41.089 43.1094C38.253 43.1094 36.2226 42.2364 35.0541 40.5146C33.1734 37.7421 33.4423 35.2062 35.8757 32.7618C37.2225 31.4091 38.1178 29.4147 38.3043 28.977C38.6802 27.6808 39.6743 26.24 41.3268 26.24H41.3273C41.4663 26.24 41.6068 26.2512 41.7454 26.2731C42.4692 26.3875 43.1019 26.8063 43.5539 27.4363C44.0417 26.8267 44.5155 26.3417 44.9442 26.0681C45.5905 25.6562 46.2363 25.4473 46.8641 25.4473ZM46.8641 27.395C46.6171 27.395 46.3153 27.5006 45.9824 27.7129C44.9491 28.3717 42.9551 31.8167 42.225 33.1567C41.9803 33.6057 41.5623 33.7956 41.1858 33.7956C40.4388 33.7956 39.8555 33.0491 41.1175 32.1006C43.0151 30.6734 42.3495 28.3406 41.4436 28.1969C41.4038 28.1906 41.3646 28.1877 41.3268 28.1877C40.5032 28.1877 40.1399 29.6143 40.1399 29.6143C40.1399 29.6143 39.0751 32.3022 37.2458 34.1393C35.4165 35.977 35.322 37.4519 36.6552 39.4171C37.5645 40.7571 39.3052 41.1617 41.089 41.1617C42.9391 41.1617 44.8357 40.7264 45.8986 40.4494C45.9509 40.4357 52.415 38.6005 51.5963 37.0385C51.4587 36.776 51.232 36.6708 50.9466 36.6708C49.7936 36.6708 47.6964 38.3955 46.7949 38.3955C46.5933 38.3955 46.4514 38.3093 46.3933 38.099C46.0091 36.7137 52.2343 36.1313 51.7097 34.1247C51.6171 33.7697 51.3662 33.6256 51.0135 33.6261C49.4899 33.6261 46.0716 36.3193 45.3551 36.3193C45.3003 36.3193 45.2611 36.3032 45.2398 36.2691C44.8808 35.6868 45.0775 35.2802 47.6078 33.741C50.1381 32.2014 51.9141 31.2752 50.904 30.1699C50.7877 30.0424 50.623 29.9859 50.4229 29.9859C48.8867 29.9864 45.2572 33.3062 45.2572 33.3062C45.2572 33.3062 44.2776 34.3302 43.6851 34.3302C43.549 34.3302 43.4332 34.2761 43.3547 34.1427C42.9347 33.4309 47.2561 30.1393 47.4997 28.7812C47.6649 27.8609 47.384 27.395 46.8641 27.395Z" fill="#14002D"/>
<path d="M36.6556 39.4167C35.3224 37.4515 35.4169 35.9766 37.2462 34.1389C39.0755 32.3018 40.1403 29.6139 40.1403 29.6139C40.1403 29.6139 40.538 28.0529 41.444 28.1965C42.3499 28.3402 43.015 30.673 41.1174 32.1002C39.2198 33.5269 41.4953 34.4963 42.2254 33.1563C42.9555 31.8163 44.949 28.3713 45.9828 27.7125C47.0162 27.0537 47.7438 27.4228 47.5001 28.7808C47.2565 30.1388 42.9346 33.4304 43.3551 34.1428C43.7756 34.8547 45.2576 33.3058 45.2576 33.3058C45.2576 33.3058 49.8948 29.0642 50.9044 30.1695C51.914 31.2748 50.1385 32.201 47.6082 33.7406C45.0774 35.2798 44.8812 35.6864 45.2401 36.2687C45.5996 36.8511 51.1854 32.1177 51.71 34.1243C52.2342 36.1309 46.0095 36.7133 46.3936 38.0986C46.7778 39.4844 50.7784 35.4765 51.5967 37.0381C52.4154 38.6001 45.9513 40.4353 45.899 40.449C43.811 40.9933 38.5082 42.1469 36.6556 39.4167Z" fill="white"/>
<path d="M32.1182 29.4824C36.8796 29.4824 38.4161 25.2155 38.4161 23.0244C38.4161 21.8856 37.6545 22.2441 36.4347 22.8511C35.3074 23.412 33.7888 24.1852 32.1182 24.1852C28.64 24.1852 25.8203 20.8333 25.8203 23.0244C25.8203 25.2155 27.3568 29.4824 32.1182 29.4824Z" fill="#14002D"/>
<path d="M70.9688 34.9525V13.2183H75.8689V21.5853H83.3692V13.2183H88.3027V34.9525H83.3692V25.8855H75.8689V34.9525H70.9688Z" fill="white"/>
<path d="M97.9974 35.3525C96.1973 35.3525 94.8862 34.7636 94.0639 33.5858C93.2639 32.3857 92.8639 30.7523 92.8639 28.6856V18.4185H97.764V28.0522C97.764 29.23 97.9307 30.0523 98.2641 30.519C98.5974 30.9634 99.1196 31.1857 99.8308 31.1857C100.453 31.1857 100.975 31.0412 101.398 30.7523C101.82 30.4634 102.275 29.9967 102.764 29.3523V18.4185H107.664V34.9525H103.664L103.298 32.6524H103.198C102.509 33.4746 101.753 34.1302 100.931 34.6191C100.109 35.108 99.1308 35.3525 97.9974 35.3525Z" fill="white"/>
<path d="M117.877 41.9861C116.588 41.9861 115.421 41.8416 114.377 41.5527C113.332 41.2638 112.499 40.8083 111.877 40.186C111.254 39.5638 110.943 38.7637 110.943 37.7859C110.943 36.4525 111.732 35.3414 113.31 34.4525V34.3191C112.888 34.0302 112.521 33.6635 112.21 33.2191C111.921 32.7746 111.777 32.2079 111.777 31.519C111.777 30.919 111.954 30.3412 112.31 29.7856C112.665 29.23 113.11 28.7745 113.643 28.4189V28.2856C113.065 27.8855 112.543 27.3077 112.077 26.5522C111.632 25.7966 111.41 24.941 111.41 23.9854C111.41 22.652 111.732 21.552 112.377 20.6853C113.021 19.7963 113.866 19.1297 114.91 18.6852C115.954 18.2407 117.066 18.0185 118.243 18.0185C119.221 18.0185 120.077 18.1518 120.81 18.4185H126.844V21.9853H124.21C124.366 22.2298 124.488 22.5409 124.577 22.9187C124.688 23.2965 124.744 23.7076 124.744 24.1521C124.744 25.4188 124.455 26.4633 123.877 27.2855C123.299 28.1078 122.521 28.7189 121.544 29.1189C120.566 29.5189 119.466 29.719 118.243 29.719C117.599 29.719 116.932 29.6078 116.243 29.3856C115.843 29.7189 115.643 30.1301 115.643 30.619C115.643 31.0412 115.832 31.3523 116.21 31.5524C116.588 31.7524 117.232 31.8524 118.143 31.8524H120.81C122.855 31.8524 124.41 32.1857 125.477 32.8524C126.566 33.4969 127.11 34.5636 127.11 36.0525C127.11 37.1859 126.733 38.1971 125.977 39.086C125.222 39.9971 124.155 40.7083 122.777 41.2194C121.399 41.7305 119.766 41.9861 117.877 41.9861ZM118.243 26.7522C118.888 26.7522 119.421 26.5188 119.844 26.0521C120.288 25.5855 120.51 24.8965 120.51 23.9854C120.51 23.1187 120.288 22.4631 119.844 22.0187C119.421 21.552 118.888 21.3186 118.243 21.3186C117.599 21.3186 117.055 21.5409 116.61 21.9853C116.188 22.4298 115.977 23.0965 115.977 23.9854C115.977 24.8965 116.188 25.5855 116.61 26.0521C117.055 26.5188 117.599 26.7522 118.243 26.7522ZM118.643 38.9193C119.755 38.9193 120.666 38.7193 121.377 38.3193C122.088 37.9193 122.444 37.4415 122.444 36.8859C122.444 36.3748 122.221 36.0303 121.777 35.8525C121.355 35.6747 120.732 35.5858 119.91 35.5858H118.21C117.655 35.5858 117.188 35.5636 116.81 35.5192C116.455 35.4969 116.143 35.4525 115.877 35.3858C115.277 35.9192 114.977 36.4637 114.977 37.0192C114.977 37.6415 115.31 38.1082 115.977 38.4193C116.666 38.7526 117.555 38.9193 118.643 38.9193Z" fill="white"/>
<path d="M135.683 41.9861C134.395 41.9861 133.228 41.8416 132.183 41.5527C131.139 41.2638 130.305 40.8083 129.683 40.186C129.061 39.5638 128.75 38.7637 128.75 37.7859C128.75 36.4525 129.539 35.3414 131.117 34.4525V34.3191C130.694 34.0302 130.328 33.6635 130.017 33.2191C129.728 32.7746 129.583 32.2079 129.583 31.519C129.583 30.919 129.761 30.3412 130.117 29.7856C130.472 29.23 130.917 28.7745 131.45 28.4189V28.2856C130.872 27.8855 130.35 27.3077 129.883 26.5522C129.439 25.7966 129.217 24.941 129.217 23.9854C129.217 22.652 129.539 21.552 130.183 20.6853C130.828 19.7963 131.672 19.1297 132.717 18.6852C133.761 18.2407 134.872 18.0185 136.05 18.0185C137.028 18.0185 137.884 18.1518 138.617 18.4185H144.65V21.9853H142.017C142.173 22.2298 142.295 22.5409 142.384 22.9187C142.495 23.2965 142.55 23.7076 142.55 24.1521C142.55 25.4188 142.261 26.4633 141.684 27.2855C141.106 28.1078 140.328 28.7189 139.35 29.1189C138.372 29.5189 137.272 29.719 136.05 29.719C135.406 29.719 134.739 29.6078 134.05 29.3856C133.65 29.7189 133.45 30.1301 133.45 30.619C133.45 31.0412 133.639 31.3523 134.017 31.5524C134.395 31.7524 135.039 31.8524 135.95 31.8524H138.617C140.661 31.8524 142.217 32.1857 143.284 32.8524C144.373 33.4969 144.917 34.5636 144.917 36.0525C144.917 37.1859 144.539 38.1971 143.784 39.086C143.028 39.9971 141.961 40.7083 140.584 41.2194C139.206 41.7305 137.572 41.9861 135.683 41.9861ZM136.05 26.7522C136.695 26.7522 137.228 26.5188 137.65 26.0521C138.095 25.5855 138.317 24.8965 138.317 23.9854C138.317 23.1187 138.095 22.4631 137.65 22.0187C137.228 21.552 136.695 21.3186 136.05 21.3186C135.406 21.3186 134.861 21.5409 134.417 21.9853C133.994 22.4298 133.783 23.0965 133.783 23.9854C133.783 24.8965 133.994 25.5855 134.417 26.0521C134.861 26.5188 135.406 26.7522 136.05 26.7522ZM136.45 38.9193C137.561 38.9193 138.472 38.7193 139.184 38.3193C139.895 37.9193 140.25 37.4415 140.25 36.8859C140.25 36.3748 140.028 36.0303 139.584 35.8525C139.161 35.6747 138.539 35.5858 137.717 35.5858H136.017C135.461 35.5858 134.995 35.5636 134.617 35.5192C134.261 35.4969 133.95 35.4525 133.683 35.3858C133.083 35.9192 132.783 36.4637 132.783 37.0192C132.783 37.6415 133.117 38.1082 133.783 38.4193C134.472 38.7526 135.361 38.9193 136.45 38.9193Z" fill="white"/>
<path d="M147.59 34.9525V18.4185H152.49V34.9525H147.59ZM150.023 15.9851C149.201 15.9851 148.534 15.7518 148.023 15.2851C147.512 14.8184 147.257 14.1961 147.257 13.4183C147.257 12.6405 147.512 12.0183 148.023 11.5516C148.534 11.0849 149.201 10.8516 150.023 10.8516C150.846 10.8516 151.512 11.0849 152.023 11.5516C152.535 12.0183 152.79 12.6405 152.79 13.4183C152.79 14.1961 152.535 14.8184 152.023 15.2851C151.512 15.7518 150.846 15.9851 150.023 15.9851Z" fill="white"/>
<path d="M156.802 34.9525V18.4185H160.803L161.136 20.5186H161.269C161.98 19.8519 162.758 19.2741 163.603 18.7852C164.469 18.2741 165.458 18.0185 166.57 18.0185C168.37 18.0185 169.67 18.6185 170.47 19.8186C171.292 20.9964 171.703 22.6187 171.703 24.6854V34.9525H166.803V25.3188C166.803 24.1187 166.636 23.2965 166.303 22.852C165.992 22.4076 165.481 22.1853 164.769 22.1853C164.147 22.1853 163.614 22.3298 163.169 22.6187C162.725 22.8854 162.236 23.2743 161.703 23.7854V34.9525H156.802Z" fill="white"/>
<path d="M181.779 41.9861C180.49 41.9861 179.323 41.8416 178.279 41.5527C177.234 41.2638 176.401 40.8083 175.779 40.186C175.156 39.5638 174.845 38.7637 174.845 37.7859C174.845 36.4525 175.634 35.3414 177.212 34.4525V34.3191C176.79 34.0302 176.423 33.6635 176.112 33.2191C175.823 32.7746 175.679 32.2079 175.679 31.519C175.679 30.919 175.857 30.3412 176.212 29.7856C176.568 29.23 177.012 28.7745 177.545 28.4189V28.2856C176.968 27.8855 176.445 27.3077 175.979 26.5522C175.534 25.7966 175.312 24.941 175.312 23.9854C175.312 22.652 175.634 21.552 176.279 20.6853C176.923 19.7963 177.768 19.1297 178.812 18.6852C179.857 18.2407 180.968 18.0185 182.146 18.0185C183.123 18.0185 183.979 18.1518 184.712 18.4185H190.746V21.9853H188.113C188.268 22.2298 188.39 22.5409 188.479 22.9187C188.59 23.2965 188.646 23.7076 188.646 24.1521C188.646 25.4188 188.357 26.4633 187.779 27.2855C187.201 28.1078 186.424 28.7189 185.446 29.1189C184.468 29.5189 183.368 29.719 182.146 29.719C181.501 29.719 180.834 29.6078 180.146 29.3856C179.746 29.7189 179.546 30.1301 179.546 30.619C179.546 31.0412 179.734 31.3523 180.112 31.5524C180.49 31.7524 181.134 31.8524 182.046 31.8524H184.712C186.757 31.8524 188.313 32.1857 189.379 32.8524C190.468 33.4969 191.013 34.5636 191.013 36.0525C191.013 37.1859 190.635 38.1971 189.879 39.086C189.124 39.9971 188.057 40.7083 186.679 41.2194C185.301 41.7305 183.668 41.9861 181.779 41.9861ZM182.146 26.7522C182.79 26.7522 183.323 26.5188 183.746 26.0521C184.19 25.5855 184.412 24.8965 184.412 23.9854C184.412 23.1187 184.19 22.4631 183.746 22.0187C183.323 21.552 182.79 21.3186 182.146 21.3186C181.501 21.3186 180.957 21.5409 180.512 21.9853C180.09 22.4298 179.879 23.0965 179.879 23.9854C179.879 24.8965 180.09 25.5855 180.512 26.0521C180.957 26.5188 181.501 26.7522 182.146 26.7522ZM182.546 38.9193C183.657 38.9193 184.568 38.7193 185.279 38.3193C185.99 37.9193 186.346 37.4415 186.346 36.8859C186.346 36.3748 186.124 36.0303 185.679 35.8525C185.257 35.6747 184.635 35.5858 183.812 35.5858H182.112C181.557 35.5858 181.09 35.5636 180.712 35.5192C180.357 35.4969 180.046 35.4525 179.779 35.3858C179.179 35.9192 178.879 36.4637 178.879 37.0192C178.879 37.6415 179.212 38.1082 179.879 38.4193C180.568 38.7526 181.457 38.9193 182.546 38.9193Z" fill="white"/>
<path d="M200.759 34.9525V13.2183H214.459V17.3518H205.659V22.3853H213.193V26.5188H205.659V34.9525H200.759Z" fill="white"/>
<path d="M220.737 35.3525C219.226 35.3525 218.026 34.8747 217.137 33.9191C216.248 32.9413 215.804 31.7524 215.804 30.3523C215.804 28.6189 216.537 27.2633 218.004 26.2855C219.47 25.3077 221.837 24.6521 225.104 24.3187C225.06 23.5854 224.837 23.0076 224.437 22.5853C224.06 22.1409 223.415 21.9187 222.504 21.9187C221.815 21.9187 221.115 22.052 220.404 22.3187C219.693 22.5853 218.937 22.952 218.137 23.4187L216.37 20.1853C217.415 19.5408 218.526 19.0185 219.704 18.6185C220.904 18.2185 222.148 18.0185 223.437 18.0185C225.548 18.0185 227.171 18.6296 228.304 19.8519C229.438 21.0742 230.004 22.952 230.004 25.4855V34.9525H226.004L225.671 33.2524H225.537C224.848 33.8747 224.104 34.3858 223.304 34.7858C222.526 35.1636 221.671 35.3525 220.737 35.3525ZM222.404 31.5524C222.96 31.5524 223.437 31.4301 223.837 31.1857C224.26 30.919 224.682 30.5745 225.104 30.1523V27.2522C223.371 27.4744 222.171 27.83 221.504 28.3189C220.837 28.7856 220.504 29.3412 220.504 29.9856C220.504 30.519 220.671 30.919 221.004 31.1857C221.359 31.4301 221.826 31.5524 222.404 31.5524Z" fill="white"/>
<path d="M241.349 35.3525C239.816 35.3525 238.427 35.0192 237.183 34.3525C235.96 33.6635 234.983 32.6746 234.249 31.3857C233.538 30.0745 233.182 28.5078 233.182 26.6855C233.182 24.841 233.582 23.2743 234.383 21.9853C235.183 20.6964 236.238 19.7186 237.549 19.0519C238.86 18.363 240.272 18.0185 241.783 18.0185C242.805 18.0185 243.705 18.1852 244.483 18.5185C245.283 18.8519 245.994 19.2741 246.616 19.7852L244.316 22.952C243.538 22.3076 242.794 21.9853 242.083 21.9853C240.905 21.9853 239.961 22.4076 239.249 23.252C238.56 24.0965 238.216 25.241 238.216 26.6855C238.216 28.1078 238.56 29.2523 239.249 30.119C239.961 30.9634 240.849 31.3857 241.916 31.3857C242.449 31.3857 242.972 31.2746 243.483 31.0523C243.994 30.8079 244.461 30.519 244.883 30.1856L246.816 33.3858C245.994 34.0969 245.105 34.608 244.15 34.9191C243.194 35.208 242.261 35.3525 241.349 35.3525Z" fill="white"/>
<path d="M256.166 35.3525C254.588 35.3525 253.166 35.008 251.899 34.3191C250.632 33.6302 249.632 32.6413 248.899 31.3523C248.166 30.0634 247.799 28.5078 247.799 26.6855C247.799 24.8854 248.166 23.3409 248.899 22.052C249.655 20.7631 250.632 19.7741 251.832 19.0852C253.032 18.3741 254.288 18.0185 255.599 18.0185C257.177 18.0185 258.477 18.3741 259.499 19.0852C260.544 19.7741 261.322 20.7186 261.833 21.9187C262.366 23.0965 262.633 24.441 262.633 25.9521C262.633 26.3744 262.611 26.7966 262.566 27.2189C262.522 27.6189 262.477 27.9189 262.433 28.1189H252.532C252.755 29.3189 253.255 30.2079 254.032 30.7857C254.81 31.3412 255.744 31.619 256.833 31.619C258.01 31.619 259.199 31.2523 260.399 30.519L262.033 33.4858C261.188 34.0636 260.244 34.5191 259.199 34.8525C258.155 35.1858 257.144 35.3525 256.166 35.3525ZM252.499 24.8854H258.466C258.466 23.9743 258.244 23.2298 257.799 22.652C257.377 22.052 256.677 21.752 255.699 21.752C254.944 21.752 254.266 22.0187 253.666 22.552C253.066 23.0631 252.677 23.8409 252.499 24.8854Z" fill="white"/>
</svg>
