<svg width="19" height="13" viewBox="0 0 19 13" fill="none" xmlns="http://www.w3.org/2000/svg">
<path fill-rule="evenodd" clip-rule="evenodd" d="M6.79272 0.956849C6.98019 1.14438 7.08551 1.39868 7.08551 1.66385C7.08551 1.92901 6.98019 2.18332 6.79272 2.37085L2.49972 6.66385L6.79272 10.9568C6.97488 11.1455 7.07568 11.3981 7.0734 11.6602C7.07112 11.9224 6.96595 12.1733 6.78054 12.3587C6.59513 12.5441 6.34432 12.6492 6.08212 12.6515C5.81993 12.6538 5.56733 12.553 5.37872 12.3708L0.378724 7.37085C0.191253 7.18332 0.0859375 6.92901 0.0859375 6.66385C0.0859375 6.39868 0.191253 6.14438 0.378724 5.95685L5.37872 0.956849C5.56625 0.769378 5.82056 0.664062 6.08572 0.664062C6.35089 0.664062 6.6052 0.769378 6.79272 0.956849ZM11.3787 0.956849C11.5663 0.769378 11.8206 0.664062 12.0857 0.664062C12.3509 0.664062 12.6052 0.769378 12.7927 0.956849L17.7927 5.95685C17.9802 6.14438 18.0855 6.39868 18.0855 6.66385C18.0855 6.92901 17.9802 7.18332 17.7927 7.37085L12.7927 12.3708C12.6041 12.553 12.3515 12.6538 12.0893 12.6515C11.8271 12.6492 11.5763 12.5441 11.3909 12.3587C11.2055 12.1733 11.1003 11.9224 11.0981 11.6602C11.0958 11.3981 11.1966 11.1455 11.3787 10.9568L15.6717 6.66385L11.3787 2.37085C11.1913 2.18332 11.0859 1.92901 11.0859 1.66385C11.0859 1.39868 11.1913 1.14438 11.3787 0.956849Z" fill="#000"/>
</svg>
