<svg width="50" height="50" viewBox="0 0 50 50" fill="none" xmlns="http://www.w3.org/2000/svg">
<path d="M42.4854 28.9695C42.0929 26.525 40.4989 24.4716 35.7771 22.5569C34.1368 21.8031 32.3081 21.2634 31.7632 20.0203C31.5698 19.2969 31.5441 18.8894 31.6665 18.4515C32.0179 17.0304 33.7143 16.5874 35.0588 16.9949C35.9247 17.2851 36.7444 17.9524 37.2388 19.017C39.5512 17.5196 39.5464 17.5295 41.161 16.5005C40.5699 15.584 40.2544 15.1611 39.8675 14.769C38.4768 13.2156 36.5818 12.4156 33.5512 12.4768L31.9726 12.681C30.4598 13.0632 29.0182 13.8573 28.1728 14.9218C25.6361 17.8 26.3595 22.8373 29.4462 24.9103C32.4871 27.1927 36.9542 27.7119 37.5248 29.8462C38.08 32.459 35.6045 33.3048 33.1441 33.0043C31.3309 32.6272 30.3224 31.7056 29.2322 30.0298C27.2255 31.1911 27.2255 31.1911 25.1623 32.3777C25.6516 33.4474 26.1656 33.9315 26.9858 34.8582C30.8673 38.7954 40.5806 38.6019 42.3228 32.6426C42.3934 32.438 42.8625 31.0734 42.4854 28.9695V28.9695ZM22.4164 12.7923H17.4043L17.3838 25.7502C17.3838 28.506 17.5263 31.0323 17.0782 31.8067C16.3449 33.3297 14.4448 33.1409 13.5789 32.8455C12.6975 32.4123 12.2493 31.7964 11.7301 30.9257C11.5876 30.6757 11.4806 30.4823 11.4446 30.4673L7.36959 32.9628C8.04719 34.3535 9.0454 35.5606 10.324 36.3448C12.2339 37.4912 14.8009 37.8426 17.4857 37.2262C19.233 36.7172 20.7405 35.663 21.5299 34.0582C22.671 31.9543 22.4262 29.4079 22.4159 26.5913C22.4416 21.9962 22.4164 17.4019 22.4164 12.7923Z" fill="#000"/>
</svg>
