<svg width="50" height="50" viewBox="0 0 50 50" fill="none" xmlns="http://www.w3.org/2000/svg">
<path d="M19.8816 35.6576C19.8816 35.6576 18.3926 36.5241 20.9427 36.8165C24.0326 37.1694 25.6116 37.1188 29.0157 36.4754C29.0157 36.4754 29.9125 37.036 31.1626 37.5221C23.5288 40.7925 13.8865 37.3325 19.8816 35.6576ZM18.9483 31.3892C18.9483 31.3892 17.2778 32.6258 19.8301 32.8901C23.1308 33.2309 25.7368 33.2587 30.2486 32.3903C30.2486 32.3903 30.8711 33.0228 31.8516 33.3683C22.6238 36.0671 12.3459 33.5807 18.9483 31.3892V31.3892Z" fill="#000"/>
<path d="M26.8125 24.1472C28.6945 26.3134 26.319 28.261 26.319 28.261C26.319 28.261 31.0947 25.7962 28.9019 22.7082C26.8531 19.8298 25.2826 18.4001 33.7857 13.4685C33.7857 13.4688 20.4382 16.8014 26.8125 24.1472V24.1472Z" fill="#000"/>
<path d="M36.9085 38.8149C36.9085 38.8149 38.0108 39.7239 35.694 40.4264C31.2891 41.7608 17.3565 42.1631 13.487 40.4798C12.0967 39.8745 14.7049 39.0351 15.5255 38.858C16.381 38.6728 16.8696 38.7065 16.8696 38.7065C15.3224 37.6173 6.86995 40.8462 12.5768 41.7724C28.1389 44.295 40.9445 40.6363 36.9085 38.8149V38.8149ZM20.5998 26.9655C20.5998 26.9655 13.5136 28.6488 18.0906 29.2607C20.0235 29.5194 23.8749 29.46 27.4649 29.1589C30.3979 28.9124 33.3413 28.3861 33.3413 28.3861C33.3413 28.3861 32.308 28.8294 31.5596 29.3398C24.3622 31.233 10.4615 30.3512 14.4638 28.4158C17.8473 26.7793 20.5998 26.9655 20.5998 26.9655V26.9655ZM33.312 34.0708C40.6278 30.2703 37.2449 26.6178 34.8838 27.1098C34.3065 27.2301 34.0476 27.3347 34.0476 27.3347C34.0476 27.3347 34.2625 26.9977 34.6723 26.8527C39.343 25.2113 42.9346 31.6953 33.1658 34.2635C33.1658 34.2629 33.2779 34.1614 33.312 34.0708V34.0708Z" fill="#000"/>
<path d="M28.904 5.50553C28.904 5.50553 32.9547 9.55873 25.061 15.7894C18.7307 20.7891 23.6176 23.639 25.0588 26.8967C21.3633 23.5628 18.6526 20.6276 20.4708 17.896C23.1409 13.8871 30.5379 11.9427 28.904 5.50553V5.50553Z" fill="#000"/>
<path d="M21.3181 44.3723C28.3387 44.8212 39.1227 44.1224 39.3779 40.8001C39.3779 40.8001 38.8872 42.0596 33.5752 43.0588C27.5822 44.1871 20.1892 44.0556 15.8058 43.3318C15.8058 43.3321 16.7039 44.0756 21.3181 44.3723V44.3723Z" fill="#000"/>
</svg>
