<svg width="26" height="19" viewBox="0 0 26 19" fill="none" xmlns="http://www.w3.org/2000/svg">
<path d="M25.4779 12.5095C25.1973 10.7622 24.058 9.29459 20.6831 7.92609C19.5107 7.38731 18.2037 7.00151 17.8142 6.11304C17.6759 5.59599 17.6576 5.30473 17.7451 4.99174C17.9963 3.976 19.2087 3.65934 20.1697 3.95061C20.7886 4.15804 21.3745 4.63501 21.7279 5.3959C23.3806 4.3257 23.3773 4.33273 24.5313 3.59724C24.1088 2.9422 23.8833 2.63993 23.6067 2.35968C22.6127 1.2494 21.2583 0.677579 19.0922 0.72133L17.9638 0.867266C16.8826 1.14048 15.8522 1.70801 15.2479 2.4689C13.4349 4.52609 13.9519 8.12648 16.1581 9.60818C18.3316 11.2395 21.5244 11.6106 21.9323 13.1361C22.3291 15.0036 20.5598 15.6081 18.8012 15.3933C17.5052 15.1238 16.7844 14.4651 16.0052 13.2673C14.5709 14.0974 14.5709 14.0974 13.0962 14.9454C13.4459 15.71 13.8133 16.056 14.3995 16.7184C17.1739 19.5325 24.1164 19.3942 25.3616 15.1348C25.4121 14.9886 25.7474 14.0132 25.4779 12.5095ZM11.1336 0.946813H7.55122L7.53654 10.2085C7.53654 12.1781 7.63842 13.9838 7.31809 14.5373C6.794 15.6259 5.43591 15.4909 4.81697 15.2798C4.18703 14.9702 3.8667 14.53 3.49559 13.9077C3.39371 13.729 3.31722 13.5907 3.29152 13.58L0.378906 15.3637C0.86322 16.3577 1.57669 17.2205 2.49055 17.781C3.85569 18.6003 5.69045 18.8515 7.60935 18.4109C8.85823 18.0471 9.93577 17.2936 10.4999 16.1466C11.3156 14.6429 11.1406 12.8228 11.1333 10.8096C11.1516 7.5253 11.1336 4.24156 11.1336 0.946813Z" fill="#000"/>
</svg>
