<svg width="26" height="35" viewBox="0 0 26 35" fill="none" xmlns="http://www.w3.org/2000/svg">
<path d="M8.41011 26.4177C8.41011 26.4177 7.11861 27.1693 9.33045 27.4229C12.0104 27.729 13.38 27.6851 16.3325 27.127C16.3325 27.127 17.1104 27.6133 18.1946 28.0349C11.5734 30.8715 3.21022 27.8704 8.41011 26.4177ZM7.60058 22.7155C7.60058 22.7155 6.15167 23.7881 8.36541 24.0173C11.2283 24.3129 13.4886 24.337 17.4019 23.5838C17.4019 23.5838 17.9418 24.1325 18.7923 24.4321C10.7886 26.7729 1.87402 24.6163 7.60058 22.7155Z" fill="#000"/>
<path d="M14.4216 16.4342C16.054 18.3131 13.9936 20.0023 13.9936 20.0023C13.9936 20.0023 18.1358 17.8644 16.2339 15.1861C14.4569 12.6895 13.0946 11.4494 20.4698 7.17206C20.4698 7.17233 8.89285 10.0628 14.4216 16.4342Z" fill="#000"/>
<path d="M23.1784 29.1563C23.1784 29.1563 24.1344 29.9447 22.125 30.554C18.3044 31.7114 6.21999 32.0604 2.86376 30.6003C1.65786 30.0753 3.9201 29.3473 4.63182 29.1937C5.37389 29.033 5.79762 29.0623 5.79762 29.0623C4.45572 28.1176 -2.87555 30.9181 2.07428 31.7214C15.5721 33.9094 26.679 30.7361 23.1784 29.1563ZM9.03302 18.8787C9.03302 18.8787 2.88679 20.3387 6.85667 20.8695C8.53316 21.0938 11.8737 21.0423 14.9874 20.7812C17.5314 20.5674 20.0844 20.1109 20.0844 20.1109C20.0844 20.1109 19.1881 20.4953 18.539 20.938C12.2963 22.5801 0.239564 21.8153 3.71094 20.1366C6.64562 18.7172 9.03302 18.8787 9.03302 18.8787ZM20.0589 25.0415C26.4043 21.7451 23.4701 18.5772 21.4222 19.0039C20.9215 19.1082 20.6969 19.1989 20.6969 19.1989C20.6969 19.1989 20.8833 18.9066 21.2388 18.7809C25.2899 17.3572 28.4051 22.9811 19.9321 25.2086C19.9321 25.2081 20.0294 25.12 20.0589 25.0415Z" fill="#000"/>
<path d="M16.2357 0.265381C16.2357 0.265381 19.749 3.78092 12.9025 9.18509C7.41186 13.5215 11.6505 15.9935 12.9006 18.819C9.69523 15.9274 7.34413 13.3815 8.92119 11.0122C11.2371 7.53515 17.6529 5.84863 16.2357 0.265381Z" fill="#000"/>
<path d="M9.65604 33.9764C15.7454 34.3657 25.0988 33.7597 25.3202 30.8781C25.3202 30.8781 24.8946 31.9705 20.2872 32.8372C15.0892 33.8158 8.67691 33.7017 4.875 33.074C4.875 33.0742 5.65391 33.719 9.65604 33.9764Z" fill="#000"/>
</svg>
