<svg width="50" height="50" viewBox="0 0 50 50" fill="none" xmlns="http://www.w3.org/2000/svg">
<path d="M41.1772 28.6726C40.8141 26.4109 39.3393 24.5111 34.9708 22.7397C33.4532 22.0423 31.7614 21.5429 31.2572 20.3929C31.0782 19.7236 31.0545 19.3466 31.1677 18.9414C31.4929 17.6266 33.0623 17.2168 34.3062 17.5938C35.1074 17.8623 35.8658 18.4797 36.3232 19.4646C38.4625 18.0793 38.4581 18.0884 39.9519 17.1364C39.405 16.2885 39.1132 15.8972 38.7552 15.5344C37.4685 14.0973 35.7153 13.3571 32.9114 13.4137L31.4509 13.6026C30.0513 13.9563 28.7175 14.6909 27.9354 15.6758C25.5886 18.3387 26.2578 22.9991 29.1136 24.9171C31.9269 27.0287 36.0598 27.509 36.5877 29.4836C37.1014 31.9009 34.8112 32.6835 32.5348 32.4055C30.8573 32.0566 29.9242 31.2039 28.9156 29.6535C27.059 30.7279 27.059 30.7279 25.1502 31.8257C25.6028 32.8154 26.0784 33.2633 26.8372 34.1207C30.4284 37.7633 39.4149 37.5843 41.0268 32.0708C41.0921 31.8815 41.5261 30.619 41.1772 28.6726V28.6726ZM22.6097 13.7056H17.9726L17.9536 25.6941C17.9536 28.2437 18.0855 30.581 17.6708 31.2974C16.9925 32.7065 15.2345 32.5318 14.4334 32.2586C13.6179 31.8578 13.2033 31.2879 12.7229 30.4824C12.591 30.2511 12.492 30.0721 12.4588 30.0582L8.68863 32.3671C9.31554 33.6538 10.2391 34.7705 11.422 35.4961C13.189 36.5566 15.564 36.8817 18.0479 36.3115C19.6644 35.8406 21.0592 34.8652 21.7895 33.3805C22.8453 31.434 22.6188 29.0781 22.6093 26.4722C22.633 22.2209 22.6097 17.9704 22.6097 13.7056Z" fill="#000"/>
</svg>
