<svg width="272" height="47" viewBox="0 0 272 47" fill="none" xmlns="http://www.w3.org/2000/svg">
<path fill-rule="evenodd" clip-rule="evenodd" d="M46.9482 30.7358C46.9482 30.7358 48.4146 25.8852 46.1835 23.7988C43.9511 21.7113 40.4684 22.4784 40.5111 24.4199C40.5325 25.4446 41.6238 25.7925 42.4787 25.9896C43.0415 26.1167 43.602 26.1298 44.1482 26.334C44.7348 26.5561 45.2763 26.9087 45.7049 27.3588C46.5658 28.2648 46.8947 29.5353 46.9482 30.7358" fill="white"/>
<path fill-rule="evenodd" clip-rule="evenodd" d="M48.9209 37.9937C47.9214 37.2276 47.1083 36.2452 46.5425 35.1201C46.0236 34.0847 45.8965 32.9863 45.5296 31.9046C44.9739 30.26 44.0619 28.1773 41.9756 28.3281C38.0227 28.6154 37.1155 35.6177 41.7714 39.611C46.4297 43.6055 56.0146 39.795 56.0146 39.795C53.5602 39.9138 50.917 39.5136 48.9209 37.9937V37.9937ZM40.5056 30.3182C39.6174 30.7504 39.1318 34.0313 39.1899 32.4769C39.2493 30.9238 39.6839 30.2612 39.6839 30.2612C40.6374 28.6843 41.3938 29.8824 40.5056 30.317" fill="white"/>
<path fill-rule="evenodd" clip-rule="evenodd" d="M60.6401 5.56641C61.045 5.56641 61.2457 5.77302 61.2457 6.18862V31.425C61.2457 32.198 61.1032 32.9235 60.8123 33.6051C60.2688 34.9383 59.2287 36.0082 57.9114 36.5891C57.2427 36.8858 56.5187 37.0372 55.7871 37.0332H54.1413C53.4104 37.0372 52.6871 36.8854 52.0194 36.5879C51.3698 36.3029 50.7815 35.8948 50.2869 35.3863C49.7885 34.8711 49.3914 34.2669 49.1161 33.6051C48.8255 32.9153 48.678 32.1736 48.6827 31.425V25.7729C48.6827 25.3573 48.8727 25.0901 49.2468 24.9725L53.189 23.9038C53.5642 23.7827 53.7519 23.9335 53.7519 24.3479V31.203C53.7519 31.4998 53.8528 31.7527 54.0546 31.9593C54.2565 32.1671 54.5023 32.2705 54.7909 32.2705H55.1388C55.4273 32.2705 55.6731 32.1671 55.875 31.9593C55.9734 31.8599 56.0508 31.7417 56.1028 31.6118C56.1548 31.4819 56.1803 31.3429 56.1778 31.203V6.18862C56.1778 5.77302 56.3796 5.56641 56.7845 5.56641H60.6401Z" fill="white"/>
<path fill-rule="evenodd" clip-rule="evenodd" d="M76.3199 6.18981V31.425C76.3215 32.9037 75.7464 34.3248 74.7169 35.3863C74.2253 35.8921 73.6482 36.2923 72.9856 36.5879C72.3167 36.8853 71.5922 37.0371 70.8601 37.0332H69.2167C68.4854 37.0372 67.7617 36.8854 67.0936 36.5879C66.4435 36.3032 65.8548 35.8951 65.36 35.3863C64.8615 34.8716 64.4643 34.2678 64.1892 33.6063C63.8993 32.9159 63.7523 32.1738 63.7569 31.425V6.18981C63.7569 5.77421 63.9588 5.56641 64.3649 5.56641H68.2205C68.6242 5.56641 68.8261 5.77421 68.8261 6.18981V31.203C68.8261 31.4998 68.927 31.7527 69.1289 31.9593C69.3307 32.1671 69.5765 32.2716 69.8651 32.2716H70.213C70.3507 32.2738 70.4873 32.2471 70.6141 32.1933C70.7409 32.1395 70.855 32.0598 70.9492 31.9593C71.0481 31.8602 71.1259 31.7421 71.1779 31.6121C71.23 31.4821 71.2551 31.3429 71.252 31.203V6.18981C71.252 5.77421 71.4538 5.56641 71.8599 5.56641H75.7155C76.1192 5.56641 76.3211 5.77421 76.3211 6.18981" fill="white"/>
<path fill-rule="evenodd" clip-rule="evenodd" d="M84.4902 35.7888C84.4902 36.2008 84.2884 36.4039 83.8894 36.4039H80.0659C79.6622 36.4039 79.4639 36.2008 79.4639 35.7888V6.18387C79.4639 5.77183 79.6634 5.56641 80.0659 5.56641H83.8894C84.2884 5.56641 84.4891 5.77183 84.4891 6.18387V35.7888H84.4902Z" fill="white"/>
<path fill-rule="evenodd" clip-rule="evenodd" d="M96.229 6.00312C96.8767 6.28685 97.4646 6.69101 97.9615 7.19411C98.4507 7.69283 98.8402 8.28179 99.1311 8.95625C99.4184 9.63308 99.5633 10.3527 99.5633 11.1162V14.6405C99.5633 15.0549 99.3769 15.3173 99.0005 15.436L95.0582 16.0535C94.6818 16.1699 94.4942 16.0226 94.4942 15.6106V11.3359C94.4966 11.1972 94.4711 11.0595 94.419 10.9309C94.367 10.8024 94.2896 10.6857 94.1914 10.5878C94.0965 10.4884 93.9822 10.4097 93.8555 10.3565C93.7288 10.3034 93.5925 10.277 93.4552 10.279H93.1084C92.971 10.2766 92.8346 10.3028 92.7079 10.3559C92.5811 10.4091 92.4668 10.488 92.3722 10.5878C92.2737 10.6854 92.1961 10.8021 92.144 10.9307C92.0919 11.0593 92.0666 11.1971 92.0694 11.3359V31.2561C92.0661 31.3952 92.0913 31.5336 92.1433 31.6626C92.1954 31.7917 92.2733 31.9087 92.3722 32.0066C92.5729 32.2132 92.8199 32.3153 93.1084 32.3153H93.454C93.5913 32.3173 93.7276 32.2909 93.8543 32.2378C93.981 32.1847 94.0954 32.106 94.1902 32.0066C94.289 31.9085 94.3668 31.7915 94.4191 31.6625C94.4713 31.5335 94.4969 31.3953 94.4942 31.2561V25.0863C94.4942 24.6742 94.6818 24.5282 95.0582 24.6469L99.0005 25.1753C99.3769 25.2929 99.5633 25.5589 99.5633 25.9685V31.4782C99.5633 32.2417 99.4184 32.9625 99.1311 33.6357C98.854 34.2913 98.4574 34.8897 97.9615 35.4003C97.4687 35.899 96.8916 36.2956 96.2278 36.5889C95.5581 36.8833 94.8339 37.0334 94.1023 37.0294H92.4577C91.7073 37.0294 90.9972 36.8822 90.3346 36.5889C89.6862 36.3073 89.0978 35.9043 88.601 35.4014C88.1038 34.8915 87.707 34.2925 87.4314 33.6357C87.1415 32.9536 86.9945 32.2193 86.9991 31.4782V11.1162C86.9991 10.3527 87.1428 9.6319 87.4314 8.95625C87.9812 7.63375 89.0217 6.57543 90.3346 6.00312C91.0035 5.70857 91.7269 5.55845 92.4577 5.56258H94.1035C94.854 5.56258 95.564 5.70982 96.229 6.00312Z" fill="white"/>
<path fill-rule="evenodd" clip-rule="evenodd" d="M112.761 31.8655V35.7852C112.761 36.1973 112.557 36.4027 112.149 36.4027H102.693C102.285 36.4027 102.081 36.1973 102.081 35.7852V6.18268C102.081 5.77183 102.285 5.56641 102.693 5.56641H112.149C112.557 5.56641 112.761 5.77183 112.761 6.18268V10.1048C112.761 10.5168 112.557 10.7222 112.149 10.7222H107.18V17.0631H111.497C111.902 17.0631 112.107 17.2697 112.107 17.6805V21.6026C112.107 22.0135 111.902 22.2177 111.497 22.2177H107.18V31.2481H112.149C112.557 31.2481 112.761 31.4547 112.761 31.8655Z" fill="white"/>
<path fill-rule="evenodd" clip-rule="evenodd" d="M127.248 21.0291C127.652 21.4411 127.957 21.9256 128.158 22.4825C128.36 23.0406 128.463 23.658 128.463 24.3325V30.855C128.463 31.6186 128.317 32.3358 128.029 33.0114C127.48 34.3352 126.438 35.394 125.124 35.9645C124.456 36.2589 123.733 36.409 123.003 36.4051H116.504C116.098 36.4051 115.897 36.1996 115.897 35.79V6.18387C115.897 5.77183 116.098 5.56641 116.504 5.56641H123.003C123.753 5.56641 124.459 5.71365 125.124 6.00575C125.772 6.28913 126.36 6.69287 126.857 7.19556C127.349 7.69665 127.737 8.28324 128.028 8.95651C128.316 9.63334 128.462 10.3541 128.462 11.1176V15.523C128.462 16.8731 128.054 18.0047 127.247 18.9143C126.805 19.3926 126.276 19.7816 125.688 20.0601C126.322 20.2976 126.842 20.6182 127.247 21.0291H127.248ZM123.394 11.3385C123.396 11.1994 123.371 11.0612 123.318 10.9322C123.266 10.8033 123.188 10.6862 123.09 10.588C122.995 10.4883 122.881 10.4094 122.754 10.3562C122.627 10.303 122.491 10.2769 122.354 10.2793H120.967V17.7684H122.354C122.643 17.7684 122.888 17.6663 123.09 17.4597C123.188 17.362 123.266 17.2454 123.318 17.1168C123.371 16.9882 123.396 16.8504 123.394 16.7116V11.3373V11.3385ZM123.394 23.6284C123.396 23.4896 123.37 23.3518 123.318 23.2233C123.266 23.0947 123.188 22.9781 123.09 22.8803C122.995 22.7807 122.881 22.7018 122.754 22.6486C122.627 22.5955 122.491 22.5693 122.354 22.5715H120.967V31.6898H122.354C122.643 31.6898 122.888 31.5877 123.09 31.3811C123.188 31.2831 123.266 31.1663 123.318 31.0375C123.37 30.9087 123.396 30.7707 123.394 30.6318V23.6284V23.6284Z" fill="white"/>
<path fill-rule="evenodd" clip-rule="evenodd" d="M144.77 35.7876C144.86 36.1996 144.711 36.4027 144.326 36.4027H140.277C140.092 36.4016 139.912 36.3403 139.765 36.2281C139.609 36.1214 139.492 35.9668 139.431 35.7876L136.181 24.9927V36.4039L136.139 35.9645C136.077 36.2578 135.886 36.4039 135.559 36.4039H131.599C131.183 36.4039 130.976 36.1997 130.976 35.7864V6.18506C130.976 5.77183 131.183 5.56641 131.599 5.56641H138.274C139.047 5.56641 139.772 5.71365 140.452 6.00575C141.116 6.28683 141.72 6.69094 142.234 7.19674C142.738 7.69546 143.137 8.28324 143.433 8.95651C143.733 9.63691 143.881 10.3541 143.881 11.1176V18.298C143.881 19.3857 143.598 20.3617 143.037 21.2274C142.486 22.0817 141.717 22.7737 140.81 23.2318L144.77 35.7888V35.7876ZM136.181 19.1328H137.606C137.747 19.1354 137.886 19.1095 138.016 19.0566C138.147 19.0038 138.265 18.925 138.364 18.8252C138.464 18.7282 138.542 18.6118 138.596 18.4831C138.649 18.3545 138.675 18.2163 138.672 18.0771V11.3361C138.675 11.1966 138.649 11.058 138.596 10.929C138.543 10.7999 138.464 10.6831 138.364 10.5857C138.265 10.4859 138.147 10.4071 138.016 10.3541C137.886 10.301 137.747 10.2748 137.606 10.2769H136.181V19.1316V19.1328Z" fill="white"/>
<path fill-rule="evenodd" clip-rule="evenodd" d="M159.004 31.5488C159.004 32.31 158.858 33.0284 158.567 33.7028C158.289 34.3579 157.889 34.9542 157.388 35.4602C156.888 35.9645 156.295 36.3676 155.642 36.6476C154.967 36.9422 154.238 37.0922 153.502 37.0882H151.841C151.106 37.0922 150.378 36.9425 149.704 36.6488C149.051 36.3694 148.458 35.9662 147.957 35.4614C147.456 34.9555 147.055 34.3592 146.776 33.704C146.484 33.0233 146.335 32.2896 146.339 31.5488V11.2367C146.339 10.4744 146.485 9.75835 146.776 9.08389C147.335 7.76099 148.384 6.70517 149.703 6.1367C150.377 5.84284 151.106 5.69319 151.841 5.69735H153.502C154.258 5.69735 154.974 5.8434 155.641 6.1367C156.294 6.41833 156.887 6.82173 157.388 7.32531C157.883 7.82166 158.276 8.40943 158.567 9.08389C158.858 9.75835 159.004 10.4744 159.004 11.2367V31.5488ZM153.896 11.4576C153.898 11.3186 153.872 11.1807 153.819 11.0521C153.767 10.9235 153.688 10.807 153.589 10.7095C153.493 10.6104 153.378 10.532 153.25 10.4791C153.122 10.4262 152.985 10.3999 152.847 10.4019H152.497C152.359 10.3997 152.222 10.4259 152.094 10.4788C151.966 10.5317 151.851 10.6102 151.755 10.7095C151.656 10.8068 151.577 10.9233 151.524 11.0519C151.472 11.1805 151.446 11.3186 151.448 11.4576V31.328C151.448 31.6213 151.551 31.8718 151.755 32.076C151.851 32.1754 151.966 32.254 152.094 32.3067C152.222 32.3594 152.359 32.3852 152.497 32.3824H152.847C152.985 32.385 153.122 32.3591 153.25 32.3064C153.378 32.2537 153.493 32.1753 153.589 32.076C153.688 31.9786 153.767 31.8621 153.819 31.7335C153.872 31.6049 153.898 31.4669 153.896 31.328V11.4564V11.4576Z" fill="white"/>
<path fill-rule="evenodd" clip-rule="evenodd" d="M173.692 6.18115V10.0997C173.692 10.5117 173.487 10.7171 173.076 10.7171H169.958V35.7861C169.958 36.1981 169.752 36.4012 169.34 36.4012H165.434C165.277 36.3983 165.128 36.3359 165.016 36.2266C164.952 36.1726 164.901 36.105 164.867 36.0288C164.832 35.9525 164.815 35.8696 164.817 35.7861V10.7171H161.744C161.332 10.7171 161.128 10.5105 161.128 10.0997V6.18115C161.128 5.76792 161.332 5.5625 161.744 5.5625H173.076C173.487 5.5625 173.692 5.76792 173.692 6.17996" fill="white"/>
<path fill-rule="evenodd" clip-rule="evenodd" d="M189.398 6.18387V35.7888C189.398 36.2008 189.193 36.4039 188.781 36.4039H184.868C184.457 36.4039 184.253 36.2008 184.253 35.7888V23.1878H181.351V35.7888C181.351 36.2008 181.146 36.4039 180.734 36.4039H176.821C176.41 36.4039 176.206 36.2008 176.206 35.7888V6.18387C176.206 5.77183 176.41 5.56641 176.821 5.56641H180.735C181.146 5.56641 181.351 5.77183 181.351 6.18387V18.0344H184.253V6.18387C184.253 5.77183 184.457 5.56641 184.868 5.56641H188.782C189.193 5.56641 189.398 5.77183 189.398 6.18387" fill="white"/>
<path fill-rule="evenodd" clip-rule="evenodd" d="M202.592 31.8655V35.7852C202.592 36.1973 202.389 36.4027 201.981 36.4027H192.523C192.116 36.4027 191.913 36.1973 191.913 35.7852V6.18268C191.913 5.77183 192.116 5.56641 192.523 5.56641H201.981C202.389 5.56641 202.592 5.77183 202.592 6.18268V10.1048C202.592 10.5168 202.389 10.7222 201.981 10.7222H197.012V17.0631H201.328C201.734 17.0631 201.937 17.2697 201.937 17.6805V21.6026C201.937 22.0135 201.734 22.2177 201.328 22.2177H197.012V31.2481H201.981C202.389 31.2481 202.592 31.4547 202.592 31.8655Z" fill="white"/>
<path fill-rule="evenodd" clip-rule="evenodd" d="M219.524 35.7876C219.614 36.1996 219.464 36.4027 219.079 36.4027H215.029C214.844 36.4012 214.664 36.34 214.516 36.2281C214.361 36.1213 214.244 35.9666 214.184 35.7876L210.935 24.9927V36.4039L210.891 35.9645C210.831 36.2578 210.638 36.4039 210.312 36.4039H206.351C205.935 36.4039 205.729 36.1997 205.729 35.7864V6.18506C205.729 5.77183 205.935 5.56641 206.351 5.56641H213.027C213.799 5.56641 214.524 5.71365 215.206 6.00575C215.87 6.28683 216.474 6.69094 216.987 7.19674C217.492 7.69546 217.891 8.28324 218.187 8.95651C218.486 9.63691 218.634 10.3541 218.634 11.1176V18.298C218.634 19.3857 218.349 20.3617 217.788 21.2274C217.238 22.0815 216.47 22.7734 215.564 23.2318L219.524 35.7888V35.7876ZM210.935 19.1328H212.36C212.656 19.1328 212.907 19.0306 213.115 18.8252C213.216 18.7286 213.295 18.6123 213.349 18.4836C213.402 18.3549 213.429 18.2165 213.426 18.0771V11.3361C213.429 11.1964 213.402 11.0576 213.349 10.9285C213.295 10.7994 213.216 10.6827 213.115 10.5857C213.017 10.4859 212.899 10.4071 212.769 10.354C212.639 10.301 212.499 10.2747 212.359 10.2769H210.934V19.1316L210.935 19.1328Z" fill="white"/>
<path fill-rule="evenodd" clip-rule="evenodd" d="M230.031 6.00311C230.68 6.28625 231.268 6.69047 231.765 7.1941C232.255 7.69282 232.646 8.28178 232.935 8.95624C233.223 9.63307 233.368 10.3527 233.368 11.1162V12.7904C233.368 13.2013 233.18 13.4673 232.805 13.5836L228.862 14.6405C228.488 14.7616 228.298 14.6131 228.298 14.2011V11.3382C228.3 11.1994 228.275 11.0614 228.223 10.9327C228.171 10.8039 228.093 10.687 227.995 10.589C227.9 10.4894 227.786 10.4106 227.659 10.3574C227.532 10.3043 227.396 10.278 227.259 10.2802H226.912C226.775 10.278 226.638 10.3043 226.511 10.3574C226.385 10.4106 226.27 10.4894 226.176 10.589C226.078 10.6869 226 10.8036 225.948 10.9321C225.896 11.0607 225.87 11.1984 225.873 11.337V15.347C225.9 15.6723 225.961 15.9514 226.045 16.1865C226.131 16.4216 226.291 16.6567 226.521 16.8918L232.197 21.2105C232.66 21.6213 232.956 22.0405 233.088 22.4644C233.216 22.8931 233.309 23.3692 233.368 23.8976V31.4794C233.368 32.2429 233.223 32.9636 232.935 33.6369C232.659 34.2932 232.262 34.8918 231.765 35.4014C231.273 35.9001 230.695 36.2967 230.031 36.59C229.362 36.8845 228.639 37.0346 227.908 37.0306H226.262C225.531 37.0347 224.807 36.8846 224.138 36.59C223.49 36.308 222.902 35.9049 222.406 35.4026C221.909 34.893 221.513 34.2939 221.238 33.6369C220.947 32.9552 220.799 32.2207 220.804 31.4794V27.2474C220.804 26.8377 220.99 26.5705 221.367 26.4542L225.309 25.3974C225.683 25.2786 225.873 25.427 225.873 25.8379V31.2573C225.873 31.5518 225.974 31.8023 226.176 32.0078C226.378 32.2144 226.623 32.3165 226.912 32.3165H227.259C227.546 32.3165 227.793 32.2144 227.995 32.0078C228.093 31.9096 228.171 31.7925 228.223 31.6635C228.275 31.5346 228.301 31.3964 228.298 31.2573V25.4401C228.277 25.0965 228.219 24.7562 228.125 24.4249C228.03 24.1177 227.85 23.8436 227.605 23.634L222.015 19.269C221.584 18.8582 221.272 18.4462 221.085 18.0365C220.895 17.6245 220.804 17.0818 220.804 16.405V11.1162C220.804 10.3527 220.947 9.63188 221.238 8.95624C221.523 8.28178 221.915 7.69282 222.406 7.1941C222.898 6.69538 223.474 6.29759 224.139 6.00311C224.808 5.70886 225.531 5.55875 226.261 5.56257H227.907C228.659 5.56257 229.366 5.70981 230.03 6.00311" fill="white"/>
</svg>
