<svg width="25" height="25" viewBox="0 0 25 25" fill="none" xmlns="http://www.w3.org/2000/svg">
<path fill-rule="evenodd" clip-rule="evenodd" d="M10.9149 7.2038C10.7151 7.3371 10.5445 7.50976 10.4137 7.71122C10.2828 7.91268 10.1945 8.13871 10.1539 8.37548C10.1134 8.61226 10.1216 8.85481 10.1781 9.08831C10.2345 9.32181 10.3379 9.54135 10.4821 9.7335L11.451 11.0257C11.5786 11.1958 11.6405 11.4062 11.6254 11.6183C11.6103 11.8303 11.5192 12.0299 11.3689 12.1802L4.73195 18.8171L4.94835 19.3047C5.01252 19.4492 5.11432 19.5739 5.24311 19.6657C5.37191 19.7574 5.52298 19.8129 5.68055 19.8264C5.83812 19.8398 5.99641 19.8107 6.1389 19.7421C6.28138 19.6735 6.40283 19.5679 6.49056 19.4363L7.3597 18.1317C7.42407 18.0352 7.50682 17.9523 7.60322 17.8878C7.69963 17.8232 7.80781 17.7783 7.92157 17.7556C8.03534 17.7329 8.15246 17.7328 8.26626 17.7553C8.38006 17.7779 8.4883 17.8226 8.58481 17.887L9.02644 18.1812L9.93269 16.0657C9.98375 15.9466 10.0604 15.8401 10.1572 15.7539C10.2541 15.6677 10.3687 15.6039 10.4929 15.567C10.6172 15.5301 10.7481 15.5209 10.8763 15.5403C11.0044 15.5596 11.1268 15.6069 11.2346 15.6788L11.6763 15.973L12.5825 13.8575C12.6352 13.7346 12.7151 13.6253 12.8163 13.5377C12.9174 13.4502 13.037 13.3868 13.1662 13.3523C13.2954 13.3177 13.4308 13.313 13.5621 13.3384C13.6934 13.3638 13.8172 13.4187 13.9242 13.4989L15.2164 14.4679C15.4086 14.612 15.6281 14.7155 15.8616 14.7719C16.0951 14.8283 16.3377 14.8365 16.5745 14.796C16.8112 14.7555 17.0373 14.6671 17.2387 14.5363C17.4402 14.4054 17.6128 14.2349 17.7462 14.0351L20.2873 10.2237C20.5139 9.88388 20.6158 9.47602 20.5755 9.06955C20.5353 8.66307 20.3554 8.28311 20.0665 7.99433L16.9556 4.88343C16.6668 4.59456 16.2869 4.41469 15.8804 4.37443C15.4739 4.33416 15.0661 4.436 14.7262 4.66261L10.9149 7.2038ZM8.92928 20.241L8.33926 19.847L7.95945 20.4159C6.80235 22.1533 4.18167 21.9307 3.33373 20.0219L2.87089 18.9805C2.79846 18.8174 2.77716 18.6361 2.8098 18.4606C2.84244 18.2851 2.92748 18.1236 3.05373 17.9974L9.57849 11.4727L9.06884 10.7934C8.78053 10.4091 8.57363 9.97005 8.46079 9.50305C8.34795 9.03606 8.33154 8.55095 8.41256 8.0774C8.49358 7.60384 8.67033 7.15179 8.932 6.74887C9.19368 6.34595 9.53478 6.00063 9.93445 5.73403L13.7476 3.19284C14.4272 2.73986 15.2427 2.53631 16.0554 2.61683C16.8682 2.69734 17.628 3.05695 18.2055 3.63448L21.3155 6.74538C21.893 7.32288 22.2526 8.08264 22.3331 8.89539C22.4136 9.70814 22.2101 10.5237 21.7571 11.2033L19.2159 15.0146C18.9494 15.4144 18.6041 15.7555 18.2012 16.0173C17.7983 16.2791 17.3463 16.4559 16.8727 16.537C16.3992 16.6181 15.9141 16.6018 15.447 16.489C14.98 16.3762 14.5409 16.1694 14.1565 15.8811L13.7635 15.5861L12.8811 17.645C12.83 17.7642 12.7533 17.8706 12.6565 17.9568C12.5597 18.043 12.4451 18.1068 12.3208 18.1437C12.1965 18.1807 12.0657 18.1898 11.9375 18.1705C11.8093 18.1511 11.687 18.1038 11.5791 18.0319L11.1375 17.7378L10.2312 19.8532C10.1802 19.9724 10.1035 20.0788 10.0067 20.165C9.90985 20.2512 9.79524 20.315 9.67098 20.3519C9.54671 20.3889 9.41585 20.398 9.28767 20.3786C9.15949 20.3593 9.03713 20.312 8.92928 20.2401V20.241ZM16.0441 10.6724C15.5756 10.6724 15.1262 10.4863 14.7949 10.155C14.4636 9.82372 14.2775 9.37439 14.2775 8.90587C14.2775 8.43735 14.4636 7.98802 14.7949 7.65673C15.1262 7.32544 15.5756 7.13932 16.0441 7.13932C16.5126 7.13932 16.9619 7.32544 17.2932 7.65673C17.6245 7.98802 17.8106 8.43735 17.8106 8.90587C17.8106 9.37439 17.6245 9.82372 17.2932 10.155C16.9619 10.4863 16.5126 10.6724 16.0441 10.6724Z" fill="#000" stroke="#000" stroke-width="0.3"/>
</svg>
