<svg width="117" height="117" viewBox="0 0 117 117" fill="none" xmlns="http://www.w3.org/2000/svg">
<rect x="1.02051" y="1.29004" width="115" height="115" rx="15.5" stroke="#EDEEF7" stroke-opacity="0.3"/>
<path d="M102.369 58.9613H96.1509V52.8042C96.1509 52.3153 95.7537 51.9333 95.2648 51.9333H71.2169V40.1997C71.2169 39.7108 70.8196 39.3288 70.3307 39.3288H64.1125V33.1411C64.1125 32.6522 63.7153 32.2703 63.2264 32.2703H12.4721C11.9832 32.2703 11.5859 32.6675 11.5859 33.1411V74.8049C11.5859 75.2938 11.9832 75.6757 12.4721 75.6757H18.6903V81.8328C18.6903 82.3217 19.0875 82.7037 19.5765 82.7037H102.354C102.843 82.7037 103.24 82.3065 103.24 81.8328V59.8322C103.255 59.3586 102.858 58.9613 102.369 58.9613ZM71.2169 53.6903H94.3481V58.9766H71.2169V53.6903ZM18.7056 40.1844V73.934H13.3582V34.0273H62.3097V39.3135H19.607C19.1028 39.2983 18.7056 39.6955 18.7056 40.1844ZM101.483 80.9773H20.4779V75.691V73.934V41.0552H62.3097H64.0819H69.414V51.9181V53.6903V59.8475C69.414 60.3364 69.8113 60.7183 70.3002 60.7183H94.3328H96.1051H101.437V80.9773H101.483Z" fill="#000"/>
<path d="M91.8731 72.0546C92.7286 72.4824 93.0648 72.6505 93.0648 73.2616C93.0648 73.8575 92.6981 74.2241 91.4453 74.2241C90.3147 74.2241 89.566 74.0561 89.291 74.0561C89.1382 74.0561 89.0466 74.1477 89.0466 74.2853L88.9091 75.4158C88.8785 75.6908 88.9855 75.8742 89.2758 75.9506C89.6883 76.0422 90.8188 76.1798 91.6133 76.1798C94.287 76.1798 95.3259 75.1714 95.3259 73.2158C95.3259 71.6574 94.7148 71.1227 93.462 70.5421L92.4842 70.099C91.6133 69.7171 91.0633 69.5337 91.0633 68.8768C91.0633 68.2504 91.5828 68.0823 92.4383 68.0823C93.2939 68.0823 94.2259 68.2504 94.562 68.2504C94.8065 68.2504 94.8676 68.1434 94.8829 67.9142L95.0356 66.9823C95.0815 66.7073 94.9745 66.5392 94.7912 66.4781C94.3634 66.3253 93.3398 66.2031 92.2397 66.2031C89.9633 66.2031 88.7868 66.8448 88.7868 68.7851C88.7868 70.4351 89.5355 70.9852 90.6202 71.4893L91.8731 72.0546ZM82.0186 70.4351C81.9116 70.4351 81.8505 70.3893 81.8505 70.2671C81.8505 68.5865 82.4464 68.1434 83.5464 68.1434C84.4937 68.1434 85.0284 68.5865 85.0284 70.2671C85.0284 70.3588 84.9979 70.4351 84.8604 70.4351H82.0186ZM86.4798 74.1478C86.434 73.9339 86.3118 73.8422 86.1132 73.8422C85.8076 73.8422 85.0131 74.1478 83.852 74.1478C82.3547 74.1478 81.8505 73.6741 81.8505 72.3449V72.2533C81.8505 72.1616 81.8811 72.1463 81.988 72.1463H85.8076C86.6785 72.1463 87.0604 71.7796 87.0604 70.9088V70.206C87.0604 67.4712 85.9145 66.1725 83.5006 66.1725C80.9338 66.1725 79.5741 67.2878 79.5741 71.1379C79.5741 74.9422 80.8422 76.1339 83.6686 76.1339C84.8756 76.1339 85.8993 75.9506 86.3423 75.7061C86.6479 75.5533 86.7701 75.2783 86.6785 74.9575L86.4798 74.1478ZM72.928 75.7214C72.928 75.8589 73.035 75.9811 73.2031 75.9811H74.9142C75.0823 75.9811 75.1892 75.8589 75.1892 75.7214V69.2893C75.1892 68.4643 75.4031 68.2198 76.167 68.2198C76.6865 68.2198 77.1907 68.3115 77.4657 68.3115C77.649 68.3115 77.7712 68.1892 77.7865 67.9753L77.924 67.1656C78.031 66.692 77.924 66.5392 77.4962 66.417C77.099 66.2947 76.442 66.1878 75.4795 66.1878C73.6767 66.1878 72.8822 66.86 72.8822 69.0601L72.928 75.7214ZM68.3904 66.3406C68.1765 66.3406 68.0696 66.4475 68.0696 66.6614V72.4671C68.0696 73.7658 67.7182 74.1172 66.664 74.1172C65.5945 74.1172 65.1973 73.7658 65.1973 72.4671V66.6614C65.1973 66.4475 65.0903 66.3406 64.8764 66.3406H63.2417C63.0278 66.3406 62.9208 66.4475 62.9208 66.6614V72.1463C62.9208 75.1561 63.8681 76.1798 66.664 76.1798C69.4446 76.1798 70.3613 75.1561 70.3613 72.1463V66.6614C70.3613 66.4475 70.2544 66.3406 70.0405 66.3406H68.3904ZM56.3817 64.278C56.2137 64.278 56.1067 64.4002 56.1067 64.553V73.1699C56.1067 75.1103 56.7026 76.1492 59.3151 76.1492C59.6818 76.1492 60.2318 76.1186 60.7971 75.92C61.0721 75.8284 61.1791 75.6756 61.1638 75.4158L60.9958 74.2241C60.9805 74.0561 60.8888 73.9339 60.7513 73.9339C60.4763 73.9339 60.2471 74.0255 59.636 74.0255C58.5818 74.0255 58.3832 73.5825 58.3832 72.9408V68.4948C58.3832 68.3726 58.4748 68.2962 58.5818 68.2962H60.4305C60.6444 68.2962 60.7513 68.1892 60.7513 67.9753V66.6614C60.7513 66.4475 60.6444 66.3406 60.4305 66.3406H58.7193C58.4596 66.3406 58.3373 66.2947 58.3068 66.0197L58.1387 64.7211C58.0929 64.4461 57.9859 64.2933 57.6804 64.2933H56.3817V64.278ZM46.0078 75.7214C46.0078 75.8895 46.1148 75.9811 46.2675 75.9811H48.0245C48.1926 75.9811 48.2843 75.8895 48.2843 75.7214V69.8546C48.2843 68.4948 48.7732 68.2198 49.8121 68.2198C50.8816 68.2198 51.3094 68.4795 51.3094 69.8546V75.7214C51.3094 75.8589 51.3552 75.9811 51.5844 75.9811H53.2955C53.4941 75.9811 53.5705 75.8589 53.5705 75.7214V69.7018C53.5705 67.5323 53.0205 66.1725 49.7968 66.1725C46.5578 66.1725 45.9925 67.5476 45.9925 69.7018V75.7214H46.0078ZM38.7965 70.4351C38.6895 70.4351 38.6284 70.3893 38.6284 70.2671C38.6284 68.5865 39.2243 68.1434 40.3243 68.1434C41.2716 68.1434 41.8063 68.5865 41.8063 70.2671C41.8063 70.3588 41.7757 70.4351 41.6382 70.4351H38.7965ZM43.2425 74.1478C43.1966 73.9339 43.0744 73.8422 42.8758 73.8422C42.5702 73.8422 41.7757 74.1478 40.6146 74.1478C39.1173 74.1478 38.6132 73.6741 38.6132 72.3449V72.2533C38.6132 72.1616 38.6437 72.1463 38.7507 72.1463H42.5702C43.4411 72.1463 43.823 71.7796 43.823 70.9088V70.206C43.823 67.4712 42.6772 66.1725 40.2632 66.1725C37.6965 66.1725 36.3367 67.2878 36.3367 71.1379C36.3367 74.9422 37.6048 76.1339 40.4313 76.1339C41.6382 76.1339 42.6619 75.9506 43.105 75.7061C43.4105 75.5533 43.5327 75.2783 43.4411 74.9575L43.2425 74.1478ZM32.1199 66.3406C31.9518 66.3406 31.8755 66.4322 31.8755 66.585V72.0699C31.8755 72.3144 31.8143 72.4519 31.6463 72.6199L30.6379 73.6894C30.5921 73.7352 30.531 73.7811 30.4699 73.7811C30.424 73.7811 30.3782 73.7505 30.3171 73.6894L29.3087 72.6199C29.1407 72.4519 29.0795 72.3144 29.0795 72.0699V66.585C29.0795 66.417 28.9879 66.3406 28.8351 66.3406H27.0628C26.8948 66.3406 26.8184 66.4322 26.8184 66.585V72.1005C26.8184 72.8797 27.0475 73.3686 27.6128 73.9186L29.4462 75.6909C29.8129 76.027 30.149 76.1798 30.5004 76.1798C30.8365 76.1798 31.1879 76.027 31.5546 75.6909L33.3727 73.9186C33.938 73.3686 34.1672 72.8797 34.1672 72.1005V66.585C34.1672 66.417 34.0755 66.3406 33.9227 66.3406H32.1199ZM60.6902 55.9514C60.6902 56.8986 60.0943 57.5709 59.0401 57.5709C58.1387 57.5709 57.7873 57.2348 57.7873 56.2417C57.7873 55.325 58.1693 55.0652 59.3763 55.0652H60.4763C60.6138 55.0652 60.6902 55.1264 60.6902 55.2791V55.9514ZM56.2748 51.3832C56.3053 51.6124 56.3817 51.7193 56.5956 51.7193C56.9165 51.7193 57.8484 51.429 59.0249 51.429C60.293 51.429 60.6444 51.7957 60.6444 53.018C60.6444 53.2471 60.5527 53.3082 60.3388 53.3082H58.8415C56.5345 53.3082 55.6331 54.1638 55.6331 56.2264C55.6331 58.457 56.3665 59.4348 58.3373 59.4348C60.293 59.4348 60.736 58.3348 60.9499 58.3348C60.9805 58.3348 60.9958 58.3501 61.011 58.3806L61.2096 59.0681C61.2402 59.1904 61.3624 59.2668 61.5458 59.2668H62.6305C62.7986 59.2668 62.9055 59.1445 62.9055 59.007V53.0944C62.9055 50.2068 61.6833 49.4276 59.2235 49.4276C58.154 49.4276 57.0998 49.5956 56.4428 49.8554C56.122 49.9776 56.0609 50.1609 56.122 50.4665L56.2748 51.3832ZM41.4702 58.9306C41.4702 59.1445 41.5771 59.2515 41.791 59.2515H43.4258C43.6397 59.2515 43.7466 59.1445 43.7466 58.9306V53.0332C43.7466 51.9638 44.1133 51.4901 45.0453 51.4901C45.8856 51.4901 46.3287 51.9027 46.3287 53.0485V58.9459C46.3287 59.1598 46.4356 59.2668 46.6495 59.2668H48.2843C48.4982 59.2668 48.6051 59.1598 48.6051 58.9459V53.0638C48.6051 51.9179 49.0787 51.5207 49.9038 51.5207C50.851 51.5207 51.1871 51.9485 51.1871 53.0485V58.9459C51.1871 59.1598 51.2941 59.2668 51.508 59.2668H53.1427C53.3566 59.2668 53.4636 59.1598 53.4636 58.9459V52.636C53.4636 50.7873 52.6233 49.4429 50.3163 49.4429C48.8343 49.4429 47.9481 49.9165 47.5509 50.6498C47.5051 50.7415 47.444 50.7415 47.3676 50.6346C46.8481 49.9165 46.1759 49.4429 44.5717 49.4429C42.3105 49.4429 41.4549 50.7262 41.4549 52.636L41.4702 58.9306ZM36.8256 49.6109C36.6117 49.6109 36.5048 49.7179 36.5048 49.9318V58.9306C36.5048 59.1598 36.6117 59.2515 36.7798 59.2515H38.4909C38.7201 59.2515 38.8118 59.1598 38.8118 58.9306V49.9318C38.8118 49.7179 38.7048 49.6109 38.4909 49.6109H36.8256ZM36.7645 46.1122C36.5506 46.1122 36.4436 46.2192 36.4436 46.433V48.1595C36.4436 48.3734 36.5506 48.4803 36.7645 48.4803H38.552C38.7659 48.4803 38.8729 48.3734 38.8729 48.1595V46.433C38.8729 46.2192 38.7659 46.1122 38.552 46.1122H36.7645ZM27.1392 46.1122C26.9253 46.1122 26.8184 46.2192 26.8184 46.433V58.9306C26.8184 59.1445 26.9253 59.2515 27.1392 59.2515H28.774C28.9879 59.2515 29.0948 59.1445 29.0948 58.9306V55.3861C29.0948 55.2791 29.1559 55.218 29.2629 55.218H30.1948C30.9282 55.218 31.249 55.6153 31.4629 56.1806L32.3949 58.8084C32.5171 59.1445 32.5935 59.2515 32.9144 59.2515H34.5491C34.7783 59.2515 34.9158 59.114 34.8242 58.9001L33.663 55.5389C33.3422 54.5763 32.9297 53.9347 32.3032 53.5833C32.2269 53.5374 32.1963 53.461 32.2421 53.3694L34.0144 50.054C34.1672 49.7637 34.1214 49.5956 33.7088 49.5956H31.9824C31.7074 49.5956 31.5546 49.672 31.4935 49.8554L30.1185 53.0027C30.0879 53.0791 30.0115 53.1249 29.9504 53.1249H29.2782C29.1712 53.1249 29.1101 53.0638 29.1101 52.9568V46.4178C29.1101 46.2039 29.0031 46.0969 28.7893 46.0969H27.1392V46.1122Z" fill="#000"/>
</svg>
