<svg width="28" height="29" viewBox="0 0 28 29" fill="none" xmlns="http://www.w3.org/2000/svg">
<path d="M27.5207 7.02028C27.5308 7.05761 27.536 7.09609 27.5361 7.13476V13.1449C27.5361 13.222 27.5157 13.2978 27.4771 13.3645C27.4385 13.4313 27.383 13.4867 27.3162 13.525L22.2795 16.4293V22.1858C22.2795 22.3425 22.1964 22.4871 22.0608 22.566L11.5472 28.6276C11.5231 28.6413 11.4969 28.65 11.4706 28.6594C11.4608 28.6626 11.4515 28.6687 11.4411 28.6714C11.3676 28.6908 11.2903 28.6908 11.2168 28.6714C11.2048 28.6681 11.1939 28.6615 11.1824 28.6572C11.1583 28.6484 11.1331 28.6407 11.1102 28.6276L0.598771 22.566C0.531995 22.5275 0.476511 22.4722 0.437911 22.4054C0.399311 22.3387 0.378959 22.2629 0.378906 22.1858V4.15544C0.378906 4.116 0.384376 4.07766 0.39422 4.04041C0.397502 4.02781 0.405159 4.01631 0.409534 4.00371C0.417738 3.98071 0.425395 3.95715 0.437428 3.93579C0.445631 3.92155 0.457664 3.91004 0.467509 3.8969C0.480088 3.87937 0.491573 3.86129 0.50634 3.84595C0.51892 3.83336 0.535328 3.82404 0.549548 3.81309C0.565409 3.79994 0.579629 3.7857 0.597677 3.77529H0.598224L5.8542 0.744484C5.92075 0.70613 5.99619 0.685944 6.07297 0.685944C6.14975 0.685944 6.22519 0.70613 6.29174 0.744484L11.5477 3.77529H11.5488C11.5663 3.78625 11.5811 3.79994 11.5969 3.81254C11.6112 3.8235 11.627 3.83336 11.6396 3.84541C11.6549 3.86129 11.6659 3.87937 11.679 3.8969C11.6883 3.91004 11.7009 3.92155 11.7085 3.93579C11.7211 3.9577 11.7282 3.98071 11.737 4.00371C11.7413 4.01631 11.749 4.02781 11.7523 4.04096C11.7623 4.07829 11.7675 4.11678 11.7676 4.15544V15.417L16.1474 12.8913V7.13421C16.1474 7.09587 16.1528 7.05698 16.1627 7.02028C16.1665 7.00713 16.1736 6.99563 16.178 6.98303C16.1868 6.96002 16.1944 6.93647 16.2064 6.9151C16.2146 6.90086 16.2267 6.88936 16.236 6.87621C16.2491 6.85868 16.26 6.84061 16.2754 6.82527C16.2879 6.81267 16.3038 6.80336 16.318 6.7924C16.3344 6.77926 16.3486 6.76502 16.3661 6.75461H16.3667L21.6232 3.7238C21.6897 3.68539 21.7652 3.66518 21.842 3.66518C21.9188 3.66518 21.9942 3.68539 22.0608 3.7238L27.3167 6.75461C27.3353 6.76556 27.3495 6.77926 27.366 6.79186C27.3796 6.80281 27.3955 6.81267 27.4081 6.82472C27.4234 6.84061 27.4343 6.85868 27.4474 6.87621C27.4573 6.88936 27.4693 6.90086 27.477 6.9151C27.4896 6.93647 27.4967 6.96002 27.5054 6.98303C27.5103 6.99563 27.5175 7.00713 27.5207 7.02028ZM26.6599 12.8913V7.89342L24.8206 8.9539L22.2795 10.4192V15.417L26.6604 12.8913H26.6599ZM21.4039 21.9322V16.9311L18.9044 18.3607L11.767 22.4405V27.4888L21.4039 21.9322ZM1.25508 4.9141V21.9322L10.8909 27.4882V22.4411L5.85693 19.5877L5.85529 19.5867L5.8531 19.5856C5.83615 19.5757 5.82193 19.5615 5.80607 19.5494C5.7924 19.5384 5.77654 19.5297 5.7645 19.5176L5.76341 19.516C5.74919 19.5023 5.73934 19.4853 5.72731 19.47C5.71637 19.4552 5.70325 19.4426 5.6945 19.4272L5.69395 19.4256C5.6841 19.4092 5.67809 19.3895 5.67098 19.3708C5.66387 19.3544 5.65457 19.3391 5.65019 19.3215V19.321C5.64473 19.3002 5.64363 19.2783 5.64144 19.2569C5.63926 19.2405 5.63488 19.224 5.63488 19.2076V7.43987L3.0944 5.97404L1.25508 4.91465V4.9141ZM6.07352 1.63078L1.69427 4.15544L6.07242 6.68011L10.4511 4.1549L6.07242 1.63078H6.07352ZM8.35092 17.3868L10.8914 15.9221V4.9141L9.05208 5.97459L6.51106 7.43987V18.4478L8.35092 17.3868ZM21.842 4.61009L17.4633 7.13476L21.842 9.65943L26.2201 7.13421L21.842 4.61009ZM21.4039 10.4192L18.8629 8.9539L17.0236 7.89342V12.8913L19.564 14.356L21.4039 15.417V10.4192ZM11.3284 21.6819L17.751 18.0096L20.9614 16.1746L16.586 13.6516L11.5483 16.5564L6.95681 19.2038L11.3284 21.6819Z" fill="#000"/>
</svg>
