<svg width="25" height="25" viewBox="0 0 25 25" fill="none" xmlns="http://www.w3.org/2000/svg">
<path fill-rule="evenodd" clip-rule="evenodd" d="M12.7718 1.07822C12.9927 1.13795 13.1878 1.26876 13.3269 1.45045C13.4661 1.63213 13.5415 1.85458 13.5416 2.08343V9.37509H19.7916C19.9749 9.37504 20.1549 9.42335 20.3136 9.51514C20.4722 9.60693 20.6038 9.73895 20.6951 9.89788C20.7864 10.0568 20.8342 10.237 20.8335 10.4203C20.8329 10.6036 20.7839 10.7835 20.6916 10.9418L13.3999 23.4418C13.2846 23.6396 13.1073 23.794 12.8955 23.8809C12.6837 23.9679 12.4491 23.9826 12.228 23.9228C12.007 23.8631 11.8118 23.7321 11.6726 23.5503C11.5335 23.3684 11.4581 23.1458 11.4582 22.9168V15.6251H5.20824C5.02495 15.6251 4.8449 15.5768 4.68625 15.4851C4.52761 15.3933 4.39599 15.2612 4.30469 15.1023C4.21339 14.9434 4.16564 14.7632 4.16627 14.5799C4.16689 14.3966 4.21586 14.2167 4.30824 14.0584L11.5999 1.55843C11.7153 1.36074 11.8927 1.20658 12.1045 1.11978C12.3163 1.03298 12.5508 1.01837 12.7718 1.07822V1.07822ZM7.02178 13.5418H12.4999C12.7762 13.5418 13.0411 13.6515 13.2365 13.8469C13.4318 14.0422 13.5416 14.3072 13.5416 14.5834V19.0636L17.978 11.4584H12.4999C12.2236 11.4584 11.9587 11.3487 11.7633 11.1533C11.568 10.958 11.4582 10.693 11.4582 10.4168V5.93655L7.02178 13.5418Z" fill="#000"/>
</svg>
