<svg width="25" height="33" viewBox="0 0 25 33" fill="none" xmlns="http://www.w3.org/2000/svg">
<path fill-rule="evenodd" clip-rule="evenodd" d="M12.8602 0.666927C13.1695 0.750547 13.4426 0.933685 13.6374 1.18805C13.8322 1.44241 13.9378 1.75384 13.9379 2.07422V12.2826H22.6879C22.9445 12.2825 23.1966 12.3501 23.4187 12.4786C23.6408 12.6071 23.8251 12.792 23.9529 13.0145C24.0807 13.237 24.1476 13.4892 24.1467 13.7458C24.1458 14.0024 24.0773 14.2543 23.9479 14.4759L13.7396 31.9759C13.5782 32.2529 13.33 32.469 13.0334 32.5907C12.7369 32.7125 12.4084 32.7331 12.099 32.6494C11.7895 32.5657 11.5162 32.3824 11.3214 32.1278C11.1266 31.8732 11.0211 31.5615 11.0213 31.2409V21.0326H2.27127C2.01467 21.0326 1.76259 20.965 1.54049 20.8365C1.31839 20.708 1.13412 20.5231 1.0063 20.3006C0.878486 20.0781 0.811637 19.8259 0.812508 19.5693C0.813379 19.3127 0.88194 19.0608 1.01127 18.8392L11.2196 1.33922C11.3812 1.06246 11.6295 0.846634 11.926 0.725114C12.2226 0.603594 12.5509 0.583144 12.8602 0.666927V0.666927ZM4.81022 18.1159H12.4796C12.8664 18.1159 13.2373 18.2695 13.5108 18.543C13.7843 18.8165 13.9379 19.1874 13.9379 19.5742V25.8465L20.149 15.1992H12.4796C12.0928 15.1992 11.7219 15.0456 11.4484 14.7721C11.1749 14.4986 11.0213 14.1277 11.0213 13.7409V7.46859L4.81022 18.1159Z" fill="#000"/>
</svg>
