<svg width="25" height="25" viewBox="0 0 25 25" fill="none" xmlns="http://www.w3.org/2000/svg">
<path d="M7.44141 5.03225C7.44114 5.56268 7.23017 6.07129 6.85491 6.44617C6.47965 6.82106 5.97084 7.03152 5.44041 7.03125C4.90997 7.03099 4.40137 6.82002 4.02649 6.44476C3.6516 6.0695 3.44114 5.56068 3.44141 5.03025C3.44167 4.49982 3.65264 3.99121 4.0279 3.61633C4.40316 3.24144 4.91197 3.03099 5.44241 3.03125C5.97284 3.03152 6.48144 3.24248 6.85633 3.61774C7.23121 3.993 7.44167 4.50182 7.44141 5.03225ZM7.50141 8.51225H3.50141V21.0322H7.50141V8.51225ZM13.8214 8.51225H9.84141V21.0322H13.7814V14.4623C13.7814 10.8023 18.5514 10.4623 18.5514 14.4623V21.0322H22.5014V13.1023C22.5014 6.93225 15.4414 7.16225 13.7814 10.1923L13.8214 8.51225Z" fill="#000"/>
</svg>
