<svg width="25" height="25" viewBox="0 0 25 25" fill="none" xmlns="http://www.w3.org/2000/svg">
<path d="M7.65234 5.93557C7.65208 6.466 7.44111 6.97461 7.06585 7.34949C6.69059 7.72438 6.18178 7.93484 5.65134 7.93457C5.12091 7.93431 4.61231 7.72334 4.23742 7.34808C3.86254 6.97282 3.65208 6.464 3.65234 5.93357C3.65261 5.40314 3.86358 4.89453 4.23884 4.51965C4.6141 4.14476 5.12291 3.93431 5.65334 3.93457C6.18378 3.93484 6.69238 4.1458 7.06726 4.52106C7.44215 4.89632 7.65261 5.40514 7.65234 5.93557V5.93557ZM7.71234 9.41557H3.71234V21.9356H7.71234V9.41557ZM14.0323 9.41557H10.0523V21.9356H13.9923V15.3656C13.9923 11.7056 18.7623 11.3656 18.7623 15.3656V21.9356H22.7123V14.0056C22.7123 7.83557 15.6523 8.06557 13.9923 11.0956L14.0323 9.41557V9.41557Z" fill="#000"/>
</svg>
