<svg width="272" height="47" viewBox="0 0 272 47" fill="none" xmlns="http://www.w3.org/2000/svg">
<g clip-path="url(#clip0_2330_10543)">
<path d="M183.375 18.4375H188.454L185.738 22.748L188.207 24.219L191.028 19.7032L193.85 24.219L196.319 22.748L193.638 18.4375H198.646V15.6322H193.568L196.283 11.2875L193.814 9.81641L191.028 14.298L188.242 9.81641L185.773 11.2875L188.489 15.6322H183.375V18.4375Z" fill="white"/>
<path d="M73.5 40.1445H198.975V44.2695H73.5V40.1445Z" fill="white"/>
<path d="M73.5 32.8418H87.1137V28.8735H77.5912V8.89453H73.5V32.8418Z" fill="white"/>
<path d="M91.4473 32.8426H95.3621V15.3242H91.4473V32.8426Z" fill="white"/>
<path d="M107.182 32.8429H110.321V29.114H108.346C107.359 29.114 106.583 28.7035 106.583 27.4377V18.9877H110.991V15.2588H106.583V8.79297L102.703 10.4351V15.2588H98.9648V18.9877H102.703V28.635C102.703 31.6114 104.643 32.8429 107.182 32.8429Z" fill="white"/>
<path d="M122.909 33.116C125.589 33.116 127.882 32.1581 129.328 30.6186L126.824 27.916C126.013 28.8055 124.672 29.4896 122.838 29.4896C120.369 29.4896 118.112 27.6765 117.795 25.316H130.668V23.5713C130.668 18.987 127.564 14.916 122.274 14.916C117.689 14.916 113.81 18.7134 113.81 23.9476C113.81 29.4555 117.83 33.116 122.909 33.116ZM126.718 21.9976H117.795C118.218 19.8081 120.087 18.3713 122.239 18.3713C124.99 18.3713 126.436 20.0134 126.718 21.9976Z" fill="white"/>
<path d="M134.863 32.8412H138.743V23.2623C139.201 20.3202 141.176 19.0886 143.257 19.0886C144.139 19.0886 144.88 19.2938 145.479 19.7044L147.278 16.2149C146.184 15.3938 145.126 15.0859 143.575 15.0859C141.459 15.0859 139.483 16.1123 138.743 17.6176V15.2571H134.863V32.8412Z" fill="white"/>
<path d="M157.234 33.1833C159.385 33.1833 160.796 32.4992 161.537 31.5071V32.8412H165.416V15.2571H161.537V16.5228C160.69 15.4623 159.244 14.9492 157.34 14.9492C153.072 14.9492 148.77 18.5071 148.77 24.0833C148.77 29.5912 152.755 33.1833 157.234 33.1833ZM157.657 29.5571C155.012 29.5571 152.72 27.3676 152.72 24.0833C152.72 20.4571 155.33 18.5755 157.622 18.5755C159.562 18.5755 160.831 19.3623 161.537 20.4912V27.5045C160.831 28.8728 159.385 29.5571 157.657 29.5571Z" fill="white"/>
<path d="M170.856 32.8418H174.807V8.89453H170.856V32.8418Z" fill="white"/>
<path d="M95.6646 11.0129C95.6646 12.172 94.6822 13.125 93.4607 13.125C92.2657 13.125 91.2832 12.172 91.2832 11.0129C91.2832 9.80228 92.2657 8.875 93.4607 8.875C94.6822 8.875 95.6646 9.80228 95.6646 11.0129Z" fill="white"/>
</g>
<defs>
<clipPath id="clip0_2330_10543">
<rect width="125" height="45" fill="white" transform="translate(73.5 1)"/>
</clipPath>
</defs>
</svg>
