<svg width="117" height="117" viewBox="0 0 117 117" fill="none" xmlns="http://www.w3.org/2000/svg">
<rect x="1.02051" y="1.29004" width="115" height="115" rx="15.5" stroke="#EDEEF7" stroke-opacity="0.3"/>
<circle cx="69.2017" cy="69.5347" r="14.4185" fill="#000"/>
<path fill-rule="evenodd" clip-rule="evenodd" d="M59.0329 59.1774C59.0329 59.1774 59.4381 49.2787 59.2933 45.1481C59.0158 37.2284 52.8683 30.7974 44.9426 30.7974C37.0169 30.7974 30.5918 37.2224 30.5918 45.1481C30.5918 53.0738 36.5945 59.0958 44.9426 59.4989C49.4439 59.7162 59.0329 59.1774 59.0329 59.1774ZM44.9584 53.0184C49.2909 53.0184 52.8031 49.5062 52.8031 45.1738C52.8031 40.8413 49.2909 37.3291 44.9584 37.3291C40.6259 37.3291 37.1138 40.8413 37.1138 45.1738C37.1138 49.5062 40.6259 53.0184 44.9584 53.0184Z" fill="#000"/>
</svg>
