<svg width="272" height="47" viewBox="0 0 272 47" fill="none" xmlns="http://www.w3.org/2000/svg">
<path d="M217.181 11.1367C222.753 16.9251 228.281 22.7522 233.798 28.5897C233.791 23.1635 233.822 17.7346 233.816 12.3084C234.77 12.3109 235.724 12.3006 236.681 12.2877C236.684 20.0339 236.684 27.7827 236.681 35.529C231.104 29.7691 225.609 23.9316 220.061 18.1433C220.069 23.6031 220.048 29.0656 220.045 34.5281C219.089 34.5358 218.135 34.5332 217.181 34.5332C217.178 26.7327 217.176 18.9347 217.181 11.1367Z" fill="white"/>
<path d="M54.9745 11.9335C61.1137 10.9869 67.6086 15.8079 68.1552 22.0877C68.6709 25.6801 67.2812 29.4252 64.659 31.9004C60.3479 36.1318 52.5947 36.0542 48.41 31.6728C46.1487 29.4744 44.8595 26.3061 44.9962 23.1429C45.0581 17.6391 49.5935 12.7223 54.9745 11.9335ZM54.9771 14.7785C51.4035 15.363 48.4951 18.5107 47.9949 22.0773C47.3142 26.1302 49.8075 30.4908 53.7086 31.8151C57.1223 33.1083 61.2761 31.8901 63.4677 28.9674C66.3014 25.4008 65.8218 19.6461 62.3358 16.6847C60.3763 14.8975 57.5426 14.3078 54.9771 14.7785Z" fill="white"/>
<path d="M99.3016 13.1281C102.447 10.759 107.586 11.7392 109.401 15.3188C108.643 15.7481 107.885 16.18 107.127 16.6094C105.763 14.4704 102.439 13.948 100.606 15.7636C99.8302 16.3326 99.9152 17.375 99.9977 18.231C100.219 19.3484 101.406 19.8217 102.28 20.3467C104.533 21.5365 107.24 22.2219 108.824 24.3789C110.59 26.7868 110.298 30.3716 108.372 32.6011C106.359 35.0452 102.677 35.6401 99.8611 34.3598C97.7004 33.2891 96.3648 31.0259 95.9316 28.7059C96.8985 28.4758 97.8706 28.2637 98.8401 28.0464C98.938 30.1621 100.575 32.301 102.803 32.3398C105.809 32.6683 108.2 28.7473 106.449 26.2463C104.58 23.6935 100.975 23.6573 98.8246 21.4511C96.2926 19.3742 96.5479 14.8972 99.3016 13.1281Z" fill="white"/>
<path d="M201.94 11.9139C205.962 11.4096 210.119 13.2718 212.589 16.4634C216.149 20.9327 215.58 28.0634 211.354 31.9067C208.94 34.2992 205.392 35.2846 202.061 34.9302C198.769 34.713 195.687 32.8611 193.787 30.1816C191.74 27.3237 191.209 23.5036 192.178 20.1438C193.444 15.7909 197.482 12.483 201.94 11.9139ZM201.447 14.8133C197.013 15.5711 193.841 20.3094 194.62 24.7166C195.112 28.9557 199.122 32.4059 203.363 32.3257C206.256 32.3749 209.015 30.7299 210.575 28.3246C212.944 24.8795 212.321 19.7895 209.268 16.9548C207.269 14.9245 204.183 14.2391 201.447 14.8133Z" fill="white"/>
<path d="M35.3184 12.291C36.2337 12.2858 37.149 12.2858 38.0643 12.291C38.0669 18.8578 38.0618 25.4273 38.0669 31.9941C40.3411 31.9993 42.6126 31.9941 44.8867 31.9967C44.8919 32.8399 44.8919 33.683 44.8893 34.5288C41.6973 34.5314 38.5078 34.5339 35.3184 34.5288C35.3209 27.1162 35.3209 19.7036 35.3184 12.291Z" fill="white"/>
<path d="M70.3706 12.3103C71.3401 12.3025 72.3096 12.3051 73.2816 12.3077C73.2894 16.6839 73.2687 21.0626 73.2919 25.4388C73.3358 27.3631 73.573 29.4788 74.9292 30.9608C77.0873 33.0842 81.3262 32.7816 82.832 30.0297C83.5926 28.7365 83.8143 27.2053 83.7937 25.7259C83.7756 21.254 83.7756 16.7821 83.7782 12.3077C84.7477 12.3025 85.7172 12.3051 86.6866 12.3077C86.6866 16.8727 86.6969 21.4377 86.6841 26.0026C86.6892 28.0743 86.3308 30.265 85.0107 31.9307C82.1719 35.8749 75.5919 36.0999 72.4823 32.3729C71.0049 30.8211 70.3964 28.633 70.3758 26.5277C70.3629 21.7894 70.3732 17.0485 70.3706 12.3103Z" fill="white"/>
<path d="M90.2702 12.2884C91.2242 12.278 92.1807 12.2806 93.1373 12.2858C93.1373 19.6984 93.1399 27.111 93.1348 34.5262C92.1807 34.5262 91.2242 34.5287 90.2676 34.521C90.2727 27.111 90.2727 19.6984 90.2702 12.2884Z" fill="white"/>
<path d="M118.982 12.3091C120.032 12.2806 121.086 12.2806 122.138 12.2858C124.34 17.6914 126.509 23.1099 128.672 28.5309C130.83 23.128 133.05 17.7509 135.159 12.3298C136.24 12.2393 137.322 12.3013 138.405 12.2858C135.185 20.151 131.952 28.0111 128.703 35.8634C125.397 28.0395 122.211 20.164 118.982 12.3091Z" fill="white"/>
<path d="M139.716 12.2812C140.67 12.2942 141.624 12.3045 142.58 12.3019C142.614 16.6109 142.575 20.9224 142.611 25.2313C142.678 27.2771 142.836 29.5971 144.393 31.1128C146.19 32.6568 149.052 32.7525 150.971 31.3792C152.087 30.5826 152.701 29.2583 152.943 27.9393C153.325 25.6684 153.188 23.3588 153.214 21.0672C153.229 18.1472 153.232 15.2272 153.227 12.3071C154.145 12.2968 155.065 12.2994 155.985 12.3019C156.027 16.3522 155.993 20.3999 156.004 24.4502C156.068 26.9616 155.988 29.6877 154.464 31.8085C151.796 35.67 145.654 36.0864 142.276 32.9491C140.587 31.3818 139.739 29.0695 139.726 26.7883C139.7 21.9518 139.721 17.1178 139.716 12.2812Z" fill="white"/>
<path d="M159.59 12.3052C160.585 12.3078 161.58 12.2975 162.578 12.2871C162.578 19.6997 162.575 27.1123 162.578 34.5275C161.575 34.5301 160.575 34.5301 159.574 34.5275C159.564 27.1201 159.597 19.7127 159.59 12.3052Z" fill="white"/>
<path d="M164.363 12.3022C173.303 12.31 182.239 12.2867 191.178 12.2893C191.176 13.1764 191.176 14.0635 191.178 14.9532C189.464 14.961 187.752 14.9532 186.04 14.9558C186.032 21.4787 186.037 28.0016 186.037 34.5245C185.039 34.5271 184.044 34.5271 183.046 34.5245C183.041 28.0016 183.064 21.4787 183.036 14.9558C179.527 14.961 176.018 14.9533 172.508 14.9584C172.503 21.4813 172.508 28.0016 172.506 34.5245C171.59 34.5271 170.675 34.5271 169.762 34.5245C169.76 28.0016 169.765 21.4813 169.76 14.9584C167.96 14.9533 166.163 14.961 164.363 14.9532C164.361 14.0687 164.361 13.1842 164.363 12.3022Z" fill="white"/>
</svg>
