<svg width="117" height="117" viewBox="0 0 117 117" fill="none" xmlns="http://www.w3.org/2000/svg">
<rect x="1.02051" y="1.29004" width="115" height="115" rx="15.5" stroke="#EDEEF7" stroke-opacity="0.3"/>
<g clip-path="url(#clip0_671_6346)">
<path d="M45.8494 50.961C44.6383 52.8496 43.4256 54.7382 42.1489 56.7273C40.9027 54.7801 39.7124 52.9183 38.4805 50.9929C38.2517 51.3297 38.3253 51.638 38.3253 51.9196C38.3173 54.2623 38.3029 56.6067 38.3317 58.9494C38.3397 59.5795 38.2037 59.8426 37.543 59.8175C35.9192 59.7554 36.1911 59.9582 36.1863 58.388C36.1719 54.8739 36.1991 51.3582 36.1671 47.8441C36.1607 47.1738 36.3703 47.0615 36.9751 46.9878C38.1173 46.8487 38.7621 47.3112 39.314 48.3301C40.1731 49.9187 41.1794 51.4219 42.1825 53.0557C43.3504 51.1621 44.4559 49.364 45.5662 47.5676C45.8462 47.1135 47.6268 46.7666 48.0267 47.0833C48.2315 47.2459 48.1659 47.4905 48.1659 47.7033C48.1707 51.5241 48.1627 55.3465 48.1755 59.1673C48.1755 59.6231 48.0571 59.7973 47.5948 59.8141C46.0301 59.8744 46.0301 59.8929 46.0301 58.2858C46.0301 55.866 46.0301 53.4462 46.0301 51.0264C45.9693 51.0029 45.9102 50.9795 45.8494 50.956V50.961Z" fill="#000"/>
<path d="M67.1536 50.837C67.1536 53.6808 67.1328 56.3034 67.168 58.9243C67.1776 59.6013 67.0304 59.8493 66.3409 59.8225C65.0386 59.7705 65.0386 59.8124 65.0386 58.4383C65.0386 54.9225 65.0562 51.4051 65.0226 47.8893C65.0162 47.1905 65.2146 47.0263 65.8705 46.9928C66.7152 46.9492 67.2224 47.2576 67.7183 47.9547C69.3886 50.3024 71.1244 52.5999 72.8442 54.9074C73.0138 55.1354 73.1178 55.4504 73.5369 55.5727C73.5369 54.2908 73.5369 53.0507 73.5369 51.8106C73.5369 50.4717 73.5561 49.1311 73.5273 47.7921C73.5161 47.2492 73.6169 46.9995 74.2169 47.0062C75.6535 47.023 75.6535 46.9895 75.6535 48.501C75.6535 51.9899 75.6407 55.4789 75.6663 58.9662C75.6711 59.5979 75.5351 59.8292 74.8856 59.8342C74.1561 59.8392 73.6777 59.6398 73.2186 58.9946C71.4364 56.4911 69.5837 54.0428 67.7551 51.5744C67.6111 51.3816 67.4512 51.2023 67.1536 50.8387V50.837Z" fill="#000"/>
<path d="M87.0276 52.6753C87.6675 52.6753 88.309 52.7122 88.9442 52.6636C89.5249 52.62 89.6641 52.8681 89.6513 53.4311C89.6193 54.7701 89.6401 56.109 89.6417 57.4479C89.6417 57.7596 89.6289 58.0462 89.3601 58.2707C86.5188 60.652 82.1992 60.657 79.8763 58.0445C78.1021 56.052 77.6989 52.8815 78.9004 50.398C80.1451 47.8257 82.6712 46.4951 85.5717 46.8722C86.7604 47.0263 87.8355 47.457 88.797 48.2111C89.0866 48.4373 89.2097 48.6401 88.901 48.9367C88.8818 48.9551 88.8642 48.9769 88.8482 48.9987C88.2669 49.7841 87.5667 49.9422 86.7476 49.473C84.9846 48.4625 82.884 48.7725 81.6169 50.2287C80.241 51.8106 80.0875 54.4299 81.2649 56.2095C82.356 57.8568 84.5126 58.4266 86.5028 57.592C87.3939 57.2183 87.9203 55.7588 87.5027 54.8488C87.3779 54.5773 87.1508 54.6427 86.954 54.6393C86.314 54.6276 85.6741 54.6159 85.0358 54.6393C84.6006 54.6561 84.3814 54.5137 84.4278 54.0227C84.4534 53.7462 84.4486 53.4646 84.4278 53.1865C84.399 52.7759 84.583 52.6569 84.9494 52.667C85.6421 52.6854 86.3348 52.672 87.0276 52.672V52.6753Z" fill="#000"/>
<path d="M29.2881 57.3825C29.2881 52.558 29.2881 47.7335 29.2881 42.9073C29.2881 42.6844 29.2913 42.4615 29.2945 42.2386C29.2977 41.9404 29.4769 41.87 29.7185 41.875C29.9393 41.88 30.0672 41.9806 30.0672 42.2269C30.0672 42.4213 30.072 42.6174 30.072 42.8118C30.072 52.5178 30.072 62.2222 30.072 71.9282C30.072 72.1511 30.072 72.3739 30.0592 72.5968C30.0464 72.8046 29.9041 72.87 29.7281 72.8733C29.5345 72.8784 29.3345 72.8666 29.3057 72.6069C29.2817 72.3857 29.2865 72.1611 29.2865 71.9382C29.2865 67.0852 29.2865 62.2322 29.2865 57.3809L29.2881 57.3825Z" fill="#000"/>
<path d="M21.2775 49.3438C21.0087 49.6035 20.7416 49.8633 20.4616 50.1347C20.244 48.5009 22.119 46.619 24.0276 46.8352C24.3796 46.8754 24.3492 47.1301 24.3508 47.3848C24.3556 49.2667 22.6486 50.8972 20.8008 50.7464C20.8392 50.2336 21.2423 49.942 21.4567 49.5432C21.4967 49.3773 21.4967 49.2533 21.2775 49.3438Z" fill="#000"/>
<path d="M38.6999 67.9214C37.5753 67.9348 36.6601 67.2762 36.329 66.2422C35.9882 65.1815 36.2938 64.0436 37.0985 63.37C37.8888 62.708 39.1847 62.636 40.023 63.2225C40.2246 63.3633 40.5542 63.4672 40.2806 63.8476C40.0614 64.1542 39.8758 64.1341 39.5527 63.9531C38.2536 63.2225 37.0409 63.9816 37.0969 65.453C37.1481 66.8036 38.3656 67.5343 39.4871 66.8539C39.8134 66.6562 40.0998 66.4148 40.3366 66.879C40.5701 67.3399 40.095 67.4186 39.8742 67.5728C39.5191 67.8225 39.1015 67.9415 38.7015 67.9197L38.6999 67.9214Z" fill="#000"/>
<path d="M80.4222 65.7881C80.4222 65.5099 80.3982 65.2284 80.427 64.9519C80.5086 64.1257 80.411 63.5023 79.3727 63.7286C79.1183 63.7839 78.9071 63.7017 78.8959 63.3431C78.8847 62.9409 79.1039 62.894 79.4047 62.8974C80.363 62.9041 81.3197 62.9041 82.278 62.8991C82.5532 62.8991 82.7387 62.9577 82.7371 63.3063C82.7371 63.6364 82.5771 63.7906 82.294 63.7286C81.2381 63.4973 81.2029 64.1525 81.2461 64.9619C81.2877 65.7395 81.2493 66.5221 81.2573 67.3013C81.2605 67.6197 81.2061 67.8375 80.8285 67.8392C80.4366 67.8409 80.4158 67.5979 80.419 67.2946C80.4254 66.7935 80.4206 66.2908 80.4206 65.7897L80.4222 65.7881Z" fill="#000"/>
<path d="M101.278 65.2937C101.278 64.6519 101.283 64.0101 101.278 63.37C101.275 63.0784 101.349 62.9007 101.678 62.894C102.019 62.8873 102.16 63.0164 102.156 63.3767C102.147 64.3804 102.176 65.3859 102.147 66.388C102.132 66.8991 102.302 67.0918 102.79 67.0566C103.24 67.0231 103.696 67.055 104.148 67.0533C104.419 67.0533 104.617 67.1119 104.607 67.4672C104.599 67.7739 104.427 67.8376 104.191 67.8376C103.366 67.8392 102.54 67.8359 101.715 67.8409C101.355 67.8426 101.272 67.6298 101.277 67.303C101.286 66.6344 101.28 65.964 101.28 65.2954L101.278 65.2937Z" fill="#000"/>
<path d="M70.6854 65.2921C70.6854 64.6536 70.6886 64.0151 70.6854 63.3767C70.6838 63.1035 70.7078 62.8957 71.0581 62.8941C71.4117 62.8924 71.5189 63.0499 71.5157 63.3934C71.5077 64.6972 71.5093 66.0026 71.5157 67.308C71.5173 67.6298 71.4533 67.8342 71.0821 67.8376C70.6822 67.8409 70.6822 67.5862 70.6838 67.2896C70.6886 66.6226 70.6838 65.9574 70.6838 65.2904L70.6854 65.2921Z" fill="#000"/>
<path d="M21.2783 49.3439C21.4175 49.1395 21.5935 48.997 21.8975 48.9333C21.8927 49.2903 21.6447 49.3942 21.4575 49.5433L21.2783 49.3439Z" fill="#FBB066"/>
<path d="M98.3085 46.8304C94.6593 46.8186 91.8627 49.6708 91.8467 53.4211C91.8308 57.1397 94.6049 60.0287 98.1965 60.0337C101.79 60.0387 104.577 57.1849 104.604 53.4714C104.631 49.711 101.911 46.8421 98.3085 46.8304ZM98.2525 57.9256C95.8815 57.9223 94.1073 55.9784 94.1105 53.3927C94.1137 50.8572 95.8975 48.8999 98.2125 48.8899C100.521 48.8798 102.354 50.9025 102.353 53.4597C102.353 56.0219 100.599 57.929 98.2525 57.9256Z" fill="#000"/>
<path d="M62.6925 59.1421C61.0607 55.2694 59.4273 51.3984 57.8402 47.5056C57.4931 46.656 56.8723 47.0447 56.3508 46.966C55.914 46.8989 55.5669 46.9559 55.3477 47.5106C54.5478 49.5433 53.6855 51.5509 52.8455 53.5668C52.0696 55.4303 51.2889 57.2904 50.521 59.1572C50.425 59.3901 50.1178 59.7102 50.697 59.8057C52.084 60.0353 52.4232 59.856 52.9703 58.5053C53.1367 58.0947 53.3383 57.6976 53.4711 57.277C53.6151 56.8262 53.879 56.7055 54.3126 56.7173C55.3509 56.7457 56.3892 56.7273 57.4275 56.7273C59.4881 56.7273 59.5249 56.7122 60.2464 58.7717C60.5296 59.5778 60.8863 60.0202 61.5999 59.8074C61.9246 59.8074 62.1118 59.7906 62.2974 59.8107C62.8829 59.8744 62.8957 59.6314 62.6893 59.1438L62.6925 59.1421ZM58.1682 54.7197C56.9843 54.7097 55.8004 54.7164 54.4998 54.7164C55.1909 53.0255 55.834 51.4537 56.506 49.8131C56.9779 50.3711 57.1043 51.028 57.3651 51.6062C57.749 52.4591 58.0802 53.3356 58.4418 54.1986C58.573 54.5103 58.6034 54.7231 58.1682 54.7197Z" fill="#000"/>
<path d="M20.4008 51.0063C20.0281 50.889 20.1129 50.5941 20.0985 50.331C20.0441 49.3842 20.0441 48.4357 19.8921 47.4956C19.7753 46.7733 19.2938 46.889 18.8554 46.9828C18.3354 47.0934 18.4602 47.4973 18.5994 47.8408C18.9114 48.6167 19.1162 49.4194 19.281 50.2405C19.3689 50.6762 19.2954 50.8052 18.8362 50.832C14.8142 51.0633 12.7376 53.0223 12.1601 57.1681C11.8721 59.2327 11.3953 61.2117 10.3299 63.0031C10.1075 63.3785 9.9363 63.7974 9.79711 64.2164C9.24357 65.8737 9.9171 67.2277 11.5345 67.7271C12.56 68.0422 13.6031 68.0137 14.6158 67.7053C17.9771 66.6814 20.7336 64.7325 22.7238 61.6826C23.6453 60.27 24.1445 58.6931 24.1397 56.6805C23.9941 54.2204 23.2262 51.9029 20.4024 51.008L20.4008 51.0063ZM21.4631 61.0525C19.6169 63.66 17.19 65.3777 14.1823 66.1552C13.1648 66.4183 12.0353 66.6144 11.2946 65.5989C10.557 64.5884 10.9986 63.4958 11.5377 62.544C12.5216 60.8096 13.1008 58.9528 13.3152 56.957C13.36 56.5431 13.4783 56.1392 13.5519 55.727C14.1407 52.4709 16.542 51.5091 18.705 51.4722C21.8503 51.3599 23.2182 54.6461 22.9638 57.138C22.8166 58.5841 22.2886 59.8862 21.4631 61.0509V61.0525Z" fill="#000"/>
<path d="M63.3121 64.4509C63.2577 63.6131 62.677 63.0064 61.7795 62.9243C61.2243 62.874 60.6612 62.9159 60.1013 62.8975C59.7429 62.8858 59.6405 63.0668 59.6469 63.4069C59.6581 64.0488 59.6501 64.6906 59.6501 65.3341C59.6501 65.9759 59.6581 66.6194 59.6469 67.2612C59.6405 67.6165 59.7045 67.8544 60.122 67.836C60.5492 67.8176 60.5108 67.4992 60.4724 67.2411C60.346 66.4032 60.6996 66.1351 61.4467 66.2557C61.6003 66.2809 61.7667 66.244 61.9219 66.2122C62.8242 66.0195 63.3665 65.3274 63.3105 64.4526L63.3121 64.4509ZM61.1747 65.4631C60.3044 65.5352 60.5268 64.9436 60.4708 64.4476C60.3908 63.7438 60.7492 63.6499 61.1987 63.7253C61.8419 63.7253 62.3826 63.7873 62.4322 64.5515C62.4722 65.1615 62.0355 65.3927 61.1747 65.4648V65.4631Z" fill="#000"/>
<path d="M52.2409 67.5461C52.1817 67.3919 52.1241 67.2361 52.0601 67.0836C51.5498 65.8619 51.0362 64.642 50.5307 63.4187C50.4123 63.1321 50.3195 62.8858 49.9339 62.869C49.502 62.8506 49.4044 63.1371 49.2748 63.4455C48.7677 64.6688 48.2461 65.8854 47.755 67.1154C47.6734 67.3198 47.323 67.6098 47.7198 67.7974C48.0285 67.9432 48.3789 67.8527 48.4669 67.4271C48.6205 66.678 49.11 66.621 49.7196 66.6378C50.4363 66.6562 51.1674 66.5205 51.3754 67.5561C51.4442 67.898 51.7818 67.8511 52.0489 67.8226C52.2009 67.8058 52.2937 67.7287 52.2361 67.5477L52.2409 67.5461ZM49.814 65.9105C49.1452 65.9424 49.0988 65.7094 49.382 65.1749C49.5564 64.8447 49.6092 64.4476 49.9451 64.0756C50.1051 64.4459 50.2283 64.7207 50.3435 64.9989C50.7195 65.9072 50.7163 65.8686 49.8124 65.9122L49.814 65.9105Z" fill="#000"/>
<path d="M93.7478 67.2176C93.2183 65.9407 92.6855 64.6655 92.1592 63.3885C92.0392 63.0969 91.9288 62.8623 91.5432 62.869C91.1577 62.8741 91.0521 63.117 90.9337 63.4053C90.4282 64.6319 89.9066 65.8519 89.4139 67.0836C89.3275 67.3014 88.9947 67.5997 89.3435 67.7891C89.6842 67.9717 90.033 67.8243 90.1354 67.3701C90.2826 66.7149 90.7017 66.5708 91.2713 66.6462C91.4808 66.6747 91.7 66.6747 91.9096 66.6462C92.4344 66.5725 92.7815 66.7468 92.9191 67.3165C92.9959 67.6299 93.1511 67.888 93.4311 67.8444C94.0742 67.8125 93.863 67.4925 93.7494 67.2176H93.7478ZM90.9305 65.7899C90.6665 65.4765 91.1481 65.0006 91.2665 64.5833C91.3097 64.4309 91.4041 64.2951 91.5544 63.9884C91.844 64.6772 92.0776 65.2319 92.332 65.8402C91.772 65.9038 91.1833 66.0899 90.9289 65.7899H90.9305Z" fill="#000"/>
<path d="M21.5711 56.8529C21.5407 57.8315 21.168 58.775 20.6656 59.6715C20.5216 59.9296 20.3089 60.1206 20.0097 59.9598C19.6817 59.7821 19.6721 59.4755 19.8433 59.1772C20.5984 57.8667 20.9232 56.5261 20.1841 55.0749C20.0657 54.8403 20.1281 54.5705 20.3856 54.4314C20.6896 54.2672 20.9104 54.4314 21.0432 54.6978C21.3679 55.3447 21.5631 56.0351 21.5695 56.8546L21.5711 56.8529Z" fill="#000"/>
</g>
<defs>
<clipPath id="clip0_671_6346">
<rect width="95" height="31" fill="#000" transform="translate(9.60547 41.875)"/>
</clipPath>
</defs>
</svg>
