<svg width="56" height="56" viewBox="0 0 56 56" fill="none" xmlns="http://www.w3.org/2000/svg">
<path d="M17.5471 13.2532H14.2977C13.3874 13.2532 12.6494 13.9911 12.6494 14.9015V41.9669C12.6494 42.8773 13.3874 43.6152 14.2977 43.6152H42.2639C43.1743 43.6152 43.9122 42.8773 43.9122 41.9669V38.1921" stroke="#705B8C" stroke-width="1.5"/>
<path d="M11.8942 18.1321H9.41685C8.50652 18.1321 7.76855 18.87 7.76855 19.7804V46.8458C7.76855 47.7562 8.50652 48.4941 9.41685 48.4941H37.3831C38.2934 48.4941 39.0314 47.7562 39.0314 46.8458V44.3654" stroke="#705B8C" stroke-width="1.5"/>
<rect x="17.5283" y="8.37329" width="31.2628" height="30.3621" rx="3" stroke="#EDEEF7" stroke-width="1.5"/>
<path d="M39.0076 22.6888C39.6743 23.0737 39.6743 24.0359 39.0076 24.4208L29.2627 30.0471C28.596 30.432 27.7627 29.9509 27.7627 29.1811L27.7627 17.9286C27.7627 17.1588 28.596 16.6777 29.2627 17.0626L39.0076 22.6888Z" stroke="#EDEEF7" stroke-width="1.5"/>
</svg>
