<svg width="56" height="56" viewBox="0 0 56 56" fill="none" xmlns="http://www.w3.org/2000/svg">
<path d="M18.8853 15.5834H45.9969" stroke="#EDEEF7" stroke-width="1.5" stroke-linecap="round" stroke-linejoin="round"/>
<path d="M18.8853 25.2416H45.9969" stroke="#705B8C" stroke-width="1.5" stroke-linecap="round" stroke-linejoin="round"/>
<path d="M18.8853 34.9008H43.1762" stroke="#EDEEF7" stroke-width="1.5" stroke-linecap="round" stroke-linejoin="round"/>
<path d="M18.8853 20.4125H44.1388" stroke="#EDEEF7" stroke-width="1.5" stroke-linecap="round" stroke-linejoin="round"/>
<path d="M18.8853 30.0707H41.1959" stroke="#705B8C" stroke-width="1.5" stroke-linecap="round" stroke-linejoin="round"/>
<path d="M18.8853 39.7299H45.1013" stroke="#705B8C" stroke-width="1.5" stroke-linecap="round" stroke-linejoin="round"/>
<path d="M9.74658 34.7728H13.0682C13.2118 34.7728 13.3282 34.8892 13.3282 35.0328V36.776C13.3282 37.3283 12.8804 37.776 12.3282 37.776H10.6606L12.3388 37.7939C12.8869 37.7998 13.3282 38.2457 13.3282 38.7939V40.5658C13.3282 40.7094 13.2118 40.8258 13.0682 40.8258H9.74658" stroke="#EDEEF7" stroke-width="1.5" stroke-linecap="round" stroke-linejoin="round"/>
<path d="M9.84985 14.4877H11.4496C11.5932 14.4877 11.7096 14.6041 11.7096 14.7477V20.411M10.332 20.411H13.2249" stroke="#EDEEF7" stroke-width="1.5" stroke-linecap="round" stroke-linejoin="round"/>
<path d="M9.78101 24.6996H13.0337C13.1773 24.6996 13.2937 24.816 13.2937 24.9596V27.2634C13.2937 27.407 13.1773 27.5234 13.0337 27.5234H10.041C9.89741 27.5234 9.78101 27.6398 9.78101 27.7834V30.2252C9.78101 30.3688 9.89741 30.4852 10.041 30.4852H13.2937" stroke="#EDEEF7" stroke-width="1.5" stroke-linecap="round" stroke-linejoin="round"/>
</svg>
