<svg width="272" height="47" viewBox="0 0 272 47" fill="none" xmlns="http://www.w3.org/2000/svg">
<path d="M130.153 36.2137C128.796 36.2137 127.481 36.2137 126.166 36.2137C126.166 30.0535 126.166 23.9212 126.166 17.7192C126.768 17.7192 127.369 17.7052 127.971 17.7331C128.041 17.7331 128.125 17.9143 128.166 18.0118C128.67 19.6146 129.174 21.2174 129.663 22.8202C129.691 22.9316 129.733 23.0292 129.803 23.2243C130.013 22.2209 130.335 21.3568 130.838 20.5623C131.958 18.7923 133.58 17.761 135.637 17.3986C137.022 17.1617 138.421 17.1896 139.792 17.5241C142.058 18.0676 143.373 19.531 143.877 21.747C143.918 21.9003 143.946 22.0675 143.988 22.2209C143.988 22.2348 144.002 22.2348 144.03 22.2766C144.072 22.193 144.128 22.1233 144.142 22.0536C145.066 19.5031 146.856 17.9143 149.528 17.4265C151.389 17.0781 153.249 17.1338 155.012 17.9282C156.607 18.653 157.446 19.9491 157.866 21.5797C158.132 22.5972 158.202 23.6424 158.216 24.6738C158.216 28.4229 158.216 32.158 158.216 35.9071C158.216 36.0047 158.202 36.0883 158.202 36.1998C156.887 36.1998 155.586 36.1998 154.243 36.1998C154.229 36.0604 154.215 35.921 154.215 35.7677C154.215 32.1998 154.215 28.6319 154.215 25.0501C154.215 24.1721 154.131 23.308 153.795 22.4996C153.403 21.5519 152.732 20.855 151.753 20.5345C149.934 19.9491 148.143 20.0188 146.465 20.9944C145.233 21.7052 144.59 22.8759 144.324 24.2278C144.24 24.6738 144.198 25.1198 144.198 25.5797C144.184 28.9664 144.198 32.3531 144.198 35.7399C144.198 35.8932 144.198 36.0325 144.198 36.1998C142.855 36.1998 141.554 36.1998 140.197 36.1998C140.197 36.0604 140.197 35.921 140.197 35.7817C140.197 32.1301 140.211 28.4786 140.183 24.8271C140.183 24.186 140.085 23.5309 139.904 22.9038C139.54 21.6076 138.672 20.7714 137.357 20.423C135.973 20.0467 134.574 20.0885 133.245 20.5902C131.538 21.2313 130.615 22.5553 130.279 24.2975C130.209 24.6738 130.181 25.078 130.181 25.4682C130.167 28.8967 130.181 32.3392 130.181 35.7677C130.153 35.921 130.153 36.0604 130.153 36.2137Z" fill="white"/>
<path d="M70.3364 36.228C68.8675 36.228 67.4546 36.228 66.0137 36.228C66.0137 27.587 66.0137 18.9599 66.0137 10.305C66.1536 10.305 66.2795 10.305 66.4054 10.305C69.9027 10.291 73.414 10.291 76.9254 10.291C79.0098 10.291 81.0942 10.4025 83.1366 10.9182C84.8293 11.3363 86.4101 12.0053 87.5433 13.4269C88.2288 14.291 88.5785 15.2805 88.6904 16.3676C88.8163 17.5523 88.7464 18.723 88.2987 19.8519C87.6832 21.4128 86.4941 22.4024 84.9972 23.0714C83.4584 23.7543 81.8356 24.1306 80.1569 24.1863C77.0513 24.2839 73.9456 24.2978 70.826 24.3396C70.6721 24.3396 70.5322 24.3396 70.3364 24.3396C70.3364 28.2978 70.3364 32.242 70.3364 36.228ZM70.3504 21.5104C70.7421 21.5104 71.1338 21.5104 71.5115 21.5104C74.0296 21.4825 76.5337 21.4825 79.0517 21.4128C80.073 21.385 81.0802 21.148 82.0175 20.716C83.4864 20.0191 84.1998 18.8484 84.1718 17.2456C84.1439 15.615 83.3605 14.4861 81.8496 13.845C80.5766 13.3154 79.2476 13.1621 77.8906 13.1481C75.4845 13.1203 73.0643 13.1342 70.6581 13.1202C70.5602 13.1202 70.4623 13.1342 70.3504 13.1481C70.3504 15.9355 70.3504 18.709 70.3504 21.5104Z" fill="white"/>
<path d="M183.077 27.4192C182.951 27.4192 182.867 27.4192 182.783 27.4192C177.873 27.3216 172.949 27.2241 168.038 27.1405C167.535 27.1265 167.521 27.1405 167.563 27.6283C167.703 29.4401 168.276 31.0568 169.703 32.2693C170.794 33.2031 172.081 33.6491 173.508 33.7327C174.487 33.7885 175.467 33.7327 176.404 33.3703C178.055 32.7292 178.964 31.4749 179.356 29.8024C179.426 29.5237 179.468 29.231 179.524 28.8965C179.971 29.022 180.405 29.1335 180.839 29.2589C181.65 29.4958 182.461 29.7467 183.287 29.9697C183.581 30.0533 183.622 30.1648 183.539 30.4436C182.657 33.1334 180.853 34.9452 178.209 35.9348C176.138 36.7013 173.998 36.8546 171.815 36.5341C170.179 36.2971 168.682 35.7536 167.311 34.8477C165.492 33.6212 164.275 31.9488 163.674 29.8303C163.226 28.2415 163.142 26.6248 163.436 25.0081C163.981 21.9558 165.604 19.6562 168.472 18.3043C170.487 17.3566 172.613 17.1336 174.809 17.3009C176.012 17.3984 177.173 17.6493 178.279 18.151C180.209 19.0291 181.524 20.4785 182.308 22.4297C182.923 24.0185 183.147 25.6631 183.077 27.4192ZM173.256 25.1056C173.256 25.0638 173.256 25.1474 173.256 25.1056C174.753 25.1056 176.236 24.9663 177.733 24.9663C178.013 24.9663 178.293 24.9523 178.572 24.9523C178.768 24.9523 178.866 24.8687 178.838 24.6736C178.53 22.8896 177.705 21.4402 175.956 20.6876C174.963 20.2555 173.9 20.144 172.823 20.2137C170.137 20.381 168.346 22.2346 167.801 24.7154C167.731 25.0499 167.829 25.1056 168.15 25.1056C169.829 25.1056 171.536 25.1056 173.256 25.1056Z" fill="white"/>
<path d="M91.0957 22.6954C91.3895 21.901 91.8371 21.232 92.3547 20.6048C93.9775 18.6815 96.1039 17.7059 98.566 17.3575C100.077 17.1484 101.588 17.1763 103.085 17.5108C104.973 17.9428 106.61 18.7512 107.659 20.4655C108.373 21.6222 108.568 22.9045 108.54 24.2285C108.484 26.5699 108.415 28.9114 108.359 31.2528C108.345 31.7127 108.345 32.1866 108.456 32.6326C108.638 33.4409 109.324 33.8172 110.149 33.6918C110.947 33.5663 111.492 33.1064 111.954 32.4932C112.01 32.4235 112.066 32.3399 112.122 32.2702C112.136 32.2423 112.178 32.2284 112.248 32.2005C112.387 32.7162 112.527 33.204 112.667 33.6918C112.751 34.0123 112.835 34.3468 112.933 34.6674C113.003 34.9043 112.975 35.1134 112.765 35.2806C110.961 36.7161 108.932 37.0088 106.778 36.312C105.687 35.9496 105.001 35.0716 104.721 33.9427C104.4 32.6604 104.539 31.3643 104.511 30.0681C104.511 29.9009 104.497 29.7336 104.484 29.5664C104.456 29.5525 104.428 29.5525 104.386 29.5385C104.316 29.6918 104.232 29.8312 104.162 29.9845C103.448 31.5176 102.581 32.9531 101.406 34.1796C100.273 35.3642 98.9577 36.2841 97.279 36.5489C95.8801 36.7719 94.5371 36.6743 93.348 35.8102C92.3547 35.0855 91.8651 34.082 91.7672 32.8834C91.6553 31.42 92.1589 30.1518 93.0122 29.0089C94.2713 27.3365 96.02 26.3469 97.9225 25.5943C99.923 24.7999 102.021 24.3679 104.148 24.117C104.414 24.0891 104.497 23.9916 104.497 23.7267C104.484 21.9428 103.378 20.6048 101.602 20.2843C99.5872 19.9219 97.7686 20.354 96.3557 21.901C95.922 22.3748 95.6562 23.002 95.3345 23.5874C95.2226 23.7964 95.1386 23.894 94.8868 23.8243C93.6977 23.4759 92.5226 23.1414 91.3335 22.8069C91.2776 22.793 91.2076 22.7512 91.0957 22.6954ZM104.497 25.2598C104.386 25.2738 104.302 25.2738 104.232 25.3016C103.462 25.5386 102.693 25.7337 101.937 26.0124C100.175 26.6675 98.4681 27.448 97.1951 28.8974C96.4256 29.7755 95.964 30.765 96.0339 31.9636C96.1039 33.204 96.8313 33.8312 98.0764 33.7197C98.9717 33.636 99.7551 33.2458 100.455 32.7162C102.231 31.3503 103.42 29.5385 104.274 27.4898C104.581 26.779 104.553 26.0403 104.497 25.2598Z" fill="white"/>
<path d="M200.915 23.95C200.719 23.3228 200.621 22.7235 200.369 22.1939C200.062 21.5388 199.516 21.0789 198.845 20.7723C197.264 20.0476 195.613 20.0197 193.962 20.396C193.039 20.605 192.242 21.0789 192.018 22.1242C191.864 22.821 192.088 23.4064 192.675 23.8385C193.599 24.5074 194.69 24.7583 195.795 24.9674C197.684 25.3158 199.572 25.6363 201.447 26.0266C202.496 26.2496 203.461 26.7095 204.328 27.3785C205.755 28.4935 206.357 30.5701 205.755 32.3401C205.252 33.8592 204.175 34.8627 202.79 35.5596C200.859 36.5352 198.789 36.8139 196.648 36.6745C194.914 36.563 193.221 36.2843 191.64 35.5456C189.486 34.5422 187.905 32.9812 187.136 30.6816C187.122 30.6537 187.122 30.6398 187.108 30.6119C186.94 30.0684 186.94 30.0684 187.499 29.9011C188.576 29.5806 189.668 29.2739 190.745 28.9673C190.843 28.9394 190.941 28.9255 190.983 28.9255C191.136 29.5666 191.22 30.2077 191.458 30.7931C191.99 32.0892 193.039 32.8279 194.326 33.246C195.921 33.7477 197.558 33.915 199.222 33.5944C199.838 33.469 200.425 33.2321 200.915 32.814C202.048 31.8523 201.936 30.2774 200.677 29.483C199.88 28.9813 198.999 28.7443 198.103 28.5631C196.173 28.1868 194.228 27.8942 192.312 27.4482C190.983 27.1416 189.78 26.5004 188.898 25.3994C187.569 23.7548 187.737 21.0232 189.388 19.4343C190.479 18.389 191.794 17.8176 193.235 17.5249C195.445 17.065 197.642 17.1626 199.81 17.7619C201.447 18.2079 202.888 19.0302 203.895 20.4517C204.342 21.0928 204.706 21.7758 204.832 22.5562C204.846 22.6538 204.762 22.835 204.678 22.8629C203.433 23.2392 202.174 23.5876 200.929 23.95C200.929 23.9639 200.901 23.95 200.915 23.95Z" fill="white"/>
<path d="M120.069 36.2127C118.74 36.2127 117.425 36.2127 116.096 36.2127C116.096 27.6971 116.096 19.2094 116.096 10.7217C117.411 10.5963 118.726 10.4848 120.069 10.3594C120.069 18.9586 120.069 27.5717 120.069 36.2127Z" fill="white"/>
</svg>
