<svg width="33" height="17" viewBox="0 0 33 17" fill="none" xmlns="http://www.w3.org/2000/svg">
<path d="M16.4185 0.550629C7.56042 0.550629 0.378906 4.18996 0.378906 8.67912C0.378906 13.1683 7.56042 16.8076 16.4185 16.8076C25.2766 16.8076 32.4581 13.1683 32.4581 8.67912C32.4581 4.18996 25.2766 0.550629 16.4185 0.550629ZM12.2449 10.2628C11.8621 10.6209 11.4371 10.7687 10.969 10.921C10.5009 11.0735 9.90516 11.042 9.18082 11.042H7.53915L7.08417 13.6674H5.16737L6.87782 4.74103H10.5639C11.6728 4.74103 12.4817 5.06001 12.9903 5.64206C13.4988 6.22411 13.6516 7.05033 13.4489 8.0934C13.3652 8.52318 13.2242 8.92276 13.0252 9.27876C12.8259 9.63503 12.5657 9.96767 12.2449 10.2628ZM17.8399 11.042L18.5963 7.25616C18.6824 6.81299 18.6509 6.48377 18.5015 6.32283C18.3519 6.16163 18.0337 6.05373 17.5472 6.05373H16.0271L15.0475 11.042H13.1457L14.8561 2.37817H16.758L16.3033 4.74103H17.9974C19.0636 4.74103 19.7987 4.955 20.2033 5.32675C20.6079 5.69851 20.7292 6.20784 20.5674 7.04061L19.7717 11.042H17.8399ZM28.4095 8.10731C28.326 8.53709 28.1848 8.92985 27.986 9.28559C27.787 9.64186 27.5271 9.96767 27.206 10.2628C26.8232 10.6209 26.3979 10.7687 25.9301 10.921C25.4622 11.0735 24.866 11.042 24.1416 11.042H22.5L22.0453 13.6674H20.1285L21.8386 4.74103H25.525C26.6339 4.74103 27.4428 5.06001 27.9511 5.64206C28.4591 6.22411 28.6122 7.0645 28.4095 8.10731ZM24.7985 6.05373H23.4856L22.7696 9.72928H23.9358C24.7082 9.72928 25.2842 9.65315 25.6623 9.36173C26.0409 9.07083 26.2958 8.61927 26.4284 7.9385C26.5554 7.28451 26.4977 6.7744 26.2551 6.50556C26.0122 6.23672 25.5268 6.05373 24.7985 6.05373ZM9.83769 6.05373H8.52447L7.80852 9.72928H8.97446C9.74711 9.72928 10.3229 9.65315 10.7012 9.36173C11.0795 9.07083 11.3347 8.61927 11.467 7.9385C11.5941 7.28451 11.5363 6.7744 11.2937 6.50556C11.0511 6.23672 10.566 6.05373 9.83769 6.05373Z" fill="#4F5B93"/>
<path d="M16.4185 0.550629C7.56042 0.550629 0.378906 4.18996 0.378906 8.67912C0.378906 13.1683 7.56042 16.8076 16.4185 16.8076C25.2766 16.8076 32.4581 13.1683 32.4581 8.67912C32.4581 4.18996 25.2766 0.550629 16.4185 0.550629ZM12.2449 10.2628C11.8621 10.6209 11.4371 10.7687 10.969 10.921C10.5009 11.0735 9.90516 11.042 9.18082 11.042H7.53915L7.08417 13.6674H5.16737L6.87782 4.74103H10.5639C11.6728 4.74103 12.4817 5.06001 12.9903 5.64206C13.4988 6.22411 13.6516 7.05033 13.4489 8.0934C13.3652 8.52318 13.2242 8.92276 13.0252 9.27876C12.8259 9.63503 12.5657 9.96767 12.2449 10.2628ZM17.8399 11.042L18.5963 7.25616C18.6824 6.81299 18.6509 6.48377 18.5015 6.32283C18.3519 6.16163 18.0337 6.05373 17.5472 6.05373H16.0271L15.0475 11.042H13.1457L14.8561 2.37817H16.758L16.3033 4.74103H17.9974C19.0636 4.74103 19.7987 4.955 20.2033 5.32675C20.6079 5.69851 20.7292 6.20784 20.5674 7.04061L19.7717 11.042H17.8399ZM28.4095 8.10731C28.326 8.53709 28.1848 8.92985 27.986 9.28559C27.787 9.64186 27.5271 9.96767 27.206 10.2628C26.8232 10.6209 26.3979 10.7687 25.9301 10.921C25.4622 11.0735 24.866 11.042 24.1416 11.042H22.5L22.0453 13.6674H20.1285L21.8386 4.74103H25.525C26.6339 4.74103 27.4428 5.06001 27.9511 5.64206C28.4591 6.22411 28.6122 7.0645 28.4095 8.10731ZM24.7985 6.05373H23.4856L22.7696 9.72928H23.9358C24.7082 9.72928 25.2842 9.65315 25.6623 9.36173C26.0409 9.07083 26.2958 8.61927 26.4284 7.9385C26.5554 7.28451 26.4977 6.7744 26.2551 6.50556C26.0122 6.23672 25.5268 6.05373 24.7985 6.05373ZM9.83769 6.05373H8.52447L7.80852 9.72928H8.97446C9.74711 9.72928 10.3229 9.65315 10.7012 9.36173C11.0795 9.07083 11.3347 8.61927 11.467 7.9385C11.5941 7.28451 11.5363 6.7744 11.2937 6.50556C11.0511 6.23672 10.566 6.05373 9.83769 6.05373Z" fill="#000"/>
</svg>
