<svg width="50" height="50" viewBox="0 0 50 50" fill="none" xmlns="http://www.w3.org/2000/svg">
<path d="M25 14.7451C13.8246 14.7451 4.76434 19.3365 4.76434 25C4.76434 30.6636 13.8246 35.255 25 35.255C36.1754 35.255 45.2357 30.6636 45.2357 25C45.2357 19.3365 36.1754 14.7451 25 14.7451V14.7451ZM19.7346 26.9979C19.2516 27.4497 18.7154 27.6362 18.1248 27.8283C17.5343 28.0208 16.7827 27.981 15.8689 27.981H13.7978L13.2237 31.2932H10.8055L12.9634 20.0317H17.6138C19.0128 20.0317 20.0333 20.4341 20.6749 21.1684C21.3165 21.9028 21.5093 22.9451 21.2536 24.2611C21.1479 24.8033 20.97 25.3074 20.719 25.7565C20.4676 26.206 20.1393 26.6257 19.7346 26.9979V26.9979ZM26.7932 27.981L27.7475 23.2048C27.8561 22.6457 27.8164 22.2303 27.6279 22.0273C27.4391 21.8239 27.0377 21.6878 26.4239 21.6878H24.5061L23.2704 27.981H20.871L23.0289 17.0507H25.4283L24.8546 20.0317H26.992C28.3371 20.0317 29.2645 20.3016 29.7749 20.7706C30.2853 21.2397 30.4383 21.8822 30.2343 22.9329L29.2304 27.981H26.7932V27.981ZM40.1279 24.2786C40.0226 24.8208 39.8444 25.3163 39.5936 25.7651C39.3426 26.2146 39.0147 26.6257 38.6096 26.9979C38.1266 27.4497 37.5901 27.6362 36.9998 27.8283C36.4096 28.0208 35.6574 27.981 34.7435 27.981H32.6724L32.0987 31.2932H29.6805L31.8381 20.0317H36.4888C37.8878 20.0317 38.9083 20.4341 39.5496 21.1684C40.1905 21.9028 40.3836 22.963 40.1279 24.2786V24.2786ZM35.5723 21.6878H33.9158L33.0126 26.3249H34.4839C35.4583 26.3249 36.185 26.2288 36.662 25.8612C37.1396 25.4942 37.4612 24.9245 37.6285 24.0656C37.7888 23.2406 37.7159 22.597 37.4099 22.2578C37.1035 21.9187 36.4911 21.6878 35.5723 21.6878V21.6878ZM16.6976 21.6878H15.0408L14.1376 26.3249H15.6085C16.5833 26.3249 17.3097 26.2288 17.787 25.8612C18.2643 25.4942 18.5862 24.9245 18.7532 24.0656C18.9135 23.2406 18.8406 22.597 18.5346 22.2578C18.2285 21.9187 17.6164 21.6878 16.6976 21.6878Z" fill="#000"/>
</svg>
