<svg width="272" height="47" viewBox="0 0 272 47" fill="none" xmlns="http://www.w3.org/2000/svg">
<path d="M237.008 3.5H203.597V16.6917H237.008V3.5Z" fill="white"/>
<path d="M237.008 32.207H203.597V36.7008H237.008V32.207Z" fill="white"/>
<path d="M237.008 20.957H203.597V27.7258H237.008V20.957Z" fill="white"/>
<path d="M34.9912 19.8846H39.216V22.4008C39.7733 21.53 40.5371 20.8103 41.4396 20.306C42.3867 19.7641 43.4615 19.4854 44.5526 19.4985C45.5178 19.4899 46.4728 19.6954 47.3491 20.1001C48.2252 20.5047 49.0009 21.0987 49.62 21.8391C51.1039 23.6756 51.847 26.0009 51.7031 28.3577C51.8515 30.7635 51.1055 33.1392 49.6083 35.0284C48.9868 35.769 48.2091 36.3629 47.331 36.7677C46.4529 37.1723 45.496 37.3777 44.5292 37.369C43.6395 37.38 42.7589 37.1879 41.9545 36.8073C41.0378 36.314 40.2172 35.6599 39.532 34.8763V43.5015H35.0029V19.8612L34.9912 19.8846ZM39.4735 28.1587C39.359 29.6749 39.7725 31.1841 40.6438 32.4304C40.9721 32.8605 41.3953 33.2089 41.8805 33.4485C42.3657 33.688 42.8997 33.8122 43.4408 33.8113C43.9476 33.8186 44.4491 33.7082 44.906 33.4889C45.3629 33.2696 45.7627 32.9473 46.074 32.5473C46.8775 31.3187 47.2444 29.8552 47.1156 28.3927C47.2253 26.9747 46.8452 25.562 46.0389 24.3904C45.7234 23.981 45.3171 23.6506 44.8519 23.4251C44.3868 23.1997 43.8757 23.0853 43.3589 23.0913C42.8324 23.0832 42.3107 23.1936 41.8326 23.4144C41.3545 23.6352 40.9322 23.9608 40.597 24.3669C39.7829 25.4567 39.3845 26.8013 39.4735 28.1587Z" fill="white"/>
<path d="M53.7959 37.0658V13.3789H58.3249V37.0658H53.7959Z" fill="white"/>
<path d="M64.8307 25.1164L60.723 24.3791C61.0504 22.9186 61.8785 21.6187 63.0637 20.7043C64.5849 19.8162 66.3389 19.4083 68.0959 19.534C69.6353 19.4494 71.1751 19.6927 72.6133 20.248C73.4865 20.6206 74.2196 21.2596 74.7082 22.0736C75.209 23.3656 75.4168 24.7526 75.3167 26.1346V31.4243C75.2896 32.5406 75.364 33.657 75.5391 34.7597C75.711 35.5717 75.9863 36.3583 76.3583 37.1003H71.876C71.759 36.7961 71.6069 36.3513 71.4431 35.7545C71.361 35.4854 71.3143 35.3097 71.2791 35.2278C70.5639 35.9416 69.7227 36.517 68.7981 36.9247C67.9055 37.3005 66.9461 37.4915 65.9777 37.4866C64.4543 37.5681 62.9594 37.0516 61.8113 36.0471C61.3141 35.5856 60.921 35.0231 60.6586 34.3975C60.3962 33.7719 60.2706 33.0973 60.2901 32.4191C60.2727 31.5093 60.512 30.6129 60.9804 29.8327C61.4424 29.073 62.1181 28.4664 62.9232 28.089C64.0769 27.5911 65.2875 27.2374 66.5278 27.0357C68.0276 26.783 69.5009 26.3913 70.9281 25.8654V25.3621C70.9624 25.0239 70.9226 24.6822 70.8113 24.3608C70.7002 24.0394 70.5204 23.7462 70.2844 23.5014C69.5573 23.0505 68.7014 22.8529 67.8502 22.9397C67.1877 22.9023 66.5299 23.0699 65.9659 23.4194C65.4165 23.8498 65.0188 24.4443 64.8307 25.1164ZM70.893 28.7912C70.3078 28.9784 69.395 29.2125 68.1311 29.4816C67.2724 29.6141 66.4395 29.8787 65.6617 30.2657C65.3921 30.4373 65.1703 30.6743 65.0169 30.9547C64.8633 31.235 64.7833 31.5496 64.7839 31.869C64.7822 32.1785 64.8448 32.485 64.9677 32.769C65.0906 33.0532 65.2711 33.3085 65.4979 33.5192C65.7373 33.7483 66.02 33.9274 66.3294 34.0459C66.6389 34.1645 66.9689 34.2201 67.3001 34.2097C68.1472 34.2012 68.9686 33.9178 69.6408 33.4022C70.1574 33.0376 70.5366 32.51 70.7174 31.9042C70.868 31.1771 70.927 30.434 70.893 29.6923V28.7912Z" fill="white"/>
<path d="M86.2672 19.8865V23.5027H83.166V30.4075C83.1391 31.2239 83.1704 32.0413 83.2596 32.8534C83.3205 33.0885 83.4665 33.2929 83.6692 33.4268C83.8909 33.5848 84.1577 33.6668 84.4299 33.6609C85.0584 33.612 85.6749 33.4618 86.2555 33.2162L86.6418 36.7271C85.5068 37.1953 84.2882 37.4263 83.0606 37.4059C82.3034 37.4174 81.5516 37.2781 80.8487 36.9963C80.2775 36.7852 79.7782 36.4158 79.4093 35.9313C79.065 35.3979 78.845 34.794 78.7656 34.1641C78.6418 33.1039 78.5949 32.0362 78.6252 30.9692V23.5027H76.542V19.8865H78.6252V16.4809L83.1777 13.8359V19.8865H86.279H86.2672Z" fill="white"/>
<path d="M87.5928 19.8853H90.1089V18.5979C90.054 17.5021 90.2089 16.4057 90.5654 15.3678C90.9157 14.613 91.5147 14.0015 92.2623 13.6358C93.231 13.1527 94.3051 12.9194 95.387 12.9571C96.6735 12.9569 97.9523 13.1543 99.1788 13.5422L98.5702 16.7021C97.8884 16.5346 97.1892 16.4482 96.4871 16.4446C96.2324 16.4191 95.9751 16.4465 95.7315 16.5251C95.4878 16.6036 95.263 16.7316 95.071 16.901C94.7222 17.4202 94.5689 18.0464 94.638 18.6681V19.8385H98.0202V23.3494H94.638V37.0654H90.1089V23.4547H87.5928V19.9437V19.8853Z" fill="white"/>
<path d="M98.8796 28.2199C98.9037 26.6905 99.3057 25.1908 100.05 23.8546C100.752 22.4866 101.849 21.3612 103.198 20.6246C104.591 19.8537 106.158 19.4509 107.751 19.4543C108.929 19.4136 110.103 19.6171 111.198 20.0522C112.294 20.4872 113.288 21.1443 114.117 21.9821C114.942 22.822 115.587 23.82 116.016 24.9162C116.444 26.0124 116.646 27.1839 116.61 28.3603C116.648 29.5483 116.446 30.7321 116.016 31.8401C115.585 32.9482 114.936 33.9579 114.105 34.8087C113.286 35.6492 112.302 36.3109 111.214 36.752C110.126 37.1931 108.959 37.4041 107.786 37.3716C106.225 37.3754 104.685 37.0105 103.292 36.3067C101.904 35.6351 100.765 34.5412 100.038 33.1819C99.2468 31.6495 98.8486 29.9443 98.8796 28.2199ZM103.561 28.4656C103.452 29.8686 103.869 31.2621 104.731 32.3744C105.101 32.8009 105.559 33.1429 106.073 33.3774C106.587 33.6118 107.145 33.7331 107.71 33.7331C108.274 33.7331 108.833 33.6118 109.346 33.3774C109.86 33.1429 110.318 32.8009 110.688 32.3744C111.549 31.2524 111.965 29.8523 111.858 28.4422C111.962 27.0505 111.545 25.67 110.688 24.5685C110.317 24.1437 109.859 23.8032 109.345 23.5699C108.832 23.3366 108.274 23.2159 107.71 23.2159C107.145 23.2159 106.588 23.3366 106.074 23.5699C105.56 23.8032 105.102 24.1437 104.731 24.5685C103.858 25.668 103.424 27.0527 103.514 28.4539L103.561 28.4656Z" fill="white"/>
<path d="M122.774 37.0669H118.245V19.8869H122.446V22.3211C122.928 21.4367 123.59 20.6632 124.389 20.0506C124.972 19.6788 125.652 19.4875 126.344 19.5006C127.398 19.5062 128.43 19.8018 129.328 20.355L127.924 24.3106C127.301 23.8593 126.561 23.5991 125.794 23.5616C125.21 23.5446 124.64 23.7308 124.179 24.0883C123.644 24.5972 123.28 25.2597 123.137 25.9841C122.808 27.8806 122.682 29.8071 122.763 31.7303V37.0669H122.774Z" fill="white"/>
<path d="M130.687 19.8859H134.864V22.2265C135.483 21.3905 136.286 20.7093 137.213 20.2362C138.138 19.7631 139.161 19.5109 140.202 19.4996C141.196 19.4749 142.179 19.7088 143.057 20.1784C143.894 20.6626 144.579 21.3722 145.035 22.2265C145.697 21.3844 146.526 20.6873 147.469 20.1784C148.328 19.7288 149.284 19.4958 150.254 19.4996C151.368 19.4621 152.471 19.7249 153.449 20.2603C154.33 20.7796 155.016 21.5729 155.403 22.519C155.774 23.6506 155.933 24.8408 155.871 26.03V37.0659H151.354V27.2704C151.453 26.1529 151.292 25.0275 150.886 23.9819C150.678 23.6641 150.39 23.407 150.051 23.2364C149.712 23.0658 149.334 22.9879 148.955 23.0105C148.312 23.0144 147.685 23.219 147.164 23.5956C146.598 24.0172 146.186 24.6136 145.994 25.2927C145.706 26.4395 145.583 27.622 145.631 28.8036V36.9957H141.09V27.6333C141.146 26.5549 141.067 25.4739 140.856 24.4149C140.734 23.9794 140.47 23.5966 140.108 23.3266C139.695 23.0689 139.212 22.9461 138.727 22.9754C138.056 22.9677 137.399 23.1635 136.842 23.5372C136.283 23.9356 135.872 24.5074 135.672 25.1639C135.381 26.3103 135.258 27.4931 135.309 28.6748V37.0659H130.78V19.8859H130.687Z" fill="white"/>
<path d="M158.144 37.0662V32.5371H162.673V37.0662H158.144Z" fill="white"/>
<path d="M164.37 32.1286L168.923 31.4381C169.057 32.2282 169.473 32.9432 170.093 33.451C170.822 33.9458 171.694 34.1845 172.574 34.1298C173.501 34.1947 174.426 33.9697 175.218 33.4862C175.404 33.3524 175.555 33.1766 175.659 32.9731C175.762 32.7695 175.816 32.5443 175.815 32.3159C175.821 32.1587 175.795 32.0022 175.739 31.8553C175.682 31.7085 175.597 31.5746 175.488 31.4615C175.034 31.1476 174.513 30.9433 173.967 30.8647C170.315 30.0845 167.998 29.3471 167.015 28.6528C166.371 28.242 165.846 27.6713 165.488 26.9965C165.132 26.3215 164.956 25.5656 164.978 24.8024C164.971 24.0864 165.125 23.3779 165.429 22.7295C165.733 22.0812 166.179 21.5097 166.734 21.0575C168.31 19.9101 170.244 19.3623 172.188 19.5127C174.007 19.3914 175.825 19.7978 177.418 20.683C178.583 21.4901 179.414 22.6918 179.76 24.0652L175.488 24.861C175.338 24.2406 174.968 23.6958 174.447 23.3279C173.787 22.9356 173.024 22.752 172.258 22.8013C171.374 22.7348 170.488 22.9086 169.695 23.3045C169.537 23.4012 169.406 23.5372 169.317 23.6991C169.226 23.8611 169.179 24.0437 169.18 24.229C169.185 24.3921 169.229 24.5517 169.308 24.6944C169.387 24.8369 169.5 24.9583 169.637 25.0483C170.987 25.6558 172.411 26.0847 173.873 26.3238C175.685 26.6166 177.411 27.3037 178.929 28.3368C179.403 28.7556 179.777 29.2763 180.022 29.86C180.268 30.4436 180.378 31.0751 180.345 31.7073C180.344 32.4868 180.166 33.2558 179.825 33.957C179.485 34.6582 178.99 35.2733 178.379 35.7566C176.697 37.0104 174.618 37.6131 172.527 37.4535C170.575 37.5563 168.639 37.0581 166.98 36.0256C165.657 35.0946 164.728 33.706 164.37 32.1286Z" fill="white"/>
<path d="M186.731 13.3789V22.0743C187.665 20.8966 188.963 20.0624 190.423 19.7024C191.882 19.3423 193.42 19.4768 194.794 20.0847C195.548 20.4019 196.202 20.9151 196.69 21.5711C197.111 22.1724 197.406 22.8533 197.556 23.5723C197.741 24.6976 197.82 25.8378 197.79 26.9779V37.0659H193.25V28.0077C193.307 26.8623 193.221 25.7142 192.992 24.5904C192.829 24.1082 192.507 23.6956 192.079 23.4201C191.585 23.1233 191.017 22.9769 190.441 22.9988C189.731 22.9864 189.033 23.1773 188.428 23.5488C187.818 23.9333 187.359 24.516 187.129 25.1989C186.811 26.2568 186.672 27.3605 186.719 28.4641V37.0659H182.19V13.3789H186.719H186.731Z" fill="white"/>
</svg>
