<svg width="25" height="30" viewBox="0 0 25 30" fill="none" xmlns="http://www.w3.org/2000/svg">
<path d="M13.9375 23.8665V26.7832H22.6875V29.6999H13.9375C13.164 29.6999 12.4221 29.3926 11.8751 28.8456C11.3281 28.2986 11.0208 27.5568 11.0208 26.7832V23.8665H6.64583C5.09874 23.8665 3.61501 23.252 2.52104 22.158C1.42708 21.064 0.8125 19.5803 0.8125 18.0332V7.82487C0.8125 7.4381 0.966146 7.06716 1.23964 6.79367C1.51313 6.52018 1.88406 6.36654 2.27083 6.36654H6.64583V0.533203H9.5625V6.36654H15.3958V0.533203H18.3125V6.36654H22.6875C23.0743 6.36654 23.4452 6.52018 23.7187 6.79367C23.9922 7.06716 24.1458 7.4381 24.1458 7.82487V18.0332C24.1458 19.5803 23.5312 21.064 22.4373 22.158C21.3433 23.252 19.8596 23.8665 18.3125 23.8665H13.9375ZM6.64583 20.9499H18.3125C19.086 20.9499 19.8279 20.6426 20.3749 20.0956C20.9219 19.5486 21.2292 18.8068 21.2292 18.0332V13.6582H3.72917V18.0332C3.72917 18.8068 4.03646 19.5486 4.58344 20.0956C5.13042 20.6426 5.87228 20.9499 6.64583 20.9499ZM21.2292 9.2832H3.72917V10.7415H21.2292V9.2832ZM12.4792 18.7624C12.0924 18.7624 11.7215 18.6087 11.448 18.3352C11.1745 18.0617 11.0208 17.6908 11.0208 17.304C11.0208 16.9173 11.1745 16.5463 11.448 16.2728C11.7215 15.9994 12.0924 15.8457 12.4792 15.8457C12.8659 15.8457 13.2369 15.9994 13.5104 16.2728C13.7839 16.5463 13.9375 16.9173 13.9375 17.304C13.9375 17.6908 13.7839 18.0617 13.5104 18.3352C13.2369 18.6087 12.8659 18.7624 12.4792 18.7624Z" fill="#000"/>
</svg>
