<svg width="25" height="25" viewBox="0 0 25 25" fill="none" xmlns="http://www.w3.org/2000/svg">
<path d="M13.5417 18.7502V20.8335H19.7917V22.9168H13.5417C12.9892 22.9168 12.4593 22.6973 12.0686 22.3066C11.6779 21.9159 11.4584 21.386 11.4584 20.8335V18.7502H8.33341C7.22835 18.7502 6.16854 18.3112 5.38714 17.5298C4.60573 16.7484 4.16675 15.6886 4.16675 14.5835V7.29183C4.16675 7.01556 4.27649 6.75061 4.47185 6.55526C4.6672 6.35991 4.93215 6.25016 5.20841 6.25016H8.33341V2.0835H10.4167V6.25016H14.5834V2.0835H16.6667V6.25016H19.7917C20.068 6.25016 20.333 6.35991 20.5283 6.55526C20.7237 6.75061 20.8334 7.01556 20.8334 7.29183V14.5835C20.8334 15.6886 20.3944 16.7484 19.613 17.5298C18.8316 18.3112 17.7718 18.7502 16.6667 18.7502H13.5417ZM8.33341 16.6668H16.6667C17.2193 16.6668 17.7492 16.4473 18.1399 16.0566C18.5306 15.6659 18.7501 15.136 18.7501 14.5835V11.4585H6.25008V14.5835C6.25008 15.136 6.46957 15.6659 6.86028 16.0566C7.25098 16.4473 7.78088 16.6668 8.33341 16.6668ZM18.7501 8.3335H6.25008V9.37516H18.7501V8.3335ZM12.5001 15.1043C12.2238 15.1043 11.9589 14.9946 11.7635 14.7992C11.5682 14.6039 11.4584 14.3389 11.4584 14.0627C11.4584 13.7864 11.5682 13.5214 11.7635 13.3261C11.9589 13.1307 12.2238 13.021 12.5001 13.021C12.7763 13.021 13.0413 13.1307 13.2366 13.3261C13.432 13.5214 13.5417 13.7864 13.5417 14.0627C13.5417 14.3389 13.432 14.6039 13.2366 14.7992C13.0413 14.9946 12.7763 15.1043 12.5001 15.1043Z" fill="#000"/>
</svg>
