<svg width="33" height="33" viewBox="0 0 33 33" fill="none" xmlns="http://www.w3.org/2000/svg">
<path fill-rule="evenodd" clip-rule="evenodd" d="M15.1968 0.00502946C16.6391 -0.0153872 17.8802 0.766279 18.9739 1.85857L20.8114 3.69753C21.2848 2.99095 21.9089 2.39806 22.6388 1.96149C23.3687 1.52493 24.1863 1.25554 25.0328 1.17271C25.8793 1.08987 26.7336 1.19564 27.5343 1.48242C28.335 1.76919 29.0622 2.22985 29.6636 2.83124C30.2649 3.43264 30.7256 4.15984 31.0124 4.96054C31.2992 5.76124 31.4049 6.61554 31.3221 7.462C31.2393 8.30846 30.9699 9.12605 30.5333 9.85596C30.0967 10.5859 29.5038 11.21 28.7973 11.6834L30.6362 13.5209L30.6377 13.5238C31.7285 14.6175 32.5116 15.8571 32.4898 17.2979C32.4693 18.7286 31.6614 19.9229 30.6348 20.9438L30.6318 20.9452L28.7725 22.8061C28.0768 23.5017 27.1668 23.4273 26.6171 23.1954C26.0731 22.9665 25.4941 22.4386 25.3614 21.6321C25.2761 21.1172 25.0506 20.6357 24.7095 20.2407C24.3684 19.8456 23.925 19.5522 23.4281 19.3926C22.9311 19.2331 22.3998 19.2136 21.8925 19.3364C21.3852 19.4591 20.9216 19.7193 20.5525 20.0884C20.1834 20.4574 19.9232 20.9211 19.8005 21.4284C19.6777 21.9357 19.6972 22.467 19.8567 22.964C20.0163 23.4609 20.3097 23.9043 20.7048 24.2454C21.0999 24.5864 21.5813 24.812 22.0962 24.8973C22.9027 25.0286 23.4306 25.609 23.661 26.1515C23.8929 26.7027 23.9673 27.6127 23.2702 28.3069L21.405 30.1736L21.4035 30.175C20.3856 31.2002 19.1912 32.0067 17.7621 32.0271C16.3227 32.049 15.0846 31.2688 13.9923 30.1779H13.9908L12.1489 28.3332C11.6755 29.0397 11.0514 29.6326 10.3215 30.0692C9.59162 30.5058 8.77403 30.7751 7.92757 30.858C7.08111 30.9408 6.22681 30.835 5.42611 30.5483C4.62541 30.2615 3.89821 29.8008 3.29681 29.1994C2.69542 28.598 2.23476 27.8708 1.94799 27.0701C1.66121 26.2694 1.55544 25.4151 1.63827 24.5687C1.72111 23.7222 1.9905 22.9046 2.42706 22.1747C2.86363 21.4448 3.45652 20.8207 4.1631 20.3473L2.32414 18.5098V18.5069C1.23039 17.4132 0.448724 16.1736 0.469141 14.7327C0.491016 13.3021 1.30039 12.1077 2.3256 11.0869L2.32852 11.0854L4.18935 9.22461C4.88352 8.52899 5.79352 8.6019 6.34331 8.83378C6.88727 9.0642 7.46768 9.59211 7.60039 10.3986C7.68542 10.9136 7.91079 11.3952 8.25173 11.7905C8.59267 12.1858 9.03599 12.4795 9.53296 12.6392C10.0299 12.799 10.5613 12.8186 11.0687 12.696C11.5761 12.5734 12.0399 12.3133 12.4091 11.9443C12.7783 11.5752 13.0387 11.1115 13.1615 10.6042C13.2843 10.0968 13.2649 9.56543 13.1054 9.06839C12.9459 8.57135 12.6524 8.1279 12.2573 7.78678C11.8621 7.44567 11.3806 7.22008 10.8656 7.13482C10.0577 7.00357 9.52977 6.42315 9.30081 5.8792C9.06747 5.3294 8.99456 4.42086 9.69018 3.72378L11.551 1.8644L11.5525 1.86149C12.5733 0.834821 13.7677 0.0269045 15.1983 0.00502946H15.1968ZM15.2406 2.9217C14.9431 2.92607 14.4385 3.09378 13.6218 3.91774L13.6175 3.92211L12.8241 4.71399C13.6638 5.1043 14.3969 5.69141 14.9612 6.4255C15.5255 7.15958 15.9044 8.01897 16.0657 8.93073C16.2271 9.84249 16.166 10.7797 15.8879 11.6629C15.6097 12.546 15.1226 13.349 14.4679 14.0038C13.8131 14.6585 13.0101 15.1456 12.127 15.4238C11.2438 15.7019 10.3066 15.7629 9.39484 15.6016C8.48308 15.4403 7.62369 15.0614 6.88961 14.4971C6.15553 13.9327 5.56841 13.1997 5.1781 12.36L4.38622 13.1534L4.38185 13.1563C3.55789 13.9744 3.39018 14.4775 3.38581 14.7765C3.38143 15.0652 3.52581 15.5844 4.38768 16.4492L7.7856 19.8471C7.97709 20.0387 8.11146 20.2797 8.17365 20.5433C8.23583 20.8069 8.22338 21.0827 8.13769 21.3396C8.05199 21.5965 7.89644 21.8245 7.68847 21.998C7.48049 22.1715 7.22831 22.2837 6.96018 22.3219C6.43841 22.3968 5.94779 22.6155 5.54328 22.9535C5.13876 23.2915 4.83632 23.7354 4.66981 24.2355C4.5033 24.7357 4.47931 25.2723 4.60051 25.7853C4.72171 26.2983 4.98333 26.7674 5.35607 27.1402C5.7288 27.5129 6.19794 27.7745 6.71094 27.8957C7.22395 28.0169 7.76056 27.9929 8.2607 27.8264C8.76084 27.6599 9.20476 27.3575 9.54274 26.953C9.88072 26.5485 10.0994 26.0578 10.1743 25.5361C10.2126 25.2679 10.3247 25.0158 10.4982 24.8078C10.6717 24.5998 10.8997 24.4443 11.1567 24.3586C11.4136 24.2729 11.6893 24.2604 11.9529 24.3226C12.2165 24.3848 12.4576 24.5192 12.6491 24.7107L16.0514 28.1129L16.0529 28.1144C16.9133 28.9734 17.4325 29.1163 17.7198 29.1119C18.0173 29.1075 18.5204 28.9398 19.3341 28.1188L19.3385 28.1144L20.1362 27.3167C19.2966 26.9264 18.5635 26.3393 17.9992 25.6052C17.4349 24.8711 17.056 24.0117 16.8946 23.1C16.7333 22.1882 16.7943 21.251 17.0725 20.3678C17.3507 19.4847 17.8378 18.6817 18.4925 18.0269C19.1472 17.3722 19.9502 16.8851 20.8334 16.6069C21.7165 16.3287 22.6538 16.2677 23.5655 16.4291C24.4773 16.5904 25.3367 16.9693 26.0708 17.5336C26.8048 18.0979 27.3919 18.831 27.7823 19.6707L28.5741 18.8788L28.5785 18.8759C29.4025 18.0577 29.5702 17.5532 29.5746 17.2557C29.5789 16.9669 29.436 16.4477 28.5741 15.5844V15.5829L25.1748 12.185C24.9833 11.9935 24.8489 11.7524 24.7867 11.4888C24.7245 11.2252 24.737 10.9495 24.8227 10.6926C24.9084 10.4356 25.0639 10.2076 25.2719 10.0341C25.4799 9.86063 25.7321 9.74848 26.0002 9.71024C26.522 9.6353 27.0126 9.4166 27.4171 9.07862C27.8216 8.74064 28.124 8.29673 28.2906 7.79659C28.4571 7.29645 28.4811 6.75984 28.3599 6.24683C28.2387 5.73383 27.977 5.26469 27.6043 4.89196C27.2316 4.51922 26.7624 4.2576 26.2494 4.1364C25.7364 4.01519 25.1998 4.03919 24.6997 4.2057C24.1995 4.37221 23.7556 4.67465 23.4176 5.07917C23.0797 5.48368 22.8609 5.9743 22.786 6.49607C22.7478 6.7642 22.6356 7.01638 22.4621 7.22436C22.2886 7.43233 22.0606 7.58788 21.8037 7.67358C21.5468 7.75927 21.2711 7.77172 21.0075 7.70953C20.7438 7.64735 20.5028 7.51298 20.3112 7.32149L16.9133 3.92357C16.0485 3.06024 15.5279 2.91732 15.2406 2.9217V2.9217Z" fill="#000"/>
</svg>
