<svg width="25" height="25" viewBox="0 0 25 25" fill="none" xmlns="http://www.w3.org/2000/svg">
<path fill-rule="evenodd" clip-rule="evenodd" d="M11.5833 1.06376C12.6135 1.04917 13.5 1.60751 14.2812 2.38771L15.5937 3.70126C15.9319 3.19656 16.3776 2.77306 16.899 2.46123C17.4204 2.1494 18.0044 1.95698 18.609 1.89781C19.2136 1.83864 19.8238 1.91419 20.3957 2.11903C20.9677 2.32387 21.4871 2.65291 21.9167 3.08248C22.3462 3.51205 22.6753 4.03148 22.8801 4.6034C23.0849 5.17533 23.1605 5.78555 23.1013 6.39016C23.0422 6.99478 22.8497 7.57877 22.5379 8.10013C22.2261 8.6215 21.8026 9.06728 21.2979 9.40542L22.6114 10.7179L22.6125 10.72C23.3916 11.5013 23.951 12.3867 23.9354 13.4158C23.9208 14.4377 23.3437 15.2908 22.6104 16.02L22.6083 16.021L21.2802 17.3502C20.7833 17.8471 20.1333 17.794 19.7406 17.6283C19.3521 17.4648 18.9385 17.0877 18.8437 16.5117C18.7828 16.1439 18.6217 15.8 18.378 15.5178C18.1344 15.2356 17.8177 15.026 17.4628 14.912C17.1078 14.7981 16.7283 14.7842 16.3659 14.8719C16.0036 14.9595 15.6724 15.1454 15.4088 15.409C15.1451 15.6726 14.9593 16.0038 14.8716 16.3662C14.7839 16.7285 14.7978 17.108 14.9118 17.463C15.0257 17.818 15.2353 18.1347 15.5175 18.3783C15.7997 18.6219 16.1436 18.783 16.5114 18.844C17.0875 18.9377 17.4646 19.3523 17.6291 19.7398C17.7948 20.1335 17.8479 20.7835 17.35 21.2794L16.0177 22.6127L16.0166 22.6138C15.2896 23.346 14.4364 23.9221 13.4156 23.9367C12.3875 23.9523 11.5031 23.395 10.7229 22.6158H10.7218L9.40622 21.2981C9.06808 21.8028 8.6223 22.2263 8.10093 22.5382C7.57957 22.85 6.99558 23.0424 6.39096 23.1016C5.78635 23.1607 5.17613 23.0852 4.6042 22.8804C4.03228 22.6755 3.51285 22.3465 3.08328 21.9169C2.65371 21.4873 2.32467 20.9679 2.11983 20.396C1.91499 19.8241 1.83944 19.2138 1.89861 18.6092C1.95778 18.0046 2.1502 17.4206 2.46203 16.8993C2.77386 16.3779 3.19735 15.9321 3.70205 15.594L2.38851 14.2815V14.2794C1.60726 13.4981 1.04893 12.6127 1.06351 11.5835C1.07914 10.5617 1.65726 9.70855 2.38955 8.97938L2.39164 8.97834L3.7208 7.64917C4.21664 7.1523 4.86664 7.20438 5.25935 7.37001C5.64789 7.53459 6.06247 7.91167 6.15726 8.48771C6.218 8.8556 6.37898 9.19963 6.62251 9.48198C6.86604 9.76433 7.18269 9.97408 7.53767 10.0882C7.89265 10.2023 8.27221 10.2163 8.63465 10.1287C8.99709 10.0412 9.32837 9.85537 9.59208 9.59177C9.8558 9.32818 10.0417 8.99698 10.1295 8.63458C10.2172 8.27219 10.2034 7.89262 10.0894 7.53759C9.97547 7.18255 9.76585 6.86581 9.48361 6.62215C9.20136 6.3785 8.85741 6.21736 8.48955 6.15646C7.91247 6.06271 7.53539 5.64813 7.37185 5.25959C7.20518 4.86688 7.1531 4.21792 7.64997 3.72001L8.97914 2.39188L8.98018 2.3898C9.70935 1.65646 10.5625 1.07938 11.5843 1.06376H11.5833ZM11.6146 3.14709C11.4021 3.15021 11.0416 3.27001 10.4583 3.85855L10.4552 3.86167L9.88851 4.4273C10.4883 4.70609 11.0119 5.12546 11.415 5.6498C11.8181 6.17415 12.0887 6.788 12.2039 7.43925C12.3192 8.09051 12.2756 8.75996 12.0769 9.39078C11.8782 10.0216 11.5303 10.5952 11.0626 11.0628C10.5949 11.5305 10.0214 11.8784 9.39054 12.0771C8.75971 12.2758 8.09027 12.3194 7.43901 12.2042C6.78775 12.0889 6.1739 11.8183 5.64956 11.4152C5.12522 11.0121 4.70585 10.4885 4.42705 9.88876L3.86143 10.4554L3.8583 10.4575C3.26976 11.0419 3.14997 11.4013 3.14684 11.6148C3.14372 11.821 3.24684 12.1919 3.86247 12.8096L6.28955 15.2367C6.42633 15.3735 6.52231 15.5457 6.56673 15.734C6.61115 15.9223 6.60226 16.1192 6.54105 16.3027C6.47984 16.4862 6.36873 16.6491 6.22017 16.773C6.07162 16.897 5.89149 16.9771 5.69997 17.0044C5.32727 17.0579 4.97684 17.2141 4.6879 17.4555C4.39896 17.6969 4.18292 18.014 4.06399 18.3713C3.94506 18.7285 3.92792 19.1118 4.01449 19.4782C4.10106 19.8447 4.28793 20.1798 4.55417 20.446C4.82041 20.7122 5.15551 20.8991 5.52194 20.9857C5.88837 21.0723 6.27167 21.0551 6.62891 20.9362C6.98616 20.8173 7.30324 20.6012 7.54465 20.3123C7.78607 20.0233 7.94228 19.6729 7.9958 19.3002C8.02312 19.1087 8.10323 18.9286 8.22716 18.78C8.35109 18.6315 8.51394 18.5203 8.69746 18.4591C8.88098 18.3979 9.07792 18.389 9.26621 18.4335C9.4545 18.4779 9.6267 18.5739 9.76351 18.7106L12.1937 21.1408L12.1948 21.1419C12.8093 21.7554 13.1802 21.8575 13.3854 21.8544C13.5979 21.8513 13.9573 21.7315 14.5385 21.145L14.5416 21.1419L15.1114 20.5721C14.5117 20.2933 13.9881 19.8739 13.585 19.3496C13.1819 18.8252 12.9112 18.2114 12.796 17.5601C12.6808 16.9089 12.7244 16.2394 12.923 15.6086C13.1217 14.9778 13.4697 14.4042 13.9373 13.9365C14.405 13.4689 14.9786 13.1209 15.6094 12.9222C16.2402 12.7236 16.9097 12.68 17.5609 12.7952C18.2122 12.9104 18.826 13.1811 19.3504 13.5842C19.8747 13.9873 20.2941 14.5109 20.5729 15.1106L21.1385 14.545L21.1416 14.5429C21.7302 13.9585 21.85 13.5981 21.8531 13.3856C21.8562 13.1794 21.7541 12.8085 21.1385 12.1919V12.1908L18.7104 9.76376C18.5736 9.62694 18.4776 9.45474 18.4332 9.26645C18.3888 9.07816 18.3977 8.88122 18.4589 8.6977C18.5201 8.51418 18.6312 8.35133 18.7798 8.2274C18.9283 8.10347 19.1084 8.02336 19.3 7.99605C19.6727 7.94252 20.0231 7.78631 20.312 7.54489C20.601 7.30348 20.817 6.9864 20.936 6.62916C21.0549 6.27191 21.072 5.88862 20.9855 5.52219C20.8989 5.15575 20.712 4.82066 20.4458 4.55442C20.1795 4.28818 19.8444 4.10131 19.478 4.01473C19.1116 3.92816 18.7283 3.9453 18.371 4.06423C18.0138 4.18317 17.6967 4.3992 17.4553 4.68814C17.2139 4.97708 17.0577 5.32752 17.0041 5.70021C16.9768 5.89174 16.8967 6.07187 16.7728 6.22042C16.6489 6.36897 16.486 6.48008 16.3025 6.54129C16.119 6.6025 15.922 6.61139 15.7337 6.56697C15.5454 6.52255 15.3732 6.42658 15.2364 6.2898L12.8093 3.86271C12.1916 3.24605 11.8198 3.14396 11.6146 3.14709Z" fill="#000"/>
</svg>
