<svg width="50" height="50" viewBox="0 0 50 50" fill="none" xmlns="http://www.w3.org/2000/svg">
<path d="M24.8128 9.04243C23.511 9.04859 22.2684 9.15929 21.1744 9.35293C17.9523 9.92212 17.3677 11.1135 17.3677 13.3111V16.2129H24.9815V17.1801H14.51C12.2973 17.1801 10.3597 18.51 9.75355 21.0408C9.05423 23.9408 9.0234 25.7507 9.75355 28.7789C10.2947 31.0332 11.5872 32.639 13.8002 32.639H16.4183V29.1603C16.4183 26.6471 18.5924 24.4304 21.1747 24.4304H28.7799C30.897 24.4304 32.5867 22.6871 32.5867 20.5614V13.3114C32.5867 11.2477 30.8458 9.69765 28.7799 9.35323C27.4713 9.13555 26.1143 9.03657 24.8128 9.04243V9.04243ZM20.6953 11.3762C21.4815 11.3762 22.1241 12.029 22.1241 12.8319C22.1241 13.6314 21.4818 14.278 20.6953 14.278C19.9059 14.278 19.2667 13.6314 19.2667 12.8319C19.2664 12.029 19.9059 11.3762 20.6953 11.3762V11.3762Z" fill="#000"/>
<path d="M33.5342 17.1806V20.5618C33.5342 23.1827 31.3117 25.3889 28.7778 25.3889H21.1726C19.0895 25.3889 17.3658 27.172 17.3658 29.2582V36.5088C17.3658 38.5719 19.1598 39.7859 21.1726 40.3776C23.5826 41.0858 25.8939 41.2141 28.7778 40.3776C30.6944 39.8223 32.5845 38.7054 32.5845 36.5088V33.6067H24.9797V32.6392H36.3919C38.6046 32.6392 39.4297 31.0959 40.1993 28.7791C40.9942 26.3941 40.96 24.1003 40.1993 21.041C39.6523 18.8379 38.608 17.1803 36.3919 17.1803H33.5342V17.1806ZM29.2566 35.5413C30.0463 35.5413 30.6855 36.1879 30.6855 36.988C30.6855 37.7903 30.046 38.443 29.2566 38.443C28.4704 38.443 27.8281 37.7903 27.8281 36.988C27.8281 36.1879 28.4704 35.5413 29.2566 35.5413Z" fill="#000"/>
</svg>
