<svg width="27" height="27" viewBox="0 0 27 27" fill="none" xmlns="http://www.w3.org/2000/svg">
<path d="M13.0886 0.670824C12.0277 0.675849 11.015 0.766061 10.1234 0.923868C7.49749 1.38774 7.02106 2.35871 7.02106 4.14962V6.51446H13.226V7.30275H4.69214C2.88892 7.30275 1.30984 8.38654 0.815817 10.4491C0.245902 12.8124 0.220773 14.2875 0.815817 16.7553C1.25682 18.5925 2.31021 19.9012 4.11368 19.9012H6.24735V17.0662C6.24735 15.018 8.01916 13.2115 10.1237 13.2115H16.3216C18.047 13.2115 19.424 11.7907 19.424 10.0583V4.14987C19.424 2.46802 18.0052 1.20481 16.3216 0.924119C15.2552 0.746712 14.1493 0.666049 13.0886 0.670824ZM9.73293 2.5728C10.3737 2.5728 10.8974 3.10477 10.8974 3.75912C10.8974 4.4107 10.374 4.93765 9.73293 4.93765C9.08964 4.93765 8.56872 4.4107 8.56872 3.75912C8.56847 3.10477 9.08964 2.5728 9.73293 2.5728Z" fill="#000"/>
<path d="M20.1962 7.30311V10.0587C20.1962 12.1946 18.3849 13.9926 16.3199 13.9926H10.1219C8.42422 13.9926 7.01953 15.4458 7.01953 17.146V23.0549C7.01953 24.7363 8.48151 25.7256 10.1219 26.2078C12.0859 26.785 13.9696 26.8895 16.3199 26.2078C17.8818 25.7552 19.4222 24.8451 19.4222 23.0549V20.6898H13.2245V19.9013H22.5251C24.3283 19.9013 25.0008 18.6436 25.628 16.7555C26.2758 14.8118 26.2479 12.9425 25.628 10.4492C25.1822 8.65377 24.3311 7.30286 22.5251 7.30286H20.1962V7.30311ZM16.7101 22.2664C17.3536 22.2664 17.8746 22.7933 17.8746 23.4454C17.8746 24.0993 17.3534 24.6312 16.7101 24.6312C16.0693 24.6312 15.5459 24.0993 15.5459 23.4454C15.5459 22.7933 16.0693 22.2664 16.7101 22.2664Z" fill="#000"/>
</svg>
