<svg width="50" height="50" viewBox="0 0 50 50" fill="none" xmlns="http://www.w3.org/2000/svg">
<path fill-rule="evenodd" clip-rule="evenodd" d="M35.5516 13.5678C32.7323 12.1766 29.8447 12.035 26.8882 13.0802C24.1676 14.042 21.9973 15.763 20.384 18.1069C17.6541 22.0732 15.6711 26.401 14.5599 31.1022C13.9908 33.5083 13.6222 36.0603 13.7213 38.5452C13.7293 38.7468 13.7594 38.8048 13.7792 39.2667H27.7223C27.6823 38.8048 27.656 38.9397 27.6213 38.8517C26.888 36.9794 26.3073 35.0022 25.9056 33.0316C25.3287 30.2019 25.0265 27.3198 25.6225 24.464C26.4565 20.4652 28.736 17.5798 32.5787 16.0836C34.7554 15.2366 36.8215 15.4775 38.6335 17.068C38.6501 17.0825 38.6843 17.0738 38.7287 17.0809L39.3211 16.184C38.1801 15.0978 36.9264 14.2464 35.5516 13.5678V13.5678ZM10.9884 31.9665C10.8821 32.8727 10.7828 33.721 10.6789 34.6114L13.2501 34.92L13.721 32.173C12.7844 32.1021 11.8949 32.0349 10.9884 31.9665V31.9665ZM16.0352 24.0704L13.6166 23.1241L12.835 25.3431L15.2997 26.133C15.5492 25.433 15.7839 24.7745 16.0352 24.0704V24.0704ZM27.4497 36.4643C28.2754 36.5258 29.1028 36.568 30.0142 36.6211C29.6832 35.9331 29.3892 35.3108 29.0813 34.696C29.0476 34.6292 28.9337 34.5648 28.8563 34.5636C28.1558 34.5535 27.4548 34.5578 26.7104 34.5578C26.878 35.1648 27.0238 35.725 27.1945 36.277C27.2201 36.3604 27.3578 36.4576 27.4497 36.4643V36.4643ZM20.1343 17.3479L18.2969 16.1311C17.8044 16.6816 17.3295 17.2121 16.8281 17.7722L18.717 19.0417L20.1343 17.3479ZM25.9858 29.6748C25.9828 29.749 26.0495 29.867 26.1147 29.8963C26.7764 30.1938 27.4451 30.4772 28.1731 30.7909C28.1429 30.2153 28.1225 29.7342 28.0881 29.254C28.0819 29.1676 28.0412 29.0433 27.9772 29.0078C27.3696 28.6715 26.7533 28.3502 26.0796 27.9926C26.0428 28.6082 26.0054 29.141 25.9858 29.6748V29.6748ZM25.4414 13.0049L24.1835 11.5773L22.4514 12.4776C22.8847 13.0056 23.2938 13.5038 23.7114 14.0122L25.4414 13.0049ZM26.2302 24.3633C26.1925 24.4497 26.2422 24.6329 26.3163 24.6996C26.8187 25.1528 27.3381 25.5866 27.916 26.0811C28.0484 25.5267 28.1731 25.0327 28.2789 24.5352C28.2976 24.4467 28.2715 24.3005 28.2101 24.2511C27.7606 23.8887 27.2966 23.5436 26.8157 23.1768C26.6043 23.596 26.3995 23.972 26.2302 24.3633ZM29.1058 12.2547C29.7479 12.272 30.3907 12.2644 31.0688 12.2644C31.0012 11.7923 30.9688 11.4345 30.8882 11.0883C30.8642 10.9853 30.7092 10.8481 30.6046 10.8393C29.9609 10.7871 29.3146 10.767 28.6064 10.7333C28.7009 11.2098 28.773 11.6297 28.8748 12.0424C28.8963 12.13 29.0243 12.2524 29.1058 12.2547V12.2547ZM29.8876 20.4947C29.9204 20.4333 29.9288 20.3217 29.8943 20.2681C29.5788 19.7745 29.2511 19.2886 28.9118 18.7772L27.8123 19.787L29.3326 21.4717C29.5368 21.1163 29.7195 20.8093 29.8876 20.4947V20.4947ZM31.0737 17.1394L31.7304 18.3591C32.758 17.796 32.8564 17.5923 32.4926 16.7806L31.0737 17.1394V17.1394ZM35.9905 13.3807C36.418 13.6445 36.8695 13.8692 37.3283 14.1164L37.6355 13.6382C37.076 13.2292 36.536 12.8335 35.9232 12.385C35.8992 12.64 35.8634 12.818 35.8727 12.994C35.88 13.1282 35.9025 13.3267 35.9905 13.3807V13.3807ZM35.3941 17.2424C35.856 17.2925 36.5489 17.3403 37.0109 17.3909V16.7631C36.5489 16.6619 35.856 16.5617 35.3941 16.4575V17.2424Z" fill="#000"/>
</svg>
