<svg width="50" height="50" viewBox="0 0 50 50" fill="none" xmlns="http://www.w3.org/2000/svg">
<path fill-rule="evenodd" clip-rule="evenodd" d="M35.4301 19.0118C35.819 19.1236 36.2051 19.2451 36.5879 19.3763C40.4722 20.7125 42.9822 22.8055 42.9822 24.9696C42.9822 27.2267 40.2998 29.4334 36.1768 30.7984C35.9589 30.8706 35.7356 30.9399 35.5079 31.007C35.5891 31.3334 35.6615 31.6539 35.7236 31.9677C36.5376 36.076 35.9108 39.4527 33.9817 40.5686C32.1139 41.649 29.0952 40.5877 26.0386 37.9594C25.7063 37.673 25.3821 37.3775 25.0664 37.0731C24.8157 37.3153 24.5653 37.5464 24.3159 37.7643C21.1603 40.5205 17.9197 41.6641 15.9889 40.5516C14.1195 39.474 13.532 36.3308 14.2842 32.3721C14.3664 31.9419 14.4606 31.5141 14.5667 31.0891C14.2401 30.9959 13.9158 30.8946 13.5942 30.7853C9.62813 29.4309 7.01782 27.1969 7.01782 24.9696C7.01782 22.8133 9.44955 20.7343 13.2571 19.4078C13.6827 19.2596 14.1276 19.1203 14.5882 18.9895C14.4895 18.5951 14.4009 18.1982 14.3224 17.7992C13.5334 13.7706 14.0886 10.551 15.9629 9.46679C17.9176 8.33613 21.173 9.55029 24.4208 12.4319C24.6228 12.6115 24.8215 12.7949 25.0167 12.9819C25.3082 12.7007 25.6068 12.4269 25.9122 12.1607C29.0111 9.46599 32.0795 8.33868 33.9556 9.41987C35.9124 10.5472 36.4854 13.9718 35.609 18.2228C35.5543 18.4868 35.4946 18.7499 35.4301 19.0118ZM35.0896 29.5307C35.2952 29.4698 35.497 29.407 35.6936 29.3419H35.6938C39.2535 28.1632 41.446 26.3597 41.446 24.9704C41.446 23.6662 39.416 21.9735 36.0879 20.8288C35.7437 20.7103 35.3866 20.5982 35.0187 20.4916C34.5763 21.9223 33.9858 23.4337 33.2684 24.978C34.02 26.5597 34.6344 28.0909 35.0896 29.5307ZM34.3894 37.0097C34.6278 35.7257 34.5764 34.0833 34.2166 32.2666C34.1604 31.983 34.0951 31.6931 34.0219 31.3973C32.5323 31.7413 30.8897 31.9934 29.151 32.1475C28.1625 33.5773 27.1498 34.865 26.1364 35.9726C26.4391 36.2636 26.741 36.5388 27.0407 36.7964C29.6546 39.0441 32.0785 39.8962 33.2119 39.2406C33.7445 38.9326 34.1752 38.1634 34.3894 37.0097ZM16.7566 39.2222C17.2896 39.5293 18.1716 39.5182 19.2789 39.1274H19.279C20.5113 38.6924 21.9096 37.8278 23.305 36.6089C23.5385 36.4044 23.767 36.1942 23.9902 35.9784C22.94 34.8522 21.898 33.5662 20.903 32.1671C19.1601 32.0258 17.5295 31.7916 16.0564 31.466C15.9579 31.8612 15.8703 32.2591 15.7938 32.6592C15.1506 36.0445 15.6221 38.5685 16.7566 39.2222ZM9.89656 27.1067C10.8893 27.956 12.3375 28.7344 14.0912 29.3333C14.3848 29.4332 14.6809 29.5258 14.979 29.611C15.4333 28.1311 16.0321 26.5774 16.7537 25.0078C16.0413 23.4612 15.451 21.9318 15.0008 20.4691C14.5845 20.5867 14.1717 20.7165 13.763 20.8582C10.5066 21.9927 8.55416 23.6619 8.55416 24.9704C8.55416 25.5854 9.0046 26.3433 9.89656 27.1067ZM16.7327 10.7962C15.6031 11.4496 15.1543 14.0533 15.8302 17.5051V17.5049C15.9033 17.876 15.9857 18.2452 16.0774 18.6122C17.5659 18.2752 19.1851 18.0236 20.8766 17.8669C21.8629 16.4759 22.8954 15.1995 23.9402 14.0784C23.7599 13.9062 23.5799 13.7397 23.4006 13.5806C20.5965 11.0927 17.936 10.1002 16.7327 10.7962ZM30.25 19.5356C30.6274 20.1268 30.992 20.726 31.3436 21.3328C31.7009 21.9493 32.0458 22.5727 32.3782 23.2029C32.8331 22.1389 33.2194 21.101 33.5293 20.1083C32.4969 19.8728 31.3976 19.6803 30.25 19.5356ZM27.1337 17.7285C26.4356 16.7992 25.7259 15.9426 25.0173 15.1755C24.2975 15.9515 23.5818 16.8069 22.883 17.7276C24.2991 17.6614 25.7176 17.6617 27.1337 17.7285ZM17.6352 23.2018C17.9591 22.5745 18.2975 21.9548 18.6503 21.3433C19.0036 20.7313 19.3712 20.1276 19.7529 19.5328C18.6128 19.6751 17.5185 19.8626 16.4924 20.0921C16.805 21.0989 17.1878 22.1414 17.6352 23.2018ZM16.4712 29.9851C17.497 30.2083 18.6078 30.3862 19.7857 30.5176C19.3947 29.9115 19.0182 29.2961 18.6565 28.672C18.3021 28.0602 17.9622 27.4402 17.6369 26.8125C17.18 27.8956 16.7887 28.9605 16.4712 29.9851ZM22.8959 32.286C23.6053 33.2201 24.3316 34.0885 25.0598 34.8737C25.7636 34.0993 26.4708 33.2297 27.1711 32.2786C26.4579 32.3104 25.7332 32.3267 25.0001 32.3267C24.2865 32.3267 23.5845 32.3131 22.8959 32.286ZM33.6006 29.9186C33.2788 28.9114 32.8735 27.8521 32.3928 26.7573C32.0593 27.3996 31.7116 28.0345 31.3498 28.6614C30.994 29.2782 30.6258 29.8879 30.2457 30.4901C31.432 30.3479 32.5577 30.1564 33.6006 29.9186ZM28.2935 30.6762C28.8987 29.7679 29.4741 28.8401 30.0189 27.8944H30.019C30.5686 26.9434 31.084 25.9732 31.5644 24.9855C31.079 24.0078 30.5619 23.0461 30.014 22.102C29.4691 21.1603 28.8911 20.2382 28.2811 19.3373C27.2118 19.2559 26.1138 19.2132 25.0002 19.2132C23.8917 19.2132 22.795 19.2555 21.7254 19.3363C21.1092 20.2386 20.5275 21.164 19.9816 22.1104V22.1101C19.4355 23.0563 18.9252 24.0227 18.4519 25.0073C18.9264 25.9915 19.4383 26.9574 19.9862 27.9029C20.5367 28.8534 21.123 29.7827 21.7439 30.6889C22.7923 30.7568 23.881 30.7916 25.0001 30.7916C26.1238 30.7916 27.2265 30.7523 28.2935 30.6762ZM34.1043 17.9137C34.861 14.2434 34.3926 11.4446 33.1883 10.7505C32.0576 10.0989 29.5761 11.0106 26.9209 13.3196C26.639 13.5654 26.3632 13.8182 26.0939 14.0776C27.1218 15.1843 28.1457 16.4628 29.1339 17.869C30.8303 18.028 32.4506 18.2841 33.9426 18.6281C34.0008 18.3909 34.0548 18.1528 34.1043 17.9137Z" fill="#000"/>
<path d="M25.0021 21.7625C26.7758 21.7625 28.2135 23.1993 28.2135 24.9716C28.2135 26.744 26.7758 28.1808 25.0021 28.1808C23.2285 28.1808 21.7906 26.744 21.7906 24.9716C21.7906 23.1993 23.2285 21.7625 25.0021 21.7625" fill="#000"/>
</svg>
