<svg width="28" height="25" viewBox="0 0 28 25" fill="none" xmlns="http://www.w3.org/2000/svg">
<path fill-rule="evenodd" clip-rule="evenodd" d="M21.8356 8.16711C22.1294 8.25152 22.4209 8.34332 22.71 8.44241C25.6433 9.45145 27.5389 11.0321 27.5389 12.6664C27.5389 14.3709 25.5132 16.0375 22.3995 17.0682C22.2349 17.1228 22.0663 17.1751 21.8944 17.2258C21.9557 17.4723 22.0104 17.7143 22.0573 17.9513C22.672 21.0539 22.1986 23.6039 20.7418 24.4466C19.3313 25.2625 17.0515 24.461 14.7432 22.4762C14.4923 22.26 14.2475 22.0367 14.009 21.8068C13.8197 21.9898 13.6306 22.1643 13.4423 22.3288C11.0592 24.4104 8.61191 25.2739 7.15376 24.4338C5.74201 23.62 5.29835 21.2463 5.86641 18.2567C5.92849 17.9318 5.99963 17.6087 6.07977 17.2878C5.83309 17.2174 5.58821 17.141 5.34535 17.0584C2.35019 16.0355 0.378906 14.3485 0.378906 12.6664C0.378906 11.038 2.21533 9.46791 5.09076 8.46619C5.41218 8.35424 5.74814 8.24903 6.096 8.1503C6.02148 7.85241 5.95454 7.55268 5.89526 7.25139C5.29943 4.209 5.71869 1.7776 7.13417 0.958812C8.61035 0.104947 11.0688 1.02187 13.5215 3.19803C13.6741 3.33369 13.8241 3.47216 13.9715 3.61337C14.1917 3.401 14.4172 3.19423 14.6478 2.99324C16.9881 0.958211 19.3053 0.106869 20.7221 0.923379C22.1998 1.77472 22.6326 4.36094 21.9707 7.57125C21.9294 7.77068 21.8843 7.96934 21.8356 8.16711ZM21.5785 16.1109C21.7338 16.0649 21.8862 16.0175 22.0346 15.9684H22.0347C24.723 15.0782 26.3788 13.7162 26.3788 12.667C26.3788 11.6821 24.8458 10.4038 22.3324 9.53934C22.0725 9.44985 21.8028 9.36518 21.525 9.2847C21.1908 10.3651 20.7449 11.5065 20.2031 12.6728C20.7707 13.8673 21.2347 15.0236 21.5785 16.1109ZM21.0497 21.759C21.2298 20.7894 21.1909 19.549 20.9192 18.1771C20.8767 17.9629 20.8275 17.744 20.7722 17.5205C19.6472 17.7803 18.4067 17.9707 17.0937 18.0871C16.3472 19.1669 15.5824 20.1393 14.8171 20.9758C15.0457 21.1956 15.2737 21.4034 15.5001 21.5979C17.474 23.2953 19.3045 23.9389 20.1605 23.4438C20.5627 23.2111 20.8879 22.6303 21.0497 21.759ZM7.73354 23.4299C8.13609 23.6618 8.80212 23.6534 9.63836 23.3583H9.63848C10.5691 23.0298 11.625 22.3769 12.6788 21.4563C12.8552 21.3019 13.0277 21.1431 13.1963 20.9802C12.4032 20.1297 11.6163 19.1585 10.8649 18.1019C9.54869 17.9952 8.31723 17.8183 7.20478 17.5724C7.13035 17.8709 7.06421 18.1714 7.00645 18.4735C6.52072 21.0301 6.87675 22.9362 7.73354 23.4299ZM2.5529 14.2803C3.30259 14.9217 4.3963 15.5095 5.72066 15.9619C5.9424 16.0373 6.16597 16.1072 6.39114 16.1716C6.7342 15.054 7.18639 13.8806 7.73138 12.6952C7.19336 11.5273 6.74754 10.3723 6.40761 9.26765C6.09321 9.35648 5.78147 9.45449 5.47281 9.56155C3.01363 10.4183 1.53913 11.6789 1.53913 12.667C1.53913 13.1315 1.8793 13.7038 2.5529 14.2803ZM7.71551 1.96277C6.86245 2.45619 6.52348 4.42251 7.03398 7.02927V7.02915C7.08916 7.30941 7.1514 7.58823 7.22065 7.86536C8.34476 7.61084 9.56756 7.42083 10.8449 7.30252C11.5898 6.25203 12.3695 5.28815 13.1585 4.44149C13.0224 4.31141 12.8864 4.18566 12.7511 4.06555C10.6334 2.18666 8.62423 1.43717 7.71551 1.96277ZM17.9237 8.56272C18.2087 9.00915 18.484 9.46168 18.7495 9.91996C19.0194 10.3855 19.2799 10.8563 19.5309 11.3322C19.8744 10.5287 20.1661 9.74484 20.4001 8.99524C19.6205 8.81735 18.7903 8.67202 17.9237 8.56272ZM15.5702 7.19802C15.043 6.49622 14.5071 5.8493 13.9719 5.27001C13.4284 5.85603 12.8879 6.50198 12.3602 7.1973C13.4296 7.14729 14.5008 7.14753 15.5702 7.19802ZM8.39705 11.3314C8.64163 10.8577 8.89725 10.3897 9.16369 9.92789C9.43048 9.46566 9.7081 9.00976 9.99631 8.56056C9.13532 8.66805 8.30894 8.80966 7.53401 8.98298C7.77008 9.74328 8.05916 10.5306 8.39705 11.3314ZM7.51802 16.4541C8.29271 16.6226 9.13159 16.757 10.0211 16.8562C9.7258 16.3985 9.44148 15.9338 9.16837 15.4625C8.90072 15.0004 8.64399 14.5322 8.39837 14.0581C8.05327 14.8761 7.75782 15.6803 7.51802 16.4541ZM12.3699 18.1917C12.9056 18.8971 13.4541 19.5529 14.004 20.1459C14.5356 19.5611 15.0696 18.9043 15.5985 18.1861C15.0599 18.2101 14.5126 18.2225 13.959 18.2225C13.4201 18.2225 12.8899 18.2121 12.3699 18.1917ZM20.454 16.4039C20.2109 15.6432 19.9049 14.8433 19.5419 14.0164C19.2901 14.5016 19.0274 14.981 18.7542 15.4544C18.4855 15.9202 18.2075 16.3807 17.9204 16.8354C18.8163 16.7281 19.6664 16.5834 20.454 16.4039ZM16.4461 16.976C16.9031 16.29 17.3377 15.5894 17.7491 14.8752H17.7492C18.1642 14.157 18.5535 13.4243 18.9163 12.6784C18.5497 11.9401 18.1592 11.2138 17.7454 10.5008C17.3339 9.78969 16.8974 9.0933 16.4368 8.41294C15.6293 8.35144 14.8 8.31925 13.9591 8.31925C13.1219 8.31925 12.2937 8.3512 11.486 8.41222C11.0206 9.09363 10.5813 9.79245 10.169 10.5072V10.5069C9.75664 11.2215 9.37129 11.9513 9.0138 12.6949C9.3722 13.4382 9.75872 14.1676 10.1725 14.8816C10.5883 15.5994 11.0311 16.3012 11.4999 16.9856C12.2917 17.0369 13.1138 17.0632 13.959 17.0632C14.8076 17.0632 15.6403 17.0335 16.4461 16.976ZM20.8344 7.33783C21.4059 4.56605 21.0521 2.45246 20.1427 1.9283C19.2888 1.43621 17.4147 2.12468 15.4095 3.86844C15.1966 4.05406 14.9884 4.24494 14.785 4.44089C15.5612 5.27662 16.3345 6.24219 17.0808 7.30408C18.3619 7.42419 19.5855 7.61757 20.7123 7.87737C20.7563 7.69827 20.797 7.5184 20.8344 7.33783Z" fill="#000"/>
<path d="M13.9604 10.2444C15.2999 10.2444 16.3857 11.3295 16.3857 12.6679C16.3857 14.0064 15.2999 15.0915 13.9604 15.0915C12.621 15.0915 11.5352 14.0064 11.5352 12.6679C11.5352 11.3295 12.621 10.2444 13.9604 10.2444Z" fill="#000"/>
</svg>
