<svg width="21" height="21" viewBox="0 0 21 21" fill="none" xmlns="http://www.w3.org/2000/svg">
<path fill-rule="evenodd" clip-rule="evenodd" d="M10.7442 4.0975C10.9004 3.94128 11.1124 3.85352 11.3333 3.85352C11.5543 3.85352 11.7662 3.94128 11.9225 4.0975L17.7558 9.93084C17.9121 10.0871 17.9998 10.299 17.9998 10.52C17.9998 10.741 17.9121 10.9529 17.7558 11.1092L11.9225 16.9425C11.7653 17.0943 11.5548 17.1783 11.3363 17.1764C11.1178 17.1745 10.9088 17.0869 10.7543 16.9324C10.5998 16.7778 10.5122 16.5688 10.5103 16.3503C10.5084 16.1318 10.5924 15.9213 10.7442 15.7642L15.155 11.3533H3.83333C3.61232 11.3533 3.40036 11.2655 3.24408 11.1093C3.0878 10.953 3 10.741 3 10.52C3 10.299 3.0878 10.087 3.24408 9.93075C3.40036 9.77447 3.61232 9.68667 3.83333 9.68667H15.155L10.7442 5.27584C10.5879 5.11956 10.5002 4.90764 10.5002 4.68667C10.5002 4.4657 10.5879 4.25378 10.7442 4.0975V4.0975Z" fill="#000"/>
</svg>
