<svg width="36" height="30" viewBox="0 0 36 30" fill="none" xmlns="http://www.w3.org/2000/svg">
<path d="M28.6723 16.3219C30.0555 13.9243 32.4531 9.49806 32.4531 7.65379C32.4531 5.04108 30.3322 2.92017 27.7195 2.92017C25.1068 2.92017 22.9858 5.04108 22.9858 7.65379C22.9858 9.49806 25.3834 13.9243 26.7666 16.3219C27.1969 17.0596 28.242 17.0596 28.6723 16.3219ZM25.5063 7.65379C25.5063 6.42428 26.49 5.44067 27.7195 5.44067C28.949 5.44067 29.9326 6.42428 29.9326 7.65379C29.9326 8.8833 28.949 9.86691 27.7195 9.86691C26.49 9.86691 25.5063 8.85257 25.5063 7.65379Z" fill="#000"/>
<path d="M28.1802 18.9959H19.3891C18.1904 18.9959 17.2375 18.043 17.2375 16.8443C17.2375 15.6455 18.1904 14.6926 19.3891 14.6926H21.7867C22.3092 14.6926 22.7396 14.2623 22.7396 13.7397C22.7396 13.2172 22.3092 12.7869 21.7867 12.7869H19.3891C17.176 12.7869 15.3625 14.6004 15.3625 16.8135C15.3625 19.0266 17.176 20.8709 19.3891 20.8709H28.1494C29.3482 20.8709 30.3011 21.8238 30.3011 23.0226C30.3011 24.2213 29.3482 25.1742 28.1494 25.1742H12.4731C11.9506 25.1742 11.5203 25.6045 11.5203 26.1271C11.5203 26.6496 11.9506 27.08 12.4731 27.08H28.1802C30.3933 27.08 32.2068 25.2664 32.2068 23.0533C32.2068 20.8402 30.3933 18.9959 28.1802 18.9959Z" fill="#000"/>
<path d="M7.98606 13.0332C5.37335 13.0332 3.25244 15.1541 3.25244 17.7668C3.25244 19.6111 5.64999 24.0373 7.03319 26.4349C7.46352 27.1726 8.50861 27.1726 8.93894 26.4349C10.3221 24.0373 12.7197 19.6111 12.7197 17.7668C12.7197 15.1234 10.5988 13.0332 7.98606 13.0332ZM7.98606 19.9492C6.75655 19.9492 5.77294 18.9656 5.77294 17.7361C5.77294 16.5066 6.75655 15.523 7.98606 15.523C9.21558 15.523 10.1992 16.5066 10.1992 17.7361C10.1992 18.9656 9.21558 19.9492 7.98606 19.9492Z" fill="#000"/>
</svg>
