<svg width="21" height="20" viewBox="0 0 21 20" fill="none" xmlns="http://www.w3.org/2000/svg">
<path d="M11.0864 6.66406V14.6641C11.0864 15.4597 10.7704 16.2228 10.2077 16.7854C9.64514 17.348 8.88208 17.6641 8.08643 17.6641H5.91643C5.68052 18.3316 5.21623 18.8942 4.60562 19.2524C3.99501 19.6107 3.2774 19.7415 2.57964 19.6219C1.88187 19.5022 1.24888 19.1397 0.792552 18.5984C0.336222 18.0572 0.0859375 17.372 0.0859375 16.6641C0.0859375 15.9561 0.336222 15.2709 0.792552 14.7297C1.24888 14.1884 1.88187 13.8259 2.57964 13.7063C3.2774 13.5866 3.99501 13.7174 4.60562 14.0757C5.21623 14.434 5.68052 14.9966 5.91643 15.6641H8.08643C8.35164 15.6641 8.606 15.5587 8.79353 15.3712C8.98107 15.1836 9.08643 14.9293 9.08643 14.6641V6.66406C9.08643 5.86841 9.4025 5.10535 9.96511 4.54274C10.5277 3.98013 11.2908 3.66406 12.0864 3.66406H15.0864V0.664062L20.0864 4.66406L15.0864 8.66406V5.66406H12.0864C11.8212 5.66406 11.5669 5.76942 11.3793 5.95696C11.1918 6.14449 11.0864 6.39885 11.0864 6.66406ZM3.08643 17.6641C3.35164 17.6641 3.606 17.5587 3.79353 17.3712C3.98107 17.1836 4.08643 16.9293 4.08643 16.6641C4.08643 16.3988 3.98107 16.1445 3.79353 15.957C3.606 15.7694 3.35164 15.6641 3.08643 15.6641C2.82121 15.6641 2.56686 15.7694 2.37932 15.957C2.19178 16.1445 2.08643 16.3988 2.08643 16.6641C2.08643 16.9293 2.19178 17.1836 2.37932 17.3712C2.56686 17.5587 2.82121 17.6641 3.08643 17.6641Z" fill="#000"/>
</svg>
