<svg width="56" height="56" viewBox="0 0 56 56" fill="none" xmlns="http://www.w3.org/2000/svg">
<path fill-rule="evenodd" clip-rule="evenodd" d="M8.88611 19.6121L17.1607 16.693C15.4523 18.9928 13.985 21.4624 12.7821 24.0626L8.88611 19.6121ZM3.13843 20.0924L10.8028 28.8496L9.69361 31.6249C9.52481 32.046 9.4832 32.5075 9.57393 32.9521C9.66466 33.3967 9.88376 33.8049 10.2041 34.1263L10.935 34.8549C6.98104 39.3101 4.79985 43.9718 2.68363 50.3158C2.54729 50.7247 2.5275 51.1634 2.62649 51.5829C2.72548 52.0023 2.93934 52.3859 3.24409 52.6907C3.54884 52.9954 3.93244 53.2093 4.35191 53.3083C4.77137 53.4073 5.21011 53.3875 5.61896 53.2511C11.963 51.1349 16.6247 48.9537 21.0799 44.9997L21.8085 45.7283C22.1296 46.0491 22.5377 46.2686 22.9823 46.3598C23.4269 46.4509 23.8885 46.4097 24.3099 46.2412L27.0851 45.132L35.8424 52.7963C36.1277 53.0462 36.4698 53.2223 36.8389 53.3092C37.208 53.3962 37.5928 53.3914 37.9596 53.2953C38.3264 53.1991 38.6641 53.0145 38.943 52.7576C39.2219 52.5007 39.4337 52.1794 39.5597 51.8218L46.4885 32.191C51.0906 26.7453 53.6152 19.8456 53.6145 12.7158V4.64073C53.6145 4.02532 53.37 3.43511 52.9348 2.99995C52.4997 2.56478 51.9095 2.32031 51.294 2.32031H43.219C36.0902 2.31931 29.1914 4.84307 23.7461 9.44399L4.11533 16.3751C3.75808 16.5012 3.43716 16.7129 3.18059 16.9917C2.92402 17.2705 2.73961 17.6078 2.64348 17.9743C2.54734 18.3407 2.5424 18.7252 2.62908 19.094C2.71577 19.4628 2.89144 19.8048 3.14075 20.0901L3.13843 20.0924ZM8.79561 47.1392C10.2528 43.6214 11.8864 40.823 14.2231 38.1429L17.7919 41.7117C15.1118 44.0484 12.3134 45.6819 8.79561 47.1392ZM24.0083 41.366L22.7692 40.1269L15.8079 33.1656L14.5688 31.9265L16.2163 27.8078C17.7282 24.0293 19.8511 20.5252 22.5 17.4355L23.8366 15.8739C26.2331 13.078 29.2063 10.8339 32.552 9.29543C35.8976 7.75698 39.5366 6.96067 43.219 6.96115H48.9736V12.7158C48.9741 16.3982 48.1778 20.0371 46.6393 23.3828C45.1009 26.7285 42.8567 29.7016 40.0609 32.0982L38.4993 33.4348C35.4096 36.0836 31.9054 38.2065 28.127 39.7185L24.0083 41.366ZM36.3227 47.0487L31.8722 43.155C34.4724 41.9521 36.942 40.4849 39.2418 38.7764L36.3227 47.0487ZM35.0511 18.5632C35.0511 17.9478 35.2956 17.3576 35.7308 16.9224C36.1659 16.4873 36.7561 16.2428 37.3715 16.2428C37.987 16.2428 38.5772 16.4873 39.0123 16.9224C39.4475 17.3576 39.692 17.9478 39.692 18.5632C39.692 19.1786 39.4475 19.7688 39.0123 20.204C38.5772 20.6392 37.987 20.8836 37.3715 20.8836C36.7561 20.8836 36.1659 20.6392 35.7308 20.204C35.2956 19.7688 35.0511 19.1786 35.0511 18.5632ZM37.3715 11.602C35.5253 11.602 33.7547 12.3354 32.4492 13.6409C31.1437 14.9464 30.4103 16.717 30.4103 18.5632C30.4103 20.4095 31.1437 22.1801 32.4492 23.4856C33.7547 24.7911 35.5253 25.5245 37.3715 25.5245C39.2178 25.5245 40.9884 24.7911 42.2939 23.4856C43.5994 22.1801 44.3328 20.4095 44.3328 18.5632C44.3328 16.717 43.5994 14.9464 42.2939 13.6409C40.9884 12.3354 39.2178 11.602 37.3715 11.602Z" fill="black"/>
</svg>
