<svg width="50" height="50" viewBox="0 0 50 50" fill="none" xmlns="http://www.w3.org/2000/svg">
<path fill-rule="evenodd" clip-rule="evenodd" d="M39.3403 21.5103C38.7265 23.0408 37.9616 24.4793 37.0882 25.8471L38.3459 34.5287L39.3403 21.5103ZM36.3597 26.9373C35.0423 28.8255 33.5299 30.5828 31.9441 32.2698L37.8978 37.5544L36.3597 26.9373ZM31.2989 32.8701C31.1958 32.9658 31.0924 33.061 30.9887 33.1559C29.4545 34.6246 27.7875 36.0166 25.8107 37.2409L37.233 38.1374L31.2989 32.8701ZM24.4443 38.0137C23.4991 38.5357 22.5158 38.9982 21.4873 39.3865L32.4964 38.6457L24.4443 38.0137ZM10.6332 25.3463L12.295 29.8094L19.3216 28.233L27.9007 20.26L30.2372 12.8385L26.7602 10.4201L20.4898 12.7669C19.7569 13.4491 18.7971 14.3508 17.8516 15.2392L17.8481 15.2425C17.4549 15.612 17.0641 15.9792 16.6931 16.3273C16.0486 16.932 15.4637 17.4794 15.0305 17.8803C14.8141 18.0805 14.6343 18.2455 14.5033 18.3632C14.4381 18.4218 14.3829 18.4706 14.3405 18.5068C14.3224 18.5222 14.3045 18.5372 14.288 18.5504C14.268 18.5806 14.2394 18.6262 14.2018 18.6888C14.1201 18.8249 14.0075 19.0215 13.8701 19.2671C13.5959 19.7572 13.2303 20.4291 12.8303 21.1721C12.1662 22.4054 11.4104 23.8284 10.8264 24.9279L10.6015 25.3512L10.6332 25.3463ZM15.9495 38.7328L16.0265 38.9126L18.9541 29.2147L12.5617 30.6487C12.6331 30.7942 12.7129 30.9639 12.799 31.1526C13.0958 31.8024 13.4844 32.7113 13.9057 33.7213C14.5777 35.3323 15.3376 37.2121 15.9495 38.7328ZM10.34 32.2228L10.5455 27.9214L11.3868 30.308L10.34 32.2228ZM10.2524 34.2633L11.2371 32.4674L10.8499 37.0784C10.5228 36.3632 10.3019 35.4456 10.2524 34.2633ZM15.1392 39.0692L12.1495 32.087L11.6428 38.1207C12.6142 39.3543 13.8775 39.6156 15.3419 39.5734L15.1392 39.0692ZM28.9938 21.4288C31.4522 22.9381 35.0707 25.1546 36.0892 25.7745C34.7658 27.7763 33.1981 29.6387 31.5209 31.4381L28.9938 21.4288ZM38.0576 19.3872L28.9024 20L30.979 13.4036L38.1261 19.2485L38.0576 19.3872ZM28.059 21.3106L30.674 31.668L20.4488 28.3833L28.059 21.3106ZM35.4051 10.5L32.0314 12.3644L39.325 13.3879C39.0807 12.783 38.7204 12.2395 38.2175 11.7846C37.57 11.1989 36.6625 10.7391 35.4051 10.5ZM39.6026 14.3128L32.2077 13.2751L39.2543 19.0377C39.6911 17.5059 39.913 15.7988 39.6026 14.3128ZM33.637 10.4616L30.7137 12.0763L28.2626 10.3208L33.637 10.4616ZM29.7176 20.8436C30.9316 21.5888 32.3783 22.4757 33.6473 23.2529C34.5039 23.7775 35.2794 24.2522 35.8477 24.5994C36.1134 24.7618 36.3336 24.8963 36.4956 24.9949C36.5414 24.9282 36.5939 24.8483 36.6524 24.7558C36.8805 24.3954 37.1782 23.8777 37.4879 23.2874C38.0008 22.3098 38.5272 21.1696 38.8286 20.2357L29.7176 20.8436ZM19.7117 29.7408L16.7116 39.6791C19.2805 39.3523 21.5788 38.5476 23.6934 37.4228L19.7117 29.7408ZM30.3894 32.5151C28.5329 34.2121 26.588 35.763 24.4606 36.9964L20.4809 29.3181L30.3894 32.5151Z" fill="#000"/>
</svg>
