<svg width="26" height="27" viewBox="0 0 26 27" fill="none" xmlns="http://www.w3.org/2000/svg">
<path d="M19.923 17.2035L5.51953 25.7564L24.1694 24.4908L25.6058 5.68542L19.923 17.2035Z" fill="#000" stroke="#21004B" stroke-width="0.728298" stroke-linejoin="bevel"/>
<path d="M24.1995 24.478L22.5967 13.4144L18.2305 19.1797L24.1995 24.478Z" fill="#000" stroke="#21004B" stroke-width="0.728298" stroke-linejoin="bevel"/>
<path d="M24.2216 24.4783L12.4781 23.5565L5.58203 25.7326L24.2216 24.4783Z" fill="#000" stroke="#21004B" stroke-width="0.728298" stroke-linejoin="bevel"/>
<path d="M5.60032 25.7349L8.53412 16.1239L2.07812 17.5043L5.60032 25.7349Z" fill="#000" stroke="#21004B" stroke-width="0.728298" stroke-linejoin="bevel"/>
<path d="M18.229 19.2116L15.5297 8.63809L7.80469 15.8794L18.229 19.2116Z" fill="#000" stroke="#21004B" stroke-width="0.728298" stroke-linejoin="bevel"/>
<path d="M24.9959 8.78708L17.6936 2.82309L15.6602 9.39706L24.9959 8.78708Z" fill="#000" stroke="#21004B" stroke-width="0.728298" stroke-linejoin="bevel"/>
<path d="M21.5786 0.697225L17.2836 3.07071L14.5742 0.665375L21.5786 0.697225Z" fill="#000" stroke="#21004B" stroke-width="0.728298" stroke-linejoin="bevel"/>
<path d="M0.378906 20.7277L2.17804 17.4465L0.722555 13.5374L0.378906 20.7277Z" fill="#000" stroke="#21004B" stroke-width="0.728298" stroke-linejoin="bevel"/>
<path d="M0.625 13.4146L2.08907 17.5679L8.45182 16.1405L15.716 9.38946L17.766 2.87794L14.5384 0.598541L9.05048 2.65247C7.32134 4.26071 3.96636 7.44261 3.84545 7.50254C3.72539 7.56351 1.62955 11.5247 0.625 13.4146Z" fill="#000" stroke="#21004B" stroke-width="0.728298" stroke-linejoin="bevel"/>
<path d="M5.60156 25.7306L8.5121 16.0892L18.1793 19.1946C14.6842 22.4722 10.7965 25.243 5.60156 25.7306Z" fill="#000" stroke="#21004B" stroke-width="0.728298" stroke-linejoin="bevel"/>
<path d="M15.7305 9.37071L18.2123 19.2005C21.132 16.1308 23.7524 12.8303 25.0356 8.74796L15.7305 9.37071Z" fill="#000" stroke="#21004B" stroke-width="0.728298" stroke-linejoin="bevel"/>
<path d="M25.0108 8.79815C26.0041 5.80065 26.2331 1.50084 21.5498 0.702484L17.707 2.82515L25.0108 8.79815Z" fill="#000" stroke="#21004B" stroke-width="0.728298" stroke-linejoin="bevel"/>
<path d="M0.378906 20.6852C0.516366 25.6321 4.0855 25.7056 5.60594 25.7492L2.09422 17.5477L0.378906 20.6852Z" fill="#000" stroke="#21004B" stroke-width="0.728298" stroke-linejoin="bevel"/>
<path d="M15.7422 9.38545C17.986 10.7644 22.5075 13.534 22.599 13.5849C22.7415 13.6651 24.5486 10.5377 24.9587 8.77045L15.7422 9.38545Z" fill="#000" stroke="#21004B" stroke-width="0.728298" stroke-linejoin="bevel"/>
<path d="M8.50781 16.0892L12.399 23.5966C14.6998 22.3488 16.5016 20.8284 18.1518 19.1998L8.50781 16.0892Z" fill="#000" stroke="#21004B" stroke-width="0.728298" stroke-linejoin="bevel"/>
<path d="M2.07865 17.5581L1.52734 24.1233C2.56751 25.5442 3.99868 25.6678 5.50026 25.557C4.414 22.8539 2.2444 17.4485 2.07865 17.5581Z" fill="#000" stroke="#21004B" stroke-width="0.728298" stroke-linejoin="bevel"/>
<path d="M17.6836 2.84136L25.4138 3.92616C25.0012 2.17795 23.7343 1.04977 21.575 0.697113L17.6836 2.84136Z" fill="#000" stroke="#21004B" stroke-width="0.728298" stroke-linejoin="bevel"/>
</svg>
