<svg width="50" height="50" viewBox="0 0 50 50" fill="none" xmlns="http://www.w3.org/2000/svg">
<path d="M39.9598 24.6279L38.6863 23.8396C38.6756 23.7155 38.6634 23.5918 38.6501 23.4686L39.7445 22.4478C39.8558 22.3441 39.9056 22.1905 39.8755 22.0418C39.8462 21.8925 39.7416 21.7696 39.5993 21.7166L38.2003 21.1935C38.1652 21.0723 38.1284 20.952 38.0907 20.8324L38.9634 19.6203C39.0524 19.4971 39.0706 19.3369 39.0127 19.1963C38.9547 19.0563 38.828 18.956 38.6782 18.9314L37.203 18.6914C37.1456 18.5796 37.0859 18.4694 37.0256 18.3602L37.6456 16.9994C37.709 16.8609 37.696 16.6998 37.6114 16.574C37.527 16.4476 37.3841 16.3737 37.2317 16.3795L35.7345 16.4317C35.6571 16.3349 35.5783 16.2389 35.498 16.1448L35.842 14.6864C35.8768 14.5383 35.833 14.3832 35.7252 14.2757C35.6183 14.1684 35.4629 14.1241 35.3148 14.1589L33.8567 14.5026C33.7622 14.4226 33.6663 14.3435 33.5692 14.2661L33.6217 12.7689C33.6275 12.6173 33.5536 12.4733 33.4272 12.3892C33.3005 12.3046 33.1403 12.2918 33.002 12.3547L31.6416 12.975C31.5317 12.9147 31.4216 12.855 31.3103 12.7973L31.0698 11.3218C31.0454 11.1723 30.9451 11.0453 30.8049 10.9874C30.6649 10.9291 30.5043 10.9479 30.3812 11.0366L29.1682 11.9093C29.0488 11.8713 28.9288 11.8348 28.8077 11.8L28.2846 10.4007C28.2315 10.2582 28.1086 10.1535 27.9594 10.124C27.8104 10.0947 27.6571 10.1443 27.5536 10.255L26.5329 11.3502C26.4097 11.3366 26.2857 11.3241 26.1619 11.314L25.3736 10.0402C25.2939 9.91124 25.1527 9.8327 25.0009 9.8327C24.849 9.8327 24.7079 9.91124 24.6285 10.0402L23.8401 11.314C23.7161 11.3241 23.592 11.3366 23.4689 11.3502L22.4478 10.255C22.3444 10.1443 22.1907 10.0947 22.0421 10.124C21.8928 10.1538 21.7699 10.2582 21.7169 10.4007L21.1938 11.8C21.0726 11.8348 20.9526 11.8716 20.8329 11.9093L19.6203 11.0366C19.4971 10.9476 19.3366 10.9288 19.1963 10.9874C19.0563 11.0453 18.9557 11.1723 18.9314 11.3218L18.6908 12.7973C18.5796 12.855 18.4694 12.9144 18.3596 12.975L16.9991 12.3547C16.8609 12.2916 16.6998 12.3046 16.574 12.3892C16.4476 12.4733 16.3737 12.6173 16.3795 12.7689L16.4317 14.2661C16.3349 14.3435 16.2389 14.4226 16.1442 14.5026L14.6861 14.1589C14.538 14.1244 14.3826 14.1684 14.2754 14.2757C14.1676 14.3832 14.1238 14.5383 14.1586 14.6864L14.502 16.1448C14.4223 16.2392 14.3435 16.3349 14.2661 16.4317L12.7689 16.3795C12.6179 16.3752 12.4736 16.4476 12.3892 16.574C12.3046 16.6998 12.2918 16.8609 12.3547 16.9994L12.975 18.3602C12.9147 18.4694 12.855 18.5796 12.7973 18.6914L11.3221 18.9314C11.1723 18.9557 11.0459 19.056 10.9876 19.1963C10.9297 19.3369 10.9485 19.4971 11.0369 19.6203L11.9096 20.8324C11.8716 20.952 11.8348 21.0723 11.8 21.1935L10.4007 21.7166C10.2587 21.7696 10.1541 21.8925 10.1245 22.0418C10.095 22.1908 10.1445 22.3441 10.2555 22.4478L11.3502 23.4686C11.3366 23.5918 11.3244 23.7158 11.314 23.8396L10.0405 24.6279C9.91152 24.7076 9.83298 24.8484 9.83298 25.0006C9.83298 25.1527 9.91152 25.2936 10.0405 25.373L11.314 26.1613C11.3244 26.2854 11.3366 26.4091 11.3502 26.5323L10.2555 27.5534C10.1445 27.6568 10.095 27.8104 10.1245 27.9591C10.1541 28.1084 10.2587 28.231 10.4007 28.2843L11.8 28.8074C11.8348 28.9286 11.8716 29.0488 11.9096 29.1685L11.0369 30.3809C10.9482 30.5043 10.9294 30.6646 10.9876 30.8046C11.0459 30.9452 11.1725 31.0454 11.3224 31.0695L12.7973 31.3095C12.855 31.4213 12.9141 31.5315 12.975 31.6413L12.3547 33.0014C12.2915 33.1397 12.3046 33.3005 12.3892 33.4269C12.4738 33.5536 12.6179 33.6275 12.7689 33.6214L14.2655 33.5689C14.3435 33.6663 14.422 33.7617 14.502 33.8564L14.1586 35.3151C14.1238 35.4629 14.1676 35.6174 14.2754 35.7249C14.3823 35.833 14.538 35.8762 14.6861 35.8414L16.1442 35.498C16.2389 35.5786 16.3349 35.6568 16.4317 35.7339L16.3795 37.2314C16.3737 37.383 16.4476 37.5267 16.574 37.6114C16.6998 37.6957 16.8609 37.7085 16.9991 37.6453L18.3596 37.0254C18.4691 37.0862 18.5793 37.1453 18.6908 37.203L18.9314 38.6776C18.9557 38.8278 19.056 38.9547 19.1963 39.0124C19.3363 39.0706 19.4971 39.0518 19.6203 38.9634L20.8323 38.0902C20.952 38.1281 21.0723 38.1652 21.1935 38.2L21.7166 39.5987C21.7696 39.7407 21.8925 39.8459 22.0418 39.8749C22.1907 39.905 22.3441 39.8552 22.4475 39.7439L23.4686 38.6492C23.5918 38.6634 23.7158 38.6753 23.8398 38.6863L24.6282 39.9598C24.7076 40.0882 24.8487 40.1673 25.0006 40.1673C25.1524 40.1673 25.2936 40.0885 25.3733 39.9598L26.1616 38.6863C26.2857 38.6753 26.4094 38.6634 26.5326 38.6492L27.5533 39.7439C27.6568 39.8552 27.8104 39.905 27.9591 39.8749C28.1084 39.8456 28.2312 39.7407 28.2843 39.5987L28.8074 38.2C28.9286 38.1652 29.0488 38.1281 29.1685 38.0902L30.3809 38.9634C30.504 39.0518 30.6646 39.0706 30.8046 39.0124C30.9449 38.9547 31.0451 38.8275 31.0695 38.6776L31.31 37.203C31.4213 37.1453 31.5315 37.0853 31.6413 37.0254L33.0017 37.6453C33.14 37.7085 33.3008 37.6957 33.4269 37.6114C33.5533 37.5267 33.6269 37.3833 33.6214 37.2314L33.5692 35.7339C33.666 35.6565 33.7619 35.5786 33.8564 35.498L35.3145 35.8414C35.4626 35.8762 35.618 35.833 35.7249 35.7249C35.8327 35.6174 35.8765 35.4629 35.8417 35.3151L35.4983 33.8564C35.5783 33.7617 35.6571 33.6663 35.7342 33.5689L37.2314 33.6214C37.3824 33.6275 37.5267 33.5536 37.6111 33.4269C37.6957 33.3005 37.7087 33.1397 37.6453 33.0014L37.0253 31.6413C37.0859 31.5315 37.1453 31.4213 37.2027 31.3095L38.6779 31.0695C38.828 31.0454 38.9544 30.9452 39.0124 30.8046C39.0703 30.6646 39.0521 30.5043 38.9631 30.3809L38.0904 29.1685C38.1281 29.0488 38.1649 28.9286 38.2 28.8074L39.599 28.2843C39.7413 28.231 39.8462 28.1084 39.8752 27.9591C39.9053 27.8101 39.8555 27.6568 39.7442 27.5534L38.6498 26.5323C38.6631 26.4091 38.6753 26.2851 38.686 26.1613L39.9595 25.373C40.0885 25.2936 40.167 25.1525 40.167 25.0006C40.167 24.8487 40.0888 24.7076 39.9598 24.6279ZM31.4364 35.1922C30.9501 35.0873 30.6408 34.6079 30.7452 34.1202C30.8492 33.633 31.3283 33.3229 31.8143 33.4278C32.3006 33.5318 32.6105 34.0121 32.5061 34.499C32.4018 34.9859 31.9224 35.2963 31.4364 35.1922ZM31.0037 32.2656C30.56 32.1705 30.1235 32.4528 30.0284 32.8974L29.5763 35.0073C28.1811 35.6406 26.6317 35.9924 25 35.9924C23.3309 35.9924 21.7479 35.6232 20.3278 34.963L19.8759 32.8531C19.7809 32.409 19.3444 32.1262 18.901 32.2215L17.0383 32.6215C16.6925 32.2656 16.3708 31.8865 16.0752 31.4863H25.1385C25.2411 31.4863 25.3095 31.4677 25.3095 31.3744V28.1684C25.3095 28.075 25.2411 28.0565 25.1385 28.0565H22.4878V26.0242H25.3547C25.6165 26.0242 26.754 26.099 27.1177 27.5531C27.2316 28.0003 27.4818 29.4549 27.6528 29.9206C27.8232 30.4429 28.517 31.4863 29.2563 31.4863H33.7727C33.824 31.4863 33.8787 31.4805 33.9364 31.47C33.6231 31.8958 33.2794 32.2986 32.9093 32.6751L31.0037 32.2656ZM18.4683 35.1482C17.9819 35.2531 17.5031 34.943 17.3985 34.4558C17.2945 33.9677 17.6037 33.4886 18.09 33.3837C18.5764 33.2797 19.0554 33.5898 19.1598 34.077C19.2638 34.5639 18.9543 35.0438 18.4683 35.1482ZM15.0301 21.2062C15.2318 21.6615 15.0266 22.1951 14.5719 22.3965C14.1171 22.5985 13.585 22.3931 13.3833 21.9374C13.1816 21.4818 13.3868 20.9492 13.8415 20.7471C14.2965 20.5454 14.8284 20.7506 15.0301 21.2062ZM13.9734 23.7112L15.9138 22.8489C16.3282 22.6649 16.5154 22.1792 16.3314 21.7638L15.9317 20.8602H17.5034V27.9446H14.3325C14.0574 26.9778 13.9099 25.9573 13.9099 24.9026C13.9099 24.5001 13.9317 24.1021 13.9734 23.7112ZM22.4884 23.0231V20.935H26.2312C26.4245 20.935 27.5962 21.1584 27.5962 22.0345C27.5962 22.762 26.6975 23.0228 25.9584 23.0228L22.4884 23.0231ZM36.0904 24.9026C36.0904 25.1797 36.0802 25.4539 36.0599 25.726H34.9221C34.8082 25.726 34.7624 25.8008 34.7624 25.9124V26.4349C34.7624 27.6649 34.0689 27.9324 33.4611 28.0005C32.8823 28.0658 32.2407 27.7583 32.1615 27.4041C31.8201 25.4837 31.2512 25.0736 30.3527 24.365C31.4677 23.657 32.6279 22.6124 32.6279 21.2143C32.6279 19.7047 31.5929 18.7537 30.8875 18.2874C29.8977 17.635 28.8019 17.5043 28.5063 17.5043H16.7386C18.3344 15.7233 20.497 14.4618 22.9431 14.0027L24.3302 15.4579C24.6438 15.7862 25.1632 15.7984 25.4913 15.4845L27.0433 14.0001C30.2954 14.6055 33.0487 16.6299 34.6355 19.4073L33.573 21.807C33.3895 22.2223 33.5767 22.7081 33.9909 22.8921L36.0365 23.8007C36.0718 24.1639 36.0904 24.5308 36.0904 24.9026ZM24.3308 12.7648C24.6902 12.4205 25.2603 12.4341 25.6043 12.7941C25.9477 13.1549 25.9347 13.7256 25.5744 14.0696C25.2151 14.4139 24.645 14.4006 24.3009 14.0401C23.9578 13.6798 23.9708 13.1091 24.3308 12.7648ZM34.8746 21.25C35.076 20.7947 35.6081 20.5892 36.0628 20.7912C36.5176 20.9929 36.7228 21.5262 36.5211 21.9815C36.3196 22.4371 35.7875 22.6426 35.3325 22.4406C34.8783 22.2389 34.6731 21.7059 34.8746 21.25Z" fill="#000"/>
</svg>
