<svg width="117" height="117" viewBox="0 0 117 117" fill="none" xmlns="http://www.w3.org/2000/svg">
<rect x="1.02051" y="1.29004" width="115" height="115" rx="15.5" stroke="#EDEEF7" stroke-opacity="0.3"/>
<path d="M92.8467 56.94C92.8312 57.5044 92.814 58.0688 92.8019 58.6332C92.8002 58.7097 92.7479 58.8197 92.8471 58.8561C92.935 58.8883 92.9584 58.7734 93.0032 58.7209C93.4185 58.2309 93.8974 57.8129 94.4453 57.4747C95.8401 56.6138 97.5476 56.8644 98.7143 58.111C99.5812 59.0376 99.9132 60.1606 99.9354 61.4015C99.9835 64.0891 98.011 65.9874 95.5266 66.3269C95.3613 66.3496 95.1942 66.3608 95.0272 66.3724C94.987 66.3753 94.9087 66.4017 94.9213 66.3244C94.9305 66.2678 94.9067 66.1702 95.0067 66.1602C95.7141 66.0887 95.9988 65.5628 96.2516 65.0157C96.5179 64.4402 96.6229 63.822 96.6841 63.1968C96.7808 62.2036 96.7753 61.2167 96.4526 60.2553C96.2814 59.7451 96.0335 59.2783 95.6082 58.9276C94.9849 58.4137 94.2842 58.3694 93.5717 58.6866C92.8245 59.0194 92.8333 59.043 92.8333 59.8443C92.8333 63.4672 92.8333 67.0898 92.8333 70.7127C92.8333 71.029 92.8726 71.0803 93.1895 71.1253C93.6253 71.1874 94.0657 71.1828 94.5044 71.1969C94.5981 71.1998 94.6927 71.1919 94.6936 71.3251H88.5823C88.5882 71.2159 88.6585 71.201 88.7527 71.1936C89.0164 71.1733 89.2806 71.1493 89.5426 71.1142C89.836 71.0749 89.8817 71.0166 89.8817 70.7292C89.8817 67.0592 89.8804 63.3891 89.8808 59.7194C89.8808 59.4986 89.8662 59.2791 89.8377 59.0604C89.7896 58.6903 89.6066 58.4331 89.2219 58.345C89.0457 58.3049 88.8699 58.2628 88.6941 58.2218C88.6426 58.2098 88.5819 58.2156 88.5547 58.1503C88.5982 58.0738 88.6815 58.075 88.7519 58.0556C90.0043 57.7103 91.2572 57.3663 92.5101 57.0215C92.5432 57.0124 92.5742 56.9958 92.606 56.983C92.6776 56.921 92.7521 56.8747 92.8467 56.9404V56.94Z" fill="#000"/>
<path d="M9.89104 62.066C10.0187 62.0164 10.0606 62.1045 10.1104 62.1925C10.4377 62.7681 10.768 63.3424 11.0975 63.9172C11.28 64.2355 11.4972 64.5291 11.7338 64.8111C12.54 65.772 13.5924 66.1475 14.8285 66.0946C15.1216 66.0821 15.4125 66.0544 15.6967 65.9784C16.7072 65.7079 17.287 64.9591 17.3393 63.8713C17.3825 62.981 17.0359 62.281 16.3125 61.7542C15.7273 61.3283 15.0508 61.0898 14.3865 60.8256C13.7736 60.582 13.1524 60.3596 12.5538 60.0817C11.8899 59.7737 11.2766 59.3928 10.8522 58.7854C10.0924 57.698 10.1363 56.5287 10.6349 55.3808C11.2256 54.0213 12.3629 53.2956 13.8008 53.0186C15.0964 52.7689 16.3514 53.0029 17.5813 53.4102C17.7215 53.4565 17.8425 53.4676 17.9811 53.4147C18.2013 53.3308 18.4273 53.2621 18.6513 53.1877C18.6575 53.1857 18.6651 53.1877 18.6781 53.1877C18.7182 53.2985 18.7048 53.4164 18.7078 53.5309C18.7321 54.6324 18.7538 55.7344 18.7739 56.8359C18.7752 56.8933 18.8099 56.9777 18.7442 57.0037C18.6559 57.0389 18.6341 56.9413 18.6002 56.8876C17.9321 55.8237 17.264 54.7594 16.6005 53.6922C16.5277 53.5752 16.4418 53.4858 16.3146 53.4342C15.4929 53.1005 14.6489 53.0269 13.8042 53.3056C12.7899 53.6401 12.2738 54.6473 12.5747 55.6322C12.7175 56.0995 13.052 56.4166 13.4459 56.68C13.9808 57.0381 14.5853 57.2514 15.1839 57.4743C15.8215 57.7112 16.464 57.9366 17.0815 58.2227C18.2059 58.7445 19.0205 59.5479 19.3093 60.7673C19.8209 62.924 18.7191 64.9972 16.6164 65.9002C15.8817 66.2157 15.1136 66.3381 14.3153 66.3265C13.0197 66.3079 11.7421 66.1975 10.524 65.7125C10.3532 65.6443 10.264 65.5678 10.246 65.3689C10.169 64.5122 10.0723 63.6571 9.97811 62.8016C9.96304 62.6647 9.98649 62.5171 9.89062 62.3964V62.0656L9.89104 62.066Z" fill="#000"/>
<path d="M92.8471 56.9402C92.7668 56.9543 92.6868 56.9687 92.6064 56.9828C92.8329 55.7225 93.3424 54.5709 93.9858 53.4703C94.1415 53.1767 94.3265 52.9038 94.5622 52.666C94.5944 52.6168 94.6371 52.58 94.6928 52.5589C95.2558 51.9441 95.8908 51.4248 96.6891 51.1337C97.3861 50.8798 98.089 50.8657 98.7972 51.1051C99.3494 51.292 99.8605 51.543 100.314 51.9135C100.822 52.3282 101.42 52.5858 102.049 52.7463C102.748 52.924 103.306 52.6483 103.734 52.1033C103.875 51.9247 103.985 51.7229 104.107 51.5306C104.157 51.4516 104.209 51.3797 104.32 51.402V51.6501C104.213 51.8932 104.251 52.1591 104.198 52.4117C104.034 53.1916 103.799 53.9408 103.325 54.602C102.824 55.3016 102.129 55.6365 101.285 55.7477C100.517 55.849 99.8069 55.7088 99.1141 55.388C98.3765 55.0469 97.6298 54.7248 96.883 54.4031C96.5121 54.2431 96.1232 54.1401 95.7221 54.0727C95.1579 53.9776 94.674 54.1227 94.2545 54.4965C93.5584 55.1172 93.1674 55.9148 92.8986 56.7827C92.8823 56.8352 92.8643 56.8873 92.8476 56.9398L92.8471 56.9402Z" fill="#000"/>
<path d="M94.6076 52.6819C94.3732 52.9238 94.2008 53.2128 93.986 53.47C94.1648 53.0081 94.3506 52.5492 94.4226 52.0551C94.4754 51.6924 94.4917 51.3302 94.4356 50.966C94.3422 50.3606 93.9575 49.9988 93.4221 49.7474C92.8185 49.4642 92.1634 49.3538 91.5292 49.1727C91.088 49.0466 90.6367 48.9577 90.2035 48.8039C89.0703 48.4011 87.9522 47.2074 88.3494 45.6118C88.5261 44.9022 88.7739 44.2316 89.2352 43.6502C89.2901 43.5808 89.3311 43.5005 89.3784 43.4253C89.3922 43.4253 89.4064 43.4253 89.4202 43.4253C89.5128 43.6151 89.429 43.8053 89.4094 43.9913C89.3369 44.6798 89.6241 45.219 90.257 45.5192C90.6434 45.7023 91.0537 45.7962 91.4831 45.8243C92.2048 45.871 92.906 46.0327 93.5536 46.3449C94.498 46.8005 94.9279 47.6345 95.1112 48.6091C95.3574 49.9182 95.1062 51.1772 94.6763 52.414C94.665 52.4462 94.6549 52.4793 94.6445 52.512C94.6545 52.5736 94.5871 52.6186 94.6081 52.6823L94.6076 52.6819Z" fill="#000"/>
<path d="M75.5036 58.7668C75.9708 58.3289 76.4744 57.8943 77.0491 57.5495C77.6067 57.215 78.1878 56.9524 78.8529 56.8929C79.9493 56.7949 80.9539 57.5201 81.2536 58.5778C81.3416 58.8875 81.3483 58.8875 81.5831 58.6688C82.2805 58.0179 83.0105 57.4114 83.9298 57.0851C84.9169 56.7345 85.8324 56.8007 86.6148 57.5747C86.9785 57.9344 87.1133 58.3934 87.1987 58.8714C87.3122 59.504 87.3335 60.1437 87.3331 60.785C87.3318 62.3554 87.336 63.9258 87.3285 65.4962C87.3277 65.7013 87.3976 65.7943 87.5985 65.834C87.8656 65.8865 88.1335 65.9266 88.4039 65.9539C88.4914 65.9626 88.5927 65.951 88.6103 66.1044H88.4541C86.7939 66.1044 85.1341 66.1048 83.4739 66.1015C83.4158 66.1015 83.3099 66.1553 83.3011 66.0602C83.2919 65.9589 83.4024 65.9696 83.476 65.963C83.6632 65.9456 83.8515 65.9369 84.0378 65.9134C84.356 65.8733 84.3915 65.8282 84.392 65.5007C84.392 64.4331 84.3982 63.3655 84.3903 62.2979C84.3844 61.5201 84.4342 60.7407 84.3601 59.9646C84.2839 59.1658 83.8511 58.7333 83.0419 58.6431C82.6363 58.5981 82.2344 58.6225 81.8539 58.7945C81.5563 58.9288 81.3943 59.1219 81.3964 59.4771C81.4094 61.4953 81.4027 63.5131 81.4027 65.5313C81.4027 65.8158 81.4127 65.8352 81.694 65.8778C81.9418 65.915 82.1922 65.9353 82.4412 65.9613C82.5128 65.9688 82.5995 65.9754 82.5882 66.0655C82.579 66.1379 82.4948 66.1019 82.4463 66.1019C80.7932 66.104 79.1401 66.104 77.487 66.1019C77.4401 66.1019 77.3568 66.142 77.3484 66.0647C77.3413 65.9944 77.4117 65.9708 77.4816 65.9655C77.6967 65.9481 77.9132 65.9361 78.1262 65.9051C78.3866 65.8671 78.454 65.7794 78.454 65.5181C78.454 63.803 78.4536 62.0878 78.4553 60.3731C78.4553 60.1656 78.4406 59.9592 78.3979 59.7575C78.2547 59.0793 77.765 58.6985 77.014 58.6328C76.4861 58.5865 76.0102 58.7324 75.5388 58.9338C75.4216 58.9838 75.4446 59.069 75.4442 59.1542C75.4438 60.1875 75.4442 61.2204 75.4442 62.2536C75.4442 63.3419 75.4442 64.4302 75.4442 65.5185C75.4442 65.7972 75.4873 65.858 75.7682 65.8972C76.0093 65.9312 76.2538 65.9402 76.4966 65.9626C76.5627 65.9688 76.6598 65.9576 76.6485 66.0568C76.6381 66.1457 76.5456 66.1027 76.492 66.1027C74.8251 66.1052 73.1578 66.1052 71.4909 66.1027C71.4406 66.1027 71.3473 66.1482 71.3444 66.0494C71.3418 65.9704 71.4251 65.9663 71.4875 65.9626C71.7454 65.9469 72.0011 65.9196 72.2548 65.8716C72.4265 65.8389 72.5056 65.7418 72.5039 65.5706C72.4842 63.4565 72.547 61.3419 72.4687 59.2282C72.447 58.646 72.2573 58.4401 71.6805 58.3045C71.5587 58.276 71.436 58.2507 71.3138 58.2226C71.2627 58.2106 71.1844 58.2226 71.179 58.154C71.1731 58.0791 71.2585 58.0866 71.305 58.0733C71.7533 57.9476 72.2033 57.8277 72.6529 57.7058C73.5383 57.4651 74.4253 57.2298 75.3073 56.9784C75.5087 56.921 75.5124 56.9809 75.5082 57.1509C75.4953 57.6917 75.5036 58.2325 75.5036 58.768V58.7668Z" fill="#000"/>
<path d="M50.3685 58.414C50.3685 60.3838 50.3677 62.3532 50.3706 64.323C50.3706 64.4599 50.3903 64.598 50.4154 64.7328C50.4698 65.0276 50.6369 65.2343 50.9328 65.3224C51.1191 65.3778 51.3112 65.4146 51.4967 65.4725C51.5561 65.4907 51.6645 65.4638 51.6671 65.554C51.67 65.6548 51.5611 65.6209 51.5025 65.6325C50.3614 65.8512 49.2194 66.0663 48.0775 66.2813C47.8996 66.3148 47.7179 66.3342 47.5446 66.3834C47.3931 66.4264 47.3864 66.3623 47.388 66.2453C47.3956 65.6875 47.3977 65.1297 47.3993 64.5719C47.3993 64.5219 47.432 64.4495 47.3633 64.426C47.2943 64.4024 47.2754 64.481 47.2445 64.5194C46.8108 65.0665 46.3139 65.544 45.7036 65.898C44.4113 66.6468 43.0278 66.5302 41.8871 65.5668C40.9632 64.7861 40.486 63.7669 40.3286 62.5959C40.2127 61.7317 40.2633 60.8721 40.6028 60.058C41.2567 58.49 42.4769 57.5717 44.1112 57.1504C44.5097 57.0474 44.9157 56.9829 45.3293 56.9804C45.375 56.9804 45.4566 56.9387 45.4612 57.0267C45.4645 57.0937 45.4365 57.1566 45.3452 57.1714C44.6026 57.2934 44.2183 57.8041 43.9609 58.4388C43.5808 59.3765 43.5188 60.3648 43.5264 61.3592C43.5318 62.0729 43.6444 62.7708 43.9299 63.4324C44.1154 63.8624 44.3657 64.2478 44.7558 64.5281C45.3318 64.9424 46.1598 64.9726 46.7664 64.6038C47.1906 64.3458 47.4027 63.975 47.4027 63.4915C47.4014 60.5645 47.4002 57.6374 47.3998 54.7104C47.3998 54.5239 47.3851 54.3391 47.3575 54.1551C47.2993 53.7648 47.1218 53.5638 46.735 53.4745C46.5182 53.4245 46.2976 53.3914 46.079 53.3488C46.0146 53.3364 45.9091 53.36 45.9028 53.2793C45.8961 53.19 46.0091 53.2086 46.0677 53.1946C46.7915 53.0217 47.5166 52.8559 48.2416 52.6876C48.8783 52.54 49.5154 52.3949 50.1509 52.2415C50.3062 52.2039 50.3631 52.2192 50.3627 52.4023C50.3556 54.4065 50.3585 56.4106 50.3585 58.4148C50.3618 58.4148 50.3656 58.4148 50.3689 58.4148L50.3685 58.414Z" fill="#000"/>
<path d="M55.201 60.9036C55.2073 61.5982 55.265 62.3094 55.5179 62.9916C56.0499 64.4289 57.2036 64.909 58.5495 64.7725C59.5056 64.6757 60.1607 64.1486 60.5885 63.3183C60.6119 63.2732 60.6107 63.1781 60.7086 63.2149C60.8028 63.2505 60.7534 63.3166 60.7317 63.3691C60.3122 64.3776 59.7182 65.2542 58.7525 65.8302C56.4932 67.1773 52.6534 66.3404 52.0447 62.7932C51.7399 61.0177 52.2142 59.4394 53.5722 58.194C54.5949 57.2558 55.8465 56.8721 57.2333 56.8895C58.0538 56.8998 58.84 57.0516 59.5654 57.4415C60.0581 57.7061 60.4457 58.0704 60.6011 58.6257C60.7873 59.2914 60.514 59.9819 59.9405 60.3061C59.3787 60.624 58.6106 60.5066 58.1543 60.0332C57.7821 59.6474 57.6875 59.1037 57.9086 58.6174C58.0061 58.4028 58.1438 58.2126 58.2761 58.0187C58.4812 57.7185 58.4423 57.5519 58.1258 57.365C57.5544 57.0272 56.6829 57.1487 56.1705 57.6383C55.89 57.9066 55.6979 58.2312 55.5585 58.5881C55.2697 59.3257 55.2136 60.0997 55.2014 60.9031L55.201 60.9036Z" fill="#000"/>
<path d="M94.6071 52.6823C94.5443 52.61 94.6108 52.5645 94.6435 52.512C94.6598 52.5277 94.6761 52.5438 94.6924 52.5595C94.664 52.6004 94.6355 52.6414 94.6071 52.6823Z" fill="#000"/>
<path d="M71.0876 64.3187C71.0315 64.286 70.9905 64.2914 70.9457 64.3476C70.8385 64.4828 70.7318 64.6201 70.6096 64.7421C70.2278 65.1225 69.6556 65.0228 69.4153 64.5382C69.3177 64.3418 69.2897 64.1293 69.2985 63.9151C69.327 63.2134 69.3692 62.5122 69.3931 61.8101C69.4211 60.9848 69.499 60.1607 69.4563 59.3329C69.3893 58.0437 68.7643 57.2882 67.4926 57.0141C66.4017 56.7788 65.315 56.8793 64.24 57.1315C63.3789 57.3337 62.5635 57.6405 61.8799 58.2215C61.6706 58.3993 61.5019 58.6056 61.4048 58.8644C61.2273 59.3383 61.3319 59.8518 61.6618 60.1185C62.2047 60.5572 63.124 60.5494 63.6607 60.1011C64.1002 59.7344 64.1973 59.1832 63.9118 58.692C63.7795 58.4646 63.6163 58.2587 63.4601 58.0474C63.3316 57.8737 63.3568 57.736 63.5301 57.6058C63.6037 57.55 63.6883 57.5165 63.7775 57.5008C64.9948 57.2866 66.0266 57.6529 66.4042 59.0368C66.547 59.5595 66.4863 60.0896 66.4875 60.6184C66.4875 60.7524 66.4478 60.802 66.313 60.8384C65.3862 61.0869 64.4669 61.3602 63.5849 61.7394C62.9248 62.023 62.2826 62.341 61.7748 62.8628C60.8263 63.8378 61.0209 65.2887 62.1897 65.9916C63.0223 66.4927 64.0839 66.3947 64.9203 65.7398C65.4029 65.3619 65.8366 64.9347 66.2452 64.4807C66.2933 64.4274 66.3268 64.3526 66.4256 64.3306C66.5022 64.63 66.5608 64.9314 66.6876 65.2134C67.1661 66.2769 68.2905 66.6412 69.3152 66.0656C70.0419 65.6579 70.5631 65.0381 71.0826 64.4158C71.1085 64.3848 71.1458 64.3538 71.0868 64.3191L71.0876 64.3187ZM66.4946 61.175C66.4871 61.6426 66.4917 62.1103 66.4917 62.5779C66.4712 62.5779 66.4507 62.5779 66.4302 62.5779C66.4067 63.0451 66.3833 63.5128 66.3599 63.98C66.3573 64.0342 66.3573 64.0842 66.3205 64.1347C66.0091 64.563 65.4527 64.7793 64.9341 64.6602C64.4221 64.5423 64.1986 64.1648 64.1052 63.7017C63.9143 62.7569 64.2894 61.987 65.145 61.5235C65.5251 61.3176 65.9333 61.1832 66.3477 61.0625C66.4758 61.0253 66.4972 61.0493 66.4951 61.175H66.4946Z" fill="#000"/>
<path d="M29.6507 63.2204C29.5415 63.1654 29.5427 63.2729 29.5168 63.3234C28.8487 64.6316 27.6184 64.9715 26.3894 64.7247C25.3194 64.5097 24.6592 63.8088 24.2545 62.8437C23.9095 62.0213 23.9041 61.1538 23.9166 60.2843C23.9187 60.1363 23.9983 60.1247 24.1192 60.128C24.9975 60.1528 25.8761 60.1731 26.7544 60.195C26.7544 60.2082 26.7544 60.2214 26.7544 60.2347C27.633 60.2347 28.5117 60.2297 29.3899 60.2388C29.5524 60.2405 29.6093 60.2008 29.6152 60.0383C29.6574 58.828 29.0978 57.9543 28.0655 57.3581C27.1713 56.8416 26.1905 56.773 25.1896 56.8933C22.6215 57.2022 20.7767 59.246 20.7725 61.8018C20.77 63.3614 21.3581 64.6618 22.6382 65.6079C23.614 66.329 24.7375 66.5229 25.928 66.398C26.931 66.293 27.8097 65.9217 28.513 65.1874C29.0178 64.6602 29.3845 64.0486 29.6553 63.378C29.6758 63.3271 29.7412 63.2659 29.6512 63.2204H29.6507ZM23.9832 59.7199C24.0468 59.2274 24.1351 58.7428 24.3315 58.2822C24.4629 57.9742 24.6408 57.6967 24.8836 57.4643C25.4132 56.957 26.0578 57.0385 26.4438 57.6603C26.7012 58.0751 26.79 58.5406 26.841 59.0145C26.8674 59.2605 26.8687 59.509 26.8883 59.7559C26.8975 59.8741 26.8544 59.9088 26.736 59.9072C26.2968 59.901 25.8577 59.9047 25.419 59.9047C24.9937 59.9047 24.5688 59.8985 24.1439 59.908C23.9886 59.9113 23.9644 59.8671 23.9832 59.7203V59.7199Z" fill="#000"/>
<path d="M39.3941 63.215C39.2903 63.1745 39.2949 63.2845 39.2681 63.3353C38.9454 63.9419 38.4975 64.4166 37.8227 64.6349C36.4806 65.0691 34.8275 64.6986 34.0531 62.9462C33.6772 62.0957 33.6596 61.196 33.673 60.2913C33.6751 60.1577 33.7387 60.123 33.8706 60.1271C34.7559 60.1544 35.6413 60.1734 36.5267 60.1954C36.5267 60.2057 36.5267 60.2156 36.5267 60.226C37.3145 60.226 38.1027 60.2193 38.8905 60.2284C39.4092 60.2342 39.4238 60.2301 39.3786 59.7153C39.2861 58.6593 38.7503 57.8836 37.8302 57.3605C36.8708 56.8151 35.8247 56.7461 34.7677 56.9169C32.0086 57.3634 30.2442 59.7066 30.5648 62.4534C30.8327 64.7474 32.6076 66.3699 34.9468 66.4274C36.3705 66.4625 37.6083 66.035 38.5284 64.8987C38.8968 64.4439 39.1819 63.9419 39.4025 63.404C39.4268 63.3448 39.5113 63.2613 39.3933 63.215H39.3941ZM33.7396 59.7459C33.8019 59.2113 33.8995 58.6866 34.1297 58.1941C34.2833 57.8658 34.4855 57.571 34.7798 57.3485C35.2361 57.0037 35.7765 57.0789 36.1164 57.5346C36.4333 57.9592 36.5342 58.4575 36.5936 58.9652C36.6246 59.2311 36.6238 59.5003 36.643 59.7678C36.651 59.8766 36.6112 59.908 36.502 59.9067C36.0633 59.901 35.6241 59.9043 35.1854 59.9043C34.7534 59.9043 34.3214 59.9005 33.8898 59.9067C33.7634 59.9084 33.7237 59.884 33.7396 59.7459Z" fill="#000"/>
</svg>
