<svg width="56" height="56" viewBox="0 0 56 56" fill="none" xmlns="http://www.w3.org/2000/svg">
<path d="M49.1809 20.9318V9.35557C49.1809 8.44524 48.443 7.70728 47.5326 7.70728H6.42857C5.51824 7.70728 4.78027 8.44524 4.78027 9.35557V42.769C4.78027 43.6793 5.51824 44.4173 6.42857 44.4173H25.0247" stroke="#EDEEF7" stroke-width="1.5" stroke-linecap="round"/>
<path d="M5.12793 14.9993H49.0738" stroke="#EDEEF7" stroke-width="1.5"/>
<circle cx="37.4" cy="32.7215" r="11.7642" stroke="#EDEEF7" stroke-width="1.5"/>
<circle opacity="0.8" cx="8.81613" cy="11.4316" r="0.75" fill="#705B8C" stroke="#705B8C" stroke-width="0.665469"/>
<circle opacity="0.8" cx="13.2673" cy="11.4316" r="0.75" fill="#705B8C" stroke="#705B8C" stroke-width="0.665469"/>
<circle opacity="0.8" cx="17.7185" cy="11.4316" r="0.75" fill="#705B8C" stroke="#705B8C" stroke-width="0.665469"/>
<path opacity="0.8" d="M27.6885 10.6819C27.2743 10.6819 26.9385 11.0177 26.9385 11.4319C26.9385 11.8461 27.2743 12.1819 27.6885 12.1819V10.6819ZM45.1476 12.1819C45.5618 12.1819 45.8976 11.8461 45.8976 11.4319C45.8976 11.0177 45.5618 10.6819 45.1476 10.6819V12.1819ZM27.6885 12.1819H45.1476V10.6819H27.6885V12.1819Z" fill="#705B8C"/>
<circle opacity="0.8" cx="37.3989" cy="32.7214" r="8.35303" stroke="#705B8C" stroke-width="1.5"/>
<path d="M44.5908 42.136L50.4499 47.995C51.0936 48.6387 52.1372 48.6387 52.7809 47.995L52.8489 47.927C53.4926 47.2833 53.4926 46.2397 52.8489 45.596L46.9899 39.7369" stroke="#EDEEF7" stroke-width="1.5"/>
</svg>
