<svg width="25" height="25" viewBox="0 0 25 25" fill="none" xmlns="http://www.w3.org/2000/svg">
<path d="M7.23869 15.4493C7.23684 15.9703 7.02898 16.4695 6.66047 16.8378C6.29195 17.2061 5.79271 17.4137 5.27169 17.4153C4.75049 17.4137 4.2511 17.206 3.88256 16.8375C3.51402 16.4689 3.30627 15.9695 3.30469 15.4483C3.30469 14.3653 4.18869 13.4803 5.27169 13.4803H7.23969V15.4483L7.23869 15.4493ZM8.23069 15.4493C8.23069 14.3663 9.11469 13.4813 10.1977 13.4813C11.2807 13.4813 12.1657 14.3663 12.1657 15.4493V20.3763C12.1641 20.8977 11.9562 21.3972 11.5875 21.7658C11.2187 22.1344 10.7191 22.342 10.1977 22.3433C9.67649 22.3417 9.1771 22.134 8.80856 21.7655C8.44002 21.3969 8.23227 20.8975 8.23069 20.3763V15.4493ZM10.1977 7.46232C9.67667 7.46047 9.17753 7.25261 8.8092 6.8841C8.44088 6.51559 8.23327 6.01634 8.23169 5.49532C8.23169 4.41232 9.11569 3.52832 10.1987 3.52832C11.2817 3.52832 12.1667 4.41232 12.1667 5.49532V7.46332H10.1977V7.46232ZM10.1977 8.45432C11.2807 8.45432 12.1657 9.33832 12.1657 10.4213C12.1644 10.9429 11.9566 11.4427 11.5878 11.8114C11.219 12.1802 10.7192 12.388 10.1977 12.3893H5.27169C4.75032 12.3877 4.25078 12.1799 3.88221 11.8111C3.51364 11.4423 3.30601 10.9427 3.30469 10.4213C3.30469 9.33832 4.18869 8.45432 5.27169 8.45432H10.1987H10.1977ZM18.1847 10.4213C18.1847 9.33832 19.0697 8.45432 20.1527 8.45432C21.2357 8.45432 22.1197 9.33832 22.1197 10.4213C22.1184 10.9427 21.9107 11.4423 21.5422 11.8111C21.1736 12.1799 20.6741 12.3877 20.1527 12.3893H18.1847V10.4213V10.4213ZM17.1927 10.4213C17.1914 10.9427 16.9837 11.4423 16.6152 11.8111C16.2466 12.1799 15.7471 12.3877 15.2257 12.3893C14.7041 12.388 14.2043 12.1802 13.8356 11.8114C13.4668 11.4427 13.259 10.9429 13.2577 10.4213V5.49532C13.2577 4.41232 14.1427 3.52832 15.2257 3.52832C16.3087 3.52832 17.1927 4.41232 17.1927 5.49532V10.4223V10.4213ZM15.2257 18.4083C16.3087 18.4083 17.1927 19.2933 17.1927 20.3763C17.1911 20.8975 16.9834 21.3969 16.6148 21.7655C16.2463 22.134 15.7469 22.3417 15.2257 22.3433C14.7043 22.342 14.2047 22.1344 13.8359 21.7658C13.4672 21.3972 13.2593 20.8977 13.2577 20.3763V18.4083H15.2257ZM15.2257 17.4163C14.7043 17.415 14.2047 17.2074 13.8359 16.8388C13.4672 16.4702 13.2593 15.9707 13.2577 15.4493C13.2577 14.3663 14.1427 13.4813 15.2257 13.4813H20.1527C21.2357 13.4813 22.1197 14.3663 22.1197 15.4493C22.1181 15.9705 21.9104 16.4699 21.5418 16.8385C21.1733 17.207 20.6739 17.4147 20.1527 17.4163H15.2257V17.4163Z" fill="#000"/>
</svg>
