<svg width="31" height="30" viewBox="0 0 31 30" fill="none" xmlns="http://www.w3.org/2000/svg">
<path d="M8.82497 18.1425C8.82266 18.7937 8.56284 19.4177 8.10219 19.8781C7.64155 20.3385 7.0175 20.598 6.36622 20.6C5.71473 20.598 5.09048 20.3383 4.62981 19.8776C4.16913 19.4169 3.90945 18.7927 3.90747 18.1412C3.90747 16.7875 5.01247 15.6812 6.36622 15.6812H8.82622V18.1412L8.82497 18.1425ZM10.065 18.1425C10.065 16.7887 11.17 15.6825 12.5237 15.6825C13.8775 15.6825 14.9837 16.7887 14.9837 18.1425V24.3012C14.9817 24.9529 14.7219 25.5773 14.2609 26.0381C13.8 26.4988 13.1754 26.7583 12.5237 26.76C11.8722 26.758 11.248 26.4983 10.7873 26.0376C10.3266 25.5769 10.0669 24.9527 10.065 24.3012V18.1425ZM12.5237 8.15871C11.8724 8.1564 11.2485 7.89658 10.7881 7.43593C10.3277 6.97529 10.0682 6.35124 10.0662 5.69996C10.0662 4.34621 11.1712 3.24121 12.525 3.24121C13.8787 3.24121 14.985 4.34621 14.985 5.69996V8.15996H12.5237V8.15871ZM12.5237 9.39871C13.8775 9.39871 14.9837 10.5037 14.9837 11.8575C14.9821 12.5094 14.7224 13.1341 14.2614 13.5951C13.8004 14.0561 13.1756 14.3158 12.5237 14.3175H6.36622C5.71451 14.3155 5.09008 14.0556 4.62937 13.5947C4.16866 13.1337 3.90912 12.5092 3.90747 11.8575C3.90747 10.5037 5.01247 9.39871 6.36622 9.39871H12.525H12.5237ZM22.5075 11.8575C22.5075 10.5037 23.6137 9.39871 24.9675 9.39871C26.3212 9.39871 27.4262 10.5037 27.4262 11.8575C27.4246 12.5092 27.165 13.1337 26.7043 13.5947C26.2436 14.0556 25.6192 14.3155 24.9675 14.3175H22.5075V11.8575ZM21.2675 11.8575C21.2658 12.5092 21.0063 13.1337 20.5456 13.5947C20.0849 14.0556 19.4604 14.3155 18.8087 14.3175C18.1568 14.3158 17.532 14.0561 17.0711 13.5951C16.6101 13.1341 16.3504 12.5094 16.3487 11.8575V5.69996C16.3487 4.34621 17.455 3.24121 18.8087 3.24121C20.1625 3.24121 21.2675 4.34621 21.2675 5.69996V11.8587V11.8575ZM18.8087 21.8412C20.1625 21.8412 21.2675 22.9475 21.2675 24.3012C21.2655 24.9527 21.0058 25.5769 20.5451 26.0376C20.0845 26.4983 19.4602 26.758 18.8087 26.76C18.157 26.7583 17.5324 26.4988 17.0715 26.0381C16.6106 25.5773 16.3507 24.9529 16.3487 24.3012V21.8412H18.8087ZM18.8087 20.6012C18.157 20.5996 17.5324 20.34 17.0715 19.8793C16.6106 19.4186 16.3507 18.7942 16.3487 18.1425C16.3487 16.7887 17.455 15.6825 18.8087 15.6825H24.9675C26.3212 15.6825 27.4262 16.7887 27.4262 18.1425C27.4242 18.794 27.1646 19.4182 26.7039 19.8789C26.2432 20.3396 25.619 20.5992 24.9675 20.6012H18.8087Z" fill="#000"/>
</svg>
