<svg width="25" height="25" viewBox="0 0 25 25" fill="none" xmlns="http://www.w3.org/2000/svg">
<path fill-rule="evenodd" clip-rule="evenodd" d="M7.29172 5.20817C7.29172 4.9319 7.18198 4.66695 6.98663 4.4716C6.79128 4.27625 6.52632 4.1665 6.25006 4.1665C5.97379 4.1665 5.70884 4.27625 5.51349 4.4716C5.31814 4.66695 5.20839 4.9319 5.20839 5.20817V17.2769L3.86152 15.93C3.66506 15.7403 3.40193 15.6353 3.12881 15.6377C2.85568 15.64 2.59442 15.7496 2.40129 15.9427C2.20816 16.1359 2.0986 16.3971 2.09623 16.6703C2.09386 16.9434 2.19885 17.2065 2.3886 17.403L5.5136 20.528C5.70894 20.7232 5.97384 20.8329 6.25006 20.8329C6.52627 20.8329 6.79117 20.7232 6.98652 20.528L10.1115 17.403C10.3013 17.2065 10.4063 16.9434 10.4039 16.6703C10.4015 16.3971 10.292 16.1359 10.0988 15.9427C9.90569 15.7496 9.64443 15.64 9.37131 15.6377C9.09819 15.6353 8.83506 15.7403 8.6386 15.93L7.29172 17.2769V5.20817ZM13.5417 6.24984C13.2655 6.24984 13.0005 6.35958 12.8052 6.55493C12.6098 6.75028 12.5001 7.01524 12.5001 7.2915C12.5001 7.56777 12.6098 7.83272 12.8052 8.02807C13.0005 8.22342 13.2655 8.33317 13.5417 8.33317H21.8751C22.1513 8.33317 22.4163 8.22342 22.6116 8.02807C22.807 7.83272 22.9167 7.56777 22.9167 7.2915C22.9167 7.01524 22.807 6.75028 22.6116 6.55493C22.4163 6.35958 22.1513 6.24984 21.8751 6.24984H13.5417ZM13.5417 11.4582C13.2655 11.4582 13.0005 11.5679 12.8052 11.7633C12.6098 11.9586 12.5001 12.2236 12.5001 12.4998C12.5001 12.7761 12.6098 13.0411 12.8052 13.2364C13.0005 13.4318 13.2655 13.5415 13.5417 13.5415H17.7084C17.9847 13.5415 18.2496 13.4318 18.445 13.2364C18.6403 13.0411 18.7501 12.7761 18.7501 12.4998C18.7501 12.2236 18.6403 11.9586 18.445 11.7633C18.2496 11.5679 17.9847 11.4582 17.7084 11.4582H13.5417ZM13.5417 16.6665C13.2655 16.6665 13.0005 16.7762 12.8052 16.9716C12.6098 17.167 12.5001 17.4319 12.5001 17.7082C12.5001 17.9844 12.6098 18.2494 12.8052 18.4447C13.0005 18.6401 13.2655 18.7498 13.5417 18.7498H14.5834C14.8597 18.7498 15.1246 18.6401 15.32 18.4447C15.5153 18.2494 15.6251 17.9844 15.6251 17.7082C15.6251 17.4319 15.5153 17.167 15.32 16.9716C15.1246 16.7762 14.8597 16.6665 14.5834 16.6665H13.5417Z" fill="#000"/>
</svg>
