<svg width="50" height="50" viewBox="0 0 50 50" fill="none" xmlns="http://www.w3.org/2000/svg">
<path d="M33.0357 36.5224C29.317 38.5557 24.2059 38.7647 19.0613 36.6783C15.0501 35.0655 11.6205 32.2955 9.21729 28.7276C10.3341 29.5748 11.5543 30.2791 12.849 30.8239C18.1609 33.179 23.4695 33.0164 27.2083 30.8239C21.8863 26.9563 17.3676 21.9278 14.0004 17.8214C13.3359 17.1275 12.7428 16.3697 12.2297 15.5593C16.2999 19.0786 22.7733 23.52 25.0762 24.7771C21.7882 21.4385 18.7666 17.8521 16.0388 14.0501C20.5733 18.4168 25.5629 22.2939 30.9237 25.6163C31.1613 25.7423 31.3454 25.8485 31.4927 25.948C31.6498 25.5678 31.785 25.1791 31.8977 24.7837C33.1395 20.5082 31.7203 15.6488 28.6208 11.6254C35.7971 15.7284 40.0648 23.437 38.2774 29.8918C38.2305 30.0676 38.1803 30.2235 38.1268 30.406L38.1904 30.4789C41.735 34.6683 40.761 39.103 40.3158 38.2738C38.3912 34.6981 34.8332 35.8027 33.0357 36.5224Z" fill="#000"/>
</svg>
