<svg width="29" height="25" viewBox="0 0 29 25" fill="none" xmlns="http://www.w3.org/2000/svg">
<path d="M21.507 22.9035C18.2084 24.7071 13.6745 24.8925 9.11103 23.0418C5.55292 21.6111 2.51069 19.154 0.378906 15.9891C1.36961 16.7406 2.45197 17.3654 3.60038 17.8486C8.31234 19.9377 13.0213 19.7935 16.3378 17.8486C11.6169 14.4179 7.60866 9.95736 4.62175 6.31479C4.03232 5.6992 3.50618 5.02701 3.0511 4.30814C6.66152 7.42993 12.4038 11.3697 14.4465 12.4848C11.5299 9.52334 8.84964 6.34198 6.42993 2.9694C10.4522 6.84289 14.8782 10.2821 19.6335 13.2292C19.8443 13.341 20.0076 13.4352 20.1383 13.5234C20.2777 13.1862 20.3976 12.8414 20.4975 12.4907C21.5991 8.69806 20.3402 4.38759 17.5908 0.818573C23.9565 4.4582 27.7421 11.2961 26.1566 17.0218C26.1151 17.1778 26.0705 17.3161 26.023 17.4779L26.0794 17.5426C29.2237 21.2587 28.3597 25.1926 27.9648 24.457C26.2576 21.2852 23.1014 22.265 21.507 22.9035Z" fill="#000"/>
</svg>
