<svg width="50" height="50" viewBox="0 0 50 50" fill="none" xmlns="http://www.w3.org/2000/svg">
<path fill-rule="evenodd" clip-rule="evenodd" d="M39.3111 25C39.3111 32.9038 32.9038 39.3111 25 39.3111C17.0962 39.3111 10.6889 32.9038 10.6889 25C10.6889 17.0962 17.0962 10.6889 25 10.6889C32.9038 10.6889 39.3111 17.0962 39.3111 25ZM27.5904 17.9448C28.5344 16.8349 29.8026 16.0343 31.2574 15.9836L31.2703 15.9815C32.7228 15.933 33.8209 16.5914 33.8564 17.6323C33.8715 18.0773 33.6161 18.9394 32.7293 18.9685C32.0677 18.9922 31.6108 18.5978 31.5892 17.9944C31.5817 17.7735 31.6388 17.5709 31.7897 17.3554C31.8149 17.3062 31.8367 17.2645 31.8556 17.2285C31.9479 17.0518 31.9689 17.0118 31.9653 16.9071C31.9513 16.5289 31.378 16.5138 31.2218 16.5213C29.0722 16.5903 28.5075 19.4907 28.0485 21.8483L27.8221 23.0923C29.0591 23.2744 29.9373 23.0503 30.4276 22.7335C30.8447 22.4637 30.6867 22.1887 30.5213 21.9008C30.4132 21.7127 30.3019 21.519 30.3457 21.3176C30.4589 20.7982 30.9298 20.5482 31.3069 20.5374C31.8317 20.5255 32.2056 21.0697 32.1948 21.6225C32.1765 22.5363 30.9632 23.7916 28.5387 23.741L27.7176 23.6828L27.2607 26.2086L27.2473 26.2709C26.8382 28.1788 26.2849 30.759 24.3588 33.0145C22.6854 35.0047 20.9882 35.3129 20.2285 35.3388C18.8061 35.3873 17.8633 34.6297 17.8288 33.6168C17.7965 32.6373 18.6628 32.1018 19.2318 32.0824C19.9904 32.0554 20.5141 32.6072 20.5356 33.2408C20.555 33.7763 20.2749 33.9444 20.0895 34.0457C20.0718 34.06 20.0527 34.0744 20.0331 34.0892C19.9169 34.1769 19.7813 34.2791 19.7878 34.4681C19.791 34.5629 19.8923 34.7806 20.208 34.7698C20.7885 34.749 21.1802 34.4711 21.4587 34.2735C21.4687 34.2664 21.4785 34.2595 21.4882 34.2526C22.875 33.0985 23.4084 31.0867 24.1067 27.423L24.2521 26.5351C24.4892 25.3433 24.7543 24.0158 25.1573 22.6925C24.8588 22.468 24.597 22.227 24.34 21.9905C23.7545 21.4515 23.1938 20.9354 22.2802 20.6883C21.3804 20.4447 20.8309 20.6527 20.4451 21.1408C19.9882 21.7184 20.1499 22.4813 20.5809 22.9123L21.3104 23.7184C22.2048 24.742 22.6929 25.5459 22.5097 26.6278C22.2177 28.3562 20.1606 29.6816 17.7275 28.9338C15.651 28.3045 15.2653 26.8347 15.5131 26.0243C15.7329 25.3099 16.2997 25.1752 16.8536 25.3455C17.4463 25.5287 17.679 26.2496 17.5088 26.8034C17.507 26.8088 17.5052 26.8145 17.5032 26.8205C17.4836 26.8809 17.4535 26.9738 17.3967 27.0944C17.3685 27.1579 17.3297 27.2182 17.2902 27.2798C17.2344 27.3666 17.1771 27.4559 17.1456 27.5599C17.012 27.9952 17.6079 28.3045 18.0228 28.4305C18.9516 28.7182 19.8578 28.2301 20.0884 27.479C20.3018 26.7894 19.8654 26.3045 19.6844 26.1213L18.8051 25.1795C18.4021 24.7313 17.5185 23.4824 17.9495 22.0783C18.1154 21.5385 18.4667 20.9641 18.9753 20.5837C19.4441 20.2197 19.9937 19.9739 20.5776 19.8672C21.1615 19.7605 21.7625 19.7959 22.3298 19.9706C23.4017 20.2818 24.0588 20.8951 24.6988 21.4924C24.9119 21.6912 25.123 21.8883 25.3469 22.0718C25.8491 20.601 26.5452 19.1603 27.5904 17.9448Z" fill="#000"/>
</svg>
