<svg width="28" height="28" viewBox="0 0 28 28" fill="none" xmlns="http://www.w3.org/2000/svg">
<path d="M13.8789 27.6842C21.3348 27.6842 27.3789 21.6401 27.3789 14.1842C27.3789 6.72839 21.3348 0.684235 13.8789 0.684235C6.42306 0.684235 0.378906 6.72839 0.378906 14.1842C0.378906 21.6401 6.42306 27.6842 13.8789 27.6842Z" fill="#000"/>
<path d="M19.7816 5.67887C18.4094 5.72664 17.213 6.4819 16.3225 7.52888C15.3365 8.67548 14.6799 10.0345 14.2062 11.422C13.3605 10.7288 12.7079 9.83123 11.36 9.43988C10.8249 9.27512 10.258 9.24166 9.70716 9.34233C9.15637 9.44301 8.63793 9.67486 8.19569 10.0183C7.7159 10.3771 7.38453 10.9189 7.22799 11.4281C6.82139 12.7526 7.65491 13.9307 8.03508 14.3536L8.86454 15.242C9.03531 15.4148 9.44698 15.8722 9.24572 16.5228C9.02819 17.2313 8.17332 17.6917 7.29711 17.4203C6.90576 17.3014 6.34364 17.0097 6.46969 16.599C6.52051 16.4313 6.64249 16.3042 6.70653 16.1599C6.76549 16.0349 6.79395 15.9414 6.81224 15.8854C6.97285 15.363 6.75329 14.6829 6.19422 14.5101C5.67174 14.3495 5.13707 14.4766 4.92971 15.1505C4.69591 15.9149 5.05982 17.3014 7.01859 17.895C9.31382 18.6005 11.2543 17.3502 11.5298 15.7198C11.7026 14.6992 11.2421 13.9409 10.3984 12.9752L9.71026 12.2149C9.30366 11.8083 9.15119 11.0886 9.58218 10.5438C9.94608 10.0833 10.4645 9.88714 11.3133 10.1169C12.5534 10.4523 13.1043 11.3133 14.0273 12.0075C13.6471 13.2558 13.3971 14.5081 13.1734 15.6323L13.0362 16.4699C12.3775 19.926 11.8744 21.8238 10.5661 22.9124C10.3019 23.0995 9.92575 23.38 9.35855 23.4004C9.06072 23.4105 8.96517 23.2052 8.96212 23.1157C8.955 22.9074 9.13086 22.8108 9.24674 22.7173C9.42157 22.6217 9.68586 22.4632 9.66756 21.958C9.64723 21.3603 9.15322 20.8398 8.43761 20.8652C7.9009 20.8835 7.08365 21.3887 7.11414 22.3127C7.14667 23.2682 8.0361 23.9828 9.37786 23.9371C10.0945 23.9127 11.6955 23.6219 13.2741 21.7445C15.1109 19.5936 15.6242 17.1296 16.0115 15.3243L16.4425 12.9417L17.217 12.9966C19.5041 13.0444 20.6487 11.8601 20.666 10.9982C20.6761 10.4767 20.3234 9.96337 19.8284 9.97455C19.4726 9.98472 19.0284 10.2205 18.9217 10.7105C18.817 11.1913 19.6495 11.6253 18.9989 12.0462C18.5364 12.345 17.708 12.5564 16.5411 12.3847L16.7545 11.2116C17.1876 8.98754 17.7202 6.25115 19.7481 6.1861C19.8955 6.17898 20.4363 6.19321 20.4495 6.55C20.4535 6.66893 20.4241 6.69942 20.2838 6.97286C20.1415 7.17616 20.0876 7.36726 20.0947 7.57564C20.115 8.14487 20.546 8.51691 21.1702 8.49454C22.0067 8.4671 22.2476 7.65391 22.2334 7.2341C22.1999 6.25217 21.1641 5.63109 19.7938 5.67683L19.7816 5.67887Z" fill="black"/>
</svg>
