<svg width="31" height="25" viewBox="0 0 31 25" fill="none" xmlns="http://www.w3.org/2000/svg">
<path d="M30.319 3.2481C29.2056 3.74057 28.0249 4.064 26.816 4.20769C28.0903 3.44561 29.0439 2.24625 29.4994 0.833104C28.3035 1.54477 26.9925 2.04352 25.626 2.31331C24.7082 1.33124 23.4916 0.679926 22.1653 0.460624C20.8391 0.241322 19.4776 0.46632 18.2925 1.10064C17.1073 1.73496 16.1649 2.74306 15.6118 3.96822C15.0587 5.19338 14.9259 6.56695 15.234 7.8754C12.8089 7.75385 10.4365 7.12366 8.27083 6.02574C6.10514 4.92782 4.19456 3.38672 2.66312 1.50248C2.12105 2.43355 1.83618 3.49198 1.83771 4.56935C1.83771 6.68394 2.91396 8.55206 4.55021 9.64581C3.58189 9.61533 2.63488 9.35383 1.78812 8.88311V8.95894C1.78842 10.3673 2.27575 11.7321 3.16749 12.8222C4.05923 13.9122 5.30049 14.6603 6.68083 14.9396C5.78194 15.1832 4.83941 15.2191 3.92458 15.0446C4.31376 16.2568 5.0723 17.3169 6.09399 18.0766C7.11567 18.8363 8.34935 19.2574 9.62229 19.281C8.35716 20.2746 6.90859 21.0091 5.35941 21.4425C3.81023 21.8759 2.19081 21.9997 0.59375 21.8069C3.38164 23.5998 6.62702 24.5516 9.94167 24.5485C21.1606 24.5485 27.2958 15.2546 27.2958 7.19436C27.2958 6.93186 27.2885 6.66644 27.2769 6.40685C28.4711 5.54377 29.5017 4.47459 30.3204 3.24956L30.319 3.2481Z" fill="#000"/>
</svg>
