<svg width="25" height="25" viewBox="0 0 25 25" fill="none" xmlns="http://www.w3.org/2000/svg">
<path d="M22.8713 6.59147C22.1078 6.92917 21.2982 7.15095 20.4693 7.24947C21.343 6.72691 21.997 5.90449 22.3093 4.93547C21.4893 5.42347 20.5903 5.76547 19.6533 5.95047C19.0239 5.27705 18.1896 4.83044 17.2802 4.68006C16.3708 4.52968 15.4372 4.68396 14.6245 5.11893C13.8119 5.55389 13.1657 6.24516 12.7864 7.08527C12.4071 7.92538 12.316 8.86725 12.5273 9.76447C10.8644 9.68113 9.23761 9.249 7.75257 8.49614C6.26752 7.74328 4.95741 6.68652 3.90728 5.39447C3.53557 6.03292 3.34024 6.7587 3.34128 7.49747C3.34128 8.94747 4.07928 10.2285 5.20128 10.9785C4.53729 10.9576 3.88791 10.7783 3.30728 10.4555V10.5075C3.30748 11.4732 3.64165 12.4091 4.25313 13.1565C4.86461 13.904 5.71576 14.4169 6.66228 14.6085C6.0459 14.7755 5.39959 14.8001 4.77228 14.6805C5.03915 15.5117 5.55929 16.2387 6.25987 16.7596C6.96046 17.2805 7.80641 17.5693 8.67928 17.5855C7.81176 18.2668 6.81846 18.7705 5.75616 19.0676C4.69387 19.3648 3.58341 19.4497 2.48828 19.3175C4.39998 20.5469 6.62538 21.1996 8.89828 21.1975C16.5913 21.1975 20.7983 14.8245 20.7983 9.29747C20.7983 9.11747 20.7933 8.93547 20.7853 8.75747C21.6041 8.16564 22.3109 7.43249 22.8723 6.59247L22.8713 6.59147Z" fill="#000"/>
</svg>
