<svg width="31" height="20" viewBox="0 0 31 20" fill="none" xmlns="http://www.w3.org/2000/svg">
<path fill-rule="evenodd" clip-rule="evenodd" d="M9.6466 0.353027C9.92648 0.353105 10.2004 0.433722 10.4358 0.585255C10.6711 0.736789 10.8578 0.952837 10.9737 1.20761L16.2776 12.8743L18.2653 17.2493C18.4153 17.5996 18.4222 17.9948 18.2845 18.3501C18.1468 18.7055 17.8755 18.9928 17.5286 19.1506C17.1817 19.3085 16.7868 19.3242 16.4285 19.1945C16.0701 19.0648 15.7767 18.8 15.6112 18.4568L14.0099 14.9364H5.28327L3.68202 18.4568C3.51645 18.8 3.22309 19.0648 2.86473 19.1945C2.50637 19.3242 2.11148 19.3085 1.76459 19.1506C1.4177 18.9928 1.14636 18.7055 1.00867 18.3501C0.870975 17.9948 0.877859 17.5996 1.02785 17.2493L3.01556 12.8743L8.31952 1.20761C8.43539 0.952837 8.62213 0.736789 8.85744 0.585255C9.09276 0.433722 9.36671 0.353105 9.6466 0.353027V0.353027ZM6.60889 12.0197H12.6843L9.6466 5.33615L6.60889 12.0197ZM22.3443 13.9957C21.691 14.4187 21.4051 14.878 21.3453 15.1624C21.2826 15.4614 21.3249 15.6145 21.3556 15.6874C21.414 15.8082 21.5062 15.9095 21.621 15.9791C21.9797 16.2284 22.6053 16.3947 23.2601 16.3947C24.1074 16.3947 24.9139 16.1555 25.5176 15.7793C26.1258 15.3987 26.4276 14.948 26.5093 14.5601C26.5589 14.3297 26.502 14.0891 26.2366 13.8455C25.9508 13.583 25.4053 13.3278 24.596 13.3278C23.7851 13.3278 22.9728 13.5903 22.3443 13.9957V13.9957ZM20.7606 11.5457C21.9054 10.8111 23.2357 10.4176 24.596 10.4112C25.4987 10.4112 26.3547 10.5949 27.0941 10.9493L27.1451 10.4141C27.1276 10.2362 27.011 9.95615 26.5924 9.66303C26.1403 9.34511 25.4403 9.10303 24.596 9.10303C23.1201 9.10303 22.2758 9.79574 22.0949 10.2289C21.9456 10.5859 21.6606 10.8689 21.3026 11.0158C20.9446 11.1626 20.543 11.1613 20.186 11.012C19.829 10.8627 19.5459 10.5777 19.3991 10.2197C19.2522 9.8617 19.2536 9.46002 19.4028 9.10303C20.1991 7.19844 22.4289 6.18636 24.5945 6.18636C25.9653 6.18636 27.2676 6.57428 28.2681 7.27573C29.2626 7.97573 30.0618 9.07823 30.0618 10.4607C30.0616 10.507 30.0592 10.5532 30.0545 10.5993L29.3866 17.6387C29.359 17.9278 29.2457 18.2022 29.0612 18.4266C28.8767 18.651 28.6294 18.8151 28.3509 18.898C28.0725 18.9809 27.7757 18.9787 27.4985 18.8918C27.2213 18.8049 26.9764 18.6371 26.7951 18.4101C25.7115 19.0047 24.4947 19.3148 23.2587 19.3114C22.2422 19.3114 20.9662 19.0766 19.957 18.378C19.3857 17.9925 18.9372 17.4508 18.6649 16.8176C18.3733 16.1234 18.3222 15.3564 18.4899 14.5601C18.7656 13.2593 19.712 12.2239 20.7591 11.5457H20.7606Z" fill="#000"/>
</svg>
