<svg width="25" height="25" viewBox="0 0 25 25" fill="none" xmlns="http://www.w3.org/2000/svg">
<path fill-rule="evenodd" clip-rule="evenodd" d="M8.33333 6.25C8.53325 6.25006 8.72893 6.30764 8.89702 6.41588C9.0651 6.52412 9.19848 6.67844 9.28125 6.86042L13.0698 15.1938L14.4896 18.3188C14.5967 18.569 14.6016 18.8512 14.5033 19.1051C14.4049 19.3589 14.2111 19.5641 13.9633 19.6769C13.7156 19.7896 13.4335 19.8008 13.1775 19.7082C12.9216 19.6156 12.712 19.4264 12.5938 19.1813L11.45 16.6667H5.21667L4.07292 19.1813C3.95466 19.4264 3.74511 19.6156 3.48914 19.7082C3.23317 19.8008 2.95111 19.7896 2.70333 19.6769C2.45555 19.5641 2.26174 19.3589 2.16338 19.1051C2.06503 18.8512 2.06995 18.569 2.17708 18.3188L3.59688 15.1938L7.38542 6.86042C7.46818 6.67844 7.60157 6.52412 7.76965 6.41588C7.93774 6.30764 8.13342 6.25006 8.33333 6.25ZM6.16354 14.5833H10.5031L8.33333 9.80938L6.16354 14.5833ZM17.4031 15.9948C16.9365 16.2969 16.7323 16.625 16.6896 16.8281C16.6448 17.0417 16.675 17.151 16.6969 17.2031C16.7387 17.2894 16.8045 17.3618 16.8865 17.4115C17.1427 17.5896 17.5896 17.7083 18.0573 17.7083C18.6625 17.7083 19.2385 17.5375 19.6698 17.2688C20.1042 16.9969 20.3198 16.675 20.3781 16.3979C20.4135 16.2333 20.3729 16.0615 20.1833 15.8875C19.9792 15.7 19.5896 15.5177 19.0115 15.5177C18.4323 15.5177 17.8521 15.7052 17.4031 15.9948ZM16.2719 14.2448C17.0896 13.7201 18.0398 13.439 19.0115 13.4344C19.6563 13.4344 20.2677 13.5656 20.7958 13.8188L20.8323 13.4365C20.8198 13.3094 20.7365 13.1094 20.4375 12.9C20.1146 12.6729 19.6146 12.5 19.0115 12.5C17.9573 12.5 17.3542 12.9948 17.225 13.3042C17.1184 13.5592 16.9148 13.7614 16.6591 13.8663C16.4034 13.9712 16.1165 13.9702 15.8615 13.8635C15.6065 13.7569 15.4043 13.5533 15.2994 13.2976C15.1945 13.0419 15.1954 12.755 15.3021 12.5C15.8708 11.1396 17.4635 10.4167 19.0104 10.4167C19.9896 10.4167 20.9198 10.6937 21.6344 11.1948C22.3448 11.6948 22.9156 12.4823 22.9156 13.4698C22.9155 13.5028 22.9137 13.5359 22.9104 13.5688L22.4333 18.5969C22.4136 18.8034 22.3327 18.9994 22.2009 19.1597C22.0691 19.3199 21.8925 19.4372 21.6936 19.4964C21.4947 19.5556 21.2827 19.5541 21.0847 19.492C20.8867 19.4299 20.7118 19.3101 20.5823 19.1479C19.8083 19.5726 18.9392 19.7941 18.0563 19.7917C17.3302 19.7917 16.4188 19.624 15.6979 19.125C15.2898 18.8496 14.9695 18.4627 14.775 18.0104C14.5667 17.5146 14.5302 16.9667 14.65 16.3979C14.8469 15.4688 15.5229 14.7292 16.2708 14.2448H16.2719Z" fill="#000"/>
</svg>
