<svg width="117" height="117" viewBox="0 0 117 117" fill="none" xmlns="http://www.w3.org/2000/svg">
<rect x="1.02051" y="1.29004" width="115" height="115" rx="15.5" stroke="#EDEEF7" stroke-opacity="0.3"/>
<path d="M57.2081 52.267C53.6738 52.267 51.1254 54.5658 51.1254 58.0139C51.1254 61.4621 53.9907 63.7608 57.5283 63.7608C59.6634 63.7608 61.5459 62.9179 62.7111 61.4972L60.2621 60.086C59.6155 60.7916 58.6326 61.2034 57.5283 61.2034C55.9947 61.2034 54.6919 60.4053 54.2083 59.1282H63.1787C63.2489 58.7706 63.2907 58.4002 63.2907 58.0107C63.2907 54.5658 60.7456 52.267 57.2081 52.267ZM54.1827 56.8965C54.5829 55.6226 55.6778 54.8212 57.2081 54.8212C58.7414 54.8212 59.8364 55.6226 60.2334 56.8965H54.1827ZM53.4593 48.755L44.5883 64.0801L35.7143 48.755H39.0404L44.5852 58.3332L50.1299 48.755H53.4593ZM23.4755 47.1587L35.3045 67.5921H11.6465L23.4755 47.1587ZM76.1601 58.0139C76.1601 59.9296 77.415 61.2066 79.3614 61.2066C80.6805 61.2066 81.6697 60.6096 82.1786 59.6358L84.6372 61.0502C83.6191 62.7423 81.7112 63.7608 79.3614 63.7608C75.8238 63.7608 73.2789 61.4621 73.2789 58.0139C73.2789 54.5658 75.8271 52.267 79.3614 52.267C81.7112 52.267 83.6161 53.2855 84.6372 54.9776L82.1786 56.392C81.6697 55.4183 80.6805 54.8212 79.3614 54.8212C77.4183 54.8212 76.1601 56.0983 76.1601 58.0139ZM102.565 48.755V63.4415H99.6837V48.755H102.565ZM91.6802 52.267C88.1459 52.267 85.5977 54.5658 85.5977 58.0139C85.5977 61.4621 88.4661 63.7608 92.0004 63.7608C94.1355 63.7608 96.018 62.9179 97.1832 61.4972L94.7342 60.086C94.0876 60.7916 93.1048 61.2034 92.0004 61.2034C90.4669 61.2034 89.164 60.4053 88.6805 59.1282H97.6508C97.7211 58.7706 97.7627 58.4002 97.7627 58.0107C97.7627 54.5658 95.2178 52.267 91.6802 52.267ZM88.6548 56.8965C89.0552 55.6226 90.1468 54.8212 91.6802 54.8212C93.2136 54.8212 94.3085 55.6226 94.7055 56.8965H88.6548ZM72.3184 52.5863V55.68C71.9984 55.5875 71.6589 55.5236 71.294 55.5236C69.434 55.5236 68.0927 56.8007 68.0927 58.7163V63.4415H65.2115V52.5863H68.0927V55.5236C68.0927 53.9017 69.9846 52.5863 72.3184 52.5863Z" fill="#000"/>
</svg>
