<svg width="25" height="25" viewBox="0 0 25 25" fill="none" xmlns="http://www.w3.org/2000/svg">
<path fill-rule="evenodd" clip-rule="evenodd" d="M3.68326 5.51975C3.84991 5.48815 4.02176 5.49773 4.18388 5.54766C4.34599 5.59758 4.49346 5.68633 4.61347 5.80621L7.18742 8.38017C7.26523 8.46186 7.35858 8.52716 7.462 8.57223C7.56542 8.6173 7.67681 8.64123 7.78961 8.64261C7.90241 8.64398 8.01435 8.62278 8.11884 8.58024C8.22333 8.53771 8.31825 8.4747 8.39802 8.39493C8.47779 8.31516 8.5408 8.22024 8.58333 8.11575C8.62587 8.01127 8.64707 7.89933 8.64569 7.78652C8.64432 7.67372 8.62039 7.56233 8.57532 7.45891C8.53025 7.35549 8.46495 7.26214 8.38326 7.18434L5.81034 4.61142C5.69033 4.4914 5.60146 4.34388 5.55146 4.18168C5.50147 4.01948 5.49187 3.84752 5.5235 3.68076C5.55512 3.514 5.62702 3.3575 5.73293 3.22487C5.83884 3.09224 5.97555 2.98749 6.13117 2.91975C7.15598 2.47299 8.28231 2.31089 9.3915 2.45054C10.5007 2.59019 11.5517 3.02641 12.4338 3.71324C13.3159 4.40008 13.9964 5.3121 14.4036 6.35324C14.8109 7.39438 14.9298 8.52608 14.7478 9.62913L21.9135 16.7948C22.2566 17.1293 22.5298 17.5286 22.7174 17.9696C22.905 18.4106 23.0031 18.8844 23.0061 19.3636C23.0092 19.8428 22.917 20.3178 22.735 20.7611C22.553 21.2044 22.2849 21.6072 21.946 21.946C21.6072 22.2849 21.2044 22.5531 20.7611 22.7351C20.3178 22.9171 19.8428 23.0092 19.3636 23.0062C18.8844 23.0032 18.4105 22.905 17.9696 22.7174C17.5286 22.5299 17.1293 22.2566 16.7947 21.9135L9.62909 14.7479C8.52542 14.9301 7.39305 14.811 6.35138 14.4033C5.30972 13.9957 4.39738 13.3144 3.71059 12.4315C3.0238 11.5485 2.58801 10.4966 2.44918 9.38666C2.31035 8.27671 2.47363 7.14986 2.9218 6.12496C2.9899 5.96974 3.09486 5.83349 3.22755 5.72802C3.36025 5.62256 3.51667 5.55107 3.68326 5.51975ZM4.48534 8.62496C4.48613 9.25876 4.63284 9.88387 4.91411 10.4518C5.19538 11.0198 5.60366 11.5154 6.10729 11.9002C6.61093 12.2849 7.1964 12.5486 7.81833 12.6707C8.44027 12.7927 9.08196 12.77 9.69367 12.6041C9.87071 12.5566 10.0572 12.5565 10.2342 12.6041C10.4113 12.6516 10.5726 12.7451 10.702 12.875L18.2676 20.4395C18.5585 20.7132 18.9445 20.8629 19.3439 20.8568C19.7432 20.8508 20.1245 20.6894 20.407 20.407C20.6894 20.1246 20.8507 19.7433 20.8568 19.3439C20.8629 18.9446 20.7132 18.5585 20.4395 18.2677L12.8749 10.702C12.7452 10.5728 12.6519 10.4116 12.6043 10.2347C12.5568 10.0579 12.5567 9.87164 12.6041 9.69475C12.7698 9.08355 12.7927 8.4424 12.6709 7.82094C12.5492 7.19948 12.2861 6.61436 11.902 6.11085C11.518 5.60734 11.0232 5.19894 10.456 4.91726C9.88883 4.63558 9.26445 4.48816 8.63117 4.48642L9.85722 5.71142C10.4066 6.26078 10.7152 7.00587 10.7152 7.78277C10.7152 8.55968 10.4066 9.30477 9.85722 9.85413C9.30786 10.4035 8.56277 10.7121 7.78586 10.7121C7.00895 10.7121 6.26386 10.4035 5.71451 9.85413L4.48534 8.62496Z" fill="#000"/>
</svg>
